<?xml version="1.0" encoding="utf-8" standalone="no"?>
<!DOCTYPE svg PUBLIC "-//W3C//DTD SVG 1.1//EN"
  "http://www.w3.org/Graphics/SVG/1.1/DTD/svg11.dtd">
<svg xmlns:xlink="http://www.w3.org/1999/xlink" width="760.15625pt" height="565.442969pt" viewBox="0 0 760.15625 565.442969" xmlns="http://www.w3.org/2000/svg" version="1.1">
 <metadata>
  <rdf:RDF xmlns:dc="http://purl.org/dc/elements/1.1/" xmlns:cc="http://creativecommons.org/ns#" xmlns:rdf="http://www.w3.org/1999/02/22-rdf-syntax-ns#">
   <cc:Work>
    <dc:type rdf:resource="http://purl.org/dc/dcmitype/StillImage"/>
    <dc:date>2024-10-28T15:41:38.161037</dc:date>
    <dc:format>image/svg+xml</dc:format>
    <dc:creator>
     <cc:Agent>
      <dc:title>Matplotlib v3.6.2, https://matplotlib.org/</dc:title>
     </cc:Agent>
    </dc:creator>
   </cc:Work>
  </rdf:RDF>
 </metadata>
 <defs>
  <style type="text/css">*{stroke-linejoin: round; stroke-linecap: butt}</style>
 </defs>
 <g id="figure_1">
  <g id="patch_1">
   <path d="M 0 565.442969 
L 760.15625 565.442969 
L 760.15625 0 
L 0 0 
L 0 565.442969 
z
" style="fill: none"/>
  </g>
  <g id="axes_1">
   <g id="patch_2">
    <path d="M 232.75625 527.4 
L 752.95625 527.4 
L 752.95625 7.2 
L 232.75625 7.2 
L 232.75625 527.4 
z
" style="fill: none"/>
   </g>
   <g id="patch_3">
    <path d="M 232.75625 503.754545 
L 363.956146 503.754545 
L 363.956146 482.500204 
L 232.75625 482.500204 
z
" clip-path="url(#p40c2955c91)" style="fill: #7bb5c4"/>
   </g>
   <g id="patch_4">
    <path d="M 232.75625 477.186619 
L 410.975165 477.186619 
L 410.975165 455.932278 
L 232.75625 455.932278 
z
" clip-path="url(#p40c2955c91)" style="fill: #7bb5c4"/>
   </g>
   <g id="patch_5">
    <path d="M 232.75625 450.618693 
L 451.353325 450.618693 
L 451.353325 429.364351 
L 232.75625 429.364351 
z
" clip-path="url(#p40c2955c91)" style="fill: #7bb5c4"/>
   </g>
   <g id="patch_6">
    <path d="M 232.75625 424.050766 
L 455.723675 424.050766 
L 455.723675 402.796425 
L 232.75625 402.796425 
z
" clip-path="url(#p40c2955c91)" style="fill: #7bb5c4"/>
   </g>
   <g id="patch_7">
    <path d="M 232.75625 397.48284 
L 458.587124 397.48284 
L 458.587124 376.228498 
L 232.75625 376.228498 
z
" clip-path="url(#p40c2955c91)" style="fill: #7bb5c4"/>
   </g>
   <g id="patch_8">
    <path d="M 232.75625 370.914913 
L 459.705617 370.914913 
L 459.705617 349.660572 
L 232.75625 349.660572 
z
" clip-path="url(#p40c2955c91)" style="fill: #7bb5c4"/>
   </g>
   <g id="patch_9">
    <path d="M 232.75625 344.346987 
L 461.951068 344.346987 
L 461.951068 323.092646 
L 232.75625 323.092646 
z
" clip-path="url(#p40c2955c91)" style="fill: #7bb5c4"/>
   </g>
   <g id="patch_10">
    <path d="M 232.75625 317.77906 
L 469.208571 317.77906 
L 469.208571 296.524719 
L 232.75625 296.524719 
z
" clip-path="url(#p40c2955c91)" style="fill: #7bb5c4"/>
   </g>
   <g id="patch_11">
    <path d="M 232.75625 291.211134 
L 475.118669 291.211134 
L 475.118669 269.956793 
L 232.75625 269.956793 
z
" clip-path="url(#p40c2955c91)" style="fill: #7bb5c4"/>
   </g>
   <g id="patch_12">
    <path d="M 232.75625 264.643207 
L 490.285876 264.643207 
L 490.285876 243.388866 
L 232.75625 243.388866 
z
" clip-path="url(#p40c2955c91)" style="fill: #7bb5c4"/>
   </g>
   <g id="patch_13">
    <path d="M 232.75625 238.075281 
L 512.364507 238.075281 
L 512.364507 216.82094 
L 232.75625 216.82094 
z
" clip-path="url(#p40c2955c91)" style="fill: #9fc1ad"/>
   </g>
   <g id="patch_14">
    <path d="M 232.75625 211.507354 
L 529.929548 211.507354 
L 529.929548 190.253013 
L 232.75625 190.253013 
z
" clip-path="url(#p40c2955c91)" style="fill: #7bb5c4"/>
   </g>
   <g id="patch_15">
    <path d="M 232.75625 184.939428 
L 568.278641 184.939428 
L 568.278641 163.685087 
L 232.75625 163.685087 
z
" clip-path="url(#p40c2955c91)" style="fill: #7bb5c4"/>
   </g>
   <g id="patch_16">
    <path d="M 232.75625 158.371502 
L 574.115933 158.371502 
L 574.115933 137.11716 
L 232.75625 137.11716 
z
" clip-path="url(#p40c2955c91)" style="fill: #7bb5c4"/>
   </g>
   <g id="patch_17">
    <path d="M 232.75625 131.803575 
L 601.268247 131.803575 
L 601.268247 110.549234 
L 232.75625 110.549234 
z
" clip-path="url(#p40c2955c91)" style="fill: #7bb5c4"/>
   </g>
   <g id="patch_18">
    <path d="M 232.75625 105.235649 
L 602.883848 105.235649 
L 602.883848 83.981307 
L 232.75625 83.981307 
z
" clip-path="url(#p40c2955c91)" style="fill: #7bb5c4"/>
   </g>
   <g id="patch_19">
    <path d="M 232.75625 78.667722 
L 617.409691 78.667722 
L 617.409691 57.413381 
L 232.75625 57.413381 
z
" clip-path="url(#p40c2955c91)" style="fill: #7bb5c4"/>
   </g>
   <g id="patch_20">
    <path d="M 232.75625 52.099796 
L 728.184821 52.099796 
L 728.184821 30.845455 
L 232.75625 30.845455 
z
" clip-path="url(#p40c2955c91)" style="fill: #7bb5c4"/>
   </g>
   <g id="matplotlib.axis_1">
    <g id="xtick_1">
     <g id="line2d_1">
      <path d="M 232.75625 527.4 
L 232.75625 7.2 
" clip-path="url(#p40c2955c91)" style="fill: none; stroke: #b0b0b0; stroke-width: 0.5; stroke-linecap: square"/>
     </g>
     <g id="line2d_2">
      <defs>
       <path id="mf97ce84cd5" d="M 0 0 
L 0 3.5 
" style="stroke: #000000; stroke-width: 0.8"/>
      </defs>
      <g>
       <use xlink:href="#mf97ce84cd5" x="232.75625" y="527.4" style="stroke: #000000; stroke-width: 0.8"/>
      </g>
     </g>
     <g id="text_1">
      <!-- 0 -->
      <g transform="translate(229.604922 542.352656) scale(0.11 -0.11)">
       <defs>
        <path id="Archivo-Regular-30" d="M 1837 -77 
Q 1478 -77 1196 28 
Q 915 134 716 393 
Q 518 653 416 1091 
Q 314 1530 314 2195 
Q 314 2861 416 3299 
Q 518 3738 716 3997 
Q 915 4256 1196 4361 
Q 1478 4467 1837 4467 
Q 2195 4467 2473 4361 
Q 2752 4256 2950 3997 
Q 3149 3738 3251 3299 
Q 3354 2861 3354 2195 
Q 3354 1530 3251 1091 
Q 3149 653 2950 393 
Q 2752 134 2473 28 
Q 2195 -77 1837 -77 
z
M 1837 397 
Q 2202 397 2403 582 
Q 2605 768 2685 1133 
Q 2765 1498 2765 2042 
L 2765 2336 
Q 2765 2886 2685 3254 
Q 2605 3622 2403 3808 
Q 2202 3994 1837 3994 
Q 1472 3994 1267 3808 
Q 1062 3622 982 3257 
Q 902 2893 902 2342 
L 902 2054 
Q 902 1510 982 1139 
Q 1062 768 1267 582 
Q 1472 397 1837 397 
z
" transform="scale(0.015625)"/>
       </defs>
       <use xlink:href="#Archivo-Regular-30"/>
      </g>
     </g>
    </g>
    <g id="xtick_2">
     <g id="line2d_3">
      <path d="M 300.482113 527.4 
L 300.482113 7.2 
" clip-path="url(#p40c2955c91)" style="fill: none; stroke: #b0b0b0; stroke-width: 0.5; stroke-linecap: square"/>
     </g>
     <g id="line2d_4">
      <g>
       <use xlink:href="#mf97ce84cd5" x="300.482113" y="527.4" style="stroke: #000000; stroke-width: 0.8"/>
      </g>
     </g>
     <g id="text_2">
      <!-- 200,000 -->
      <g transform="translate(280.083129 542.352656) scale(0.11 -0.11)">
       <defs>
        <path id="Archivo-Regular-32" d="M 320 0 
L 320 186 
Q 320 454 425 681 
Q 531 909 707 1097 
Q 883 1286 1107 1459 
Q 1331 1632 1562 1798 
Q 1875 2016 2140 2233 
Q 2406 2451 2566 2704 
Q 2726 2957 2726 3270 
Q 2726 3469 2633 3632 
Q 2541 3795 2355 3891 
Q 2170 3987 1882 3987 
Q 1542 3987 1337 3872 
Q 1133 3757 1040 3565 
Q 947 3373 947 3142 
L 947 2880 
L 390 2880 
Q 384 2912 377 2979 
Q 371 3046 371 3136 
Q 371 3610 582 3901 
Q 794 4192 1146 4329 
Q 1498 4467 1907 4467 
Q 2272 4467 2534 4368 
Q 2797 4269 2969 4096 
Q 3142 3923 3225 3702 
Q 3309 3482 3309 3238 
Q 3309 2938 3203 2688 
Q 3098 2438 2909 2224 
Q 2720 2010 2467 1811 
Q 2214 1613 1920 1408 
Q 1715 1274 1516 1123 
Q 1318 973 1177 819 
Q 1037 666 998 525 
L 3334 525 
L 3334 0 
L 320 0 
z
" transform="scale(0.015625)"/>
        <path id="Archivo-Regular-2c" d="M 506 -941 
L 506 -678 
Q 627 -653 707 -557 
Q 787 -461 825 -317 
Q 864 -173 864 0 
L 570 0 
L 570 672 
L 1190 672 
L 1190 70 
Q 1190 -301 1084 -509 
Q 979 -717 822 -813 
Q 666 -909 506 -941 
z
" transform="scale(0.015625)"/>
       </defs>
       <use xlink:href="#Archivo-Regular-32"/>
       <use xlink:href="#Archivo-Regular-30" x="56.699997"/>
       <use xlink:href="#Archivo-Regular-30" x="113.999985"/>
       <use xlink:href="#Archivo-Regular-2c" x="171.299973"/>
       <use xlink:href="#Archivo-Regular-30" x="198.999969"/>
       <use xlink:href="#Archivo-Regular-30" x="256.299957"/>
       <use xlink:href="#Archivo-Regular-30" x="313.599945"/>
      </g>
     </g>
    </g>
    <g id="xtick_3">
     <g id="line2d_5">
      <path d="M 368.207976 527.4 
L 368.207976 7.2 
" clip-path="url(#p40c2955c91)" style="fill: none; stroke: #b0b0b0; stroke-width: 0.5; stroke-linecap: square"/>
     </g>
     <g id="line2d_6">
      <g>
       <use xlink:href="#mf97ce84cd5" x="368.207976" y="527.4" style="stroke: #000000; stroke-width: 0.8"/>
      </g>
     </g>
     <g id="text_3">
      <!-- 400,000 -->
      <g transform="translate(347.875163 542.352656) scale(0.11 -0.11)">
       <defs>
        <path id="Archivo-Regular-34" d="M 2221 0 
L 2221 1075 
L 179 1075 
L 179 1549 
Q 448 2010 669 2477 
Q 890 2944 1066 3437 
Q 1242 3930 1357 4467 
L 1958 4467 
Q 1875 4115 1753 3747 
Q 1632 3379 1485 3033 
Q 1338 2688 1194 2387 
Q 1050 2086 925 1868 
Q 800 1651 723 1549 
L 2221 1549 
L 2221 2944 
Q 2259 3046 2300 3158 
Q 2342 3270 2380 3388 
Q 2419 3507 2451 3612 
Q 2483 3718 2502 3814 
L 2784 3814 
L 2784 1549 
L 3366 1549 
L 3366 1075 
L 2784 1075 
L 2784 0 
L 2221 0 
z
" transform="scale(0.015625)"/>
       </defs>
       <use xlink:href="#Archivo-Regular-34"/>
       <use xlink:href="#Archivo-Regular-30" x="55.499985"/>
       <use xlink:href="#Archivo-Regular-30" x="112.799973"/>
       <use xlink:href="#Archivo-Regular-2c" x="170.09996"/>
       <use xlink:href="#Archivo-Regular-30" x="197.799957"/>
       <use xlink:href="#Archivo-Regular-30" x="255.099945"/>
       <use xlink:href="#Archivo-Regular-30" x="312.399933"/>
      </g>
     </g>
    </g>
    <g id="xtick_4">
     <g id="line2d_7">
      <path d="M 435.933839 527.4 
L 435.933839 7.2 
" clip-path="url(#p40c2955c91)" style="fill: none; stroke: #b0b0b0; stroke-width: 0.5; stroke-linecap: square"/>
     </g>
     <g id="line2d_8">
      <g>
       <use xlink:href="#mf97ce84cd5" x="435.933839" y="527.4" style="stroke: #000000; stroke-width: 0.8"/>
      </g>
     </g>
     <g id="text_4">
      <!-- 600,000 -->
      <g transform="translate(415.502198 542.352656) scale(0.11 -0.11)">
       <defs>
        <path id="Archivo-Regular-36" d="M 1920 -77 
Q 1542 -77 1244 32 
Q 947 141 739 384 
Q 531 627 422 1040 
Q 314 1453 314 2067 
Q 314 2746 422 3203 
Q 531 3661 732 3939 
Q 934 4218 1232 4342 
Q 1530 4467 1907 4467 
Q 2381 4467 2672 4288 
Q 2963 4109 3097 3805 
Q 3232 3501 3232 3110 
L 2656 3110 
Q 2656 3405 2573 3603 
Q 2490 3802 2314 3898 
Q 2138 3994 1875 3994 
Q 1491 3994 1276 3792 
Q 1062 3590 982 3206 
Q 902 2822 896 2291 
Q 986 2438 1149 2560 
Q 1312 2682 1536 2755 
Q 1760 2829 2010 2829 
Q 2483 2829 2790 2640 
Q 3098 2451 3245 2124 
Q 3392 1798 3392 1395 
Q 3392 954 3200 621 
Q 3008 288 2675 105 
Q 2342 -77 1920 -77 
z
M 1882 397 
Q 2195 397 2400 534 
Q 2605 672 2704 899 
Q 2803 1126 2803 1402 
Q 2803 1664 2707 1881 
Q 2611 2099 2409 2230 
Q 2208 2362 1894 2362 
Q 1581 2362 1369 2227 
Q 1158 2093 1056 1872 
Q 954 1651 954 1370 
Q 954 1107 1056 883 
Q 1158 659 1363 528 
Q 1568 397 1882 397 
z
" transform="scale(0.015625)"/>
       </defs>
       <use xlink:href="#Archivo-Regular-36"/>
       <use xlink:href="#Archivo-Regular-30" x="57.299988"/>
       <use xlink:href="#Archivo-Regular-30" x="114.599976"/>
       <use xlink:href="#Archivo-Regular-2c" x="171.899963"/>
       <use xlink:href="#Archivo-Regular-30" x="199.59996"/>
       <use xlink:href="#Archivo-Regular-30" x="256.899948"/>
       <use xlink:href="#Archivo-Regular-30" x="314.199936"/>
      </g>
     </g>
    </g>
    <g id="xtick_5">
     <g id="line2d_9">
      <path d="M 503.659702 527.4 
L 503.659702 7.2 
" clip-path="url(#p40c2955c91)" style="fill: none; stroke: #b0b0b0; stroke-width: 0.5; stroke-linecap: square"/>
     </g>
     <g id="line2d_10">
      <g>
       <use xlink:href="#mf97ce84cd5" x="503.659702" y="527.4" style="stroke: #000000; stroke-width: 0.8"/>
      </g>
     </g>
     <g id="text_5">
      <!-- 800,000 -->
      <g transform="translate(483.222046 542.352656) scale(0.11 -0.11)">
       <defs>
        <path id="Archivo-Regular-38" d="M 1837 -77 
Q 1293 -77 953 96 
Q 614 269 457 557 
Q 301 845 301 1197 
Q 301 1555 480 1830 
Q 659 2106 1043 2253 
Q 736 2413 579 2675 
Q 422 2938 422 3258 
Q 422 3597 579 3869 
Q 736 4141 1053 4304 
Q 1370 4467 1837 4467 
Q 2304 4467 2617 4304 
Q 2931 4141 3091 3869 
Q 3251 3597 3251 3258 
Q 3251 2938 3091 2675 
Q 2931 2413 2624 2253 
Q 3014 2106 3190 1830 
Q 3366 1555 3366 1197 
Q 3366 845 3209 557 
Q 3053 269 2717 96 
Q 2381 -77 1837 -77 
z
M 1837 390 
Q 2304 390 2541 608 
Q 2778 826 2778 1203 
Q 2778 1574 2541 1792 
Q 2304 2010 1837 2010 
Q 1370 2010 1130 1792 
Q 890 1574 890 1203 
Q 890 826 1130 608 
Q 1370 390 1837 390 
z
M 1837 2477 
Q 2227 2477 2451 2678 
Q 2675 2880 2675 3245 
Q 2675 3603 2451 3801 
Q 2227 4000 1837 4000 
Q 1446 4000 1222 3801 
Q 998 3603 998 3245 
Q 998 2880 1222 2678 
Q 1446 2477 1837 2477 
z
" transform="scale(0.015625)"/>
       </defs>
       <use xlink:href="#Archivo-Regular-38"/>
       <use xlink:href="#Archivo-Regular-30" x="57.399994"/>
       <use xlink:href="#Archivo-Regular-30" x="114.699982"/>
       <use xlink:href="#Archivo-Regular-2c" x="171.999969"/>
       <use xlink:href="#Archivo-Regular-30" x="199.699966"/>
       <use xlink:href="#Archivo-Regular-30" x="256.999954"/>
       <use xlink:href="#Archivo-Regular-30" x="314.299942"/>
      </g>
     </g>
    </g>
    <g id="xtick_6">
     <g id="line2d_11">
      <path d="M 571.385565 527.4 
L 571.385565 7.2 
" clip-path="url(#p40c2955c91)" style="fill: none; stroke: #b0b0b0; stroke-width: 0.5; stroke-linecap: square"/>
     </g>
     <g id="line2d_12">
      <g>
       <use xlink:href="#mf97ce84cd5" x="571.385565" y="527.4" style="stroke: #000000; stroke-width: 0.8"/>
      </g>
     </g>
     <g id="text_6">
      <!-- 1,000,000 -->
      <g transform="translate(546.565096 542.352656) scale(0.11 -0.11)">
       <defs>
        <path id="Archivo-Regular-31" d="M 429 0 
L 429 480 
L 1536 480 
L 1536 3520 
L 422 3520 
L 422 3878 
Q 659 3898 912 3949 
Q 1165 4000 1408 4112 
Q 1651 4224 1850 4403 
L 2106 4403 
L 2106 480 
L 3149 480 
L 3149 0 
L 429 0 
z
" transform="scale(0.015625)"/>
       </defs>
       <use xlink:href="#Archivo-Regular-31"/>
       <use xlink:href="#Archivo-Regular-2c" x="52.099991"/>
       <use xlink:href="#Archivo-Regular-30" x="79.799988"/>
       <use xlink:href="#Archivo-Regular-30" x="137.099976"/>
       <use xlink:href="#Archivo-Regular-30" x="194.399963"/>
       <use xlink:href="#Archivo-Regular-2c" x="251.699951"/>
       <use xlink:href="#Archivo-Regular-30" x="279.399948"/>
       <use xlink:href="#Archivo-Regular-30" x="336.699936"/>
       <use xlink:href="#Archivo-Regular-30" x="393.999924"/>
      </g>
     </g>
    </g>
    <g id="xtick_7">
     <g id="line2d_13">
      <path d="M 639.111428 527.4 
L 639.111428 7.2 
" clip-path="url(#p40c2955c91)" style="fill: none; stroke: #b0b0b0; stroke-width: 0.5; stroke-linecap: square"/>
     </g>
     <g id="line2d_14">
      <g>
       <use xlink:href="#mf97ce84cd5" x="639.111428" y="527.4" style="stroke: #000000; stroke-width: 0.8"/>
      </g>
     </g>
     <g id="text_7">
      <!-- 1,200,000 -->
      <g transform="translate(614.323615 542.352656) scale(0.11 -0.11)">
       <use xlink:href="#Archivo-Regular-31"/>
       <use xlink:href="#Archivo-Regular-2c" x="52.099991"/>
       <use xlink:href="#Archivo-Regular-32" x="79.799988"/>
       <use xlink:href="#Archivo-Regular-30" x="136.499985"/>
       <use xlink:href="#Archivo-Regular-30" x="193.799973"/>
       <use xlink:href="#Archivo-Regular-2c" x="251.09996"/>
       <use xlink:href="#Archivo-Regular-30" x="278.799957"/>
       <use xlink:href="#Archivo-Regular-30" x="336.099945"/>
       <use xlink:href="#Archivo-Regular-30" x="393.399933"/>
      </g>
     </g>
    </g>
    <g id="xtick_8">
     <g id="line2d_15">
      <path d="M 706.837291 527.4 
L 706.837291 7.2 
" clip-path="url(#p40c2955c91)" style="fill: none; stroke: #b0b0b0; stroke-width: 0.5; stroke-linecap: square"/>
     </g>
     <g id="line2d_16">
      <g>
       <use xlink:href="#mf97ce84cd5" x="706.837291" y="527.4" style="stroke: #000000; stroke-width: 0.8"/>
      </g>
     </g>
     <g id="text_8">
      <!-- 1,400,000 -->
      <g transform="translate(682.11565 542.352656) scale(0.11 -0.11)">
       <use xlink:href="#Archivo-Regular-31"/>
       <use xlink:href="#Archivo-Regular-2c" x="52.099991"/>
       <use xlink:href="#Archivo-Regular-34" x="79.799988"/>
       <use xlink:href="#Archivo-Regular-30" x="135.299973"/>
       <use xlink:href="#Archivo-Regular-30" x="192.59996"/>
       <use xlink:href="#Archivo-Regular-2c" x="249.899948"/>
       <use xlink:href="#Archivo-Regular-30" x="277.599945"/>
       <use xlink:href="#Archivo-Regular-30" x="334.899933"/>
       <use xlink:href="#Archivo-Regular-30" x="392.199921"/>
      </g>
     </g>
    </g>
    <g id="text_9">
     <!-- Remuneración [pesos] -->
     <g transform="translate(437.482422 556.340312) scale(0.11 -0.11)">
      <defs>
       <path id="Archivo-Regular-52" d="M 550 0 
L 550 4390 
L 2861 4390 
Q 3309 4390 3606 4227 
Q 3904 4064 4051 3773 
Q 4198 3482 4198 3104 
Q 4198 2650 3993 2323 
Q 3789 1997 3430 1856 
L 4352 0 
L 3686 0 
L 2829 1747 
L 1158 1747 
L 1158 0 
L 550 0 
z
M 1158 2266 
L 2803 2266 
Q 3168 2266 3376 2490 
Q 3584 2714 3584 3104 
Q 3584 3347 3494 3513 
Q 3405 3680 3232 3773 
Q 3059 3866 2803 3866 
L 1158 3866 
L 1158 2266 
z
" transform="scale(0.015625)"/>
       <path id="Archivo-Regular-65" d="M 1786 -77 
Q 1286 -77 944 112 
Q 602 301 426 691 
Q 250 1082 250 1683 
Q 250 2291 426 2678 
Q 602 3066 947 3254 
Q 1293 3443 1811 3443 
Q 2285 3443 2605 3260 
Q 2925 3078 3088 2716 
Q 3251 2355 3251 1811 
L 3251 1542 
L 832 1542 
Q 845 1139 950 880 
Q 1056 621 1267 502 
Q 1478 384 1798 384 
Q 2016 384 2179 438 
Q 2342 493 2454 595 
Q 2566 698 2624 838 
Q 2682 979 2688 1146 
L 3238 1146 
Q 3232 877 3136 649 
Q 3040 422 2854 262 
Q 2669 102 2400 12 
Q 2131 -77 1786 -77 
z
M 845 1965 
L 2669 1965 
Q 2669 2246 2605 2438 
Q 2541 2630 2422 2752 
Q 2304 2874 2147 2928 
Q 1990 2982 1792 2982 
Q 1498 2982 1293 2873 
Q 1088 2765 979 2541 
Q 870 2317 845 1965 
z
" transform="scale(0.015625)"/>
       <path id="Archivo-Regular-6d" d="M 442 0 
L 442 3366 
L 896 3366 
L 947 2861 
L 992 2861 
Q 1120 3066 1280 3194 
Q 1440 3322 1632 3382 
Q 1824 3443 2048 3443 
Q 2374 3443 2611 3312 
Q 2848 3181 2963 2861 
L 3002 2861 
Q 3123 3066 3283 3190 
Q 3443 3315 3641 3379 
Q 3840 3443 4064 3443 
Q 4371 3443 4601 3337 
Q 4832 3232 4963 2992 
Q 5094 2752 5094 2349 
L 5094 0 
L 4531 0 
L 4531 2259 
Q 4531 2464 4483 2598 
Q 4435 2733 4345 2806 
Q 4256 2880 4137 2912 
Q 4019 2944 3885 2944 
Q 3661 2944 3472 2829 
Q 3283 2714 3168 2496 
Q 3053 2278 3053 1978 
L 3053 0 
L 2490 0 
L 2490 2259 
Q 2490 2464 2438 2598 
Q 2387 2733 2304 2806 
Q 2221 2880 2102 2912 
Q 1984 2944 1856 2944 
Q 1626 2944 1430 2829 
Q 1235 2714 1120 2496 
Q 1005 2278 1005 1978 
L 1005 0 
L 442 0 
z
" transform="scale(0.015625)"/>
       <path id="Archivo-Regular-75" d="M 1485 -77 
Q 998 -77 704 172 
Q 410 422 410 1043 
L 410 3366 
L 973 3366 
L 973 1120 
Q 973 909 1024 774 
Q 1075 640 1171 563 
Q 1267 486 1398 454 
Q 1530 422 1683 422 
Q 1926 422 2131 537 
Q 2336 653 2467 873 
Q 2598 1094 2598 1389 
L 2598 3366 
L 3162 3366 
L 3162 0 
L 2707 0 
L 2656 506 
L 2611 506 
Q 2477 301 2307 173 
Q 2138 45 1930 -16 
Q 1722 -77 1485 -77 
z
" transform="scale(0.015625)"/>
       <path id="Archivo-Regular-6e" d="M 442 0 
L 442 3366 
L 896 3366 
L 947 2861 
L 992 2861 
Q 1126 3066 1296 3194 
Q 1466 3322 1674 3382 
Q 1882 3443 2118 3443 
Q 2438 3443 2678 3334 
Q 2918 3226 3056 2982 
Q 3194 2739 3194 2323 
L 3194 0 
L 2630 0 
L 2630 2246 
Q 2630 2458 2576 2592 
Q 2522 2726 2429 2803 
Q 2336 2880 2205 2912 
Q 2074 2944 1914 2944 
Q 1677 2944 1465 2829 
Q 1254 2714 1129 2496 
Q 1005 2278 1005 1978 
L 1005 0 
L 442 0 
z
" transform="scale(0.015625)"/>
       <path id="Archivo-Regular-72" d="M 442 0 
L 442 3366 
L 896 3366 
L 947 2810 
L 992 2810 
Q 1043 2970 1132 3114 
Q 1222 3258 1376 3350 
Q 1530 3443 1754 3443 
Q 1850 3443 1930 3427 
Q 2010 3411 2048 3392 
L 2048 2874 
L 1837 2874 
Q 1619 2874 1462 2800 
Q 1306 2726 1203 2592 
Q 1101 2458 1053 2272 
Q 1005 2086 1005 1875 
L 1005 0 
L 442 0 
z
" transform="scale(0.015625)"/>
       <path id="Archivo-Regular-61" d="M 1286 -77 
Q 1101 -77 915 -32 
Q 730 13 570 115 
Q 410 218 314 400 
Q 218 582 218 858 
Q 218 1203 384 1427 
Q 550 1651 848 1776 
Q 1146 1901 1555 1949 
Q 1965 1997 2445 1997 
L 2445 2381 
Q 2445 2566 2381 2700 
Q 2317 2835 2153 2908 
Q 1990 2982 1690 2982 
Q 1402 2982 1232 2908 
Q 1062 2835 995 2720 
Q 928 2605 928 2464 
L 928 2368 
L 384 2368 
Q 378 2400 378 2432 
Q 378 2464 378 2509 
Q 378 2816 547 3024 
Q 717 3232 1024 3337 
Q 1331 3443 1728 3443 
Q 2150 3443 2435 3321 
Q 2720 3200 2864 2976 
Q 3008 2752 3008 2438 
L 3008 614 
Q 3008 493 3065 445 
Q 3123 397 3206 397 
L 3456 397 
L 3456 26 
Q 3366 -13 3257 -41 
Q 3149 -70 3008 -70 
Q 2842 -70 2733 -3 
Q 2624 64 2566 182 
Q 2509 301 2490 448 
L 2445 448 
Q 2330 288 2154 169 
Q 1978 51 1760 -13 
Q 1542 -77 1286 -77 
z
M 1427 397 
Q 1632 397 1814 461 
Q 1997 525 2137 643 
Q 2278 762 2361 928 
Q 2445 1094 2445 1293 
L 2445 1574 
Q 1926 1574 1561 1516 
Q 1197 1459 1001 1312 
Q 806 1165 806 896 
Q 806 723 883 614 
Q 960 506 1101 451 
Q 1242 397 1427 397 
z
" transform="scale(0.015625)"/>
       <path id="Archivo-Regular-63" d="M 1722 -77 
Q 1235 -77 905 112 
Q 576 301 406 694 
Q 237 1088 237 1683 
Q 237 2278 406 2668 
Q 576 3059 912 3251 
Q 1248 3443 1741 3443 
Q 2086 3443 2339 3353 
Q 2592 3264 2758 3091 
Q 2925 2918 3005 2675 
Q 3085 2432 3085 2118 
L 2515 2118 
Q 2515 2413 2435 2601 
Q 2355 2790 2182 2883 
Q 2010 2976 1728 2976 
Q 1446 2976 1241 2851 
Q 1037 2726 928 2457 
Q 819 2189 819 1747 
L 819 1613 
Q 819 1197 924 921 
Q 1030 646 1235 518 
Q 1440 390 1734 390 
Q 2022 390 2198 492 
Q 2374 595 2454 787 
Q 2534 979 2534 1248 
L 3085 1248 
Q 3085 966 3005 723 
Q 2925 480 2758 301 
Q 2592 122 2336 22 
Q 2080 -77 1722 -77 
z
" transform="scale(0.015625)"/>
       <path id="Archivo-Regular-69" d="M 442 4000 
L 442 4627 
L 1005 4627 
L 1005 4000 
L 442 4000 
z
M 442 0 
L 442 3366 
L 1005 3366 
L 1005 0 
L 442 0 
z
" transform="scale(0.015625)"/>
       <path id="Archivo-Regular-f3" d="M 1824 -77 
Q 1312 -77 963 112 
Q 614 301 432 691 
Q 250 1082 250 1683 
Q 250 2291 432 2678 
Q 614 3066 963 3254 
Q 1312 3443 1824 3443 
Q 2336 3443 2685 3254 
Q 3034 3066 3213 2678 
Q 3392 2291 3392 1683 
Q 3392 1082 3213 691 
Q 3034 301 2685 112 
Q 2336 -77 1824 -77 
z
M 1824 397 
Q 2150 397 2368 525 
Q 2586 653 2698 925 
Q 2810 1197 2810 1613 
L 2810 1754 
Q 2810 2176 2698 2445 
Q 2586 2714 2368 2842 
Q 2150 2970 1824 2970 
Q 1498 2970 1277 2842 
Q 1056 2714 947 2445 
Q 838 2176 838 1754 
L 838 1613 
Q 838 1197 947 925 
Q 1056 653 1277 525 
Q 1498 397 1824 397 
z
M 1491 3782 
L 2042 4627 
L 2682 4627 
L 2688 4608 
L 1978 3782 
L 1491 3782 
z
" transform="scale(0.015625)"/>
       <path id="Archivo-Regular-20" transform="scale(0.015625)"/>
       <path id="Archivo-Regular-5b" d="M 595 -1030 
L 595 4704 
L 1798 4704 
L 1798 4288 
L 1101 4288 
L 1101 -614 
L 1798 -614 
L 1798 -1030 
L 595 -1030 
z
" transform="scale(0.015625)"/>
       <path id="Archivo-Regular-70" d="M 442 -1107 
L 442 3366 
L 890 3366 
L 947 2886 
L 992 2886 
Q 1165 3168 1433 3305 
Q 1702 3443 2042 3443 
Q 2464 3443 2758 3257 
Q 3053 3072 3213 2678 
Q 3373 2285 3373 1658 
Q 3373 1069 3209 681 
Q 3046 294 2752 108 
Q 2458 -77 2067 -77 
Q 1850 -77 1658 -25 
Q 1466 26 1312 138 
Q 1158 250 1043 422 
L 1005 422 
L 1005 -1107 
L 442 -1107 
z
M 1888 416 
Q 2202 416 2400 541 
Q 2598 666 2694 931 
Q 2790 1197 2790 1613 
L 2790 1747 
Q 2790 2189 2688 2454 
Q 2586 2720 2390 2835 
Q 2195 2950 1907 2950 
Q 1594 2950 1392 2812 
Q 1190 2675 1097 2400 
Q 1005 2125 1005 1728 
L 1005 1632 
Q 1005 1280 1072 1046 
Q 1139 813 1264 672 
Q 1389 531 1549 473 
Q 1709 416 1888 416 
z
" transform="scale(0.015625)"/>
       <path id="Archivo-Regular-73" d="M 1619 -77 
Q 1274 -77 1011 -6 
Q 749 64 576 198 
Q 403 333 313 518 
Q 224 704 224 941 
Q 224 973 224 1001 
Q 224 1030 230 1050 
L 787 1050 
Q 781 1024 781 1005 
Q 781 986 781 966 
Q 787 742 899 614 
Q 1011 486 1209 435 
Q 1408 384 1651 384 
Q 1862 384 2041 438 
Q 2221 493 2326 605 
Q 2432 717 2432 890 
Q 2432 1101 2294 1213 
Q 2157 1325 1933 1389 
Q 1709 1453 1466 1523 
Q 1261 1581 1056 1651 
Q 851 1722 688 1824 
Q 525 1926 425 2089 
Q 326 2253 326 2502 
Q 326 2726 419 2899 
Q 512 3072 685 3193 
Q 858 3315 1104 3376 
Q 1350 3437 1651 3437 
Q 1971 3437 2211 3366 
Q 2451 3296 2611 3168 
Q 2771 3040 2848 2877 
Q 2925 2714 2925 2528 
Q 2925 2490 2925 2454 
Q 2925 2419 2918 2400 
L 2368 2400 
L 2368 2470 
Q 2368 2598 2301 2716 
Q 2234 2835 2070 2908 
Q 1907 2982 1619 2982 
Q 1434 2982 1299 2953 
Q 1165 2925 1075 2864 
Q 986 2803 941 2723 
Q 896 2643 896 2541 
Q 896 2374 1005 2284 
Q 1114 2195 1296 2137 
Q 1478 2080 1690 2010 
Q 1914 1946 2147 1878 
Q 2381 1811 2576 1708 
Q 2771 1606 2889 1430 
Q 3008 1254 3008 966 
Q 3008 698 2905 499 
Q 2803 301 2614 173 
Q 2426 45 2173 -16 
Q 1920 -77 1619 -77 
z
" transform="scale(0.015625)"/>
       <path id="Archivo-Regular-6f" d="M 1824 -77 
Q 1312 -77 963 112 
Q 614 301 432 691 
Q 250 1082 250 1683 
Q 250 2291 432 2678 
Q 614 3066 963 3254 
Q 1312 3443 1824 3443 
Q 2336 3443 2685 3254 
Q 3034 3066 3213 2678 
Q 3392 2291 3392 1683 
Q 3392 1082 3213 691 
Q 3034 301 2685 112 
Q 2336 -77 1824 -77 
z
M 1824 397 
Q 2150 397 2368 525 
Q 2586 653 2698 925 
Q 2810 1197 2810 1613 
L 2810 1754 
Q 2810 2176 2698 2445 
Q 2586 2714 2368 2842 
Q 2150 2970 1824 2970 
Q 1498 2970 1277 2842 
Q 1056 2714 947 2445 
Q 838 2176 838 1754 
L 838 1613 
Q 838 1197 947 925 
Q 1056 653 1277 525 
Q 1498 397 1824 397 
z
" transform="scale(0.015625)"/>
       <path id="Archivo-Regular-5d" d="M 1299 4704 
L 1299 -1030 
L 96 -1030 
L 96 -614 
L 794 -614 
L 794 4288 
L 96 4288 
L 96 4704 
L 1299 4704 
z
" transform="scale(0.015625)"/>
      </defs>
      <use xlink:href="#Archivo-Regular-52"/>
      <use xlink:href="#Archivo-Regular-65" x="72.699982"/>
      <use xlink:href="#Archivo-Regular-6d" x="127.499969"/>
      <use xlink:href="#Archivo-Regular-75" x="213.499954"/>
      <use xlink:href="#Archivo-Regular-6e" x="269.699951"/>
      <use xlink:href="#Archivo-Regular-65" x="325.999939"/>
      <use xlink:href="#Archivo-Regular-72" x="380.799927"/>
      <use xlink:href="#Archivo-Regular-61" x="413.999924"/>
      <use xlink:href="#Archivo-Regular-63" x="468.499908"/>
      <use xlink:href="#Archivo-Regular-69" x="520.399902"/>
      <use xlink:href="#Archivo-Regular-f3" x="542.899887"/>
      <use xlink:href="#Archivo-Regular-6e" x="599.899872"/>
      <use xlink:href="#Archivo-Regular-20" x="656.19986"/>
      <use xlink:href="#Archivo-Regular-5b" x="677.099854"/>
      <use xlink:href="#Archivo-Regular-70" x="706.699844"/>
      <use xlink:href="#Archivo-Regular-65" x="763.399841"/>
      <use xlink:href="#Archivo-Regular-73" x="818.199829"/>
      <use xlink:href="#Archivo-Regular-6f" x="869.199814"/>
      <use xlink:href="#Archivo-Regular-73" x="926.199799"/>
      <use xlink:href="#Archivo-Regular-5d" x="977.199783"/>
     </g>
    </g>
   </g>
   <g id="matplotlib.axis_2">
    <g id="ytick_1">
     <g id="line2d_17">
      <defs>
       <path id="m6a8e56e1be" d="M 0 0 
L -3.5 0 
" style="stroke: #000000; stroke-width: 0.8"/>
      </defs>
      <g>
       <use xlink:href="#m6a8e56e1be" x="232.75625" y="493.127375" style="stroke: #000000; stroke-width: 0.8"/>
      </g>
     </g>
     <g id="text_10">
      <!-- Otras actividades (promedio) -->
      <g transform="translate(83.950781 497.175031) scale(0.11 -0.11)">
       <defs>
        <path id="Archivo-Regular-4f" d="M 2522 -77 
Q 1837 -77 1347 172 
Q 858 422 592 928 
Q 326 1434 326 2195 
Q 326 2963 592 3465 
Q 858 3968 1347 4217 
Q 1837 4467 2522 4467 
Q 3206 4467 3696 4217 
Q 4186 3968 4451 3465 
Q 4717 2963 4717 2195 
Q 4717 1434 4451 928 
Q 4186 422 3696 172 
Q 3206 -77 2522 -77 
z
M 2522 448 
Q 2880 448 3171 544 
Q 3462 640 3664 848 
Q 3866 1056 3974 1373 
Q 4083 1690 4083 2125 
L 4083 2259 
Q 4083 2701 3974 3017 
Q 3866 3334 3664 3542 
Q 3462 3750 3171 3846 
Q 2880 3942 2522 3942 
Q 2157 3942 1869 3846 
Q 1581 3750 1376 3542 
Q 1171 3334 1065 3017 
Q 960 2701 960 2259 
L 960 2125 
Q 960 1690 1065 1373 
Q 1171 1056 1376 848 
Q 1581 640 1869 544 
Q 2157 448 2522 448 
z
" transform="scale(0.015625)"/>
        <path id="Archivo-Regular-74" d="M 1229 -77 
Q 966 -77 819 22 
Q 672 122 608 285 
Q 544 448 544 634 
L 544 2893 
L 109 2893 
L 109 3366 
L 557 3366 
L 659 4307 
L 1107 4307 
L 1107 3366 
L 1741 3366 
L 1741 2893 
L 1107 2893 
L 1107 717 
Q 1107 557 1164 477 
Q 1222 397 1382 397 
L 1741 397 
L 1741 26 
Q 1677 -6 1587 -25 
Q 1498 -45 1405 -61 
Q 1312 -77 1229 -77 
z
" transform="scale(0.015625)"/>
        <path id="Archivo-Regular-76" d="M 1331 0 
L 83 3366 
L 672 3366 
L 1286 1683 
Q 1331 1562 1388 1379 
Q 1446 1197 1507 1008 
Q 1568 819 1606 672 
L 1638 672 
Q 1683 813 1740 1001 
Q 1798 1190 1859 1372 
Q 1920 1555 1965 1683 
L 2573 3366 
L 3142 3366 
L 1894 0 
L 1331 0 
z
" transform="scale(0.015625)"/>
        <path id="Archivo-Regular-64" d="M 1587 -77 
Q 1171 -77 873 108 
Q 576 294 413 688 
Q 250 1082 250 1709 
Q 250 2304 416 2688 
Q 582 3072 876 3257 
Q 1171 3443 1562 3443 
Q 1786 3443 1978 3392 
Q 2170 3341 2320 3232 
Q 2470 3123 2586 2944 
L 2624 2944 
L 2624 4627 
L 3187 4627 
L 3187 0 
L 2733 0 
L 2682 480 
L 2637 480 
Q 2464 198 2189 60 
Q 1914 -77 1587 -77 
z
M 1722 416 
Q 2042 416 2240 557 
Q 2438 698 2531 966 
Q 2624 1235 2624 1632 
L 2624 1734 
Q 2624 2080 2553 2317 
Q 2483 2554 2361 2694 
Q 2240 2835 2080 2892 
Q 1920 2950 1741 2950 
Q 1427 2950 1228 2825 
Q 1030 2701 934 2435 
Q 838 2170 838 1747 
L 838 1613 
Q 838 1178 940 912 
Q 1043 646 1238 531 
Q 1434 416 1722 416 
z
" transform="scale(0.015625)"/>
        <path id="Archivo-Regular-28" d="M 1587 -1005 
Q 1043 -410 752 329 
Q 461 1069 461 1856 
Q 461 2637 752 3379 
Q 1043 4122 1587 4710 
L 1952 4710 
Q 1696 4320 1481 3853 
Q 1267 3386 1142 2877 
Q 1018 2368 1018 1856 
Q 1018 1344 1142 832 
Q 1267 320 1481 -147 
Q 1696 -614 1952 -1005 
L 1587 -1005 
z
" transform="scale(0.015625)"/>
        <path id="Archivo-Regular-29" d="M 685 4704 
Q 1235 4109 1523 3369 
Q 1811 2630 1811 1843 
Q 1811 1062 1523 320 
Q 1235 -422 685 -1011 
L 320 -1011 
Q 582 -621 793 -153 
Q 1005 314 1129 822 
Q 1254 1331 1254 1843 
Q 1254 2362 1129 2870 
Q 1005 3379 793 3846 
Q 582 4314 320 4704 
L 685 4704 
z
" transform="scale(0.015625)"/>
       </defs>
       <use xlink:href="#Archivo-Regular-4f"/>
       <use xlink:href="#Archivo-Regular-74" x="78.799988"/>
       <use xlink:href="#Archivo-Regular-72" x="108.499985"/>
       <use xlink:href="#Archivo-Regular-61" x="141.699982"/>
       <use xlink:href="#Archivo-Regular-73" x="196.199966"/>
       <use xlink:href="#Archivo-Regular-20" x="247.199951"/>
       <use xlink:href="#Archivo-Regular-61" x="268.099945"/>
       <use xlink:href="#Archivo-Regular-63" x="322.59993"/>
       <use xlink:href="#Archivo-Regular-74" x="374.499924"/>
       <use xlink:href="#Archivo-Regular-69" x="404.199921"/>
       <use xlink:href="#Archivo-Regular-76" x="426.699905"/>
       <use xlink:href="#Archivo-Regular-69" x="477.099899"/>
       <use xlink:href="#Archivo-Regular-64" x="499.599884"/>
       <use xlink:href="#Archivo-Regular-61" x="556.299881"/>
       <use xlink:href="#Archivo-Regular-64" x="610.799866"/>
       <use xlink:href="#Archivo-Regular-65" x="667.499863"/>
       <use xlink:href="#Archivo-Regular-73" x="722.29985"/>
       <use xlink:href="#Archivo-Regular-20" x="773.299835"/>
       <use xlink:href="#Archivo-Regular-28" x="794.199829"/>
       <use xlink:href="#Archivo-Regular-70" x="829.699814"/>
       <use xlink:href="#Archivo-Regular-72" x="886.399811"/>
       <use xlink:href="#Archivo-Regular-6f" x="919.599808"/>
       <use xlink:href="#Archivo-Regular-6d" x="976.599792"/>
       <use xlink:href="#Archivo-Regular-65" x="1062.599777"/>
       <use xlink:href="#Archivo-Regular-64" x="1117.399765"/>
       <use xlink:href="#Archivo-Regular-69" x="1174.099762"/>
       <use xlink:href="#Archivo-Regular-6f" x="1196.599747"/>
       <use xlink:href="#Archivo-Regular-29" x="1253.599731"/>
      </g>
     </g>
    </g>
    <g id="ytick_2">
     <g id="line2d_18">
      <g>
       <use xlink:href="#m6a8e56e1be" x="232.75625" y="466.559448" style="stroke: #000000; stroke-width: 0.8"/>
      </g>
     </g>
     <g id="text_11">
      <!-- Promedio de todas las actividades -->
      <g transform="translate(59.551406 470.535777) scale(0.11 -0.11)">
       <defs>
        <path id="Archivo-Regular-50" d="M 550 0 
L 550 4390 
L 2720 4390 
Q 3174 4390 3475 4220 
Q 3776 4051 3926 3750 
Q 4077 3450 4077 3053 
Q 4077 2650 3910 2339 
Q 3744 2029 3440 1856 
Q 3136 1683 2714 1683 
L 1158 1683 
L 1158 0 
L 550 0 
z
M 1158 2208 
L 2675 2208 
Q 3034 2208 3248 2432 
Q 3462 2656 3462 3046 
Q 3462 3309 3372 3488 
Q 3283 3667 3110 3766 
Q 2938 3866 2675 3866 
L 1158 3866 
L 1158 2208 
z
" transform="scale(0.015625)"/>
        <path id="Archivo-Regular-6c" d="M 442 0 
L 442 4627 
L 1005 4627 
L 1005 0 
L 442 0 
z
" transform="scale(0.015625)"/>
       </defs>
       <use xlink:href="#Archivo-Regular-50"/>
       <use xlink:href="#Archivo-Regular-72" x="66.499985"/>
       <use xlink:href="#Archivo-Regular-6f" x="99.699982"/>
       <use xlink:href="#Archivo-Regular-6d" x="156.699966"/>
       <use xlink:href="#Archivo-Regular-65" x="242.699951"/>
       <use xlink:href="#Archivo-Regular-64" x="297.499939"/>
       <use xlink:href="#Archivo-Regular-69" x="354.199936"/>
       <use xlink:href="#Archivo-Regular-6f" x="376.699921"/>
       <use xlink:href="#Archivo-Regular-20" x="433.699905"/>
       <use xlink:href="#Archivo-Regular-64" x="454.599899"/>
       <use xlink:href="#Archivo-Regular-65" x="511.299896"/>
       <use xlink:href="#Archivo-Regular-20" x="566.099884"/>
       <use xlink:href="#Archivo-Regular-74" x="586.999878"/>
       <use xlink:href="#Archivo-Regular-6f" x="616.699875"/>
       <use xlink:href="#Archivo-Regular-64" x="673.69986"/>
       <use xlink:href="#Archivo-Regular-61" x="730.399857"/>
       <use xlink:href="#Archivo-Regular-73" x="784.899841"/>
       <use xlink:href="#Archivo-Regular-20" x="835.899826"/>
       <use xlink:href="#Archivo-Regular-6c" x="856.79982"/>
       <use xlink:href="#Archivo-Regular-61" x="879.299805"/>
       <use xlink:href="#Archivo-Regular-73" x="933.799789"/>
       <use xlink:href="#Archivo-Regular-20" x="984.799774"/>
       <use xlink:href="#Archivo-Regular-61" x="1005.699768"/>
       <use xlink:href="#Archivo-Regular-63" x="1060.199753"/>
       <use xlink:href="#Archivo-Regular-74" x="1112.099747"/>
       <use xlink:href="#Archivo-Regular-69" x="1141.799744"/>
       <use xlink:href="#Archivo-Regular-76" x="1164.299728"/>
       <use xlink:href="#Archivo-Regular-69" x="1214.699722"/>
       <use xlink:href="#Archivo-Regular-64" x="1237.199707"/>
       <use xlink:href="#Archivo-Regular-61" x="1293.899704"/>
       <use xlink:href="#Archivo-Regular-64" x="1348.399689"/>
       <use xlink:href="#Archivo-Regular-65" x="1405.099686"/>
       <use xlink:href="#Archivo-Regular-73" x="1459.899673"/>
      </g>
     </g>
    </g>
    <g id="ytick_3">
     <g id="line2d_19">
      <g>
       <use xlink:href="#m6a8e56e1be" x="232.75625" y="439.991522" style="stroke: #000000; stroke-width: 0.8"/>
      </g>
     </g>
     <g id="text_12">
      <!-- Explotacion de otras minas y canteras -->
      <g transform="translate(41.489062 443.96785) scale(0.11 -0.11)">
       <defs>
        <path id="Archivo-Regular-45" d="M 550 0 
L 550 4390 
L 3930 4390 
L 3930 3866 
L 1158 3866 
L 1158 2509 
L 3648 2509 
L 3648 1984 
L 1158 1984 
L 1158 525 
L 3968 525 
L 3968 0 
L 550 0 
z
" transform="scale(0.015625)"/>
        <path id="Archivo-Regular-78" d="M 90 0 
L 1299 1722 
L 147 3366 
L 826 3366 
L 1645 2163 
L 1677 2163 
L 2496 3366 
L 3136 3366 
L 1984 1741 
L 3200 0 
L 2528 0 
L 1645 1299 
L 1613 1299 
L 730 0 
L 90 0 
z
" transform="scale(0.015625)"/>
        <path id="Archivo-Regular-79" d="M 730 -1165 
Q 576 -1165 464 -1142 
Q 352 -1120 314 -1114 
L 314 -704 
L 595 -704 
Q 749 -704 896 -640 
Q 1043 -576 1171 -422 
Q 1299 -269 1389 0 
L 83 3366 
L 672 3366 
L 1344 1632 
Q 1389 1510 1449 1334 
Q 1510 1158 1571 972 
Q 1632 787 1670 646 
L 1709 646 
Q 1734 749 1772 877 
Q 1811 1005 1852 1142 
Q 1894 1280 1936 1405 
Q 1978 1530 2003 1626 
L 2573 3366 
L 3142 3366 
L 2003 96 
Q 1907 -179 1792 -412 
Q 1677 -646 1536 -812 
Q 1395 -979 1196 -1072 
Q 998 -1165 730 -1165 
z
" transform="scale(0.015625)"/>
       </defs>
       <use xlink:href="#Archivo-Regular-45"/>
       <use xlink:href="#Archivo-Regular-78" x="67.699982"/>
       <use xlink:href="#Archivo-Regular-70" x="118.999969"/>
       <use xlink:href="#Archivo-Regular-6c" x="175.699966"/>
       <use xlink:href="#Archivo-Regular-6f" x="198.199951"/>
       <use xlink:href="#Archivo-Regular-74" x="255.199936"/>
       <use xlink:href="#Archivo-Regular-61" x="284.899933"/>
       <use xlink:href="#Archivo-Regular-63" x="339.399918"/>
       <use xlink:href="#Archivo-Regular-69" x="391.299911"/>
       <use xlink:href="#Archivo-Regular-6f" x="413.799896"/>
       <use xlink:href="#Archivo-Regular-6e" x="470.799881"/>
       <use xlink:href="#Archivo-Regular-20" x="527.099869"/>
       <use xlink:href="#Archivo-Regular-64" x="547.999863"/>
       <use xlink:href="#Archivo-Regular-65" x="604.69986"/>
       <use xlink:href="#Archivo-Regular-20" x="659.499847"/>
       <use xlink:href="#Archivo-Regular-6f" x="680.399841"/>
       <use xlink:href="#Archivo-Regular-74" x="737.399826"/>
       <use xlink:href="#Archivo-Regular-72" x="767.099823"/>
       <use xlink:href="#Archivo-Regular-61" x="800.29982"/>
       <use xlink:href="#Archivo-Regular-73" x="854.799805"/>
       <use xlink:href="#Archivo-Regular-20" x="905.799789"/>
       <use xlink:href="#Archivo-Regular-6d" x="926.699783"/>
       <use xlink:href="#Archivo-Regular-69" x="1012.699768"/>
       <use xlink:href="#Archivo-Regular-6e" x="1035.199753"/>
       <use xlink:href="#Archivo-Regular-61" x="1091.499741"/>
       <use xlink:href="#Archivo-Regular-73" x="1145.999725"/>
       <use xlink:href="#Archivo-Regular-20" x="1196.99971"/>
       <use xlink:href="#Archivo-Regular-79" x="1217.899704"/>
       <use xlink:href="#Archivo-Regular-20" x="1268.299698"/>
       <use xlink:href="#Archivo-Regular-63" x="1289.199692"/>
       <use xlink:href="#Archivo-Regular-61" x="1341.099686"/>
       <use xlink:href="#Archivo-Regular-6e" x="1395.59967"/>
       <use xlink:href="#Archivo-Regular-74" x="1451.899658"/>
       <use xlink:href="#Archivo-Regular-65" x="1481.599655"/>
       <use xlink:href="#Archivo-Regular-72" x="1536.399643"/>
       <use xlink:href="#Archivo-Regular-61" x="1569.59964"/>
       <use xlink:href="#Archivo-Regular-73" x="1624.099625"/>
      </g>
     </g>
    </g>
    <g id="ytick_4">
     <g id="line2d_20">
      <g>
       <use xlink:href="#m6a8e56e1be" x="232.75625" y="413.423596" style="stroke: #000000; stroke-width: 0.8"/>
      </g>
     </g>
     <g id="text_13">
      <!-- Automotores -->
      <g transform="translate(161.976875 417.399924) scale(0.11 -0.11)">
       <defs>
        <path id="Archivo-Regular-41" d="M 45 0 
L 1779 4390 
L 2579 4390 
L 4320 0 
L 3661 0 
L 3232 1088 
L 1094 1088 
L 672 0 
L 45 0 
z
M 1293 1606 
L 3027 1606 
L 2496 2982 
Q 2477 3040 2438 3142 
Q 2400 3245 2355 3369 
Q 2310 3494 2265 3625 
Q 2221 3757 2182 3866 
L 2144 3866 
Q 2099 3738 2041 3571 
Q 1984 3405 1926 3248 
Q 1869 3091 1830 2982 
L 1293 1606 
z
" transform="scale(0.015625)"/>
       </defs>
       <use xlink:href="#Archivo-Regular-41"/>
       <use xlink:href="#Archivo-Regular-75" x="68.199982"/>
       <use xlink:href="#Archivo-Regular-74" x="124.399979"/>
       <use xlink:href="#Archivo-Regular-6f" x="154.099976"/>
       <use xlink:href="#Archivo-Regular-6d" x="211.09996"/>
       <use xlink:href="#Archivo-Regular-6f" x="297.099945"/>
       <use xlink:href="#Archivo-Regular-74" x="354.09993"/>
       <use xlink:href="#Archivo-Regular-6f" x="383.799927"/>
       <use xlink:href="#Archivo-Regular-72" x="440.799911"/>
       <use xlink:href="#Archivo-Regular-65" x="473.999908"/>
       <use xlink:href="#Archivo-Regular-73" x="528.799896"/>
      </g>
     </g>
    </g>
    <g id="ytick_5">
     <g id="line2d_21">
      <g>
       <use xlink:href="#m6a8e56e1be" x="232.75625" y="386.855669" style="stroke: #000000; stroke-width: 0.8"/>
      </g>
     </g>
     <g id="text_14">
      <!-- Tabaco -->
      <g transform="translate(188.883906 390.831997) scale(0.11 -0.11)">
       <defs>
        <path id="Archivo-Regular-54" d="M 1626 0 
L 1626 3859 
L 122 3859 
L 122 4390 
L 3750 4390 
L 3750 3859 
L 2234 3859 
L 2234 0 
L 1626 0 
z
" transform="scale(0.015625)"/>
        <path id="Archivo-Regular-62" d="M 2042 -77 
Q 1702 -77 1433 60 
Q 1165 198 992 480 
L 947 480 
L 890 0 
L 442 0 
L 442 4627 
L 1005 4627 
L 1005 2944 
L 1043 2944 
Q 1158 3123 1312 3232 
Q 1466 3341 1658 3392 
Q 1850 3443 2067 3443 
Q 2458 3443 2752 3257 
Q 3046 3072 3209 2688 
Q 3373 2304 3373 1709 
Q 3373 1082 3213 688 
Q 3053 294 2758 108 
Q 2464 -77 2042 -77 
z
M 1907 416 
Q 2195 416 2390 531 
Q 2586 646 2688 912 
Q 2790 1178 2790 1613 
L 2790 1747 
Q 2790 2170 2694 2435 
Q 2598 2701 2400 2825 
Q 2202 2950 1888 2950 
Q 1709 2950 1549 2892 
Q 1389 2835 1264 2694 
Q 1139 2554 1072 2317 
Q 1005 2080 1005 1734 
L 1005 1632 
Q 1005 1235 1097 966 
Q 1190 698 1392 557 
Q 1594 416 1907 416 
z
" transform="scale(0.015625)"/>
       </defs>
       <use xlink:href="#Archivo-Regular-54"/>
       <use xlink:href="#Archivo-Regular-61" x="60.599991"/>
       <use xlink:href="#Archivo-Regular-62" x="115.099976"/>
       <use xlink:href="#Archivo-Regular-61" x="171.799973"/>
       <use xlink:href="#Archivo-Regular-63" x="226.299957"/>
       <use xlink:href="#Archivo-Regular-6f" x="278.199951"/>
      </g>
     </g>
    </g>
    <g id="ytick_6">
     <g id="line2d_22">
      <g>
       <use xlink:href="#m6a8e56e1be" x="232.75625" y="360.287743" style="stroke: #000000; stroke-width: 0.8"/>
      </g>
     </g>
     <g id="text_15">
      <!-- Metales comunes -->
      <g transform="translate(139.284219 364.264071) scale(0.11 -0.11)">
       <defs>
        <path id="Archivo-Regular-4d" d="M 550 0 
L 550 4390 
L 1491 4390 
L 2490 1542 
Q 2528 1427 2569 1289 
Q 2611 1152 2646 1030 
Q 2682 909 2701 819 
L 2746 819 
Q 2765 915 2797 1040 
Q 2829 1165 2867 1299 
Q 2906 1434 2938 1542 
L 3936 4390 
L 4870 4390 
L 4870 0 
L 4262 0 
L 4262 2573 
Q 4262 2771 4268 3004 
Q 4275 3238 4281 3433 
Q 4288 3629 4288 3712 
L 4237 3712 
Q 4218 3629 4173 3478 
Q 4128 3328 4080 3165 
Q 4032 3002 3994 2874 
L 2963 0 
L 2438 0 
L 1408 2874 
Q 1370 2982 1328 3126 
Q 1286 3270 1244 3424 
Q 1203 3578 1165 3712 
L 1120 3712 
Q 1126 3571 1129 3363 
Q 1133 3155 1136 2947 
Q 1139 2739 1139 2573 
L 1139 0 
L 550 0 
z
" transform="scale(0.015625)"/>
       </defs>
       <use xlink:href="#Archivo-Regular-4d"/>
       <use xlink:href="#Archivo-Regular-65" x="84.699982"/>
       <use xlink:href="#Archivo-Regular-74" x="139.499969"/>
       <use xlink:href="#Archivo-Regular-61" x="169.199966"/>
       <use xlink:href="#Archivo-Regular-6c" x="223.699951"/>
       <use xlink:href="#Archivo-Regular-65" x="246.199936"/>
       <use xlink:href="#Archivo-Regular-73" x="300.999924"/>
       <use xlink:href="#Archivo-Regular-20" x="351.999908"/>
       <use xlink:href="#Archivo-Regular-63" x="372.899902"/>
       <use xlink:href="#Archivo-Regular-6f" x="424.799896"/>
       <use xlink:href="#Archivo-Regular-6d" x="481.799881"/>
       <use xlink:href="#Archivo-Regular-75" x="567.799866"/>
       <use xlink:href="#Archivo-Regular-6e" x="623.999863"/>
       <use xlink:href="#Archivo-Regular-65" x="680.29985"/>
       <use xlink:href="#Archivo-Regular-73" x="735.099838"/>
      </g>
     </g>
    </g>
    <g id="ytick_7">
     <g id="line2d_23">
      <g>
       <use xlink:href="#m6a8e56e1be" x="232.75625" y="333.719816" style="stroke: #000000; stroke-width: 0.8"/>
      </g>
     </g>
     <g id="text_16">
      <!-- Captación, depuración y distribución de agua -->
      <g transform="translate(7.2 337.696144) scale(0.11 -0.11)">
       <defs>
        <path id="Archivo-Regular-43" d="M 2426 -77 
Q 1754 -77 1286 169 
Q 819 416 572 918 
Q 326 1421 326 2195 
Q 326 3341 883 3904 
Q 1440 4467 2432 4467 
Q 2995 4467 3430 4284 
Q 3866 4102 4112 3734 
Q 4358 3366 4358 2810 
L 3744 2810 
Q 3744 3194 3581 3443 
Q 3418 3693 3123 3817 
Q 2829 3942 2432 3942 
Q 1971 3942 1638 3763 
Q 1306 3584 1133 3209 
Q 960 2835 960 2246 
L 960 2112 
Q 960 1530 1133 1162 
Q 1306 794 1635 621 
Q 1965 448 2432 448 
Q 2842 448 3139 569 
Q 3437 691 3600 944 
Q 3763 1197 3763 1581 
L 4358 1581 
Q 4358 1011 4105 646 
Q 3853 282 3417 102 
Q 2982 -77 2426 -77 
z
" transform="scale(0.015625)"/>
        <path id="Archivo-Regular-67" d="M 1011 -1165 
Q 768 -1165 563 -1065 
Q 358 -966 236 -780 
Q 115 -595 115 -339 
Q 115 -58 272 128 
Q 429 314 646 403 
Q 486 480 396 617 
Q 307 755 307 922 
Q 307 1146 470 1299 
Q 634 1453 870 1504 
Q 653 1645 528 1865 
Q 403 2086 403 2355 
Q 403 2675 553 2918 
Q 704 3162 1014 3302 
Q 1325 3443 1773 3443 
Q 1978 3443 2157 3414 
Q 2336 3386 2477 3322 
Q 2701 3424 2813 3584 
Q 2925 3744 2950 3910 
L 3507 3910 
Q 3507 3718 3420 3548 
Q 3334 3379 3187 3267 
Q 3040 3155 2829 3117 
Q 2989 2963 3069 2771 
Q 3149 2579 3149 2355 
Q 3149 2035 2998 1788 
Q 2848 1542 2547 1401 
Q 2246 1261 1792 1261 
L 1267 1261 
Q 1094 1261 985 1193 
Q 877 1126 877 979 
Q 877 851 985 771 
Q 1094 691 1267 691 
L 2637 691 
Q 3008 691 3245 444 
Q 3482 198 3482 -186 
Q 3482 -461 3344 -681 
Q 3206 -902 2960 -1033 
Q 2714 -1165 2387 -1165 
L 1011 -1165 
z
M 1171 -736 
L 2381 -736 
Q 2528 -736 2649 -675 
Q 2771 -614 2841 -505 
Q 2912 -397 2912 -269 
Q 2912 -51 2784 77 
Q 2656 205 2464 205 
L 1171 205 
Q 966 205 825 67 
Q 685 -70 685 -269 
Q 685 -480 825 -608 
Q 966 -736 1171 -736 
z
M 1779 1683 
Q 2189 1683 2387 1862 
Q 2586 2042 2586 2355 
Q 2586 2662 2387 2841 
Q 2189 3021 1779 3021 
Q 1370 3021 1168 2841 
Q 966 2662 966 2355 
Q 966 2157 1056 2003 
Q 1146 1850 1325 1766 
Q 1504 1683 1779 1683 
z
" transform="scale(0.015625)"/>
       </defs>
       <use xlink:href="#Archivo-Regular-43"/>
       <use xlink:href="#Archivo-Regular-61" x="72.799988"/>
       <use xlink:href="#Archivo-Regular-70" x="127.299973"/>
       <use xlink:href="#Archivo-Regular-74" x="183.999969"/>
       <use xlink:href="#Archivo-Regular-61" x="213.699966"/>
       <use xlink:href="#Archivo-Regular-63" x="268.199951"/>
       <use xlink:href="#Archivo-Regular-69" x="320.099945"/>
       <use xlink:href="#Archivo-Regular-f3" x="342.59993"/>
       <use xlink:href="#Archivo-Regular-6e" x="399.599915"/>
       <use xlink:href="#Archivo-Regular-2c" x="455.899902"/>
       <use xlink:href="#Archivo-Regular-20" x="483.599899"/>
       <use xlink:href="#Archivo-Regular-64" x="504.499893"/>
       <use xlink:href="#Archivo-Regular-65" x="561.19989"/>
       <use xlink:href="#Archivo-Regular-70" x="615.999878"/>
       <use xlink:href="#Archivo-Regular-75" x="672.699875"/>
       <use xlink:href="#Archivo-Regular-72" x="728.899872"/>
       <use xlink:href="#Archivo-Regular-61" x="762.099869"/>
       <use xlink:href="#Archivo-Regular-63" x="816.599854"/>
       <use xlink:href="#Archivo-Regular-69" x="868.499847"/>
       <use xlink:href="#Archivo-Regular-f3" x="890.999832"/>
       <use xlink:href="#Archivo-Regular-6e" x="947.999817"/>
       <use xlink:href="#Archivo-Regular-20" x="1004.299805"/>
       <use xlink:href="#Archivo-Regular-79" x="1025.199799"/>
       <use xlink:href="#Archivo-Regular-20" x="1075.599792"/>
       <use xlink:href="#Archivo-Regular-64" x="1096.499786"/>
       <use xlink:href="#Archivo-Regular-69" x="1153.199783"/>
       <use xlink:href="#Archivo-Regular-73" x="1175.699768"/>
       <use xlink:href="#Archivo-Regular-74" x="1226.699753"/>
       <use xlink:href="#Archivo-Regular-72" x="1256.39975"/>
       <use xlink:href="#Archivo-Regular-69" x="1289.599747"/>
       <use xlink:href="#Archivo-Regular-62" x="1312.099731"/>
       <use xlink:href="#Archivo-Regular-75" x="1368.799728"/>
       <use xlink:href="#Archivo-Regular-63" x="1424.999725"/>
       <use xlink:href="#Archivo-Regular-69" x="1476.899719"/>
       <use xlink:href="#Archivo-Regular-f3" x="1499.399704"/>
       <use xlink:href="#Archivo-Regular-6e" x="1556.399689"/>
       <use xlink:href="#Archivo-Regular-20" x="1612.699677"/>
       <use xlink:href="#Archivo-Regular-64" x="1633.59967"/>
       <use xlink:href="#Archivo-Regular-65" x="1690.299667"/>
       <use xlink:href="#Archivo-Regular-20" x="1745.099655"/>
       <use xlink:href="#Archivo-Regular-61" x="1765.999649"/>
       <use xlink:href="#Archivo-Regular-67" x="1820.499634"/>
       <use xlink:href="#Archivo-Regular-75" x="1876.099625"/>
       <use xlink:href="#Archivo-Regular-61" x="1932.299622"/>
      </g>
     </g>
    </g>
    <g id="ytick_8">
     <g id="line2d_24">
      <g>
       <use xlink:href="#m6a8e56e1be" x="232.75625" y="307.15189" style="stroke: #000000; stroke-width: 0.8"/>
      </g>
     </g>
     <g id="text_17">
      <!-- Investigación y desarrollo -->
      <g transform="translate(102.135156 311.128218) scale(0.11 -0.11)">
       <defs>
        <path id="Archivo-Regular-49" d="M 550 0 
L 550 4390 
L 1158 4390 
L 1158 0 
L 550 0 
z
" transform="scale(0.015625)"/>
       </defs>
       <use xlink:href="#Archivo-Regular-49"/>
       <use xlink:href="#Archivo-Regular-6e" x="26.699997"/>
       <use xlink:href="#Archivo-Regular-76" x="82.999985"/>
       <use xlink:href="#Archivo-Regular-65" x="133.399979"/>
       <use xlink:href="#Archivo-Regular-73" x="188.199966"/>
       <use xlink:href="#Archivo-Regular-74" x="239.199951"/>
       <use xlink:href="#Archivo-Regular-69" x="268.899948"/>
       <use xlink:href="#Archivo-Regular-67" x="291.399933"/>
       <use xlink:href="#Archivo-Regular-61" x="346.999924"/>
       <use xlink:href="#Archivo-Regular-63" x="401.499908"/>
       <use xlink:href="#Archivo-Regular-69" x="453.399902"/>
       <use xlink:href="#Archivo-Regular-f3" x="475.899887"/>
       <use xlink:href="#Archivo-Regular-6e" x="532.899872"/>
       <use xlink:href="#Archivo-Regular-20" x="589.19986"/>
       <use xlink:href="#Archivo-Regular-79" x="610.099854"/>
       <use xlink:href="#Archivo-Regular-20" x="660.499847"/>
       <use xlink:href="#Archivo-Regular-64" x="681.399841"/>
       <use xlink:href="#Archivo-Regular-65" x="738.099838"/>
       <use xlink:href="#Archivo-Regular-73" x="792.899826"/>
       <use xlink:href="#Archivo-Regular-61" x="843.899811"/>
       <use xlink:href="#Archivo-Regular-72" x="898.399796"/>
       <use xlink:href="#Archivo-Regular-72" x="931.599792"/>
       <use xlink:href="#Archivo-Regular-6f" x="964.799789"/>
       <use xlink:href="#Archivo-Regular-6c" x="1021.799774"/>
       <use xlink:href="#Archivo-Regular-6c" x="1044.299759"/>
       <use xlink:href="#Archivo-Regular-6f" x="1066.799744"/>
      </g>
     </g>
    </g>
    <g id="ytick_9">
     <g id="line2d_25">
      <g>
       <use xlink:href="#m6a8e56e1be" x="232.75625" y="280.583963" style="stroke: #000000; stroke-width: 0.8"/>
      </g>
     </g>
     <g id="text_18">
      <!-- Actividades de informática -->
      <g transform="translate(97.238438 284.560291) scale(0.11 -0.11)">
       <defs>
        <path id="Archivo-Regular-66" d="M 576 0 
L 576 2893 
L 77 2893 
L 77 3366 
L 576 3366 
L 576 3904 
Q 576 4102 633 4278 
Q 691 4454 851 4566 
Q 1011 4678 1299 4678 
Q 1389 4678 1475 4668 
Q 1562 4659 1642 4643 
Q 1722 4627 1786 4608 
L 1786 4205 
L 1446 4205 
Q 1286 4205 1212 4125 
Q 1139 4045 1139 3898 
L 1139 3366 
L 1786 3366 
L 1786 2893 
L 1139 2893 
L 1139 0 
L 576 0 
z
" transform="scale(0.015625)"/>
        <path id="Archivo-Regular-e1" d="M 1286 -77 
Q 1101 -77 915 -32 
Q 730 13 570 115 
Q 410 218 314 400 
Q 218 582 218 858 
Q 218 1203 384 1427 
Q 550 1651 848 1776 
Q 1146 1901 1555 1949 
Q 1965 1997 2445 1997 
L 2445 2381 
Q 2445 2566 2381 2700 
Q 2317 2835 2153 2908 
Q 1990 2982 1690 2982 
Q 1402 2982 1232 2908 
Q 1062 2835 995 2720 
Q 928 2605 928 2464 
L 928 2368 
L 384 2368 
Q 378 2400 378 2432 
Q 378 2464 378 2509 
Q 378 2816 547 3024 
Q 717 3232 1024 3337 
Q 1331 3443 1728 3443 
Q 2150 3443 2435 3321 
Q 2720 3200 2864 2976 
Q 3008 2752 3008 2438 
L 3008 614 
Q 3008 493 3065 445 
Q 3123 397 3206 397 
L 3456 397 
L 3456 26 
Q 3366 -13 3257 -41 
Q 3149 -70 3008 -70 
Q 2842 -70 2733 -3 
Q 2624 64 2566 182 
Q 2509 301 2490 448 
L 2445 448 
Q 2330 288 2154 169 
Q 1978 51 1760 -13 
Q 1542 -77 1286 -77 
z
M 1427 397 
Q 1632 397 1814 461 
Q 1997 525 2137 643 
Q 2278 762 2361 928 
Q 2445 1094 2445 1293 
L 2445 1574 
Q 1926 1574 1561 1516 
Q 1197 1459 1001 1312 
Q 806 1165 806 896 
Q 806 723 883 614 
Q 960 506 1101 451 
Q 1242 397 1427 397 
z
M 1370 3782 
L 1926 4627 
L 2560 4627 
L 2566 4608 
L 1862 3782 
L 1370 3782 
z
" transform="scale(0.015625)"/>
       </defs>
       <use xlink:href="#Archivo-Regular-41"/>
       <use xlink:href="#Archivo-Regular-63" x="68.199982"/>
       <use xlink:href="#Archivo-Regular-74" x="120.099976"/>
       <use xlink:href="#Archivo-Regular-69" x="149.799973"/>
       <use xlink:href="#Archivo-Regular-76" x="172.299957"/>
       <use xlink:href="#Archivo-Regular-69" x="222.699951"/>
       <use xlink:href="#Archivo-Regular-64" x="245.199936"/>
       <use xlink:href="#Archivo-Regular-61" x="301.899933"/>
       <use xlink:href="#Archivo-Regular-64" x="356.399918"/>
       <use xlink:href="#Archivo-Regular-65" x="413.099915"/>
       <use xlink:href="#Archivo-Regular-73" x="467.899902"/>
       <use xlink:href="#Archivo-Regular-20" x="518.899887"/>
       <use xlink:href="#Archivo-Regular-64" x="539.799881"/>
       <use xlink:href="#Archivo-Regular-65" x="596.499878"/>
       <use xlink:href="#Archivo-Regular-20" x="651.299866"/>
       <use xlink:href="#Archivo-Regular-69" x="672.19986"/>
       <use xlink:href="#Archivo-Regular-6e" x="694.699844"/>
       <use xlink:href="#Archivo-Regular-66" x="750.999832"/>
       <use xlink:href="#Archivo-Regular-6f" x="778.999817"/>
       <use xlink:href="#Archivo-Regular-72" x="835.999802"/>
       <use xlink:href="#Archivo-Regular-6d" x="869.199799"/>
       <use xlink:href="#Archivo-Regular-e1" x="955.199783"/>
       <use xlink:href="#Archivo-Regular-74" x="1009.699768"/>
       <use xlink:href="#Archivo-Regular-69" x="1039.399765"/>
       <use xlink:href="#Archivo-Regular-63" x="1061.89975"/>
       <use xlink:href="#Archivo-Regular-61" x="1113.799744"/>
      </g>
     </g>
    </g>
    <g id="ytick_10">
     <g id="line2d_26">
      <g>
       <use xlink:href="#m6a8e56e1be" x="232.75625" y="254.016037" style="stroke: #000000; stroke-width: 0.8"/>
      </g>
     </g>
     <g id="text_19">
      <!-- Productos químicos -->
      <g transform="translate(128.523125 257.992365) scale(0.11 -0.11)">
       <defs>
        <path id="Archivo-Regular-71" d="M 2624 -1107 
L 2624 422 
L 2586 422 
Q 2470 250 2313 138 
Q 2157 26 1965 -25 
Q 1773 -77 1562 -77 
Q 1171 -77 876 108 
Q 582 294 416 681 
Q 250 1069 250 1658 
Q 250 2285 413 2678 
Q 576 3072 873 3257 
Q 1171 3443 1587 3443 
Q 1926 3443 2195 3305 
Q 2464 3168 2637 2886 
L 2682 2886 
L 2733 3366 
L 3187 3366 
L 3187 -1107 
L 2624 -1107 
z
M 1741 416 
Q 1926 416 2086 473 
Q 2246 531 2364 672 
Q 2483 813 2553 1046 
Q 2624 1280 2624 1632 
L 2624 1728 
Q 2624 2125 2531 2400 
Q 2438 2675 2240 2812 
Q 2042 2950 1722 2950 
Q 1434 2950 1238 2835 
Q 1043 2720 940 2454 
Q 838 2189 838 1747 
L 838 1613 
Q 838 1197 934 931 
Q 1030 666 1228 541 
Q 1427 416 1741 416 
z
" transform="scale(0.015625)"/>
        <path id="Archivo-Regular-ed" d="M 442 0 
L 442 3366 
L 1005 3366 
L 1005 0 
L 442 0 
z
M 384 3782 
L 941 4627 
L 1574 4627 
L 1581 4608 
L 877 3782 
L 384 3782 
z
" transform="scale(0.015625)"/>
       </defs>
       <use xlink:href="#Archivo-Regular-50"/>
       <use xlink:href="#Archivo-Regular-72" x="66.499985"/>
       <use xlink:href="#Archivo-Regular-6f" x="99.699982"/>
       <use xlink:href="#Archivo-Regular-64" x="156.699966"/>
       <use xlink:href="#Archivo-Regular-75" x="213.399963"/>
       <use xlink:href="#Archivo-Regular-63" x="269.59996"/>
       <use xlink:href="#Archivo-Regular-74" x="321.499954"/>
       <use xlink:href="#Archivo-Regular-6f" x="351.199951"/>
       <use xlink:href="#Archivo-Regular-73" x="408.199936"/>
       <use xlink:href="#Archivo-Regular-20" x="459.199921"/>
       <use xlink:href="#Archivo-Regular-71" x="480.099915"/>
       <use xlink:href="#Archivo-Regular-75" x="536.799911"/>
       <use xlink:href="#Archivo-Regular-ed" x="592.999908"/>
       <use xlink:href="#Archivo-Regular-6d" x="615.499893"/>
       <use xlink:href="#Archivo-Regular-69" x="701.499878"/>
       <use xlink:href="#Archivo-Regular-63" x="723.999863"/>
       <use xlink:href="#Archivo-Regular-6f" x="775.899857"/>
       <use xlink:href="#Archivo-Regular-73" x="832.899841"/>
      </g>
     </g>
    </g>
    <g id="ytick_11">
     <g id="line2d_27">
      <g>
       <use xlink:href="#m6a8e56e1be" x="232.75625" y="227.44811" style="stroke: #000000; stroke-width: 0.8"/>
      </g>
     </g>
     <g id="text_20">
      <!-- Pesca y actividades relacionadas -->
      <g transform="translate(64.446406 231.424438) scale(0.11 -0.11)">
       <use xlink:href="#Archivo-Regular-50"/>
       <use xlink:href="#Archivo-Regular-65" x="66.499985"/>
       <use xlink:href="#Archivo-Regular-73" x="121.299973"/>
       <use xlink:href="#Archivo-Regular-63" x="172.299957"/>
       <use xlink:href="#Archivo-Regular-61" x="224.199951"/>
       <use xlink:href="#Archivo-Regular-20" x="278.699936"/>
       <use xlink:href="#Archivo-Regular-79" x="299.59993"/>
       <use xlink:href="#Archivo-Regular-20" x="349.999924"/>
       <use xlink:href="#Archivo-Regular-61" x="370.899918"/>
       <use xlink:href="#Archivo-Regular-63" x="425.399902"/>
       <use xlink:href="#Archivo-Regular-74" x="477.299896"/>
       <use xlink:href="#Archivo-Regular-69" x="506.999893"/>
       <use xlink:href="#Archivo-Regular-76" x="529.499878"/>
       <use xlink:href="#Archivo-Regular-69" x="579.899872"/>
       <use xlink:href="#Archivo-Regular-64" x="602.399857"/>
       <use xlink:href="#Archivo-Regular-61" x="659.099854"/>
       <use xlink:href="#Archivo-Regular-64" x="713.599838"/>
       <use xlink:href="#Archivo-Regular-65" x="770.299835"/>
       <use xlink:href="#Archivo-Regular-73" x="825.099823"/>
       <use xlink:href="#Archivo-Regular-20" x="876.099808"/>
       <use xlink:href="#Archivo-Regular-72" x="896.999802"/>
       <use xlink:href="#Archivo-Regular-65" x="930.199799"/>
       <use xlink:href="#Archivo-Regular-6c" x="984.999786"/>
       <use xlink:href="#Archivo-Regular-61" x="1007.499771"/>
       <use xlink:href="#Archivo-Regular-63" x="1061.999756"/>
       <use xlink:href="#Archivo-Regular-69" x="1113.89975"/>
       <use xlink:href="#Archivo-Regular-6f" x="1136.399734"/>
       <use xlink:href="#Archivo-Regular-6e" x="1193.399719"/>
       <use xlink:href="#Archivo-Regular-61" x="1249.699707"/>
       <use xlink:href="#Archivo-Regular-64" x="1304.199692"/>
       <use xlink:href="#Archivo-Regular-61" x="1360.899689"/>
       <use xlink:href="#Archivo-Regular-73" x="1415.399673"/>
      </g>
     </g>
    </g>
    <g id="ytick_12">
     <g id="line2d_28">
      <g>
       <use xlink:href="#m6a8e56e1be" x="232.75625" y="200.880184" style="stroke: #000000; stroke-width: 0.8"/>
      </g>
     </g>
     <g id="text_21">
      <!-- Electricidad, gas y agua -->
      <g transform="translate(110.548437 204.856512) scale(0.11 -0.11)">
       <use xlink:href="#Archivo-Regular-45"/>
       <use xlink:href="#Archivo-Regular-6c" x="67.699982"/>
       <use xlink:href="#Archivo-Regular-65" x="90.199966"/>
       <use xlink:href="#Archivo-Regular-63" x="144.999954"/>
       <use xlink:href="#Archivo-Regular-74" x="196.899948"/>
       <use xlink:href="#Archivo-Regular-72" x="226.599945"/>
       <use xlink:href="#Archivo-Regular-69" x="259.799942"/>
       <use xlink:href="#Archivo-Regular-63" x="282.299927"/>
       <use xlink:href="#Archivo-Regular-69" x="334.199921"/>
       <use xlink:href="#Archivo-Regular-64" x="356.699905"/>
       <use xlink:href="#Archivo-Regular-61" x="413.399902"/>
       <use xlink:href="#Archivo-Regular-64" x="467.899887"/>
       <use xlink:href="#Archivo-Regular-2c" x="524.599884"/>
       <use xlink:href="#Archivo-Regular-20" x="552.299881"/>
       <use xlink:href="#Archivo-Regular-67" x="573.199875"/>
       <use xlink:href="#Archivo-Regular-61" x="628.799866"/>
       <use xlink:href="#Archivo-Regular-73" x="683.29985"/>
       <use xlink:href="#Archivo-Regular-20" x="734.299835"/>
       <use xlink:href="#Archivo-Regular-79" x="755.199829"/>
       <use xlink:href="#Archivo-Regular-20" x="805.599823"/>
       <use xlink:href="#Archivo-Regular-61" x="826.499817"/>
       <use xlink:href="#Archivo-Regular-67" x="880.999802"/>
       <use xlink:href="#Archivo-Regular-75" x="936.599792"/>
       <use xlink:href="#Archivo-Regular-61" x="992.799789"/>
      </g>
     </g>
    </g>
    <g id="ytick_13">
     <g id="line2d_29">
      <g>
       <use xlink:href="#m6a8e56e1be" x="232.75625" y="174.312257" style="stroke: #000000; stroke-width: 0.8"/>
      </g>
     </g>
     <g id="text_22">
      <!-- Intermediacion financiera -->
      <g transform="translate(102.741875 178.288586) scale(0.11 -0.11)">
       <use xlink:href="#Archivo-Regular-49"/>
       <use xlink:href="#Archivo-Regular-6e" x="26.699997"/>
       <use xlink:href="#Archivo-Regular-74" x="82.999985"/>
       <use xlink:href="#Archivo-Regular-65" x="112.699982"/>
       <use xlink:href="#Archivo-Regular-72" x="167.499969"/>
       <use xlink:href="#Archivo-Regular-6d" x="200.699966"/>
       <use xlink:href="#Archivo-Regular-65" x="286.699951"/>
       <use xlink:href="#Archivo-Regular-64" x="341.499939"/>
       <use xlink:href="#Archivo-Regular-69" x="398.199936"/>
       <use xlink:href="#Archivo-Regular-61" x="420.699921"/>
       <use xlink:href="#Archivo-Regular-63" x="475.199905"/>
       <use xlink:href="#Archivo-Regular-69" x="527.099899"/>
       <use xlink:href="#Archivo-Regular-6f" x="549.599884"/>
       <use xlink:href="#Archivo-Regular-6e" x="606.599869"/>
       <use xlink:href="#Archivo-Regular-20" x="662.899857"/>
       <use xlink:href="#Archivo-Regular-66" x="683.79985"/>
       <use xlink:href="#Archivo-Regular-69" x="711.799835"/>
       <use xlink:href="#Archivo-Regular-6e" x="734.29982"/>
       <use xlink:href="#Archivo-Regular-61" x="790.599808"/>
       <use xlink:href="#Archivo-Regular-6e" x="845.099792"/>
       <use xlink:href="#Archivo-Regular-63" x="901.39978"/>
       <use xlink:href="#Archivo-Regular-69" x="953.299774"/>
       <use xlink:href="#Archivo-Regular-65" x="975.799759"/>
       <use xlink:href="#Archivo-Regular-72" x="1030.599747"/>
       <use xlink:href="#Archivo-Regular-61" x="1063.799744"/>
      </g>
     </g>
    </g>
    <g id="ytick_14">
     <g id="line2d_30">
      <g>
       <use xlink:href="#m6a8e56e1be" x="232.75625" y="147.744331" style="stroke: #000000; stroke-width: 0.8"/>
      </g>
     </g>
     <g id="text_23">
      <!-- Productos de petróleo -->
      <g transform="translate(118.150469 151.720659) scale(0.11 -0.11)">
       <use xlink:href="#Archivo-Regular-50"/>
       <use xlink:href="#Archivo-Regular-72" x="66.499985"/>
       <use xlink:href="#Archivo-Regular-6f" x="99.699982"/>
       <use xlink:href="#Archivo-Regular-64" x="156.699966"/>
       <use xlink:href="#Archivo-Regular-75" x="213.399963"/>
       <use xlink:href="#Archivo-Regular-63" x="269.59996"/>
       <use xlink:href="#Archivo-Regular-74" x="321.499954"/>
       <use xlink:href="#Archivo-Regular-6f" x="351.199951"/>
       <use xlink:href="#Archivo-Regular-73" x="408.199936"/>
       <use xlink:href="#Archivo-Regular-20" x="459.199921"/>
       <use xlink:href="#Archivo-Regular-64" x="480.099915"/>
       <use xlink:href="#Archivo-Regular-65" x="536.799911"/>
       <use xlink:href="#Archivo-Regular-20" x="591.599899"/>
       <use xlink:href="#Archivo-Regular-70" x="612.499893"/>
       <use xlink:href="#Archivo-Regular-65" x="669.19989"/>
       <use xlink:href="#Archivo-Regular-74" x="723.999878"/>
       <use xlink:href="#Archivo-Regular-72" x="753.699875"/>
       <use xlink:href="#Archivo-Regular-f3" x="786.899872"/>
       <use xlink:href="#Archivo-Regular-6c" x="843.899857"/>
       <use xlink:href="#Archivo-Regular-65" x="866.399841"/>
       <use xlink:href="#Archivo-Regular-6f" x="921.199829"/>
      </g>
     </g>
    </g>
    <g id="ytick_15">
     <g id="line2d_31">
      <g>
       <use xlink:href="#m6a8e56e1be" x="232.75625" y="121.176404" style="stroke: #000000; stroke-width: 0.8"/>
      </g>
     </g>
     <g id="text_24">
      <!-- Transporte marítimo y fluvial -->
      <g transform="translate(88.460781 125.196561) scale(0.11 -0.11)">
       <use xlink:href="#Archivo-Regular-54"/>
       <use xlink:href="#Archivo-Regular-72" x="60.599991"/>
       <use xlink:href="#Archivo-Regular-61" x="93.799988"/>
       <use xlink:href="#Archivo-Regular-6e" x="148.299973"/>
       <use xlink:href="#Archivo-Regular-73" x="204.59996"/>
       <use xlink:href="#Archivo-Regular-70" x="255.599945"/>
       <use xlink:href="#Archivo-Regular-6f" x="312.299942"/>
       <use xlink:href="#Archivo-Regular-72" x="369.299927"/>
       <use xlink:href="#Archivo-Regular-74" x="402.499924"/>
       <use xlink:href="#Archivo-Regular-65" x="432.199921"/>
       <use xlink:href="#Archivo-Regular-20" x="486.999908"/>
       <use xlink:href="#Archivo-Regular-6d" x="507.899902"/>
       <use xlink:href="#Archivo-Regular-61" x="593.899887"/>
       <use xlink:href="#Archivo-Regular-72" x="648.399872"/>
       <use xlink:href="#Archivo-Regular-ed" x="681.599869"/>
       <use xlink:href="#Archivo-Regular-74" x="704.099854"/>
       <use xlink:href="#Archivo-Regular-69" x="733.79985"/>
       <use xlink:href="#Archivo-Regular-6d" x="756.299835"/>
       <use xlink:href="#Archivo-Regular-6f" x="842.29982"/>
       <use xlink:href="#Archivo-Regular-20" x="899.299805"/>
       <use xlink:href="#Archivo-Regular-79" x="920.199799"/>
       <use xlink:href="#Archivo-Regular-20" x="970.599792"/>
       <use xlink:href="#Archivo-Regular-66" x="991.499786"/>
       <use xlink:href="#Archivo-Regular-6c" x="1019.499771"/>
       <use xlink:href="#Archivo-Regular-75" x="1041.999756"/>
       <use xlink:href="#Archivo-Regular-76" x="1098.199753"/>
       <use xlink:href="#Archivo-Regular-69" x="1148.599747"/>
       <use xlink:href="#Archivo-Regular-61" x="1171.099731"/>
       <use xlink:href="#Archivo-Regular-6c" x="1225.599716"/>
      </g>
     </g>
    </g>
    <g id="ytick_16">
     <g id="line2d_32">
      <g>
       <use xlink:href="#m6a8e56e1be" x="232.75625" y="94.608478" style="stroke: #000000; stroke-width: 0.8"/>
      </g>
     </g>
     <g id="text_25">
      <!-- Extraccion de minerales metaliferos -->
      <g transform="translate(51.975156 98.584806) scale(0.11 -0.11)">
       <use xlink:href="#Archivo-Regular-45"/>
       <use xlink:href="#Archivo-Regular-78" x="67.699982"/>
       <use xlink:href="#Archivo-Regular-74" x="118.999969"/>
       <use xlink:href="#Archivo-Regular-72" x="148.699966"/>
       <use xlink:href="#Archivo-Regular-61" x="181.899963"/>
       <use xlink:href="#Archivo-Regular-63" x="236.399948"/>
       <use xlink:href="#Archivo-Regular-63" x="288.299942"/>
       <use xlink:href="#Archivo-Regular-69" x="340.199936"/>
       <use xlink:href="#Archivo-Regular-6f" x="362.699921"/>
       <use xlink:href="#Archivo-Regular-6e" x="419.699905"/>
       <use xlink:href="#Archivo-Regular-20" x="475.999893"/>
       <use xlink:href="#Archivo-Regular-64" x="496.899887"/>
       <use xlink:href="#Archivo-Regular-65" x="553.599884"/>
       <use xlink:href="#Archivo-Regular-20" x="608.399872"/>
       <use xlink:href="#Archivo-Regular-6d" x="629.299866"/>
       <use xlink:href="#Archivo-Regular-69" x="715.29985"/>
       <use xlink:href="#Archivo-Regular-6e" x="737.799835"/>
       <use xlink:href="#Archivo-Regular-65" x="794.099823"/>
       <use xlink:href="#Archivo-Regular-72" x="848.899811"/>
       <use xlink:href="#Archivo-Regular-61" x="882.099808"/>
       <use xlink:href="#Archivo-Regular-6c" x="936.599792"/>
       <use xlink:href="#Archivo-Regular-65" x="959.099777"/>
       <use xlink:href="#Archivo-Regular-73" x="1013.899765"/>
       <use xlink:href="#Archivo-Regular-20" x="1064.89975"/>
       <use xlink:href="#Archivo-Regular-6d" x="1085.799744"/>
       <use xlink:href="#Archivo-Regular-65" x="1171.799728"/>
       <use xlink:href="#Archivo-Regular-74" x="1226.599716"/>
       <use xlink:href="#Archivo-Regular-61" x="1256.299713"/>
       <use xlink:href="#Archivo-Regular-6c" x="1310.799698"/>
       <use xlink:href="#Archivo-Regular-69" x="1333.299683"/>
       <use xlink:href="#Archivo-Regular-66" x="1355.799667"/>
       <use xlink:href="#Archivo-Regular-65" x="1383.799652"/>
       <use xlink:href="#Archivo-Regular-72" x="1438.59964"/>
       <use xlink:href="#Archivo-Regular-6f" x="1471.799637"/>
       <use xlink:href="#Archivo-Regular-73" x="1528.799622"/>
      </g>
     </g>
    </g>
    <g id="ytick_17">
     <g id="line2d_33">
      <g>
       <use xlink:href="#m6a8e56e1be" x="232.75625" y="68.040552" style="stroke: #000000; stroke-width: 0.8"/>
      </g>
     </g>
     <g id="text_26">
      <!-- Transporte aéreo -->
      <g transform="translate(141.913906 72.01688) scale(0.11 -0.11)">
       <defs>
        <path id="Archivo-Regular-e9" d="M 1786 -77 
Q 1286 -77 944 112 
Q 602 301 426 691 
Q 250 1082 250 1683 
Q 250 2291 426 2678 
Q 602 3066 947 3254 
Q 1293 3443 1811 3443 
Q 2285 3443 2605 3260 
Q 2925 3078 3088 2716 
Q 3251 2355 3251 1811 
L 3251 1542 
L 832 1542 
Q 845 1139 950 880 
Q 1056 621 1267 502 
Q 1478 384 1798 384 
Q 2016 384 2179 438 
Q 2342 493 2454 595 
Q 2566 698 2624 838 
Q 2682 979 2688 1146 
L 3238 1146 
Q 3232 877 3136 649 
Q 3040 422 2854 262 
Q 2669 102 2400 12 
Q 2131 -77 1786 -77 
z
M 845 1965 
L 2669 1965 
Q 2669 2246 2605 2438 
Q 2541 2630 2422 2752 
Q 2304 2874 2147 2928 
Q 1990 2982 1792 2982 
Q 1498 2982 1293 2873 
Q 1088 2765 979 2541 
Q 870 2317 845 1965 
z
M 1459 3782 
L 2010 4627 
L 2650 4627 
L 2656 4608 
L 1946 3782 
L 1459 3782 
z
" transform="scale(0.015625)"/>
       </defs>
       <use xlink:href="#Archivo-Regular-54"/>
       <use xlink:href="#Archivo-Regular-72" x="60.599991"/>
       <use xlink:href="#Archivo-Regular-61" x="93.799988"/>
       <use xlink:href="#Archivo-Regular-6e" x="148.299973"/>
       <use xlink:href="#Archivo-Regular-73" x="204.59996"/>
       <use xlink:href="#Archivo-Regular-70" x="255.599945"/>
       <use xlink:href="#Archivo-Regular-6f" x="312.299942"/>
       <use xlink:href="#Archivo-Regular-72" x="369.299927"/>
       <use xlink:href="#Archivo-Regular-74" x="402.499924"/>
       <use xlink:href="#Archivo-Regular-65" x="432.199921"/>
       <use xlink:href="#Archivo-Regular-20" x="486.999908"/>
       <use xlink:href="#Archivo-Regular-61" x="507.899902"/>
       <use xlink:href="#Archivo-Regular-e9" x="562.399887"/>
       <use xlink:href="#Archivo-Regular-72" x="617.199875"/>
       <use xlink:href="#Archivo-Regular-65" x="650.399872"/>
       <use xlink:href="#Archivo-Regular-6f" x="705.19986"/>
      </g>
     </g>
    </g>
    <g id="ytick_18">
     <g id="line2d_34">
      <g>
       <use xlink:href="#m6a8e56e1be" x="232.75625" y="41.472625" style="stroke: #000000; stroke-width: 0.8"/>
      </g>
     </g>
     <g id="text_27">
      <!-- Extraccion de petroleo y gas -->
      <g transform="translate(88.438437 45.448953) scale(0.11 -0.11)">
       <use xlink:href="#Archivo-Regular-45"/>
       <use xlink:href="#Archivo-Regular-78" x="67.699982"/>
       <use xlink:href="#Archivo-Regular-74" x="118.999969"/>
       <use xlink:href="#Archivo-Regular-72" x="148.699966"/>
       <use xlink:href="#Archivo-Regular-61" x="181.899963"/>
       <use xlink:href="#Archivo-Regular-63" x="236.399948"/>
       <use xlink:href="#Archivo-Regular-63" x="288.299942"/>
       <use xlink:href="#Archivo-Regular-69" x="340.199936"/>
       <use xlink:href="#Archivo-Regular-6f" x="362.699921"/>
       <use xlink:href="#Archivo-Regular-6e" x="419.699905"/>
       <use xlink:href="#Archivo-Regular-20" x="475.999893"/>
       <use xlink:href="#Archivo-Regular-64" x="496.899887"/>
       <use xlink:href="#Archivo-Regular-65" x="553.599884"/>
       <use xlink:href="#Archivo-Regular-20" x="608.399872"/>
       <use xlink:href="#Archivo-Regular-70" x="629.299866"/>
       <use xlink:href="#Archivo-Regular-65" x="685.999863"/>
       <use xlink:href="#Archivo-Regular-74" x="740.79985"/>
       <use xlink:href="#Archivo-Regular-72" x="770.499847"/>
       <use xlink:href="#Archivo-Regular-6f" x="803.699844"/>
       <use xlink:href="#Archivo-Regular-6c" x="860.699829"/>
       <use xlink:href="#Archivo-Regular-65" x="883.199814"/>
       <use xlink:href="#Archivo-Regular-6f" x="937.999802"/>
       <use xlink:href="#Archivo-Regular-20" x="994.999786"/>
       <use xlink:href="#Archivo-Regular-79" x="1015.89978"/>
       <use xlink:href="#Archivo-Regular-20" x="1066.299774"/>
       <use xlink:href="#Archivo-Regular-67" x="1087.199768"/>
       <use xlink:href="#Archivo-Regular-61" x="1142.799759"/>
       <use xlink:href="#Archivo-Regular-73" x="1197.299744"/>
      </g>
     </g>
    </g>
   </g>
   <g id="line2d_35">
    <path d="M 410.975165 527.4 
L 410.975165 7.2 
" clip-path="url(#p40c2955c91)" style="fill: none; stroke: #151515; stroke-width: 0.8; stroke-linecap: square"/>
   </g>
   <g id="patch_21">
    <path d="M 232.75625 527.4 
L 232.75625 7.2 
" style="fill: none; stroke: #000000; stroke-width: 0.8; stroke-linejoin: miter; stroke-linecap: square"/>
   </g>
   <g id="patch_22">
    <path d="M 232.75625 527.4 
L 752.95625 527.4 
" style="fill: none; stroke: #000000; stroke-width: 0.8; stroke-linejoin: miter; stroke-linecap: square"/>
   </g>
   <g id="legend_1">
    <g id="line2d_36">
     <path d="M 564.860938 19.929688 
L 574.860938 19.929688 
L 584.860938 19.929688 
" style="fill: none; stroke: #151515; stroke-width: 0.8; stroke-linecap: square"/>
    </g>
    <g id="text_28">
     <!-- Promedio de todas las actividades -->
     <g transform="translate(592.860938 23.429688) scale(0.1 -0.1)">
      <use xlink:href="#Archivo-Regular-50"/>
      <use xlink:href="#Archivo-Regular-72" x="66.499985"/>
      <use xlink:href="#Archivo-Regular-6f" x="99.699982"/>
      <use xlink:href="#Archivo-Regular-6d" x="156.699966"/>
      <use xlink:href="#Archivo-Regular-65" x="242.699951"/>
      <use xlink:href="#Archivo-Regular-64" x="297.499939"/>
      <use xlink:href="#Archivo-Regular-69" x="354.199936"/>
      <use xlink:href="#Archivo-Regular-6f" x="376.699921"/>
      <use xlink:href="#Archivo-Regular-20" x="433.699905"/>
      <use xlink:href="#Archivo-Regular-64" x="454.599899"/>
      <use xlink:href="#Archivo-Regular-65" x="511.299896"/>
      <use xlink:href="#Archivo-Regular-20" x="566.099884"/>
      <use xlink:href="#Archivo-Regular-74" x="586.999878"/>
      <use xlink:href="#Archivo-Regular-6f" x="616.699875"/>
      <use xlink:href="#Archivo-Regular-64" x="673.69986"/>
      <use xlink:href="#Archivo-Regular-61" x="730.399857"/>
      <use xlink:href="#Archivo-Regular-73" x="784.899841"/>
      <use xlink:href="#Archivo-Regular-20" x="835.899826"/>
      <use xlink:href="#Archivo-Regular-6c" x="856.79982"/>
      <use xlink:href="#Archivo-Regular-61" x="879.299805"/>
      <use xlink:href="#Archivo-Regular-73" x="933.799789"/>
      <use xlink:href="#Archivo-Regular-20" x="984.799774"/>
      <use xlink:href="#Archivo-Regular-61" x="1005.699768"/>
      <use xlink:href="#Archivo-Regular-63" x="1060.199753"/>
      <use xlink:href="#Archivo-Regular-74" x="1112.099747"/>
      <use xlink:href="#Archivo-Regular-69" x="1141.799744"/>
      <use xlink:href="#Archivo-Regular-76" x="1164.299728"/>
      <use xlink:href="#Archivo-Regular-69" x="1214.699722"/>
      <use xlink:href="#Archivo-Regular-64" x="1237.199707"/>
      <use xlink:href="#Archivo-Regular-61" x="1293.899704"/>
      <use xlink:href="#Archivo-Regular-64" x="1348.399689"/>
      <use xlink:href="#Archivo-Regular-65" x="1405.099686"/>
      <use xlink:href="#Archivo-Regular-73" x="1459.899673"/>
     </g>
    </g>
   </g>
  </g>
 </g>
 <defs>
  <clipPath id="p40c2955c91">
   <rect x="232.75625" y="7.2" width="520.2" height="520.2"/>
  </clipPath>
 </defs>
</svg>
