<?xml version="1.0" encoding="utf-8" standalone="no"?>
<!DOCTYPE svg PUBLIC "-//W3C//DTD SVG 1.1//EN"
  "http://www.w3.org/Graphics/SVG/1.1/DTD/svg11.dtd">
<svg xmlns:xlink="http://www.w3.org/1999/xlink" width="596.450938pt" height="342.965312pt" viewBox="0 0 596.450938 342.965312" xmlns="http://www.w3.org/2000/svg" version="1.1">
 <metadata>
  <rdf:RDF xmlns:dc="http://purl.org/dc/elements/1.1/" xmlns:cc="http://creativecommons.org/ns#" xmlns:rdf="http://www.w3.org/1999/02/22-rdf-syntax-ns#">
   <cc:Work>
    <dc:type rdf:resource="http://purl.org/dc/dcmitype/StillImage"/>
    <dc:date>2024-10-28T15:41:39.584139</dc:date>
    <dc:format>image/svg+xml</dc:format>
    <dc:creator>
     <cc:Agent>
      <dc:title>Matplotlib v3.6.2, https://matplotlib.org/</dc:title>
     </cc:Agent>
    </dc:creator>
   </cc:Work>
  </rdf:RDF>
 </metadata>
 <defs>
  <style type="text/css">*{stroke-linejoin: round; stroke-linecap: butt}</style>
 </defs>
 <g id="figure_1">
  <g id="patch_1">
   <path d="M 0 342.965312 
L 596.450938 342.965312 
L 596.450938 0 
L 0 0 
L 0 342.965312 
z
" style="fill: none"/>
  </g>
  <g id="axes_1">
   <g id="patch_2">
    <path d="M 69.050938 318.91 
L 589.250938 318.91 
L 589.250938 43.51 
L 69.050938 43.51 
L 69.050938 318.91 
z
" style="fill: none"/>
   </g>
   <g id="matplotlib.axis_1">
    <g id="xtick_1">
     <g id="line2d_1">
      <defs>
       <path id="mfeeb9a80a8" d="M 0 0 
L 0 3.5 
" style="stroke: #000000; stroke-width: 0.8"/>
      </defs>
      <g>
       <use xlink:href="#mfeeb9a80a8" x="106.605483" y="318.91" style="stroke: #000000; stroke-width: 0.8"/>
      </g>
     </g>
     <g id="text_1">
      <!-- 1990 -->
      <g transform="translate(94.286342 333.862656) scale(0.11 -0.11)">
       <defs>
        <path id="Archivo-Regular-31" d="M 429 0 
L 429 480 
L 1536 480 
L 1536 3520 
L 422 3520 
L 422 3878 
Q 659 3898 912 3949 
Q 1165 4000 1408 4112 
Q 1651 4224 1850 4403 
L 2106 4403 
L 2106 480 
L 3149 480 
L 3149 0 
L 429 0 
z
" transform="scale(0.015625)"/>
        <path id="Archivo-Regular-39" d="M 1760 -77 
Q 1293 -77 998 102 
Q 704 282 569 589 
Q 435 896 435 1280 
L 1011 1280 
Q 1011 986 1097 787 
Q 1184 589 1357 493 
Q 1530 397 1792 397 
Q 2182 397 2390 598 
Q 2598 800 2681 1184 
Q 2765 1568 2771 2099 
Q 2688 1958 2521 1833 
Q 2355 1709 2134 1635 
Q 1914 1562 1664 1562 
Q 1190 1562 883 1750 
Q 576 1939 425 2265 
Q 275 2592 275 2995 
Q 275 3443 467 3772 
Q 659 4102 992 4284 
Q 1325 4467 1741 4467 
Q 2118 4467 2419 4358 
Q 2720 4250 2928 4006 
Q 3136 3763 3245 3350 
Q 3354 2938 3354 2323 
Q 3354 1651 3248 1190 
Q 3142 730 2937 451 
Q 2733 173 2435 48 
Q 2138 -77 1760 -77 
z
M 1779 2029 
Q 2093 2029 2301 2163 
Q 2509 2298 2611 2522 
Q 2714 2746 2714 3021 
Q 2714 3290 2614 3510 
Q 2515 3731 2307 3862 
Q 2099 3994 1786 3994 
Q 1472 3994 1267 3856 
Q 1062 3718 963 3494 
Q 864 3270 864 2989 
Q 864 2726 960 2508 
Q 1056 2291 1257 2160 
Q 1459 2029 1779 2029 
z
" transform="scale(0.015625)"/>
        <path id="Archivo-Regular-30" d="M 1837 -77 
Q 1478 -77 1196 28 
Q 915 134 716 393 
Q 518 653 416 1091 
Q 314 1530 314 2195 
Q 314 2861 416 3299 
Q 518 3738 716 3997 
Q 915 4256 1196 4361 
Q 1478 4467 1837 4467 
Q 2195 4467 2473 4361 
Q 2752 4256 2950 3997 
Q 3149 3738 3251 3299 
Q 3354 2861 3354 2195 
Q 3354 1530 3251 1091 
Q 3149 653 2950 393 
Q 2752 134 2473 28 
Q 2195 -77 1837 -77 
z
M 1837 397 
Q 2202 397 2403 582 
Q 2605 768 2685 1133 
Q 2765 1498 2765 2042 
L 2765 2336 
Q 2765 2886 2685 3254 
Q 2605 3622 2403 3808 
Q 2202 3994 1837 3994 
Q 1472 3994 1267 3808 
Q 1062 3622 982 3257 
Q 902 2893 902 2342 
L 902 2054 
Q 902 1510 982 1139 
Q 1062 768 1267 582 
Q 1472 397 1837 397 
z
" transform="scale(0.015625)"/>
       </defs>
       <use xlink:href="#Archivo-Regular-31"/>
       <use xlink:href="#Archivo-Regular-39" x="52.099991"/>
       <use xlink:href="#Archivo-Regular-39" x="109.399979"/>
       <use xlink:href="#Archivo-Regular-30" x="166.699966"/>
      </g>
     </g>
    </g>
    <g id="xtick_2">
     <g id="line2d_2">
      <g>
       <use xlink:href="#mfeeb9a80a8" x="176.150938" y="318.91" style="stroke: #000000; stroke-width: 0.8"/>
      </g>
     </g>
     <g id="text_2">
      <!-- 1995 -->
      <g transform="translate(163.842969 333.862656) scale(0.11 -0.11)">
       <defs>
        <path id="Archivo-Regular-35" d="M 1856 -77 
Q 1395 -77 1049 96 
Q 704 269 512 592 
Q 320 915 320 1363 
L 890 1363 
Q 890 1062 1018 844 
Q 1146 627 1366 512 
Q 1587 397 1856 397 
Q 2131 397 2342 509 
Q 2554 621 2672 851 
Q 2790 1082 2790 1434 
Q 2790 1754 2681 1962 
Q 2573 2170 2371 2272 
Q 2170 2374 1907 2374 
Q 1715 2374 1542 2313 
Q 1370 2253 1232 2144 
Q 1094 2035 1005 1875 
L 474 1958 
L 659 4390 
L 3149 4390 
L 3149 3866 
L 1152 3866 
L 1050 2496 
Q 1158 2592 1296 2672 
Q 1434 2752 1613 2800 
Q 1792 2848 2022 2848 
Q 2400 2848 2707 2701 
Q 3014 2554 3193 2246 
Q 3373 1939 3373 1453 
Q 3373 973 3190 627 
Q 3008 282 2669 102 
Q 2330 -77 1856 -77 
z
" transform="scale(0.015625)"/>
       </defs>
       <use xlink:href="#Archivo-Regular-31"/>
       <use xlink:href="#Archivo-Regular-39" x="52.099991"/>
       <use xlink:href="#Archivo-Regular-39" x="109.399979"/>
       <use xlink:href="#Archivo-Regular-35" x="166.699966"/>
      </g>
     </g>
    </g>
    <g id="xtick_3">
     <g id="line2d_3">
      <g>
       <use xlink:href="#mfeeb9a80a8" x="245.696392" y="318.91" style="stroke: #000000; stroke-width: 0.8"/>
      </g>
     </g>
     <g id="text_3">
      <!-- 2000 -->
      <g transform="translate(233.123736 333.862656) scale(0.11 -0.11)">
       <defs>
        <path id="Archivo-Regular-32" d="M 320 0 
L 320 186 
Q 320 454 425 681 
Q 531 909 707 1097 
Q 883 1286 1107 1459 
Q 1331 1632 1562 1798 
Q 1875 2016 2140 2233 
Q 2406 2451 2566 2704 
Q 2726 2957 2726 3270 
Q 2726 3469 2633 3632 
Q 2541 3795 2355 3891 
Q 2170 3987 1882 3987 
Q 1542 3987 1337 3872 
Q 1133 3757 1040 3565 
Q 947 3373 947 3142 
L 947 2880 
L 390 2880 
Q 384 2912 377 2979 
Q 371 3046 371 3136 
Q 371 3610 582 3901 
Q 794 4192 1146 4329 
Q 1498 4467 1907 4467 
Q 2272 4467 2534 4368 
Q 2797 4269 2969 4096 
Q 3142 3923 3225 3702 
Q 3309 3482 3309 3238 
Q 3309 2938 3203 2688 
Q 3098 2438 2909 2224 
Q 2720 2010 2467 1811 
Q 2214 1613 1920 1408 
Q 1715 1274 1516 1123 
Q 1318 973 1177 819 
Q 1037 666 998 525 
L 3334 525 
L 3334 0 
L 320 0 
z
" transform="scale(0.015625)"/>
       </defs>
       <use xlink:href="#Archivo-Regular-32"/>
       <use xlink:href="#Archivo-Regular-30" x="56.699997"/>
       <use xlink:href="#Archivo-Regular-30" x="113.999985"/>
       <use xlink:href="#Archivo-Regular-30" x="171.299973"/>
      </g>
     </g>
    </g>
    <g id="xtick_4">
     <g id="line2d_4">
      <g>
       <use xlink:href="#mfeeb9a80a8" x="315.241847" y="318.91" style="stroke: #000000; stroke-width: 0.8"/>
      </g>
     </g>
     <g id="text_4">
      <!-- 2005 -->
      <g transform="translate(302.680362 333.862656) scale(0.11 -0.11)">
       <use xlink:href="#Archivo-Regular-32"/>
       <use xlink:href="#Archivo-Regular-30" x="56.699997"/>
       <use xlink:href="#Archivo-Regular-30" x="113.999985"/>
       <use xlink:href="#Archivo-Regular-35" x="171.299973"/>
      </g>
     </g>
    </g>
    <g id="xtick_5">
     <g id="line2d_5">
      <g>
       <use xlink:href="#mfeeb9a80a8" x="384.787301" y="318.91" style="stroke: #000000; stroke-width: 0.8"/>
      </g>
     </g>
     <g id="text_5">
      <!-- 2010 -->
      <g transform="translate(372.500817 333.862656) scale(0.11 -0.11)">
       <use xlink:href="#Archivo-Regular-32"/>
       <use xlink:href="#Archivo-Regular-30" x="56.699997"/>
       <use xlink:href="#Archivo-Regular-31" x="113.999985"/>
       <use xlink:href="#Archivo-Regular-30" x="166.099976"/>
      </g>
     </g>
    </g>
    <g id="xtick_6">
     <g id="line2d_6">
      <g>
       <use xlink:href="#mfeeb9a80a8" x="454.332756" y="318.91" style="stroke: #000000; stroke-width: 0.8"/>
      </g>
     </g>
     <g id="text_6">
      <!-- 2015 -->
      <g transform="translate(442.057443 333.862656) scale(0.11 -0.11)">
       <use xlink:href="#Archivo-Regular-32"/>
       <use xlink:href="#Archivo-Regular-30" x="56.699997"/>
       <use xlink:href="#Archivo-Regular-31" x="113.999985"/>
       <use xlink:href="#Archivo-Regular-35" x="166.099976"/>
      </g>
     </g>
    </g>
    <g id="xtick_7">
     <g id="line2d_7">
      <g>
       <use xlink:href="#mfeeb9a80a8" x="523.87821" y="318.91" style="stroke: #000000; stroke-width: 0.8"/>
      </g>
     </g>
     <g id="text_7">
      <!-- 2020 -->
      <g transform="translate(511.33821 333.862656) scale(0.11 -0.11)">
       <use xlink:href="#Archivo-Regular-32"/>
       <use xlink:href="#Archivo-Regular-30" x="56.699997"/>
       <use xlink:href="#Archivo-Regular-32" x="113.999985"/>
       <use xlink:href="#Archivo-Regular-30" x="170.699982"/>
      </g>
     </g>
    </g>
   </g>
   <g id="matplotlib.axis_2">
    <g id="ytick_1">
     <g id="line2d_8">
      <path d="M 69.050938 314.395246 
L 589.250938 314.395246 
" clip-path="url(#p637f563bfd)" style="fill: none; stroke: #b0b0b0; stroke-width: 0.5; stroke-linecap: square"/>
     </g>
     <g id="line2d_9">
      <defs>
       <path id="m204e0d0e3e" d="M 0 0 
L -3.5 0 
" style="stroke: #000000; stroke-width: 0.8"/>
      </defs>
      <g>
       <use xlink:href="#m204e0d0e3e" x="69.050938" y="314.395246" style="stroke: #000000; stroke-width: 0.8"/>
      </g>
     </g>
     <g id="text_8">
      <!-- 0 -->
      <g transform="translate(55.748281 318.371574) scale(0.11 -0.11)">
       <use xlink:href="#Archivo-Regular-30"/>
      </g>
     </g>
    </g>
    <g id="ytick_2">
     <g id="line2d_10">
      <path d="M 69.050938 269.247705 
L 589.250938 269.247705 
" clip-path="url(#p637f563bfd)" style="fill: none; stroke: #b0b0b0; stroke-width: 0.5; stroke-linecap: square"/>
     </g>
     <g id="line2d_11">
      <g>
       <use xlink:href="#m204e0d0e3e" x="69.050938" y="269.247705" style="stroke: #000000; stroke-width: 0.8"/>
      </g>
     </g>
     <g id="text_9">
      <!-- 100,000 -->
      <g transform="translate(21.76 273.224033) scale(0.11 -0.11)">
       <defs>
        <path id="Archivo-Regular-2c" d="M 506 -941 
L 506 -678 
Q 627 -653 707 -557 
Q 787 -461 825 -317 
Q 864 -173 864 0 
L 570 0 
L 570 672 
L 1190 672 
L 1190 70 
Q 1190 -301 1084 -509 
Q 979 -717 822 -813 
Q 666 -909 506 -941 
z
" transform="scale(0.015625)"/>
       </defs>
       <use xlink:href="#Archivo-Regular-31"/>
       <use xlink:href="#Archivo-Regular-30" x="52.099991"/>
       <use xlink:href="#Archivo-Regular-30" x="109.399979"/>
       <use xlink:href="#Archivo-Regular-2c" x="166.699966"/>
       <use xlink:href="#Archivo-Regular-30" x="194.399963"/>
       <use xlink:href="#Archivo-Regular-30" x="251.699951"/>
       <use xlink:href="#Archivo-Regular-30" x="308.999939"/>
      </g>
     </g>
    </g>
    <g id="ytick_3">
     <g id="line2d_12">
      <path d="M 69.050938 224.100164 
L 589.250938 224.100164 
" clip-path="url(#p637f563bfd)" style="fill: none; stroke: #b0b0b0; stroke-width: 0.5; stroke-linecap: square"/>
     </g>
     <g id="line2d_13">
      <g>
       <use xlink:href="#m204e0d0e3e" x="69.050938" y="224.100164" style="stroke: #000000; stroke-width: 0.8"/>
      </g>
     </g>
     <g id="text_10">
      <!-- 200,000 -->
      <g transform="translate(21.252969 228.076492) scale(0.11 -0.11)">
       <use xlink:href="#Archivo-Regular-32"/>
       <use xlink:href="#Archivo-Regular-30" x="56.699997"/>
       <use xlink:href="#Archivo-Regular-30" x="113.999985"/>
       <use xlink:href="#Archivo-Regular-2c" x="171.299973"/>
       <use xlink:href="#Archivo-Regular-30" x="198.999969"/>
       <use xlink:href="#Archivo-Regular-30" x="256.299957"/>
       <use xlink:href="#Archivo-Regular-30" x="313.599945"/>
      </g>
     </g>
    </g>
    <g id="ytick_4">
     <g id="line2d_14">
      <path d="M 69.050938 178.952623 
L 589.250938 178.952623 
" clip-path="url(#p637f563bfd)" style="fill: none; stroke: #b0b0b0; stroke-width: 0.5; stroke-linecap: square"/>
     </g>
     <g id="line2d_15">
      <g>
       <use xlink:href="#m204e0d0e3e" x="69.050938" y="178.952623" style="stroke: #000000; stroke-width: 0.8"/>
      </g>
     </g>
     <g id="text_11">
      <!-- 300,000 -->
      <g transform="translate(21.187656 182.928951) scale(0.11 -0.11)">
       <defs>
        <path id="Archivo-Regular-33" d="M 1843 -77 
Q 1331 -77 979 80 
Q 627 237 448 525 
Q 269 813 269 1210 
L 269 1293 
L 838 1293 
L 838 1210 
Q 838 813 1091 605 
Q 1344 397 1792 397 
Q 2240 397 2515 592 
Q 2790 787 2790 1216 
Q 2790 1530 2643 1696 
Q 2496 1862 2262 1929 
Q 2029 1997 1766 1997 
L 1306 1997 
L 1306 2470 
L 1786 2470 
Q 2029 2470 2233 2547 
Q 2438 2624 2563 2800 
Q 2688 2976 2688 3258 
Q 2688 3514 2576 3674 
Q 2464 3834 2272 3914 
Q 2080 3994 1850 3994 
Q 1594 3994 1389 3907 
Q 1184 3821 1065 3648 
Q 947 3475 947 3213 
L 947 3130 
L 371 3130 
L 371 3245 
Q 371 3610 560 3885 
Q 749 4160 1078 4313 
Q 1408 4467 1837 4467 
Q 2259 4467 2582 4332 
Q 2906 4198 3091 3936 
Q 3277 3674 3277 3290 
Q 3277 3008 3174 2813 
Q 3072 2618 2905 2490 
Q 2739 2362 2547 2278 
L 2547 2253 
Q 2899 2150 3136 1881 
Q 3373 1613 3373 1178 
Q 3373 787 3177 505 
Q 2982 224 2633 73 
Q 2285 -77 1843 -77 
z
" transform="scale(0.015625)"/>
       </defs>
       <use xlink:href="#Archivo-Regular-33"/>
       <use xlink:href="#Archivo-Regular-30" x="57.299988"/>
       <use xlink:href="#Archivo-Regular-30" x="114.599976"/>
       <use xlink:href="#Archivo-Regular-2c" x="171.899963"/>
       <use xlink:href="#Archivo-Regular-30" x="199.59996"/>
       <use xlink:href="#Archivo-Regular-30" x="256.899948"/>
       <use xlink:href="#Archivo-Regular-30" x="314.199936"/>
      </g>
     </g>
    </g>
    <g id="ytick_5">
     <g id="line2d_16">
      <path d="M 69.050938 133.805082 
L 589.250938 133.805082 
" clip-path="url(#p637f563bfd)" style="fill: none; stroke: #b0b0b0; stroke-width: 0.5; stroke-linecap: square"/>
     </g>
     <g id="line2d_17">
      <g>
       <use xlink:href="#m204e0d0e3e" x="69.050938" y="133.805082" style="stroke: #000000; stroke-width: 0.8"/>
      </g>
     </g>
     <g id="text_12">
      <!-- 400,000 -->
      <g transform="translate(21.385313 137.78141) scale(0.11 -0.11)">
       <defs>
        <path id="Archivo-Regular-34" d="M 2221 0 
L 2221 1075 
L 179 1075 
L 179 1549 
Q 448 2010 669 2477 
Q 890 2944 1066 3437 
Q 1242 3930 1357 4467 
L 1958 4467 
Q 1875 4115 1753 3747 
Q 1632 3379 1485 3033 
Q 1338 2688 1194 2387 
Q 1050 2086 925 1868 
Q 800 1651 723 1549 
L 2221 1549 
L 2221 2944 
Q 2259 3046 2300 3158 
Q 2342 3270 2380 3388 
Q 2419 3507 2451 3612 
Q 2483 3718 2502 3814 
L 2784 3814 
L 2784 1549 
L 3366 1549 
L 3366 1075 
L 2784 1075 
L 2784 0 
L 2221 0 
z
" transform="scale(0.015625)"/>
       </defs>
       <use xlink:href="#Archivo-Regular-34"/>
       <use xlink:href="#Archivo-Regular-30" x="55.499985"/>
       <use xlink:href="#Archivo-Regular-30" x="112.799973"/>
       <use xlink:href="#Archivo-Regular-2c" x="170.09996"/>
       <use xlink:href="#Archivo-Regular-30" x="197.799957"/>
       <use xlink:href="#Archivo-Regular-30" x="255.099945"/>
       <use xlink:href="#Archivo-Regular-30" x="312.399933"/>
      </g>
     </g>
    </g>
    <g id="ytick_6">
     <g id="line2d_18">
      <path d="M 69.050938 88.657541 
L 589.250938 88.657541 
" clip-path="url(#p637f563bfd)" style="fill: none; stroke: #b0b0b0; stroke-width: 0.5; stroke-linecap: square"/>
     </g>
     <g id="line2d_19">
      <g>
       <use xlink:href="#m204e0d0e3e" x="69.050938" y="88.657541" style="stroke: #000000; stroke-width: 0.8"/>
      </g>
     </g>
     <g id="text_13">
      <!-- 500,000 -->
      <g transform="translate(21.21 92.633869) scale(0.11 -0.11)">
       <use xlink:href="#Archivo-Regular-35"/>
       <use xlink:href="#Archivo-Regular-30" x="57.099991"/>
       <use xlink:href="#Archivo-Regular-30" x="114.399979"/>
       <use xlink:href="#Archivo-Regular-2c" x="171.699966"/>
       <use xlink:href="#Archivo-Regular-30" x="199.399963"/>
       <use xlink:href="#Archivo-Regular-30" x="256.699951"/>
       <use xlink:href="#Archivo-Regular-30" x="313.999939"/>
      </g>
     </g>
    </g>
    <g id="ytick_7">
     <g id="line2d_20">
      <path d="M 69.050938 43.51 
L 589.250938 43.51 
" clip-path="url(#p637f563bfd)" style="fill: none; stroke: #b0b0b0; stroke-width: 0.5; stroke-linecap: square"/>
     </g>
     <g id="line2d_21">
      <g>
       <use xlink:href="#m204e0d0e3e" x="69.050938" y="43.51" style="stroke: #000000; stroke-width: 0.8"/>
      </g>
     </g>
     <g id="text_14">
      <!-- 600,000 -->
      <g transform="translate(21.187656 47.486328) scale(0.11 -0.11)">
       <defs>
        <path id="Archivo-Regular-36" d="M 1920 -77 
Q 1542 -77 1244 32 
Q 947 141 739 384 
Q 531 627 422 1040 
Q 314 1453 314 2067 
Q 314 2746 422 3203 
Q 531 3661 732 3939 
Q 934 4218 1232 4342 
Q 1530 4467 1907 4467 
Q 2381 4467 2672 4288 
Q 2963 4109 3097 3805 
Q 3232 3501 3232 3110 
L 2656 3110 
Q 2656 3405 2573 3603 
Q 2490 3802 2314 3898 
Q 2138 3994 1875 3994 
Q 1491 3994 1276 3792 
Q 1062 3590 982 3206 
Q 902 2822 896 2291 
Q 986 2438 1149 2560 
Q 1312 2682 1536 2755 
Q 1760 2829 2010 2829 
Q 2483 2829 2790 2640 
Q 3098 2451 3245 2124 
Q 3392 1798 3392 1395 
Q 3392 954 3200 621 
Q 3008 288 2675 105 
Q 2342 -77 1920 -77 
z
M 1882 397 
Q 2195 397 2400 534 
Q 2605 672 2704 899 
Q 2803 1126 2803 1402 
Q 2803 1664 2707 1881 
Q 2611 2099 2409 2230 
Q 2208 2362 1894 2362 
Q 1581 2362 1369 2227 
Q 1158 2093 1056 1872 
Q 954 1651 954 1370 
Q 954 1107 1056 883 
Q 1158 659 1363 528 
Q 1568 397 1882 397 
z
" transform="scale(0.015625)"/>
       </defs>
       <use xlink:href="#Archivo-Regular-36"/>
       <use xlink:href="#Archivo-Regular-30" x="57.299988"/>
       <use xlink:href="#Archivo-Regular-30" x="114.599976"/>
       <use xlink:href="#Archivo-Regular-2c" x="171.899963"/>
       <use xlink:href="#Archivo-Regular-30" x="199.59996"/>
       <use xlink:href="#Archivo-Regular-30" x="256.899948"/>
       <use xlink:href="#Archivo-Regular-30" x="314.199936"/>
      </g>
     </g>
    </g>
    <g id="text_15">
     <!-- Desembarques [toneladas] -->
     <g transform="translate(15.285 247.221172) rotate(-90) scale(0.11 -0.11)">
      <defs>
       <path id="Archivo-Regular-44" d="M 550 0 
L 550 4390 
L 2189 4390 
Q 2880 4390 3366 4160 
Q 3853 3930 4112 3446 
Q 4371 2963 4371 2195 
Q 4371 1440 4112 953 
Q 3853 467 3366 233 
Q 2880 0 2189 0 
L 550 0 
z
M 1158 525 
L 2176 525 
Q 2541 525 2829 617 
Q 3117 710 3321 902 
Q 3526 1094 3632 1398 
Q 3738 1702 3738 2125 
L 3738 2253 
Q 3738 2688 3632 2992 
Q 3526 3296 3324 3488 
Q 3123 3680 2835 3773 
Q 2547 3866 2176 3866 
L 1158 3866 
L 1158 525 
z
" transform="scale(0.015625)"/>
       <path id="Archivo-Regular-65" d="M 1786 -77 
Q 1286 -77 944 112 
Q 602 301 426 691 
Q 250 1082 250 1683 
Q 250 2291 426 2678 
Q 602 3066 947 3254 
Q 1293 3443 1811 3443 
Q 2285 3443 2605 3260 
Q 2925 3078 3088 2716 
Q 3251 2355 3251 1811 
L 3251 1542 
L 832 1542 
Q 845 1139 950 880 
Q 1056 621 1267 502 
Q 1478 384 1798 384 
Q 2016 384 2179 438 
Q 2342 493 2454 595 
Q 2566 698 2624 838 
Q 2682 979 2688 1146 
L 3238 1146 
Q 3232 877 3136 649 
Q 3040 422 2854 262 
Q 2669 102 2400 12 
Q 2131 -77 1786 -77 
z
M 845 1965 
L 2669 1965 
Q 2669 2246 2605 2438 
Q 2541 2630 2422 2752 
Q 2304 2874 2147 2928 
Q 1990 2982 1792 2982 
Q 1498 2982 1293 2873 
Q 1088 2765 979 2541 
Q 870 2317 845 1965 
z
" transform="scale(0.015625)"/>
       <path id="Archivo-Regular-73" d="M 1619 -77 
Q 1274 -77 1011 -6 
Q 749 64 576 198 
Q 403 333 313 518 
Q 224 704 224 941 
Q 224 973 224 1001 
Q 224 1030 230 1050 
L 787 1050 
Q 781 1024 781 1005 
Q 781 986 781 966 
Q 787 742 899 614 
Q 1011 486 1209 435 
Q 1408 384 1651 384 
Q 1862 384 2041 438 
Q 2221 493 2326 605 
Q 2432 717 2432 890 
Q 2432 1101 2294 1213 
Q 2157 1325 1933 1389 
Q 1709 1453 1466 1523 
Q 1261 1581 1056 1651 
Q 851 1722 688 1824 
Q 525 1926 425 2089 
Q 326 2253 326 2502 
Q 326 2726 419 2899 
Q 512 3072 685 3193 
Q 858 3315 1104 3376 
Q 1350 3437 1651 3437 
Q 1971 3437 2211 3366 
Q 2451 3296 2611 3168 
Q 2771 3040 2848 2877 
Q 2925 2714 2925 2528 
Q 2925 2490 2925 2454 
Q 2925 2419 2918 2400 
L 2368 2400 
L 2368 2470 
Q 2368 2598 2301 2716 
Q 2234 2835 2070 2908 
Q 1907 2982 1619 2982 
Q 1434 2982 1299 2953 
Q 1165 2925 1075 2864 
Q 986 2803 941 2723 
Q 896 2643 896 2541 
Q 896 2374 1005 2284 
Q 1114 2195 1296 2137 
Q 1478 2080 1690 2010 
Q 1914 1946 2147 1878 
Q 2381 1811 2576 1708 
Q 2771 1606 2889 1430 
Q 3008 1254 3008 966 
Q 3008 698 2905 499 
Q 2803 301 2614 173 
Q 2426 45 2173 -16 
Q 1920 -77 1619 -77 
z
" transform="scale(0.015625)"/>
       <path id="Archivo-Regular-6d" d="M 442 0 
L 442 3366 
L 896 3366 
L 947 2861 
L 992 2861 
Q 1120 3066 1280 3194 
Q 1440 3322 1632 3382 
Q 1824 3443 2048 3443 
Q 2374 3443 2611 3312 
Q 2848 3181 2963 2861 
L 3002 2861 
Q 3123 3066 3283 3190 
Q 3443 3315 3641 3379 
Q 3840 3443 4064 3443 
Q 4371 3443 4601 3337 
Q 4832 3232 4963 2992 
Q 5094 2752 5094 2349 
L 5094 0 
L 4531 0 
L 4531 2259 
Q 4531 2464 4483 2598 
Q 4435 2733 4345 2806 
Q 4256 2880 4137 2912 
Q 4019 2944 3885 2944 
Q 3661 2944 3472 2829 
Q 3283 2714 3168 2496 
Q 3053 2278 3053 1978 
L 3053 0 
L 2490 0 
L 2490 2259 
Q 2490 2464 2438 2598 
Q 2387 2733 2304 2806 
Q 2221 2880 2102 2912 
Q 1984 2944 1856 2944 
Q 1626 2944 1430 2829 
Q 1235 2714 1120 2496 
Q 1005 2278 1005 1978 
L 1005 0 
L 442 0 
z
" transform="scale(0.015625)"/>
       <path id="Archivo-Regular-62" d="M 2042 -77 
Q 1702 -77 1433 60 
Q 1165 198 992 480 
L 947 480 
L 890 0 
L 442 0 
L 442 4627 
L 1005 4627 
L 1005 2944 
L 1043 2944 
Q 1158 3123 1312 3232 
Q 1466 3341 1658 3392 
Q 1850 3443 2067 3443 
Q 2458 3443 2752 3257 
Q 3046 3072 3209 2688 
Q 3373 2304 3373 1709 
Q 3373 1082 3213 688 
Q 3053 294 2758 108 
Q 2464 -77 2042 -77 
z
M 1907 416 
Q 2195 416 2390 531 
Q 2586 646 2688 912 
Q 2790 1178 2790 1613 
L 2790 1747 
Q 2790 2170 2694 2435 
Q 2598 2701 2400 2825 
Q 2202 2950 1888 2950 
Q 1709 2950 1549 2892 
Q 1389 2835 1264 2694 
Q 1139 2554 1072 2317 
Q 1005 2080 1005 1734 
L 1005 1632 
Q 1005 1235 1097 966 
Q 1190 698 1392 557 
Q 1594 416 1907 416 
z
" transform="scale(0.015625)"/>
       <path id="Archivo-Regular-61" d="M 1286 -77 
Q 1101 -77 915 -32 
Q 730 13 570 115 
Q 410 218 314 400 
Q 218 582 218 858 
Q 218 1203 384 1427 
Q 550 1651 848 1776 
Q 1146 1901 1555 1949 
Q 1965 1997 2445 1997 
L 2445 2381 
Q 2445 2566 2381 2700 
Q 2317 2835 2153 2908 
Q 1990 2982 1690 2982 
Q 1402 2982 1232 2908 
Q 1062 2835 995 2720 
Q 928 2605 928 2464 
L 928 2368 
L 384 2368 
Q 378 2400 378 2432 
Q 378 2464 378 2509 
Q 378 2816 547 3024 
Q 717 3232 1024 3337 
Q 1331 3443 1728 3443 
Q 2150 3443 2435 3321 
Q 2720 3200 2864 2976 
Q 3008 2752 3008 2438 
L 3008 614 
Q 3008 493 3065 445 
Q 3123 397 3206 397 
L 3456 397 
L 3456 26 
Q 3366 -13 3257 -41 
Q 3149 -70 3008 -70 
Q 2842 -70 2733 -3 
Q 2624 64 2566 182 
Q 2509 301 2490 448 
L 2445 448 
Q 2330 288 2154 169 
Q 1978 51 1760 -13 
Q 1542 -77 1286 -77 
z
M 1427 397 
Q 1632 397 1814 461 
Q 1997 525 2137 643 
Q 2278 762 2361 928 
Q 2445 1094 2445 1293 
L 2445 1574 
Q 1926 1574 1561 1516 
Q 1197 1459 1001 1312 
Q 806 1165 806 896 
Q 806 723 883 614 
Q 960 506 1101 451 
Q 1242 397 1427 397 
z
" transform="scale(0.015625)"/>
       <path id="Archivo-Regular-72" d="M 442 0 
L 442 3366 
L 896 3366 
L 947 2810 
L 992 2810 
Q 1043 2970 1132 3114 
Q 1222 3258 1376 3350 
Q 1530 3443 1754 3443 
Q 1850 3443 1930 3427 
Q 2010 3411 2048 3392 
L 2048 2874 
L 1837 2874 
Q 1619 2874 1462 2800 
Q 1306 2726 1203 2592 
Q 1101 2458 1053 2272 
Q 1005 2086 1005 1875 
L 1005 0 
L 442 0 
z
" transform="scale(0.015625)"/>
       <path id="Archivo-Regular-71" d="M 2624 -1107 
L 2624 422 
L 2586 422 
Q 2470 250 2313 138 
Q 2157 26 1965 -25 
Q 1773 -77 1562 -77 
Q 1171 -77 876 108 
Q 582 294 416 681 
Q 250 1069 250 1658 
Q 250 2285 413 2678 
Q 576 3072 873 3257 
Q 1171 3443 1587 3443 
Q 1926 3443 2195 3305 
Q 2464 3168 2637 2886 
L 2682 2886 
L 2733 3366 
L 3187 3366 
L 3187 -1107 
L 2624 -1107 
z
M 1741 416 
Q 1926 416 2086 473 
Q 2246 531 2364 672 
Q 2483 813 2553 1046 
Q 2624 1280 2624 1632 
L 2624 1728 
Q 2624 2125 2531 2400 
Q 2438 2675 2240 2812 
Q 2042 2950 1722 2950 
Q 1434 2950 1238 2835 
Q 1043 2720 940 2454 
Q 838 2189 838 1747 
L 838 1613 
Q 838 1197 934 931 
Q 1030 666 1228 541 
Q 1427 416 1741 416 
z
" transform="scale(0.015625)"/>
       <path id="Archivo-Regular-75" d="M 1485 -77 
Q 998 -77 704 172 
Q 410 422 410 1043 
L 410 3366 
L 973 3366 
L 973 1120 
Q 973 909 1024 774 
Q 1075 640 1171 563 
Q 1267 486 1398 454 
Q 1530 422 1683 422 
Q 1926 422 2131 537 
Q 2336 653 2467 873 
Q 2598 1094 2598 1389 
L 2598 3366 
L 3162 3366 
L 3162 0 
L 2707 0 
L 2656 506 
L 2611 506 
Q 2477 301 2307 173 
Q 2138 45 1930 -16 
Q 1722 -77 1485 -77 
z
" transform="scale(0.015625)"/>
       <path id="Archivo-Regular-20" transform="scale(0.015625)"/>
       <path id="Archivo-Regular-5b" d="M 595 -1030 
L 595 4704 
L 1798 4704 
L 1798 4288 
L 1101 4288 
L 1101 -614 
L 1798 -614 
L 1798 -1030 
L 595 -1030 
z
" transform="scale(0.015625)"/>
       <path id="Archivo-Regular-74" d="M 1229 -77 
Q 966 -77 819 22 
Q 672 122 608 285 
Q 544 448 544 634 
L 544 2893 
L 109 2893 
L 109 3366 
L 557 3366 
L 659 4307 
L 1107 4307 
L 1107 3366 
L 1741 3366 
L 1741 2893 
L 1107 2893 
L 1107 717 
Q 1107 557 1164 477 
Q 1222 397 1382 397 
L 1741 397 
L 1741 26 
Q 1677 -6 1587 -25 
Q 1498 -45 1405 -61 
Q 1312 -77 1229 -77 
z
" transform="scale(0.015625)"/>
       <path id="Archivo-Regular-6f" d="M 1824 -77 
Q 1312 -77 963 112 
Q 614 301 432 691 
Q 250 1082 250 1683 
Q 250 2291 432 2678 
Q 614 3066 963 3254 
Q 1312 3443 1824 3443 
Q 2336 3443 2685 3254 
Q 3034 3066 3213 2678 
Q 3392 2291 3392 1683 
Q 3392 1082 3213 691 
Q 3034 301 2685 112 
Q 2336 -77 1824 -77 
z
M 1824 397 
Q 2150 397 2368 525 
Q 2586 653 2698 925 
Q 2810 1197 2810 1613 
L 2810 1754 
Q 2810 2176 2698 2445 
Q 2586 2714 2368 2842 
Q 2150 2970 1824 2970 
Q 1498 2970 1277 2842 
Q 1056 2714 947 2445 
Q 838 2176 838 1754 
L 838 1613 
Q 838 1197 947 925 
Q 1056 653 1277 525 
Q 1498 397 1824 397 
z
" transform="scale(0.015625)"/>
       <path id="Archivo-Regular-6e" d="M 442 0 
L 442 3366 
L 896 3366 
L 947 2861 
L 992 2861 
Q 1126 3066 1296 3194 
Q 1466 3322 1674 3382 
Q 1882 3443 2118 3443 
Q 2438 3443 2678 3334 
Q 2918 3226 3056 2982 
Q 3194 2739 3194 2323 
L 3194 0 
L 2630 0 
L 2630 2246 
Q 2630 2458 2576 2592 
Q 2522 2726 2429 2803 
Q 2336 2880 2205 2912 
Q 2074 2944 1914 2944 
Q 1677 2944 1465 2829 
Q 1254 2714 1129 2496 
Q 1005 2278 1005 1978 
L 1005 0 
L 442 0 
z
" transform="scale(0.015625)"/>
       <path id="Archivo-Regular-6c" d="M 442 0 
L 442 4627 
L 1005 4627 
L 1005 0 
L 442 0 
z
" transform="scale(0.015625)"/>
       <path id="Archivo-Regular-64" d="M 1587 -77 
Q 1171 -77 873 108 
Q 576 294 413 688 
Q 250 1082 250 1709 
Q 250 2304 416 2688 
Q 582 3072 876 3257 
Q 1171 3443 1562 3443 
Q 1786 3443 1978 3392 
Q 2170 3341 2320 3232 
Q 2470 3123 2586 2944 
L 2624 2944 
L 2624 4627 
L 3187 4627 
L 3187 0 
L 2733 0 
L 2682 480 
L 2637 480 
Q 2464 198 2189 60 
Q 1914 -77 1587 -77 
z
M 1722 416 
Q 2042 416 2240 557 
Q 2438 698 2531 966 
Q 2624 1235 2624 1632 
L 2624 1734 
Q 2624 2080 2553 2317 
Q 2483 2554 2361 2694 
Q 2240 2835 2080 2892 
Q 1920 2950 1741 2950 
Q 1427 2950 1228 2825 
Q 1030 2701 934 2435 
Q 838 2170 838 1747 
L 838 1613 
Q 838 1178 940 912 
Q 1043 646 1238 531 
Q 1434 416 1722 416 
z
" transform="scale(0.015625)"/>
       <path id="Archivo-Regular-5d" d="M 1299 4704 
L 1299 -1030 
L 96 -1030 
L 96 -614 
L 794 -614 
L 794 4288 
L 96 4288 
L 96 4704 
L 1299 4704 
z
" transform="scale(0.015625)"/>
      </defs>
      <use xlink:href="#Archivo-Regular-44"/>
      <use xlink:href="#Archivo-Regular-65" x="73.399994"/>
      <use xlink:href="#Archivo-Regular-73" x="128.199982"/>
      <use xlink:href="#Archivo-Regular-65" x="179.199966"/>
      <use xlink:href="#Archivo-Regular-6d" x="233.999954"/>
      <use xlink:href="#Archivo-Regular-62" x="319.999939"/>
      <use xlink:href="#Archivo-Regular-61" x="376.699936"/>
      <use xlink:href="#Archivo-Regular-72" x="431.199921"/>
      <use xlink:href="#Archivo-Regular-71" x="464.399918"/>
      <use xlink:href="#Archivo-Regular-75" x="521.099915"/>
      <use xlink:href="#Archivo-Regular-65" x="577.299911"/>
      <use xlink:href="#Archivo-Regular-73" x="632.099899"/>
      <use xlink:href="#Archivo-Regular-20" x="683.099884"/>
      <use xlink:href="#Archivo-Regular-5b" x="703.999878"/>
      <use xlink:href="#Archivo-Regular-74" x="733.599869"/>
      <use xlink:href="#Archivo-Regular-6f" x="763.299866"/>
      <use xlink:href="#Archivo-Regular-6e" x="820.29985"/>
      <use xlink:href="#Archivo-Regular-65" x="876.599838"/>
      <use xlink:href="#Archivo-Regular-6c" x="931.399826"/>
      <use xlink:href="#Archivo-Regular-61" x="953.899811"/>
      <use xlink:href="#Archivo-Regular-64" x="1008.399796"/>
      <use xlink:href="#Archivo-Regular-61" x="1065.099792"/>
      <use xlink:href="#Archivo-Regular-73" x="1119.599777"/>
      <use xlink:href="#Archivo-Regular-5d" x="1170.599762"/>
     </g>
    </g>
   </g>
   <g id="line2d_22">
    <path d="M 92.696392 159.654848 
L 106.605483 158.167508 
L 120.514574 138.30873 
L 134.423665 144.586134 
L 148.332756 127.860009 
L 162.241847 139.787447 
L 176.150938 85.87275 
L 190.060028 68.788469 
L 203.969119 82.188937 
L 217.87821 130.813606 
L 231.787301 151.877507 
L 245.696392 177.653457 
L 259.605483 139.142063 
L 273.514574 132.468128 
L 287.423665 145.018602 
L 301.332756 117.5284 
L 315.241847 104.05511 
L 329.150938 94.501845 
L 343.060028 107.302256 
L 356.969119 89.859143 
L 370.87821 112.669486 
L 384.787301 101.610235 
L 398.696392 125.611977 
L 412.605483 149.74527 
L 426.514574 101.630989 
L 440.423665 115.995131 
L 454.332756 110.321981 
L 468.241847 135.272684 
L 482.150938 135.449066 
L 496.060028 148.386654 
L 509.969119 140.739848 
L 523.87821 119.122393 
L 537.787301 138.508955 
L 551.696392 130.020937 
L 565.605483 128.123928 
" clip-path="url(#p637f563bfd)" style="fill: none; stroke: #7bb5c4; stroke-width: 0.5; stroke-linecap: square"/>
    <defs>
     <path id="m65cc4ec62d" d="M 0 1.5 
C 0.397805 1.5 0.77937 1.341951 1.06066 1.06066 
C 1.341951 0.77937 1.5 0.397805 1.5 0 
C 1.5 -0.397805 1.341951 -0.77937 1.06066 -1.06066 
C 0.77937 -1.341951 0.397805 -1.5 0 -1.5 
C -0.397805 -1.5 -0.77937 -1.341951 -1.06066 -1.06066 
C -1.341951 -0.77937 -1.5 -0.397805 -1.5 0 
C -1.5 0.397805 -1.341951 0.77937 -1.06066 1.06066 
C -0.77937 1.341951 -0.397805 1.5 0 1.5 
z
" style="stroke: #7bb5c4"/>
    </defs>
    <g clip-path="url(#p637f563bfd)">
     <use xlink:href="#m65cc4ec62d" x="92.696392" y="159.654848" style="fill: #7bb5c4; stroke: #7bb5c4"/>
     <use xlink:href="#m65cc4ec62d" x="106.605483" y="158.167508" style="fill: #7bb5c4; stroke: #7bb5c4"/>
     <use xlink:href="#m65cc4ec62d" x="120.514574" y="138.30873" style="fill: #7bb5c4; stroke: #7bb5c4"/>
     <use xlink:href="#m65cc4ec62d" x="134.423665" y="144.586134" style="fill: #7bb5c4; stroke: #7bb5c4"/>
     <use xlink:href="#m65cc4ec62d" x="148.332756" y="127.860009" style="fill: #7bb5c4; stroke: #7bb5c4"/>
     <use xlink:href="#m65cc4ec62d" x="162.241847" y="139.787447" style="fill: #7bb5c4; stroke: #7bb5c4"/>
     <use xlink:href="#m65cc4ec62d" x="176.150938" y="85.87275" style="fill: #7bb5c4; stroke: #7bb5c4"/>
     <use xlink:href="#m65cc4ec62d" x="190.060028" y="68.788469" style="fill: #7bb5c4; stroke: #7bb5c4"/>
     <use xlink:href="#m65cc4ec62d" x="203.969119" y="82.188937" style="fill: #7bb5c4; stroke: #7bb5c4"/>
     <use xlink:href="#m65cc4ec62d" x="217.87821" y="130.813606" style="fill: #7bb5c4; stroke: #7bb5c4"/>
     <use xlink:href="#m65cc4ec62d" x="231.787301" y="151.877507" style="fill: #7bb5c4; stroke: #7bb5c4"/>
     <use xlink:href="#m65cc4ec62d" x="245.696392" y="177.653457" style="fill: #7bb5c4; stroke: #7bb5c4"/>
     <use xlink:href="#m65cc4ec62d" x="259.605483" y="139.142063" style="fill: #7bb5c4; stroke: #7bb5c4"/>
     <use xlink:href="#m65cc4ec62d" x="273.514574" y="132.468128" style="fill: #7bb5c4; stroke: #7bb5c4"/>
     <use xlink:href="#m65cc4ec62d" x="287.423665" y="145.018602" style="fill: #7bb5c4; stroke: #7bb5c4"/>
     <use xlink:href="#m65cc4ec62d" x="301.332756" y="117.5284" style="fill: #7bb5c4; stroke: #7bb5c4"/>
     <use xlink:href="#m65cc4ec62d" x="315.241847" y="104.05511" style="fill: #7bb5c4; stroke: #7bb5c4"/>
     <use xlink:href="#m65cc4ec62d" x="329.150938" y="94.501845" style="fill: #7bb5c4; stroke: #7bb5c4"/>
     <use xlink:href="#m65cc4ec62d" x="343.060028" y="107.302256" style="fill: #7bb5c4; stroke: #7bb5c4"/>
     <use xlink:href="#m65cc4ec62d" x="356.969119" y="89.859143" style="fill: #7bb5c4; stroke: #7bb5c4"/>
     <use xlink:href="#m65cc4ec62d" x="370.87821" y="112.669486" style="fill: #7bb5c4; stroke: #7bb5c4"/>
     <use xlink:href="#m65cc4ec62d" x="384.787301" y="101.610235" style="fill: #7bb5c4; stroke: #7bb5c4"/>
     <use xlink:href="#m65cc4ec62d" x="398.696392" y="125.611977" style="fill: #7bb5c4; stroke: #7bb5c4"/>
     <use xlink:href="#m65cc4ec62d" x="412.605483" y="149.74527" style="fill: #7bb5c4; stroke: #7bb5c4"/>
     <use xlink:href="#m65cc4ec62d" x="426.514574" y="101.630989" style="fill: #7bb5c4; stroke: #7bb5c4"/>
     <use xlink:href="#m65cc4ec62d" x="440.423665" y="115.995131" style="fill: #7bb5c4; stroke: #7bb5c4"/>
     <use xlink:href="#m65cc4ec62d" x="454.332756" y="110.321981" style="fill: #7bb5c4; stroke: #7bb5c4"/>
     <use xlink:href="#m65cc4ec62d" x="468.241847" y="135.272684" style="fill: #7bb5c4; stroke: #7bb5c4"/>
     <use xlink:href="#m65cc4ec62d" x="482.150938" y="135.449066" style="fill: #7bb5c4; stroke: #7bb5c4"/>
     <use xlink:href="#m65cc4ec62d" x="496.060028" y="148.386654" style="fill: #7bb5c4; stroke: #7bb5c4"/>
     <use xlink:href="#m65cc4ec62d" x="509.969119" y="140.739848" style="fill: #7bb5c4; stroke: #7bb5c4"/>
     <use xlink:href="#m65cc4ec62d" x="523.87821" y="119.122393" style="fill: #7bb5c4; stroke: #7bb5c4"/>
     <use xlink:href="#m65cc4ec62d" x="537.787301" y="138.508955" style="fill: #7bb5c4; stroke: #7bb5c4"/>
     <use xlink:href="#m65cc4ec62d" x="551.696392" y="130.020937" style="fill: #7bb5c4; stroke: #7bb5c4"/>
     <use xlink:href="#m65cc4ec62d" x="565.605483" y="128.123928" style="fill: #7bb5c4; stroke: #7bb5c4"/>
    </g>
   </g>
   <g id="line2d_23">
    <path d="M 92.696392 309.91047 
L 106.605483 308.587557 
L 120.514574 310.786422 
L 134.423665 310.72439 
L 148.332756 308.441053 
L 162.241847 300.427184 
L 176.150938 292.180895 
L 190.060028 299.929748 
L 203.969119 300.867462 
L 217.87821 306.608469 
L 231.787301 306.187288 
L 245.696392 307.690926 
L 259.605483 303.8779 
L 273.514574 307.44126 
L 287.423665 301.445125 
L 301.332756 300.718927 
L 315.241847 303.058292 
L 329.150938 304.821258 
L 343.060028 304.523239 
L 356.969119 304.52193 
L 370.87821 304.666809 
L 384.787301 304.112397 
L 398.696392 305.988097 
L 412.605483 307.279045 
L 426.514574 308.070437 
L 440.423665 307.492277 
L 454.332756 309.390596 
L 468.241847 309.798278 
L 482.150938 308.879706 
L 496.060028 308.207053 
L 509.969119 307.812328 
L 523.87821 308.470037 
L 537.787301 307.56808 
L 551.696392 308.716137 
L 565.605483 311.353159 
" clip-path="url(#p637f563bfd)" style="fill: none; stroke: #8d9bff; stroke-width: 0.5; stroke-linecap: square"/>
    <defs>
     <path id="m04e4d8687d" d="M 0 1.5 
C 0.397805 1.5 0.77937 1.341951 1.06066 1.06066 
C 1.341951 0.77937 1.5 0.397805 1.5 0 
C 1.5 -0.397805 1.341951 -0.77937 1.06066 -1.06066 
C 0.77937 -1.341951 0.397805 -1.5 0 -1.5 
C -0.397805 -1.5 -0.77937 -1.341951 -1.06066 -1.06066 
C -1.341951 -0.77937 -1.5 -0.397805 -1.5 0 
C -1.5 0.397805 -1.341951 0.77937 -1.06066 1.06066 
C -0.77937 1.341951 -0.397805 1.5 0 1.5 
z
" style="stroke: #8d9bff"/>
    </defs>
    <g clip-path="url(#p637f563bfd)">
     <use xlink:href="#m04e4d8687d" x="92.696392" y="309.91047" style="fill: #8d9bff; stroke: #8d9bff"/>
     <use xlink:href="#m04e4d8687d" x="106.605483" y="308.587557" style="fill: #8d9bff; stroke: #8d9bff"/>
     <use xlink:href="#m04e4d8687d" x="120.514574" y="310.786422" style="fill: #8d9bff; stroke: #8d9bff"/>
     <use xlink:href="#m04e4d8687d" x="134.423665" y="310.72439" style="fill: #8d9bff; stroke: #8d9bff"/>
     <use xlink:href="#m04e4d8687d" x="148.332756" y="308.441053" style="fill: #8d9bff; stroke: #8d9bff"/>
     <use xlink:href="#m04e4d8687d" x="162.241847" y="300.427184" style="fill: #8d9bff; stroke: #8d9bff"/>
     <use xlink:href="#m04e4d8687d" x="176.150938" y="292.180895" style="fill: #8d9bff; stroke: #8d9bff"/>
     <use xlink:href="#m04e4d8687d" x="190.060028" y="299.929748" style="fill: #8d9bff; stroke: #8d9bff"/>
     <use xlink:href="#m04e4d8687d" x="203.969119" y="300.867462" style="fill: #8d9bff; stroke: #8d9bff"/>
     <use xlink:href="#m04e4d8687d" x="217.87821" y="306.608469" style="fill: #8d9bff; stroke: #8d9bff"/>
     <use xlink:href="#m04e4d8687d" x="231.787301" y="306.187288" style="fill: #8d9bff; stroke: #8d9bff"/>
     <use xlink:href="#m04e4d8687d" x="245.696392" y="307.690926" style="fill: #8d9bff; stroke: #8d9bff"/>
     <use xlink:href="#m04e4d8687d" x="259.605483" y="303.8779" style="fill: #8d9bff; stroke: #8d9bff"/>
     <use xlink:href="#m04e4d8687d" x="273.514574" y="307.44126" style="fill: #8d9bff; stroke: #8d9bff"/>
     <use xlink:href="#m04e4d8687d" x="287.423665" y="301.445125" style="fill: #8d9bff; stroke: #8d9bff"/>
     <use xlink:href="#m04e4d8687d" x="301.332756" y="300.718927" style="fill: #8d9bff; stroke: #8d9bff"/>
     <use xlink:href="#m04e4d8687d" x="315.241847" y="303.058292" style="fill: #8d9bff; stroke: #8d9bff"/>
     <use xlink:href="#m04e4d8687d" x="329.150938" y="304.821258" style="fill: #8d9bff; stroke: #8d9bff"/>
     <use xlink:href="#m04e4d8687d" x="343.060028" y="304.523239" style="fill: #8d9bff; stroke: #8d9bff"/>
     <use xlink:href="#m04e4d8687d" x="356.969119" y="304.52193" style="fill: #8d9bff; stroke: #8d9bff"/>
     <use xlink:href="#m04e4d8687d" x="370.87821" y="304.666809" style="fill: #8d9bff; stroke: #8d9bff"/>
     <use xlink:href="#m04e4d8687d" x="384.787301" y="304.112397" style="fill: #8d9bff; stroke: #8d9bff"/>
     <use xlink:href="#m04e4d8687d" x="398.696392" y="305.988097" style="fill: #8d9bff; stroke: #8d9bff"/>
     <use xlink:href="#m04e4d8687d" x="412.605483" y="307.279045" style="fill: #8d9bff; stroke: #8d9bff"/>
     <use xlink:href="#m04e4d8687d" x="426.514574" y="308.070437" style="fill: #8d9bff; stroke: #8d9bff"/>
     <use xlink:href="#m04e4d8687d" x="440.423665" y="307.492277" style="fill: #8d9bff; stroke: #8d9bff"/>
     <use xlink:href="#m04e4d8687d" x="454.332756" y="309.390596" style="fill: #8d9bff; stroke: #8d9bff"/>
     <use xlink:href="#m04e4d8687d" x="468.241847" y="309.798278" style="fill: #8d9bff; stroke: #8d9bff"/>
     <use xlink:href="#m04e4d8687d" x="482.150938" y="308.879706" style="fill: #8d9bff; stroke: #8d9bff"/>
     <use xlink:href="#m04e4d8687d" x="496.060028" y="308.207053" style="fill: #8d9bff; stroke: #8d9bff"/>
     <use xlink:href="#m04e4d8687d" x="509.969119" y="307.812328" style="fill: #8d9bff; stroke: #8d9bff"/>
     <use xlink:href="#m04e4d8687d" x="523.87821" y="308.470037" style="fill: #8d9bff; stroke: #8d9bff"/>
     <use xlink:href="#m04e4d8687d" x="537.787301" y="307.56808" style="fill: #8d9bff; stroke: #8d9bff"/>
     <use xlink:href="#m04e4d8687d" x="551.696392" y="308.716137" style="fill: #8d9bff; stroke: #8d9bff"/>
     <use xlink:href="#m04e4d8687d" x="565.605483" y="311.353159" style="fill: #8d9bff; stroke: #8d9bff"/>
    </g>
   </g>
   <g id="line2d_24">
    <path d="M 92.696392 280.984847 
L 106.605483 267.129879 
L 120.514574 253.418977 
L 134.423665 250.80349 
L 148.332756 235.921596 
L 162.241847 224.57331 
L 176.150938 217.650341 
L 190.060028 192.153945 
L 203.969119 135.019686 
L 217.87821 146.321515 
L 231.787301 155.609584 
L 245.696392 189.051992 
L 259.605483 213.735733 
L 273.514574 209.107478 
L 287.423665 222.166675 
L 301.332756 215.419601 
L 315.241847 222.816484 
L 329.150938 200.189484 
L 343.060028 221.508424 
L 356.969119 230.107315 
L 370.87821 248.576136 
L 384.787301 249.881306 
L 398.696392 241.408828 
L 412.605483 248.768419 
L 426.514574 242.975267 
L 440.423665 230.627686 
L 454.332756 242.036024 
L 468.241847 235.106593 
L 482.150938 205.569175 
L 496.060028 198.963142 
L 509.969119 208.009942 
L 523.87821 210.567459 
L 537.787301 199.73232 
L 551.696392 205.104048 
L 565.605483 205.714211 
" clip-path="url(#p637f563bfd)" style="fill: none; stroke: #ff9750; stroke-width: 0.5; stroke-linecap: square"/>
    <defs>
     <path id="m5a91bdf9b0" d="M 0 1.5 
C 0.397805 1.5 0.77937 1.341951 1.06066 1.06066 
C 1.341951 0.77937 1.5 0.397805 1.5 0 
C 1.5 -0.397805 1.341951 -0.77937 1.06066 -1.06066 
C 0.77937 -1.341951 0.397805 -1.5 0 -1.5 
C -0.397805 -1.5 -0.77937 -1.341951 -1.06066 -1.06066 
C -1.341951 -0.77937 -1.5 -0.397805 -1.5 0 
C -1.5 0.397805 -1.341951 0.77937 -1.06066 1.06066 
C -0.77937 1.341951 -0.397805 1.5 0 1.5 
z
" style="stroke: #ff9750"/>
    </defs>
    <g clip-path="url(#p637f563bfd)">
     <use xlink:href="#m5a91bdf9b0" x="92.696392" y="280.984847" style="fill: #ff9750; stroke: #ff9750"/>
     <use xlink:href="#m5a91bdf9b0" x="106.605483" y="267.129879" style="fill: #ff9750; stroke: #ff9750"/>
     <use xlink:href="#m5a91bdf9b0" x="120.514574" y="253.418977" style="fill: #ff9750; stroke: #ff9750"/>
     <use xlink:href="#m5a91bdf9b0" x="134.423665" y="250.80349" style="fill: #ff9750; stroke: #ff9750"/>
     <use xlink:href="#m5a91bdf9b0" x="148.332756" y="235.921596" style="fill: #ff9750; stroke: #ff9750"/>
     <use xlink:href="#m5a91bdf9b0" x="162.241847" y="224.57331" style="fill: #ff9750; stroke: #ff9750"/>
     <use xlink:href="#m5a91bdf9b0" x="176.150938" y="217.650341" style="fill: #ff9750; stroke: #ff9750"/>
     <use xlink:href="#m5a91bdf9b0" x="190.060028" y="192.153945" style="fill: #ff9750; stroke: #ff9750"/>
     <use xlink:href="#m5a91bdf9b0" x="203.969119" y="135.019686" style="fill: #ff9750; stroke: #ff9750"/>
     <use xlink:href="#m5a91bdf9b0" x="217.87821" y="146.321515" style="fill: #ff9750; stroke: #ff9750"/>
     <use xlink:href="#m5a91bdf9b0" x="231.787301" y="155.609584" style="fill: #ff9750; stroke: #ff9750"/>
     <use xlink:href="#m5a91bdf9b0" x="245.696392" y="189.051992" style="fill: #ff9750; stroke: #ff9750"/>
     <use xlink:href="#m5a91bdf9b0" x="259.605483" y="213.735733" style="fill: #ff9750; stroke: #ff9750"/>
     <use xlink:href="#m5a91bdf9b0" x="273.514574" y="209.107478" style="fill: #ff9750; stroke: #ff9750"/>
     <use xlink:href="#m5a91bdf9b0" x="287.423665" y="222.166675" style="fill: #ff9750; stroke: #ff9750"/>
     <use xlink:href="#m5a91bdf9b0" x="301.332756" y="215.419601" style="fill: #ff9750; stroke: #ff9750"/>
     <use xlink:href="#m5a91bdf9b0" x="315.241847" y="222.816484" style="fill: #ff9750; stroke: #ff9750"/>
     <use xlink:href="#m5a91bdf9b0" x="329.150938" y="200.189484" style="fill: #ff9750; stroke: #ff9750"/>
     <use xlink:href="#m5a91bdf9b0" x="343.060028" y="221.508424" style="fill: #ff9750; stroke: #ff9750"/>
     <use xlink:href="#m5a91bdf9b0" x="356.969119" y="230.107315" style="fill: #ff9750; stroke: #ff9750"/>
     <use xlink:href="#m5a91bdf9b0" x="370.87821" y="248.576136" style="fill: #ff9750; stroke: #ff9750"/>
     <use xlink:href="#m5a91bdf9b0" x="384.787301" y="249.881306" style="fill: #ff9750; stroke: #ff9750"/>
     <use xlink:href="#m5a91bdf9b0" x="398.696392" y="241.408828" style="fill: #ff9750; stroke: #ff9750"/>
     <use xlink:href="#m5a91bdf9b0" x="412.605483" y="248.768419" style="fill: #ff9750; stroke: #ff9750"/>
     <use xlink:href="#m5a91bdf9b0" x="426.514574" y="242.975267" style="fill: #ff9750; stroke: #ff9750"/>
     <use xlink:href="#m5a91bdf9b0" x="440.423665" y="230.627686" style="fill: #ff9750; stroke: #ff9750"/>
     <use xlink:href="#m5a91bdf9b0" x="454.332756" y="242.036024" style="fill: #ff9750; stroke: #ff9750"/>
     <use xlink:href="#m5a91bdf9b0" x="468.241847" y="235.106593" style="fill: #ff9750; stroke: #ff9750"/>
     <use xlink:href="#m5a91bdf9b0" x="482.150938" y="205.569175" style="fill: #ff9750; stroke: #ff9750"/>
     <use xlink:href="#m5a91bdf9b0" x="496.060028" y="198.963142" style="fill: #ff9750; stroke: #ff9750"/>
     <use xlink:href="#m5a91bdf9b0" x="509.969119" y="208.009942" style="fill: #ff9750; stroke: #ff9750"/>
     <use xlink:href="#m5a91bdf9b0" x="523.87821" y="210.567459" style="fill: #ff9750; stroke: #ff9750"/>
     <use xlink:href="#m5a91bdf9b0" x="537.787301" y="199.73232" style="fill: #ff9750; stroke: #ff9750"/>
     <use xlink:href="#m5a91bdf9b0" x="551.696392" y="205.104048" style="fill: #ff9750; stroke: #ff9750"/>
     <use xlink:href="#m5a91bdf9b0" x="565.605483" y="205.714211" style="fill: #ff9750; stroke: #ff9750"/>
    </g>
   </g>
   <g id="line2d_25">
    <path d="M 92.696392 296.968656 
L 106.605483 282.972783 
L 120.514574 284.814126 
L 134.423665 273.678394 
L 148.332756 225.98548 
L 162.241847 201.922563 
L 176.150938 199.77512 
L 190.060028 189.665096 
L 203.969119 181.809379 
L 217.87821 223.361279 
L 231.787301 231.742695 
L 245.696392 245.491791 
L 259.605483 239.081427 
L 273.514574 251.196544 
L 287.423665 253.760563 
L 301.332756 286.405802 
L 315.241847 278.19369 
L 329.150938 220.880332 
L 343.060028 248.641961 
L 356.969119 255.314451 
L 370.87821 288.8179 
L 384.787301 292.736345 
L 398.696392 281.85195 
L 412.605483 270.526464 
L 426.514574 252.016288 
L 440.423665 267.550789 
L 454.332756 273.726747 
L 468.241847 280.441225 
L 482.150938 274.735975 
L 496.060028 268.85149 
L 509.969119 270.674141 
L 523.87821 285.288762 
L 537.787301 273.910498 
L 551.696392 272.409748 
L 565.605483 273.350759 
" clip-path="url(#p637f563bfd)" style="fill: none; stroke: #ffd900; stroke-width: 0.5; stroke-linecap: square"/>
    <defs>
     <path id="m39a08e90a2" d="M 0 1.5 
C 0.397805 1.5 0.77937 1.341951 1.06066 1.06066 
C 1.341951 0.77937 1.5 0.397805 1.5 0 
C 1.5 -0.397805 1.341951 -0.77937 1.06066 -1.06066 
C 0.77937 -1.341951 0.397805 -1.5 0 -1.5 
C -0.397805 -1.5 -0.77937 -1.341951 -1.06066 -1.06066 
C -1.341951 -0.77937 -1.5 -0.397805 -1.5 0 
C -1.5 0.397805 -1.341951 0.77937 -1.06066 1.06066 
C -0.77937 1.341951 -0.397805 1.5 0 1.5 
z
" style="stroke: #ffd900"/>
    </defs>
    <g clip-path="url(#p637f563bfd)">
     <use xlink:href="#m39a08e90a2" x="92.696392" y="296.968656" style="fill: #ffd900; stroke: #ffd900"/>
     <use xlink:href="#m39a08e90a2" x="106.605483" y="282.972783" style="fill: #ffd900; stroke: #ffd900"/>
     <use xlink:href="#m39a08e90a2" x="120.514574" y="284.814126" style="fill: #ffd900; stroke: #ffd900"/>
     <use xlink:href="#m39a08e90a2" x="134.423665" y="273.678394" style="fill: #ffd900; stroke: #ffd900"/>
     <use xlink:href="#m39a08e90a2" x="148.332756" y="225.98548" style="fill: #ffd900; stroke: #ffd900"/>
     <use xlink:href="#m39a08e90a2" x="162.241847" y="201.922563" style="fill: #ffd900; stroke: #ffd900"/>
     <use xlink:href="#m39a08e90a2" x="176.150938" y="199.77512" style="fill: #ffd900; stroke: #ffd900"/>
     <use xlink:href="#m39a08e90a2" x="190.060028" y="189.665096" style="fill: #ffd900; stroke: #ffd900"/>
     <use xlink:href="#m39a08e90a2" x="203.969119" y="181.809379" style="fill: #ffd900; stroke: #ffd900"/>
     <use xlink:href="#m39a08e90a2" x="217.87821" y="223.361279" style="fill: #ffd900; stroke: #ffd900"/>
     <use xlink:href="#m39a08e90a2" x="231.787301" y="231.742695" style="fill: #ffd900; stroke: #ffd900"/>
     <use xlink:href="#m39a08e90a2" x="245.696392" y="245.491791" style="fill: #ffd900; stroke: #ffd900"/>
     <use xlink:href="#m39a08e90a2" x="259.605483" y="239.081427" style="fill: #ffd900; stroke: #ffd900"/>
     <use xlink:href="#m39a08e90a2" x="273.514574" y="251.196544" style="fill: #ffd900; stroke: #ffd900"/>
     <use xlink:href="#m39a08e90a2" x="287.423665" y="253.760563" style="fill: #ffd900; stroke: #ffd900"/>
     <use xlink:href="#m39a08e90a2" x="301.332756" y="286.405802" style="fill: #ffd900; stroke: #ffd900"/>
     <use xlink:href="#m39a08e90a2" x="315.241847" y="278.19369" style="fill: #ffd900; stroke: #ffd900"/>
     <use xlink:href="#m39a08e90a2" x="329.150938" y="220.880332" style="fill: #ffd900; stroke: #ffd900"/>
     <use xlink:href="#m39a08e90a2" x="343.060028" y="248.641961" style="fill: #ffd900; stroke: #ffd900"/>
     <use xlink:href="#m39a08e90a2" x="356.969119" y="255.314451" style="fill: #ffd900; stroke: #ffd900"/>
     <use xlink:href="#m39a08e90a2" x="370.87821" y="288.8179" style="fill: #ffd900; stroke: #ffd900"/>
     <use xlink:href="#m39a08e90a2" x="384.787301" y="292.736345" style="fill: #ffd900; stroke: #ffd900"/>
     <use xlink:href="#m39a08e90a2" x="398.696392" y="281.85195" style="fill: #ffd900; stroke: #ffd900"/>
     <use xlink:href="#m39a08e90a2" x="412.605483" y="270.526464" style="fill: #ffd900; stroke: #ffd900"/>
     <use xlink:href="#m39a08e90a2" x="426.514574" y="252.016288" style="fill: #ffd900; stroke: #ffd900"/>
     <use xlink:href="#m39a08e90a2" x="440.423665" y="267.550789" style="fill: #ffd900; stroke: #ffd900"/>
     <use xlink:href="#m39a08e90a2" x="454.332756" y="273.726747" style="fill: #ffd900; stroke: #ffd900"/>
     <use xlink:href="#m39a08e90a2" x="468.241847" y="280.441225" style="fill: #ffd900; stroke: #ffd900"/>
     <use xlink:href="#m39a08e90a2" x="482.150938" y="274.735975" style="fill: #ffd900; stroke: #ffd900"/>
     <use xlink:href="#m39a08e90a2" x="496.060028" y="268.85149" style="fill: #ffd900; stroke: #ffd900"/>
     <use xlink:href="#m39a08e90a2" x="509.969119" y="270.674141" style="fill: #ffd900; stroke: #ffd900"/>
     <use xlink:href="#m39a08e90a2" x="523.87821" y="285.288762" style="fill: #ffd900; stroke: #ffd900"/>
     <use xlink:href="#m39a08e90a2" x="537.787301" y="273.910498" style="fill: #ffd900; stroke: #ffd900"/>
     <use xlink:href="#m39a08e90a2" x="551.696392" y="272.409748" style="fill: #ffd900; stroke: #ffd900"/>
     <use xlink:href="#m39a08e90a2" x="565.605483" y="273.350759" style="fill: #ffd900; stroke: #ffd900"/>
    </g>
   </g>
   <g id="line2d_26">
    <path d="M 92.696392 302.768716 
L 106.605483 295.696218 
L 120.514574 270.994689 
L 134.423665 263.574736 
L 148.332756 238.810903 
L 162.241847 261.907618 
L 176.150938 258.049083 
L 190.060028 258.24245 
L 203.969119 265.898435 
L 217.87821 259.308429 
L 231.787301 266.351896 
L 245.696392 265.034898 
L 259.605483 274.078537 
L 273.514574 270.406371 
L 287.423665 270.293141 
L 301.332756 256.513751 
L 315.241847 273.549047 
L 329.150938 267.617698 
L 343.060028 278.431211 
L 356.969119 271.80599 
L 370.87821 268.536405 
L 384.787301 278.4155 
L 398.696392 285.874686 
L 412.605483 283.14621 
L 426.514574 295.209076 
L 440.423665 293.514192 
L 454.332756 290.184638 
L 468.241847 292.740273 
L 482.150938 295.660673 
L 496.060028 290.154764 
L 509.969119 292.036213 
L 523.87821 291.971994 
L 537.787301 291.981718 
L 551.696392 295.495936 
L 565.605483 301.420562 
" clip-path="url(#p637f563bfd)" style="fill: none; stroke: #d3d3e0; stroke-width: 0.5; stroke-linecap: square"/>
    <defs>
     <path id="m74ccb866b8" d="M 0 1.5 
C 0.397805 1.5 0.77937 1.341951 1.06066 1.06066 
C 1.341951 0.77937 1.5 0.397805 1.5 0 
C 1.5 -0.397805 1.341951 -0.77937 1.06066 -1.06066 
C 0.77937 -1.341951 0.397805 -1.5 0 -1.5 
C -0.397805 -1.5 -0.77937 -1.341951 -1.06066 -1.06066 
C -1.341951 -0.77937 -1.5 -0.397805 -1.5 0 
C -1.5 0.397805 -1.341951 0.77937 -1.06066 1.06066 
C -0.77937 1.341951 -0.397805 1.5 0 1.5 
z
" style="stroke: #d3d3e0"/>
    </defs>
    <g clip-path="url(#p637f563bfd)">
     <use xlink:href="#m74ccb866b8" x="92.696392" y="302.768716" style="fill: #d3d3e0; stroke: #d3d3e0"/>
     <use xlink:href="#m74ccb866b8" x="106.605483" y="295.696218" style="fill: #d3d3e0; stroke: #d3d3e0"/>
     <use xlink:href="#m74ccb866b8" x="120.514574" y="270.994689" style="fill: #d3d3e0; stroke: #d3d3e0"/>
     <use xlink:href="#m74ccb866b8" x="134.423665" y="263.574736" style="fill: #d3d3e0; stroke: #d3d3e0"/>
     <use xlink:href="#m74ccb866b8" x="148.332756" y="238.810903" style="fill: #d3d3e0; stroke: #d3d3e0"/>
     <use xlink:href="#m74ccb866b8" x="162.241847" y="261.907618" style="fill: #d3d3e0; stroke: #d3d3e0"/>
     <use xlink:href="#m74ccb866b8" x="176.150938" y="258.049083" style="fill: #d3d3e0; stroke: #d3d3e0"/>
     <use xlink:href="#m74ccb866b8" x="190.060028" y="258.24245" style="fill: #d3d3e0; stroke: #d3d3e0"/>
     <use xlink:href="#m74ccb866b8" x="203.969119" y="265.898435" style="fill: #d3d3e0; stroke: #d3d3e0"/>
     <use xlink:href="#m74ccb866b8" x="217.87821" y="259.308429" style="fill: #d3d3e0; stroke: #d3d3e0"/>
     <use xlink:href="#m74ccb866b8" x="231.787301" y="266.351896" style="fill: #d3d3e0; stroke: #d3d3e0"/>
     <use xlink:href="#m74ccb866b8" x="245.696392" y="265.034898" style="fill: #d3d3e0; stroke: #d3d3e0"/>
     <use xlink:href="#m74ccb866b8" x="259.605483" y="274.078537" style="fill: #d3d3e0; stroke: #d3d3e0"/>
     <use xlink:href="#m74ccb866b8" x="273.514574" y="270.406371" style="fill: #d3d3e0; stroke: #d3d3e0"/>
     <use xlink:href="#m74ccb866b8" x="287.423665" y="270.293141" style="fill: #d3d3e0; stroke: #d3d3e0"/>
     <use xlink:href="#m74ccb866b8" x="301.332756" y="256.513751" style="fill: #d3d3e0; stroke: #d3d3e0"/>
     <use xlink:href="#m74ccb866b8" x="315.241847" y="273.549047" style="fill: #d3d3e0; stroke: #d3d3e0"/>
     <use xlink:href="#m74ccb866b8" x="329.150938" y="267.617698" style="fill: #d3d3e0; stroke: #d3d3e0"/>
     <use xlink:href="#m74ccb866b8" x="343.060028" y="278.431211" style="fill: #d3d3e0; stroke: #d3d3e0"/>
     <use xlink:href="#m74ccb866b8" x="356.969119" y="271.80599" style="fill: #d3d3e0; stroke: #d3d3e0"/>
     <use xlink:href="#m74ccb866b8" x="370.87821" y="268.536405" style="fill: #d3d3e0; stroke: #d3d3e0"/>
     <use xlink:href="#m74ccb866b8" x="384.787301" y="278.4155" style="fill: #d3d3e0; stroke: #d3d3e0"/>
     <use xlink:href="#m74ccb866b8" x="398.696392" y="285.874686" style="fill: #d3d3e0; stroke: #d3d3e0"/>
     <use xlink:href="#m74ccb866b8" x="412.605483" y="283.14621" style="fill: #d3d3e0; stroke: #d3d3e0"/>
     <use xlink:href="#m74ccb866b8" x="426.514574" y="295.209076" style="fill: #d3d3e0; stroke: #d3d3e0"/>
     <use xlink:href="#m74ccb866b8" x="440.423665" y="293.514192" style="fill: #d3d3e0; stroke: #d3d3e0"/>
     <use xlink:href="#m74ccb866b8" x="454.332756" y="290.184638" style="fill: #d3d3e0; stroke: #d3d3e0"/>
     <use xlink:href="#m74ccb866b8" x="468.241847" y="292.740273" style="fill: #d3d3e0; stroke: #d3d3e0"/>
     <use xlink:href="#m74ccb866b8" x="482.150938" y="295.660673" style="fill: #d3d3e0; stroke: #d3d3e0"/>
     <use xlink:href="#m74ccb866b8" x="496.060028" y="290.154764" style="fill: #d3d3e0; stroke: #d3d3e0"/>
     <use xlink:href="#m74ccb866b8" x="509.969119" y="292.036213" style="fill: #d3d3e0; stroke: #d3d3e0"/>
     <use xlink:href="#m74ccb866b8" x="523.87821" y="291.971994" style="fill: #d3d3e0; stroke: #d3d3e0"/>
     <use xlink:href="#m74ccb866b8" x="537.787301" y="291.981718" style="fill: #d3d3e0; stroke: #d3d3e0"/>
     <use xlink:href="#m74ccb866b8" x="551.696392" y="295.495936" style="fill: #d3d3e0; stroke: #d3d3e0"/>
     <use xlink:href="#m74ccb866b8" x="565.605483" y="301.420562" style="fill: #d3d3e0; stroke: #d3d3e0"/>
    </g>
   </g>
   <g id="line2d_27">
    <path d="M 92.696392 308.928691 
L 106.605483 310.640731 
L 120.514574 310.388447 
L 134.423665 312.971789 
L 148.332756 312.565281 
L 162.241847 313.359922 
L 176.150938 314.255108 
L 190.060028 313.79361 
L 203.969119 314.227703 
L 217.87821 314.237139 
L 231.787301 314.395246 
L 245.696392 314.395246 
L 259.605483 314.394749 
L 273.514574 314.392672 
L 287.423665 314.395246 
L 301.332756 314.193843 
L 315.241847 314.275831 
L 329.150938 314.286847 
L 343.060028 314.119033 
L 356.969119 313.37902 
L 370.87821 314.395246 
L 384.787301 314.39186 
L 398.696392 314.395246 
L 412.605483 314.39186 
L 426.514574 314.388113 
L 440.423665 314.393621 
L 454.332756 314.395246 
L 468.241847 314.39493 
L 482.150938 314.395246 
L 496.060028 314.395246 
L 509.969119 314.395246 
L 523.87821 314.395246 
L 537.787301 314.368744 
L 551.696392 314.395246 
L 565.605483 314.395246 
" clip-path="url(#p637f563bfd)" style="fill: none; stroke: #9fc1ad; stroke-width: 0.5; stroke-linecap: square"/>
    <defs>
     <path id="m0bd64b523c" d="M 0 1.5 
C 0.397805 1.5 0.77937 1.341951 1.06066 1.06066 
C 1.341951 0.77937 1.5 0.397805 1.5 0 
C 1.5 -0.397805 1.341951 -0.77937 1.06066 -1.06066 
C 0.77937 -1.341951 0.397805 -1.5 0 -1.5 
C -0.397805 -1.5 -0.77937 -1.341951 -1.06066 -1.06066 
C -1.341951 -0.77937 -1.5 -0.397805 -1.5 0 
C -1.5 0.397805 -1.341951 0.77937 -1.06066 1.06066 
C -0.77937 1.341951 -0.397805 1.5 0 1.5 
z
" style="stroke: #9fc1ad"/>
    </defs>
    <g clip-path="url(#p637f563bfd)">
     <use xlink:href="#m0bd64b523c" x="92.696392" y="308.928691" style="fill: #9fc1ad; stroke: #9fc1ad"/>
     <use xlink:href="#m0bd64b523c" x="106.605483" y="310.640731" style="fill: #9fc1ad; stroke: #9fc1ad"/>
     <use xlink:href="#m0bd64b523c" x="120.514574" y="310.388447" style="fill: #9fc1ad; stroke: #9fc1ad"/>
     <use xlink:href="#m0bd64b523c" x="134.423665" y="312.971789" style="fill: #9fc1ad; stroke: #9fc1ad"/>
     <use xlink:href="#m0bd64b523c" x="148.332756" y="312.565281" style="fill: #9fc1ad; stroke: #9fc1ad"/>
     <use xlink:href="#m0bd64b523c" x="162.241847" y="313.359922" style="fill: #9fc1ad; stroke: #9fc1ad"/>
     <use xlink:href="#m0bd64b523c" x="176.150938" y="314.255108" style="fill: #9fc1ad; stroke: #9fc1ad"/>
     <use xlink:href="#m0bd64b523c" x="190.060028" y="313.79361" style="fill: #9fc1ad; stroke: #9fc1ad"/>
     <use xlink:href="#m0bd64b523c" x="203.969119" y="314.227703" style="fill: #9fc1ad; stroke: #9fc1ad"/>
     <use xlink:href="#m0bd64b523c" x="217.87821" y="314.237139" style="fill: #9fc1ad; stroke: #9fc1ad"/>
     <use xlink:href="#m0bd64b523c" x="231.787301" y="314.395246" style="fill: #9fc1ad; stroke: #9fc1ad"/>
     <use xlink:href="#m0bd64b523c" x="245.696392" y="314.395246" style="fill: #9fc1ad; stroke: #9fc1ad"/>
     <use xlink:href="#m0bd64b523c" x="259.605483" y="314.394749" style="fill: #9fc1ad; stroke: #9fc1ad"/>
     <use xlink:href="#m0bd64b523c" x="273.514574" y="314.392672" style="fill: #9fc1ad; stroke: #9fc1ad"/>
     <use xlink:href="#m0bd64b523c" x="287.423665" y="314.395246" style="fill: #9fc1ad; stroke: #9fc1ad"/>
     <use xlink:href="#m0bd64b523c" x="301.332756" y="314.193843" style="fill: #9fc1ad; stroke: #9fc1ad"/>
     <use xlink:href="#m0bd64b523c" x="315.241847" y="314.275831" style="fill: #9fc1ad; stroke: #9fc1ad"/>
     <use xlink:href="#m0bd64b523c" x="329.150938" y="314.286847" style="fill: #9fc1ad; stroke: #9fc1ad"/>
     <use xlink:href="#m0bd64b523c" x="343.060028" y="314.119033" style="fill: #9fc1ad; stroke: #9fc1ad"/>
     <use xlink:href="#m0bd64b523c" x="356.969119" y="313.37902" style="fill: #9fc1ad; stroke: #9fc1ad"/>
     <use xlink:href="#m0bd64b523c" x="370.87821" y="314.395246" style="fill: #9fc1ad; stroke: #9fc1ad"/>
     <use xlink:href="#m0bd64b523c" x="384.787301" y="314.39186" style="fill: #9fc1ad; stroke: #9fc1ad"/>
     <use xlink:href="#m0bd64b523c" x="398.696392" y="314.395246" style="fill: #9fc1ad; stroke: #9fc1ad"/>
     <use xlink:href="#m0bd64b523c" x="412.605483" y="314.39186" style="fill: #9fc1ad; stroke: #9fc1ad"/>
     <use xlink:href="#m0bd64b523c" x="426.514574" y="314.388113" style="fill: #9fc1ad; stroke: #9fc1ad"/>
     <use xlink:href="#m0bd64b523c" x="440.423665" y="314.393621" style="fill: #9fc1ad; stroke: #9fc1ad"/>
     <use xlink:href="#m0bd64b523c" x="454.332756" y="314.395246" style="fill: #9fc1ad; stroke: #9fc1ad"/>
     <use xlink:href="#m0bd64b523c" x="468.241847" y="314.39493" style="fill: #9fc1ad; stroke: #9fc1ad"/>
     <use xlink:href="#m0bd64b523c" x="482.150938" y="314.395246" style="fill: #9fc1ad; stroke: #9fc1ad"/>
     <use xlink:href="#m0bd64b523c" x="496.060028" y="314.395246" style="fill: #9fc1ad; stroke: #9fc1ad"/>
     <use xlink:href="#m0bd64b523c" x="509.969119" y="314.395246" style="fill: #9fc1ad; stroke: #9fc1ad"/>
     <use xlink:href="#m0bd64b523c" x="523.87821" y="314.395246" style="fill: #9fc1ad; stroke: #9fc1ad"/>
     <use xlink:href="#m0bd64b523c" x="537.787301" y="314.368744" style="fill: #9fc1ad; stroke: #9fc1ad"/>
     <use xlink:href="#m0bd64b523c" x="551.696392" y="314.395246" style="fill: #9fc1ad; stroke: #9fc1ad"/>
     <use xlink:href="#m0bd64b523c" x="565.605483" y="314.395246" style="fill: #9fc1ad; stroke: #9fc1ad"/>
    </g>
   </g>
   <g id="patch_3">
    <path d="M 69.050938 318.91 
L 69.050938 43.51 
" style="fill: none; stroke: #000000; stroke-width: 0.8; stroke-linejoin: miter; stroke-linecap: square"/>
   </g>
   <g id="patch_4">
    <path d="M 69.050938 318.91 
L 589.250938 318.91 
" style="fill: none; stroke: #000000; stroke-width: 0.8; stroke-linejoin: miter; stroke-linecap: square"/>
   </g>
   <g id="legend_1">
    <g id="line2d_28">
     <path d="M 176.635313 14.929687 
L 186.635313 14.929687 
L 196.635313 14.929687 
" style="fill: none; stroke: #7bb5c4; stroke-width: 0.5; stroke-linecap: square"/>
     <g>
      <use xlink:href="#m65cc4ec62d" x="186.635313" y="14.929687" style="fill: #7bb5c4; stroke: #7bb5c4"/>
     </g>
    </g>
    <g id="text_16">
     <!-- Buenos Aires -->
     <g transform="translate(204.635313 18.429687) scale(0.1 -0.1)">
      <defs>
       <path id="Archivo-Regular-42" d="M 550 0 
L 550 4390 
L 2816 4390 
Q 3194 4390 3469 4259 
Q 3744 4128 3894 3891 
Q 4045 3654 4045 3328 
Q 4045 3078 3955 2867 
Q 3866 2656 3706 2515 
Q 3546 2374 3341 2304 
L 3341 2278 
Q 3571 2227 3756 2092 
Q 3942 1958 4054 1737 
Q 4166 1517 4166 1197 
Q 4166 768 3987 505 
Q 3808 243 3507 121 
Q 3206 0 2816 0 
L 550 0 
z
M 1158 525 
L 2810 525 
Q 3136 525 3341 694 
Q 3546 864 3546 1261 
Q 3546 1504 3456 1667 
Q 3366 1830 3193 1910 
Q 3021 1990 2758 1990 
L 1158 1990 
L 1158 525 
z
M 1158 2509 
L 2701 2509 
Q 2918 2509 3078 2595 
Q 3238 2682 3331 2838 
Q 3424 2995 3424 3194 
Q 3424 3539 3238 3702 
Q 3053 3866 2746 3866 
L 1158 3866 
L 1158 2509 
z
" transform="scale(0.015625)"/>
       <path id="Archivo-Regular-41" d="M 45 0 
L 1779 4390 
L 2579 4390 
L 4320 0 
L 3661 0 
L 3232 1088 
L 1094 1088 
L 672 0 
L 45 0 
z
M 1293 1606 
L 3027 1606 
L 2496 2982 
Q 2477 3040 2438 3142 
Q 2400 3245 2355 3369 
Q 2310 3494 2265 3625 
Q 2221 3757 2182 3866 
L 2144 3866 
Q 2099 3738 2041 3571 
Q 1984 3405 1926 3248 
Q 1869 3091 1830 2982 
L 1293 1606 
z
" transform="scale(0.015625)"/>
       <path id="Archivo-Regular-69" d="M 442 4000 
L 442 4627 
L 1005 4627 
L 1005 4000 
L 442 4000 
z
M 442 0 
L 442 3366 
L 1005 3366 
L 1005 0 
L 442 0 
z
" transform="scale(0.015625)"/>
      </defs>
      <use xlink:href="#Archivo-Regular-42"/>
      <use xlink:href="#Archivo-Regular-75" x="69.799988"/>
      <use xlink:href="#Archivo-Regular-65" x="125.999985"/>
      <use xlink:href="#Archivo-Regular-6e" x="180.799973"/>
      <use xlink:href="#Archivo-Regular-6f" x="237.09996"/>
      <use xlink:href="#Archivo-Regular-73" x="294.099945"/>
      <use xlink:href="#Archivo-Regular-20" x="345.09993"/>
      <use xlink:href="#Archivo-Regular-41" x="365.999924"/>
      <use xlink:href="#Archivo-Regular-69" x="434.199905"/>
      <use xlink:href="#Archivo-Regular-72" x="456.69989"/>
      <use xlink:href="#Archivo-Regular-65" x="489.899887"/>
      <use xlink:href="#Archivo-Regular-73" x="544.699875"/>
     </g>
    </g>
    <g id="line2d_29">
     <path d="M 176.635313 28.889062 
L 186.635313 28.889062 
L 196.635313 28.889062 
" style="fill: none; stroke: #8d9bff; stroke-width: 0.5; stroke-linecap: square"/>
     <g>
      <use xlink:href="#m04e4d8687d" x="186.635313" y="28.889062" style="fill: #8d9bff; stroke: #8d9bff"/>
     </g>
    </g>
    <g id="text_17">
     <!-- Rio Negro -->
     <g transform="translate(204.635313 32.389062) scale(0.1 -0.1)">
      <defs>
       <path id="Archivo-Regular-52" d="M 550 0 
L 550 4390 
L 2861 4390 
Q 3309 4390 3606 4227 
Q 3904 4064 4051 3773 
Q 4198 3482 4198 3104 
Q 4198 2650 3993 2323 
Q 3789 1997 3430 1856 
L 4352 0 
L 3686 0 
L 2829 1747 
L 1158 1747 
L 1158 0 
L 550 0 
z
M 1158 2266 
L 2803 2266 
Q 3168 2266 3376 2490 
Q 3584 2714 3584 3104 
Q 3584 3347 3494 3513 
Q 3405 3680 3232 3773 
Q 3059 3866 2803 3866 
L 1158 3866 
L 1158 2266 
z
" transform="scale(0.015625)"/>
       <path id="Archivo-Regular-4e" d="M 550 0 
L 550 4390 
L 1139 4390 
L 3270 1498 
Q 3302 1459 3353 1382 
Q 3405 1306 3456 1232 
Q 3507 1158 3539 1101 
L 3565 1101 
Q 3565 1203 3565 1302 
Q 3565 1402 3565 1498 
L 3565 4390 
L 4160 4390 
L 4160 0 
L 3603 0 
L 1446 2944 
Q 1402 3014 1315 3142 
Q 1229 3270 1171 3347 
L 1139 3347 
Q 1139 3245 1139 3145 
Q 1139 3046 1139 2944 
L 1139 0 
L 550 0 
z
" transform="scale(0.015625)"/>
       <path id="Archivo-Regular-67" d="M 1011 -1165 
Q 768 -1165 563 -1065 
Q 358 -966 236 -780 
Q 115 -595 115 -339 
Q 115 -58 272 128 
Q 429 314 646 403 
Q 486 480 396 617 
Q 307 755 307 922 
Q 307 1146 470 1299 
Q 634 1453 870 1504 
Q 653 1645 528 1865 
Q 403 2086 403 2355 
Q 403 2675 553 2918 
Q 704 3162 1014 3302 
Q 1325 3443 1773 3443 
Q 1978 3443 2157 3414 
Q 2336 3386 2477 3322 
Q 2701 3424 2813 3584 
Q 2925 3744 2950 3910 
L 3507 3910 
Q 3507 3718 3420 3548 
Q 3334 3379 3187 3267 
Q 3040 3155 2829 3117 
Q 2989 2963 3069 2771 
Q 3149 2579 3149 2355 
Q 3149 2035 2998 1788 
Q 2848 1542 2547 1401 
Q 2246 1261 1792 1261 
L 1267 1261 
Q 1094 1261 985 1193 
Q 877 1126 877 979 
Q 877 851 985 771 
Q 1094 691 1267 691 
L 2637 691 
Q 3008 691 3245 444 
Q 3482 198 3482 -186 
Q 3482 -461 3344 -681 
Q 3206 -902 2960 -1033 
Q 2714 -1165 2387 -1165 
L 1011 -1165 
z
M 1171 -736 
L 2381 -736 
Q 2528 -736 2649 -675 
Q 2771 -614 2841 -505 
Q 2912 -397 2912 -269 
Q 2912 -51 2784 77 
Q 2656 205 2464 205 
L 1171 205 
Q 966 205 825 67 
Q 685 -70 685 -269 
Q 685 -480 825 -608 
Q 966 -736 1171 -736 
z
M 1779 1683 
Q 2189 1683 2387 1862 
Q 2586 2042 2586 2355 
Q 2586 2662 2387 2841 
Q 2189 3021 1779 3021 
Q 1370 3021 1168 2841 
Q 966 2662 966 2355 
Q 966 2157 1056 2003 
Q 1146 1850 1325 1766 
Q 1504 1683 1779 1683 
z
" transform="scale(0.015625)"/>
      </defs>
      <use xlink:href="#Archivo-Regular-52"/>
      <use xlink:href="#Archivo-Regular-69" x="72.699982"/>
      <use xlink:href="#Archivo-Regular-6f" x="95.199966"/>
      <use xlink:href="#Archivo-Regular-20" x="152.199951"/>
      <use xlink:href="#Archivo-Regular-4e" x="173.099945"/>
      <use xlink:href="#Archivo-Regular-65" x="246.699936"/>
      <use xlink:href="#Archivo-Regular-67" x="301.499924"/>
      <use xlink:href="#Archivo-Regular-72" x="357.099915"/>
      <use xlink:href="#Archivo-Regular-6f" x="390.299911"/>
     </g>
    </g>
    <g id="line2d_30">
     <path d="M 284.205625 14.929687 
L 294.205625 14.929687 
L 304.205625 14.929687 
" style="fill: none; stroke: #ff9750; stroke-width: 0.5; stroke-linecap: square"/>
     <g>
      <use xlink:href="#m5a91bdf9b0" x="294.205625" y="14.929687" style="fill: #ff9750; stroke: #ff9750"/>
     </g>
    </g>
    <g id="text_18">
     <!-- Chubut -->
     <g transform="translate(312.205625 18.429687) scale(0.1 -0.1)">
      <defs>
       <path id="Archivo-Regular-43" d="M 2426 -77 
Q 1754 -77 1286 169 
Q 819 416 572 918 
Q 326 1421 326 2195 
Q 326 3341 883 3904 
Q 1440 4467 2432 4467 
Q 2995 4467 3430 4284 
Q 3866 4102 4112 3734 
Q 4358 3366 4358 2810 
L 3744 2810 
Q 3744 3194 3581 3443 
Q 3418 3693 3123 3817 
Q 2829 3942 2432 3942 
Q 1971 3942 1638 3763 
Q 1306 3584 1133 3209 
Q 960 2835 960 2246 
L 960 2112 
Q 960 1530 1133 1162 
Q 1306 794 1635 621 
Q 1965 448 2432 448 
Q 2842 448 3139 569 
Q 3437 691 3600 944 
Q 3763 1197 3763 1581 
L 4358 1581 
Q 4358 1011 4105 646 
Q 3853 282 3417 102 
Q 2982 -77 2426 -77 
z
" transform="scale(0.015625)"/>
       <path id="Archivo-Regular-68" d="M 442 0 
L 442 4627 
L 1005 4627 
L 1005 2944 
L 1050 2944 
Q 1178 3117 1338 3225 
Q 1498 3334 1693 3388 
Q 1888 3443 2118 3443 
Q 2438 3443 2678 3334 
Q 2918 3226 3056 2982 
Q 3194 2739 3194 2323 
L 3194 0 
L 2630 0 
L 2630 2246 
Q 2630 2458 2576 2592 
Q 2522 2726 2429 2803 
Q 2336 2880 2205 2912 
Q 2074 2944 1914 2944 
Q 1677 2944 1465 2832 
Q 1254 2720 1129 2505 
Q 1005 2291 1005 1978 
L 1005 0 
L 442 0 
z
" transform="scale(0.015625)"/>
      </defs>
      <use xlink:href="#Archivo-Regular-43"/>
      <use xlink:href="#Archivo-Regular-68" x="72.799988"/>
      <use xlink:href="#Archivo-Regular-75" x="129.099976"/>
      <use xlink:href="#Archivo-Regular-62" x="185.299973"/>
      <use xlink:href="#Archivo-Regular-75" x="241.999969"/>
      <use xlink:href="#Archivo-Regular-74" x="298.199966"/>
     </g>
    </g>
    <g id="line2d_31">
     <path d="M 284.205625 28.889062 
L 294.205625 28.889062 
L 304.205625 28.889062 
" style="fill: none; stroke: #ffd900; stroke-width: 0.5; stroke-linecap: square"/>
     <g>
      <use xlink:href="#m39a08e90a2" x="294.205625" y="28.889062" style="fill: #ffd900; stroke: #ffd900"/>
     </g>
    </g>
    <g id="text_19">
     <!-- Santa Cruz -->
     <g transform="translate(312.205625 32.389062) scale(0.1 -0.1)">
      <defs>
       <path id="Archivo-Regular-53" d="M 2163 -77 
Q 1805 -77 1475 -6 
Q 1146 64 890 221 
Q 634 378 483 627 
Q 333 877 333 1242 
Q 333 1274 336 1306 
Q 339 1338 339 1370 
L 954 1370 
Q 954 1350 950 1308 
Q 947 1267 947 1235 
Q 947 979 1100 800 
Q 1254 621 1526 534 
Q 1798 448 2144 448 
Q 2298 448 2467 467 
Q 2637 486 2793 534 
Q 2950 582 3075 662 
Q 3200 742 3273 860 
Q 3347 979 3347 1152 
Q 3347 1370 3222 1514 
Q 3098 1658 2893 1750 
Q 2688 1843 2429 1916 
Q 2170 1990 1894 2060 
Q 1619 2131 1360 2224 
Q 1101 2317 896 2454 
Q 691 2592 566 2797 
Q 442 3002 442 3296 
Q 442 3571 554 3788 
Q 666 4006 886 4156 
Q 1107 4307 1433 4387 
Q 1760 4467 2182 4467 
Q 2528 4467 2825 4393 
Q 3123 4320 3350 4169 
Q 3578 4019 3706 3788 
Q 3834 3558 3834 3232 
L 3834 3155 
L 3232 3155 
L 3232 3251 
Q 3232 3469 3097 3622 
Q 2963 3776 2729 3859 
Q 2496 3942 2202 3942 
Q 1818 3942 1562 3868 
Q 1306 3795 1181 3657 
Q 1056 3520 1056 3347 
Q 1056 3149 1181 3014 
Q 1306 2880 1510 2793 
Q 1715 2707 1977 2636 
Q 2240 2566 2512 2492 
Q 2784 2419 3043 2326 
Q 3302 2234 3510 2096 
Q 3718 1958 3840 1750 
Q 3962 1542 3962 1242 
Q 3962 774 3731 483 
Q 3501 192 3097 57 
Q 2694 -77 2163 -77 
z
" transform="scale(0.015625)"/>
       <path id="Archivo-Regular-7a" d="M 198 0 
L 198 301 
L 2074 2893 
L 333 2893 
L 333 3366 
L 2880 3366 
L 2880 3072 
L 998 474 
L 2982 474 
L 2982 0 
L 198 0 
z
" transform="scale(0.015625)"/>
      </defs>
      <use xlink:href="#Archivo-Regular-53"/>
      <use xlink:href="#Archivo-Regular-61" x="67.299988"/>
      <use xlink:href="#Archivo-Regular-6e" x="121.799973"/>
      <use xlink:href="#Archivo-Regular-74" x="178.09996"/>
      <use xlink:href="#Archivo-Regular-61" x="207.799957"/>
      <use xlink:href="#Archivo-Regular-20" x="262.299942"/>
      <use xlink:href="#Archivo-Regular-43" x="283.199936"/>
      <use xlink:href="#Archivo-Regular-72" x="355.999924"/>
      <use xlink:href="#Archivo-Regular-75" x="389.199921"/>
      <use xlink:href="#Archivo-Regular-7a" x="445.399918"/>
     </g>
    </g>
    <g id="line2d_32">
     <path d="M 381.725938 14.929687 
L 391.725938 14.929687 
L 401.725938 14.929687 
" style="fill: none; stroke: #d3d3e0; stroke-width: 0.5; stroke-linecap: square"/>
     <g>
      <use xlink:href="#m74ccb866b8" x="391.725938" y="14.929687" style="fill: #d3d3e0; stroke: #d3d3e0"/>
     </g>
    </g>
    <g id="text_20">
     <!-- Tierra del Fuego -->
     <g transform="translate(409.725938 18.429687) scale(0.1 -0.1)">
      <defs>
       <path id="Archivo-Regular-54" d="M 1626 0 
L 1626 3859 
L 122 3859 
L 122 4390 
L 3750 4390 
L 3750 3859 
L 2234 3859 
L 2234 0 
L 1626 0 
z
" transform="scale(0.015625)"/>
       <path id="Archivo-Regular-46" d="M 550 0 
L 550 4390 
L 3661 4390 
L 3661 3866 
L 1158 3866 
L 1158 2458 
L 3437 2458 
L 3437 1939 
L 1158 1939 
L 1158 0 
L 550 0 
z
" transform="scale(0.015625)"/>
      </defs>
      <use xlink:href="#Archivo-Regular-54"/>
      <use xlink:href="#Archivo-Regular-69" x="60.599991"/>
      <use xlink:href="#Archivo-Regular-65" x="83.099976"/>
      <use xlink:href="#Archivo-Regular-72" x="137.899963"/>
      <use xlink:href="#Archivo-Regular-72" x="171.09996"/>
      <use xlink:href="#Archivo-Regular-61" x="204.299957"/>
      <use xlink:href="#Archivo-Regular-20" x="258.799942"/>
      <use xlink:href="#Archivo-Regular-64" x="279.699936"/>
      <use xlink:href="#Archivo-Regular-65" x="336.399933"/>
      <use xlink:href="#Archivo-Regular-6c" x="391.199921"/>
      <use xlink:href="#Archivo-Regular-20" x="413.699905"/>
      <use xlink:href="#Archivo-Regular-46" x="434.599899"/>
      <use xlink:href="#Archivo-Regular-75" x="495.799896"/>
      <use xlink:href="#Archivo-Regular-65" x="551.999893"/>
      <use xlink:href="#Archivo-Regular-67" x="606.799881"/>
      <use xlink:href="#Archivo-Regular-6f" x="662.399872"/>
     </g>
    </g>
    <g id="line2d_33">
     <path d="M 381.725938 28.979687 
L 391.725938 28.979687 
L 401.725938 28.979687 
" style="fill: none; stroke: #9fc1ad; stroke-width: 0.5; stroke-linecap: square"/>
     <g>
      <use xlink:href="#m0bd64b523c" x="391.725938" y="28.979687" style="fill: #9fc1ad; stroke: #9fc1ad"/>
     </g>
    </g>
    <g id="text_21">
     <!-- Otros puertos -->
     <g transform="translate(409.725938 32.479687) scale(0.1 -0.1)">
      <defs>
       <path id="Archivo-Regular-4f" d="M 2522 -77 
Q 1837 -77 1347 172 
Q 858 422 592 928 
Q 326 1434 326 2195 
Q 326 2963 592 3465 
Q 858 3968 1347 4217 
Q 1837 4467 2522 4467 
Q 3206 4467 3696 4217 
Q 4186 3968 4451 3465 
Q 4717 2963 4717 2195 
Q 4717 1434 4451 928 
Q 4186 422 3696 172 
Q 3206 -77 2522 -77 
z
M 2522 448 
Q 2880 448 3171 544 
Q 3462 640 3664 848 
Q 3866 1056 3974 1373 
Q 4083 1690 4083 2125 
L 4083 2259 
Q 4083 2701 3974 3017 
Q 3866 3334 3664 3542 
Q 3462 3750 3171 3846 
Q 2880 3942 2522 3942 
Q 2157 3942 1869 3846 
Q 1581 3750 1376 3542 
Q 1171 3334 1065 3017 
Q 960 2701 960 2259 
L 960 2125 
Q 960 1690 1065 1373 
Q 1171 1056 1376 848 
Q 1581 640 1869 544 
Q 2157 448 2522 448 
z
" transform="scale(0.015625)"/>
       <path id="Archivo-Regular-70" d="M 442 -1107 
L 442 3366 
L 890 3366 
L 947 2886 
L 992 2886 
Q 1165 3168 1433 3305 
Q 1702 3443 2042 3443 
Q 2464 3443 2758 3257 
Q 3053 3072 3213 2678 
Q 3373 2285 3373 1658 
Q 3373 1069 3209 681 
Q 3046 294 2752 108 
Q 2458 -77 2067 -77 
Q 1850 -77 1658 -25 
Q 1466 26 1312 138 
Q 1158 250 1043 422 
L 1005 422 
L 1005 -1107 
L 442 -1107 
z
M 1888 416 
Q 2202 416 2400 541 
Q 2598 666 2694 931 
Q 2790 1197 2790 1613 
L 2790 1747 
Q 2790 2189 2688 2454 
Q 2586 2720 2390 2835 
Q 2195 2950 1907 2950 
Q 1594 2950 1392 2812 
Q 1190 2675 1097 2400 
Q 1005 2125 1005 1728 
L 1005 1632 
Q 1005 1280 1072 1046 
Q 1139 813 1264 672 
Q 1389 531 1549 473 
Q 1709 416 1888 416 
z
" transform="scale(0.015625)"/>
      </defs>
      <use xlink:href="#Archivo-Regular-4f"/>
      <use xlink:href="#Archivo-Regular-74" x="78.799988"/>
      <use xlink:href="#Archivo-Regular-72" x="108.499985"/>
      <use xlink:href="#Archivo-Regular-6f" x="141.699982"/>
      <use xlink:href="#Archivo-Regular-73" x="198.699966"/>
      <use xlink:href="#Archivo-Regular-20" x="249.699951"/>
      <use xlink:href="#Archivo-Regular-70" x="270.599945"/>
      <use xlink:href="#Archivo-Regular-75" x="327.299942"/>
      <use xlink:href="#Archivo-Regular-65" x="383.499939"/>
      <use xlink:href="#Archivo-Regular-72" x="438.299927"/>
      <use xlink:href="#Archivo-Regular-74" x="471.499924"/>
      <use xlink:href="#Archivo-Regular-6f" x="501.199921"/>
      <use xlink:href="#Archivo-Regular-73" x="558.199905"/>
     </g>
    </g>
   </g>
  </g>
 </g>
 <defs>
  <clipPath id="p637f563bfd">
   <rect x="69.050938" y="43.51" width="520.2" height="275.4"/>
  </clipPath>
 </defs>
</svg>
