<?xml version="1.0" encoding="utf-8" standalone="no"?>
<!DOCTYPE svg PUBLIC "-//W3C//DTD SVG 1.1//EN"
  "http://www.w3.org/Graphics/SVG/1.1/DTD/svg11.dtd">
<svg xmlns:xlink="http://www.w3.org/1999/xlink" width="605.228594pt" height="309.343517pt" viewBox="0 0 605.228594 309.343517" xmlns="http://www.w3.org/2000/svg" version="1.1">
 <metadata>
  <rdf:RDF xmlns:dc="http://purl.org/dc/elements/1.1/" xmlns:cc="http://creativecommons.org/ns#" xmlns:rdf="http://www.w3.org/1999/02/22-rdf-syntax-ns#">
   <cc:Work>
    <dc:type rdf:resource="http://purl.org/dc/dcmitype/StillImage"/>
    <dc:date>2024-10-28T15:41:40.759259</dc:date>
    <dc:format>image/svg+xml</dc:format>
    <dc:creator>
     <cc:Agent>
      <dc:title>Matplotlib v3.6.2, https://matplotlib.org/</dc:title>
     </cc:Agent>
    </dc:creator>
   </cc:Work>
  </rdf:RDF>
 </metadata>
 <defs>
  <style type="text/css">*{stroke-linejoin: round; stroke-linecap: butt}</style>
 </defs>
 <g id="figure_1">
  <g id="patch_1">
   <path d="M 0 309.343517 
L 605.228594 309.343517 
L 605.228594 0 
L 0 0 
L 0 309.343517 
z
" style="fill: none"/>
  </g>
  <g id="axes_1">
   <g id="patch_2">
    <path d="M 77.828594 285.288204 
L 598.028594 285.288204 
L 598.028594 9.888204 
L 77.828594 9.888204 
L 77.828594 285.288204 
z
" style="fill: none"/>
   </g>
   <g id="matplotlib.axis_1">
    <g id="xtick_1">
     <g id="line2d_1">
      <defs>
       <path id="m29712c3b21" d="M 0 0 
L 0 3.5 
" style="stroke: #000000; stroke-width: 0.8"/>
      </defs>
      <g>
       <use xlink:href="#m29712c3b21" x="101.474048" y="285.288204" style="stroke: #000000; stroke-width: 0.8"/>
      </g>
     </g>
     <g id="text_1">
      <!-- 1960 -->
      <g transform="translate(89.154908 300.24086) scale(0.11 -0.11)">
       <defs>
        <path id="Archivo-Regular-31" d="M 429 0 
L 429 480 
L 1536 480 
L 1536 3520 
L 422 3520 
L 422 3878 
Q 659 3898 912 3949 
Q 1165 4000 1408 4112 
Q 1651 4224 1850 4403 
L 2106 4403 
L 2106 480 
L 3149 480 
L 3149 0 
L 429 0 
z
" transform="scale(0.015625)"/>
        <path id="Archivo-Regular-39" d="M 1760 -77 
Q 1293 -77 998 102 
Q 704 282 569 589 
Q 435 896 435 1280 
L 1011 1280 
Q 1011 986 1097 787 
Q 1184 589 1357 493 
Q 1530 397 1792 397 
Q 2182 397 2390 598 
Q 2598 800 2681 1184 
Q 2765 1568 2771 2099 
Q 2688 1958 2521 1833 
Q 2355 1709 2134 1635 
Q 1914 1562 1664 1562 
Q 1190 1562 883 1750 
Q 576 1939 425 2265 
Q 275 2592 275 2995 
Q 275 3443 467 3772 
Q 659 4102 992 4284 
Q 1325 4467 1741 4467 
Q 2118 4467 2419 4358 
Q 2720 4250 2928 4006 
Q 3136 3763 3245 3350 
Q 3354 2938 3354 2323 
Q 3354 1651 3248 1190 
Q 3142 730 2937 451 
Q 2733 173 2435 48 
Q 2138 -77 1760 -77 
z
M 1779 2029 
Q 2093 2029 2301 2163 
Q 2509 2298 2611 2522 
Q 2714 2746 2714 3021 
Q 2714 3290 2614 3510 
Q 2515 3731 2307 3862 
Q 2099 3994 1786 3994 
Q 1472 3994 1267 3856 
Q 1062 3718 963 3494 
Q 864 3270 864 2989 
Q 864 2726 960 2508 
Q 1056 2291 1257 2160 
Q 1459 2029 1779 2029 
z
" transform="scale(0.015625)"/>
        <path id="Archivo-Regular-36" d="M 1920 -77 
Q 1542 -77 1244 32 
Q 947 141 739 384 
Q 531 627 422 1040 
Q 314 1453 314 2067 
Q 314 2746 422 3203 
Q 531 3661 732 3939 
Q 934 4218 1232 4342 
Q 1530 4467 1907 4467 
Q 2381 4467 2672 4288 
Q 2963 4109 3097 3805 
Q 3232 3501 3232 3110 
L 2656 3110 
Q 2656 3405 2573 3603 
Q 2490 3802 2314 3898 
Q 2138 3994 1875 3994 
Q 1491 3994 1276 3792 
Q 1062 3590 982 3206 
Q 902 2822 896 2291 
Q 986 2438 1149 2560 
Q 1312 2682 1536 2755 
Q 1760 2829 2010 2829 
Q 2483 2829 2790 2640 
Q 3098 2451 3245 2124 
Q 3392 1798 3392 1395 
Q 3392 954 3200 621 
Q 3008 288 2675 105 
Q 2342 -77 1920 -77 
z
M 1882 397 
Q 2195 397 2400 534 
Q 2605 672 2704 899 
Q 2803 1126 2803 1402 
Q 2803 1664 2707 1881 
Q 2611 2099 2409 2230 
Q 2208 2362 1894 2362 
Q 1581 2362 1369 2227 
Q 1158 2093 1056 1872 
Q 954 1651 954 1370 
Q 954 1107 1056 883 
Q 1158 659 1363 528 
Q 1568 397 1882 397 
z
" transform="scale(0.015625)"/>
        <path id="Archivo-Regular-30" d="M 1837 -77 
Q 1478 -77 1196 28 
Q 915 134 716 393 
Q 518 653 416 1091 
Q 314 1530 314 2195 
Q 314 2861 416 3299 
Q 518 3738 716 3997 
Q 915 4256 1196 4361 
Q 1478 4467 1837 4467 
Q 2195 4467 2473 4361 
Q 2752 4256 2950 3997 
Q 3149 3738 3251 3299 
Q 3354 2861 3354 2195 
Q 3354 1530 3251 1091 
Q 3149 653 2950 393 
Q 2752 134 2473 28 
Q 2195 -77 1837 -77 
z
M 1837 397 
Q 2202 397 2403 582 
Q 2605 768 2685 1133 
Q 2765 1498 2765 2042 
L 2765 2336 
Q 2765 2886 2685 3254 
Q 2605 3622 2403 3808 
Q 2202 3994 1837 3994 
Q 1472 3994 1267 3808 
Q 1062 3622 982 3257 
Q 902 2893 902 2342 
L 902 2054 
Q 902 1510 982 1139 
Q 1062 768 1267 582 
Q 1472 397 1837 397 
z
" transform="scale(0.015625)"/>
       </defs>
       <use xlink:href="#Archivo-Regular-31"/>
       <use xlink:href="#Archivo-Regular-39" x="52.099991"/>
       <use xlink:href="#Archivo-Regular-36" x="109.399979"/>
       <use xlink:href="#Archivo-Regular-30" x="166.699966"/>
      </g>
     </g>
    </g>
    <g id="xtick_2">
     <g id="line2d_2">
      <g>
       <use xlink:href="#m29712c3b21" x="176.538983" y="285.288204" style="stroke: #000000; stroke-width: 0.8"/>
      </g>
     </g>
     <g id="text_2">
      <!-- 1970 -->
      <g transform="translate(164.329843 300.24086) scale(0.11 -0.11)">
       <defs>
        <path id="Archivo-Regular-37" d="M 928 0 
Q 928 595 1081 1145 
Q 1235 1696 1481 2189 
Q 1728 2682 2022 3104 
Q 2317 3526 2598 3866 
L 250 3866 
L 250 4390 
L 3341 4390 
L 3341 4038 
Q 3104 3763 2851 3427 
Q 2598 3091 2368 2716 
Q 2138 2342 1952 1939 
Q 1766 1536 1657 1123 
Q 1549 710 1549 301 
L 1549 0 
L 928 0 
z
" transform="scale(0.015625)"/>
       </defs>
       <use xlink:href="#Archivo-Regular-31"/>
       <use xlink:href="#Archivo-Regular-39" x="52.099991"/>
       <use xlink:href="#Archivo-Regular-37" x="109.399979"/>
       <use xlink:href="#Archivo-Regular-30" x="164.699966"/>
      </g>
     </g>
    </g>
    <g id="xtick_3">
     <g id="line2d_3">
      <g>
       <use xlink:href="#m29712c3b21" x="251.603918" y="285.288204" style="stroke: #000000; stroke-width: 0.8"/>
      </g>
     </g>
     <g id="text_3">
      <!-- 1980 -->
      <g transform="translate(239.278762 300.24086) scale(0.11 -0.11)">
       <defs>
        <path id="Archivo-Regular-38" d="M 1837 -77 
Q 1293 -77 953 96 
Q 614 269 457 557 
Q 301 845 301 1197 
Q 301 1555 480 1830 
Q 659 2106 1043 2253 
Q 736 2413 579 2675 
Q 422 2938 422 3258 
Q 422 3597 579 3869 
Q 736 4141 1053 4304 
Q 1370 4467 1837 4467 
Q 2304 4467 2617 4304 
Q 2931 4141 3091 3869 
Q 3251 3597 3251 3258 
Q 3251 2938 3091 2675 
Q 2931 2413 2624 2253 
Q 3014 2106 3190 1830 
Q 3366 1555 3366 1197 
Q 3366 845 3209 557 
Q 3053 269 2717 96 
Q 2381 -77 1837 -77 
z
M 1837 390 
Q 2304 390 2541 608 
Q 2778 826 2778 1203 
Q 2778 1574 2541 1792 
Q 2304 2010 1837 2010 
Q 1370 2010 1130 1792 
Q 890 1574 890 1203 
Q 890 826 1130 608 
Q 1370 390 1837 390 
z
M 1837 2477 
Q 2227 2477 2451 2678 
Q 2675 2880 2675 3245 
Q 2675 3603 2451 3801 
Q 2227 4000 1837 4000 
Q 1446 4000 1222 3801 
Q 998 3603 998 3245 
Q 998 2880 1222 2678 
Q 1446 2477 1837 2477 
z
" transform="scale(0.015625)"/>
       </defs>
       <use xlink:href="#Archivo-Regular-31"/>
       <use xlink:href="#Archivo-Regular-39" x="52.099991"/>
       <use xlink:href="#Archivo-Regular-38" x="109.399979"/>
       <use xlink:href="#Archivo-Regular-30" x="166.799973"/>
      </g>
     </g>
    </g>
    <g id="xtick_4">
     <g id="line2d_4">
      <g>
       <use xlink:href="#m29712c3b21" x="326.668853" y="285.288204" style="stroke: #000000; stroke-width: 0.8"/>
      </g>
     </g>
     <g id="text_4">
      <!-- 1990 -->
      <g transform="translate(314.349713 300.24086) scale(0.11 -0.11)">
       <use xlink:href="#Archivo-Regular-31"/>
       <use xlink:href="#Archivo-Regular-39" x="52.099991"/>
       <use xlink:href="#Archivo-Regular-39" x="109.399979"/>
       <use xlink:href="#Archivo-Regular-30" x="166.699966"/>
      </g>
     </g>
    </g>
    <g id="xtick_5">
     <g id="line2d_5">
      <g>
       <use xlink:href="#m29712c3b21" x="401.733789" y="285.288204" style="stroke: #000000; stroke-width: 0.8"/>
      </g>
     </g>
     <g id="text_5">
      <!-- 2000 -->
      <g transform="translate(389.161132 300.24086) scale(0.11 -0.11)">
       <defs>
        <path id="Archivo-Regular-32" d="M 320 0 
L 320 186 
Q 320 454 425 681 
Q 531 909 707 1097 
Q 883 1286 1107 1459 
Q 1331 1632 1562 1798 
Q 1875 2016 2140 2233 
Q 2406 2451 2566 2704 
Q 2726 2957 2726 3270 
Q 2726 3469 2633 3632 
Q 2541 3795 2355 3891 
Q 2170 3987 1882 3987 
Q 1542 3987 1337 3872 
Q 1133 3757 1040 3565 
Q 947 3373 947 3142 
L 947 2880 
L 390 2880 
Q 384 2912 377 2979 
Q 371 3046 371 3136 
Q 371 3610 582 3901 
Q 794 4192 1146 4329 
Q 1498 4467 1907 4467 
Q 2272 4467 2534 4368 
Q 2797 4269 2969 4096 
Q 3142 3923 3225 3702 
Q 3309 3482 3309 3238 
Q 3309 2938 3203 2688 
Q 3098 2438 2909 2224 
Q 2720 2010 2467 1811 
Q 2214 1613 1920 1408 
Q 1715 1274 1516 1123 
Q 1318 973 1177 819 
Q 1037 666 998 525 
L 3334 525 
L 3334 0 
L 320 0 
z
" transform="scale(0.015625)"/>
       </defs>
       <use xlink:href="#Archivo-Regular-32"/>
       <use xlink:href="#Archivo-Regular-30" x="56.699997"/>
       <use xlink:href="#Archivo-Regular-30" x="113.999985"/>
       <use xlink:href="#Archivo-Regular-30" x="171.299973"/>
      </g>
     </g>
    </g>
    <g id="xtick_6">
     <g id="line2d_6">
      <g>
       <use xlink:href="#m29712c3b21" x="476.798724" y="285.288204" style="stroke: #000000; stroke-width: 0.8"/>
      </g>
     </g>
     <g id="text_6">
      <!-- 2010 -->
      <g transform="translate(464.512239 300.24086) scale(0.11 -0.11)">
       <use xlink:href="#Archivo-Regular-32"/>
       <use xlink:href="#Archivo-Regular-30" x="56.699997"/>
       <use xlink:href="#Archivo-Regular-31" x="113.999985"/>
       <use xlink:href="#Archivo-Regular-30" x="166.099976"/>
      </g>
     </g>
    </g>
    <g id="xtick_7">
     <g id="line2d_7">
      <g>
       <use xlink:href="#m29712c3b21" x="551.863659" y="285.288204" style="stroke: #000000; stroke-width: 0.8"/>
      </g>
     </g>
     <g id="text_7">
      <!-- 2020 -->
      <g transform="translate(539.323659 300.24086) scale(0.11 -0.11)">
       <use xlink:href="#Archivo-Regular-32"/>
       <use xlink:href="#Archivo-Regular-30" x="56.699997"/>
       <use xlink:href="#Archivo-Regular-32" x="113.999985"/>
       <use xlink:href="#Archivo-Regular-30" x="170.699982"/>
      </g>
     </g>
    </g>
   </g>
   <g id="matplotlib.axis_2">
    <g id="ytick_1">
     <g id="line2d_8">
      <path d="M 77.828594 248.51464 
L 598.028594 248.51464 
" clip-path="url(#pe849c1b789)" style="fill: none; stroke: #b0b0b0; stroke-width: 0.5; stroke-linecap: square"/>
     </g>
     <g id="line2d_9">
      <defs>
       <path id="m5c4e2f32d5" d="M 0 0 
L -3.5 0 
" style="stroke: #000000; stroke-width: 0.8"/>
      </defs>
      <g>
       <use xlink:href="#m5c4e2f32d5" x="77.828594" y="248.51464" style="stroke: #000000; stroke-width: 0.8"/>
      </g>
     </g>
     <g id="text_8">
      <!-- 200,000 -->
      <g transform="translate(30.030625 252.490968) scale(0.11 -0.11)">
       <defs>
        <path id="Archivo-Regular-2c" d="M 506 -941 
L 506 -678 
Q 627 -653 707 -557 
Q 787 -461 825 -317 
Q 864 -173 864 0 
L 570 0 
L 570 672 
L 1190 672 
L 1190 70 
Q 1190 -301 1084 -509 
Q 979 -717 822 -813 
Q 666 -909 506 -941 
z
" transform="scale(0.015625)"/>
       </defs>
       <use xlink:href="#Archivo-Regular-32"/>
       <use xlink:href="#Archivo-Regular-30" x="56.699997"/>
       <use xlink:href="#Archivo-Regular-30" x="113.999985"/>
       <use xlink:href="#Archivo-Regular-2c" x="171.299973"/>
       <use xlink:href="#Archivo-Regular-30" x="198.999969"/>
       <use xlink:href="#Archivo-Regular-30" x="256.299957"/>
       <use xlink:href="#Archivo-Regular-30" x="313.599945"/>
      </g>
     </g>
    </g>
    <g id="ytick_2">
     <g id="line2d_10">
      <path d="M 77.828594 208.958255 
L 598.028594 208.958255 
" clip-path="url(#pe849c1b789)" style="fill: none; stroke: #b0b0b0; stroke-width: 0.5; stroke-linecap: square"/>
     </g>
     <g id="line2d_11">
      <g>
       <use xlink:href="#m5c4e2f32d5" x="77.828594" y="208.958255" style="stroke: #000000; stroke-width: 0.8"/>
      </g>
     </g>
     <g id="text_9">
      <!-- 400,000 -->
      <g transform="translate(30.162969 212.934583) scale(0.11 -0.11)">
       <defs>
        <path id="Archivo-Regular-34" d="M 2221 0 
L 2221 1075 
L 179 1075 
L 179 1549 
Q 448 2010 669 2477 
Q 890 2944 1066 3437 
Q 1242 3930 1357 4467 
L 1958 4467 
Q 1875 4115 1753 3747 
Q 1632 3379 1485 3033 
Q 1338 2688 1194 2387 
Q 1050 2086 925 1868 
Q 800 1651 723 1549 
L 2221 1549 
L 2221 2944 
Q 2259 3046 2300 3158 
Q 2342 3270 2380 3388 
Q 2419 3507 2451 3612 
Q 2483 3718 2502 3814 
L 2784 3814 
L 2784 1549 
L 3366 1549 
L 3366 1075 
L 2784 1075 
L 2784 0 
L 2221 0 
z
" transform="scale(0.015625)"/>
       </defs>
       <use xlink:href="#Archivo-Regular-34"/>
       <use xlink:href="#Archivo-Regular-30" x="55.499985"/>
       <use xlink:href="#Archivo-Regular-30" x="112.799973"/>
       <use xlink:href="#Archivo-Regular-2c" x="170.09996"/>
       <use xlink:href="#Archivo-Regular-30" x="197.799957"/>
       <use xlink:href="#Archivo-Regular-30" x="255.099945"/>
       <use xlink:href="#Archivo-Regular-30" x="312.399933"/>
      </g>
     </g>
    </g>
    <g id="ytick_3">
     <g id="line2d_12">
      <path d="M 77.828594 169.401869 
L 598.028594 169.401869 
" clip-path="url(#pe849c1b789)" style="fill: none; stroke: #b0b0b0; stroke-width: 0.5; stroke-linecap: square"/>
     </g>
     <g id="line2d_13">
      <g>
       <use xlink:href="#m5c4e2f32d5" x="77.828594" y="169.401869" style="stroke: #000000; stroke-width: 0.8"/>
      </g>
     </g>
     <g id="text_10">
      <!-- 600,000 -->
      <g transform="translate(29.965313 173.378198) scale(0.11 -0.11)">
       <use xlink:href="#Archivo-Regular-36"/>
       <use xlink:href="#Archivo-Regular-30" x="57.299988"/>
       <use xlink:href="#Archivo-Regular-30" x="114.599976"/>
       <use xlink:href="#Archivo-Regular-2c" x="171.899963"/>
       <use xlink:href="#Archivo-Regular-30" x="199.59996"/>
       <use xlink:href="#Archivo-Regular-30" x="256.899948"/>
       <use xlink:href="#Archivo-Regular-30" x="314.199936"/>
      </g>
     </g>
    </g>
    <g id="ytick_4">
     <g id="line2d_14">
      <path d="M 77.828594 129.845484 
L 598.028594 129.845484 
" clip-path="url(#pe849c1b789)" style="fill: none; stroke: #b0b0b0; stroke-width: 0.5; stroke-linecap: square"/>
     </g>
     <g id="line2d_15">
      <g>
       <use xlink:href="#m5c4e2f32d5" x="77.828594" y="129.845484" style="stroke: #000000; stroke-width: 0.8"/>
      </g>
     </g>
     <g id="text_11">
      <!-- 800,000 -->
      <g transform="translate(29.953281 133.821812) scale(0.11 -0.11)">
       <use xlink:href="#Archivo-Regular-38"/>
       <use xlink:href="#Archivo-Regular-30" x="57.399994"/>
       <use xlink:href="#Archivo-Regular-30" x="114.699982"/>
       <use xlink:href="#Archivo-Regular-2c" x="171.999969"/>
       <use xlink:href="#Archivo-Regular-30" x="199.699966"/>
       <use xlink:href="#Archivo-Regular-30" x="256.999954"/>
       <use xlink:href="#Archivo-Regular-30" x="314.299942"/>
      </g>
     </g>
    </g>
    <g id="ytick_5">
     <g id="line2d_16">
      <path d="M 77.828594 90.289099 
L 598.028594 90.289099 
" clip-path="url(#pe849c1b789)" style="fill: none; stroke: #b0b0b0; stroke-width: 0.5; stroke-linecap: square"/>
     </g>
     <g id="line2d_17">
      <g>
       <use xlink:href="#m5c4e2f32d5" x="77.828594" y="90.289099" style="stroke: #000000; stroke-width: 0.8"/>
      </g>
     </g>
     <g id="text_12">
      <!-- 1,000,000 -->
      <g transform="translate(21.187656 94.265427) scale(0.11 -0.11)">
       <use xlink:href="#Archivo-Regular-31"/>
       <use xlink:href="#Archivo-Regular-2c" x="52.099991"/>
       <use xlink:href="#Archivo-Regular-30" x="79.799988"/>
       <use xlink:href="#Archivo-Regular-30" x="137.099976"/>
       <use xlink:href="#Archivo-Regular-30" x="194.399963"/>
       <use xlink:href="#Archivo-Regular-2c" x="251.699951"/>
       <use xlink:href="#Archivo-Regular-30" x="279.399948"/>
       <use xlink:href="#Archivo-Regular-30" x="336.699936"/>
       <use xlink:href="#Archivo-Regular-30" x="393.999924"/>
      </g>
     </g>
    </g>
    <g id="ytick_6">
     <g id="line2d_18">
      <path d="M 77.828594 50.732713 
L 598.028594 50.732713 
" clip-path="url(#pe849c1b789)" style="fill: none; stroke: #b0b0b0; stroke-width: 0.5; stroke-linecap: square"/>
     </g>
     <g id="line2d_19">
      <g>
       <use xlink:href="#m5c4e2f32d5" x="77.828594" y="50.732713" style="stroke: #000000; stroke-width: 0.8"/>
      </g>
     </g>
     <g id="text_13">
      <!-- 1,200,000 -->
      <g transform="translate(21.252969 54.709042) scale(0.11 -0.11)">
       <use xlink:href="#Archivo-Regular-31"/>
       <use xlink:href="#Archivo-Regular-2c" x="52.099991"/>
       <use xlink:href="#Archivo-Regular-32" x="79.799988"/>
       <use xlink:href="#Archivo-Regular-30" x="136.499985"/>
       <use xlink:href="#Archivo-Regular-30" x="193.799973"/>
       <use xlink:href="#Archivo-Regular-2c" x="251.09996"/>
       <use xlink:href="#Archivo-Regular-30" x="278.799957"/>
       <use xlink:href="#Archivo-Regular-30" x="336.099945"/>
       <use xlink:href="#Archivo-Regular-30" x="393.399933"/>
      </g>
     </g>
    </g>
    <g id="ytick_7">
     <g id="line2d_20">
      <path d="M 77.828594 11.176328 
L 598.028594 11.176328 
" clip-path="url(#pe849c1b789)" style="fill: none; stroke: #b0b0b0; stroke-width: 0.5; stroke-linecap: square"/>
     </g>
     <g id="line2d_21">
      <g>
       <use xlink:href="#m5c4e2f32d5" x="77.828594" y="11.176328" style="stroke: #000000; stroke-width: 0.8"/>
      </g>
     </g>
     <g id="text_14">
      <!-- 1,400,000 -->
      <g transform="translate(21.385313 15.152656) scale(0.11 -0.11)">
       <use xlink:href="#Archivo-Regular-31"/>
       <use xlink:href="#Archivo-Regular-2c" x="52.099991"/>
       <use xlink:href="#Archivo-Regular-34" x="79.799988"/>
       <use xlink:href="#Archivo-Regular-30" x="135.299973"/>
       <use xlink:href="#Archivo-Regular-30" x="192.59996"/>
       <use xlink:href="#Archivo-Regular-2c" x="249.899948"/>
       <use xlink:href="#Archivo-Regular-30" x="277.599945"/>
       <use xlink:href="#Archivo-Regular-30" x="334.899933"/>
       <use xlink:href="#Archivo-Regular-30" x="392.199921"/>
      </g>
     </g>
    </g>
    <g id="text_15">
     <!-- Capturas marinas [toneladas] -->
     <g transform="translate(15.285 219.34172) rotate(-90) scale(0.11 -0.11)">
      <defs>
       <path id="Archivo-Regular-43" d="M 2426 -77 
Q 1754 -77 1286 169 
Q 819 416 572 918 
Q 326 1421 326 2195 
Q 326 3341 883 3904 
Q 1440 4467 2432 4467 
Q 2995 4467 3430 4284 
Q 3866 4102 4112 3734 
Q 4358 3366 4358 2810 
L 3744 2810 
Q 3744 3194 3581 3443 
Q 3418 3693 3123 3817 
Q 2829 3942 2432 3942 
Q 1971 3942 1638 3763 
Q 1306 3584 1133 3209 
Q 960 2835 960 2246 
L 960 2112 
Q 960 1530 1133 1162 
Q 1306 794 1635 621 
Q 1965 448 2432 448 
Q 2842 448 3139 569 
Q 3437 691 3600 944 
Q 3763 1197 3763 1581 
L 4358 1581 
Q 4358 1011 4105 646 
Q 3853 282 3417 102 
Q 2982 -77 2426 -77 
z
" transform="scale(0.015625)"/>
       <path id="Archivo-Regular-61" d="M 1286 -77 
Q 1101 -77 915 -32 
Q 730 13 570 115 
Q 410 218 314 400 
Q 218 582 218 858 
Q 218 1203 384 1427 
Q 550 1651 848 1776 
Q 1146 1901 1555 1949 
Q 1965 1997 2445 1997 
L 2445 2381 
Q 2445 2566 2381 2700 
Q 2317 2835 2153 2908 
Q 1990 2982 1690 2982 
Q 1402 2982 1232 2908 
Q 1062 2835 995 2720 
Q 928 2605 928 2464 
L 928 2368 
L 384 2368 
Q 378 2400 378 2432 
Q 378 2464 378 2509 
Q 378 2816 547 3024 
Q 717 3232 1024 3337 
Q 1331 3443 1728 3443 
Q 2150 3443 2435 3321 
Q 2720 3200 2864 2976 
Q 3008 2752 3008 2438 
L 3008 614 
Q 3008 493 3065 445 
Q 3123 397 3206 397 
L 3456 397 
L 3456 26 
Q 3366 -13 3257 -41 
Q 3149 -70 3008 -70 
Q 2842 -70 2733 -3 
Q 2624 64 2566 182 
Q 2509 301 2490 448 
L 2445 448 
Q 2330 288 2154 169 
Q 1978 51 1760 -13 
Q 1542 -77 1286 -77 
z
M 1427 397 
Q 1632 397 1814 461 
Q 1997 525 2137 643 
Q 2278 762 2361 928 
Q 2445 1094 2445 1293 
L 2445 1574 
Q 1926 1574 1561 1516 
Q 1197 1459 1001 1312 
Q 806 1165 806 896 
Q 806 723 883 614 
Q 960 506 1101 451 
Q 1242 397 1427 397 
z
" transform="scale(0.015625)"/>
       <path id="Archivo-Regular-70" d="M 442 -1107 
L 442 3366 
L 890 3366 
L 947 2886 
L 992 2886 
Q 1165 3168 1433 3305 
Q 1702 3443 2042 3443 
Q 2464 3443 2758 3257 
Q 3053 3072 3213 2678 
Q 3373 2285 3373 1658 
Q 3373 1069 3209 681 
Q 3046 294 2752 108 
Q 2458 -77 2067 -77 
Q 1850 -77 1658 -25 
Q 1466 26 1312 138 
Q 1158 250 1043 422 
L 1005 422 
L 1005 -1107 
L 442 -1107 
z
M 1888 416 
Q 2202 416 2400 541 
Q 2598 666 2694 931 
Q 2790 1197 2790 1613 
L 2790 1747 
Q 2790 2189 2688 2454 
Q 2586 2720 2390 2835 
Q 2195 2950 1907 2950 
Q 1594 2950 1392 2812 
Q 1190 2675 1097 2400 
Q 1005 2125 1005 1728 
L 1005 1632 
Q 1005 1280 1072 1046 
Q 1139 813 1264 672 
Q 1389 531 1549 473 
Q 1709 416 1888 416 
z
" transform="scale(0.015625)"/>
       <path id="Archivo-Regular-74" d="M 1229 -77 
Q 966 -77 819 22 
Q 672 122 608 285 
Q 544 448 544 634 
L 544 2893 
L 109 2893 
L 109 3366 
L 557 3366 
L 659 4307 
L 1107 4307 
L 1107 3366 
L 1741 3366 
L 1741 2893 
L 1107 2893 
L 1107 717 
Q 1107 557 1164 477 
Q 1222 397 1382 397 
L 1741 397 
L 1741 26 
Q 1677 -6 1587 -25 
Q 1498 -45 1405 -61 
Q 1312 -77 1229 -77 
z
" transform="scale(0.015625)"/>
       <path id="Archivo-Regular-75" d="M 1485 -77 
Q 998 -77 704 172 
Q 410 422 410 1043 
L 410 3366 
L 973 3366 
L 973 1120 
Q 973 909 1024 774 
Q 1075 640 1171 563 
Q 1267 486 1398 454 
Q 1530 422 1683 422 
Q 1926 422 2131 537 
Q 2336 653 2467 873 
Q 2598 1094 2598 1389 
L 2598 3366 
L 3162 3366 
L 3162 0 
L 2707 0 
L 2656 506 
L 2611 506 
Q 2477 301 2307 173 
Q 2138 45 1930 -16 
Q 1722 -77 1485 -77 
z
" transform="scale(0.015625)"/>
       <path id="Archivo-Regular-72" d="M 442 0 
L 442 3366 
L 896 3366 
L 947 2810 
L 992 2810 
Q 1043 2970 1132 3114 
Q 1222 3258 1376 3350 
Q 1530 3443 1754 3443 
Q 1850 3443 1930 3427 
Q 2010 3411 2048 3392 
L 2048 2874 
L 1837 2874 
Q 1619 2874 1462 2800 
Q 1306 2726 1203 2592 
Q 1101 2458 1053 2272 
Q 1005 2086 1005 1875 
L 1005 0 
L 442 0 
z
" transform="scale(0.015625)"/>
       <path id="Archivo-Regular-73" d="M 1619 -77 
Q 1274 -77 1011 -6 
Q 749 64 576 198 
Q 403 333 313 518 
Q 224 704 224 941 
Q 224 973 224 1001 
Q 224 1030 230 1050 
L 787 1050 
Q 781 1024 781 1005 
Q 781 986 781 966 
Q 787 742 899 614 
Q 1011 486 1209 435 
Q 1408 384 1651 384 
Q 1862 384 2041 438 
Q 2221 493 2326 605 
Q 2432 717 2432 890 
Q 2432 1101 2294 1213 
Q 2157 1325 1933 1389 
Q 1709 1453 1466 1523 
Q 1261 1581 1056 1651 
Q 851 1722 688 1824 
Q 525 1926 425 2089 
Q 326 2253 326 2502 
Q 326 2726 419 2899 
Q 512 3072 685 3193 
Q 858 3315 1104 3376 
Q 1350 3437 1651 3437 
Q 1971 3437 2211 3366 
Q 2451 3296 2611 3168 
Q 2771 3040 2848 2877 
Q 2925 2714 2925 2528 
Q 2925 2490 2925 2454 
Q 2925 2419 2918 2400 
L 2368 2400 
L 2368 2470 
Q 2368 2598 2301 2716 
Q 2234 2835 2070 2908 
Q 1907 2982 1619 2982 
Q 1434 2982 1299 2953 
Q 1165 2925 1075 2864 
Q 986 2803 941 2723 
Q 896 2643 896 2541 
Q 896 2374 1005 2284 
Q 1114 2195 1296 2137 
Q 1478 2080 1690 2010 
Q 1914 1946 2147 1878 
Q 2381 1811 2576 1708 
Q 2771 1606 2889 1430 
Q 3008 1254 3008 966 
Q 3008 698 2905 499 
Q 2803 301 2614 173 
Q 2426 45 2173 -16 
Q 1920 -77 1619 -77 
z
" transform="scale(0.015625)"/>
       <path id="Archivo-Regular-20" transform="scale(0.015625)"/>
       <path id="Archivo-Regular-6d" d="M 442 0 
L 442 3366 
L 896 3366 
L 947 2861 
L 992 2861 
Q 1120 3066 1280 3194 
Q 1440 3322 1632 3382 
Q 1824 3443 2048 3443 
Q 2374 3443 2611 3312 
Q 2848 3181 2963 2861 
L 3002 2861 
Q 3123 3066 3283 3190 
Q 3443 3315 3641 3379 
Q 3840 3443 4064 3443 
Q 4371 3443 4601 3337 
Q 4832 3232 4963 2992 
Q 5094 2752 5094 2349 
L 5094 0 
L 4531 0 
L 4531 2259 
Q 4531 2464 4483 2598 
Q 4435 2733 4345 2806 
Q 4256 2880 4137 2912 
Q 4019 2944 3885 2944 
Q 3661 2944 3472 2829 
Q 3283 2714 3168 2496 
Q 3053 2278 3053 1978 
L 3053 0 
L 2490 0 
L 2490 2259 
Q 2490 2464 2438 2598 
Q 2387 2733 2304 2806 
Q 2221 2880 2102 2912 
Q 1984 2944 1856 2944 
Q 1626 2944 1430 2829 
Q 1235 2714 1120 2496 
Q 1005 2278 1005 1978 
L 1005 0 
L 442 0 
z
" transform="scale(0.015625)"/>
       <path id="Archivo-Regular-69" d="M 442 4000 
L 442 4627 
L 1005 4627 
L 1005 4000 
L 442 4000 
z
M 442 0 
L 442 3366 
L 1005 3366 
L 1005 0 
L 442 0 
z
" transform="scale(0.015625)"/>
       <path id="Archivo-Regular-6e" d="M 442 0 
L 442 3366 
L 896 3366 
L 947 2861 
L 992 2861 
Q 1126 3066 1296 3194 
Q 1466 3322 1674 3382 
Q 1882 3443 2118 3443 
Q 2438 3443 2678 3334 
Q 2918 3226 3056 2982 
Q 3194 2739 3194 2323 
L 3194 0 
L 2630 0 
L 2630 2246 
Q 2630 2458 2576 2592 
Q 2522 2726 2429 2803 
Q 2336 2880 2205 2912 
Q 2074 2944 1914 2944 
Q 1677 2944 1465 2829 
Q 1254 2714 1129 2496 
Q 1005 2278 1005 1978 
L 1005 0 
L 442 0 
z
" transform="scale(0.015625)"/>
       <path id="Archivo-Regular-5b" d="M 595 -1030 
L 595 4704 
L 1798 4704 
L 1798 4288 
L 1101 4288 
L 1101 -614 
L 1798 -614 
L 1798 -1030 
L 595 -1030 
z
" transform="scale(0.015625)"/>
       <path id="Archivo-Regular-6f" d="M 1824 -77 
Q 1312 -77 963 112 
Q 614 301 432 691 
Q 250 1082 250 1683 
Q 250 2291 432 2678 
Q 614 3066 963 3254 
Q 1312 3443 1824 3443 
Q 2336 3443 2685 3254 
Q 3034 3066 3213 2678 
Q 3392 2291 3392 1683 
Q 3392 1082 3213 691 
Q 3034 301 2685 112 
Q 2336 -77 1824 -77 
z
M 1824 397 
Q 2150 397 2368 525 
Q 2586 653 2698 925 
Q 2810 1197 2810 1613 
L 2810 1754 
Q 2810 2176 2698 2445 
Q 2586 2714 2368 2842 
Q 2150 2970 1824 2970 
Q 1498 2970 1277 2842 
Q 1056 2714 947 2445 
Q 838 2176 838 1754 
L 838 1613 
Q 838 1197 947 925 
Q 1056 653 1277 525 
Q 1498 397 1824 397 
z
" transform="scale(0.015625)"/>
       <path id="Archivo-Regular-65" d="M 1786 -77 
Q 1286 -77 944 112 
Q 602 301 426 691 
Q 250 1082 250 1683 
Q 250 2291 426 2678 
Q 602 3066 947 3254 
Q 1293 3443 1811 3443 
Q 2285 3443 2605 3260 
Q 2925 3078 3088 2716 
Q 3251 2355 3251 1811 
L 3251 1542 
L 832 1542 
Q 845 1139 950 880 
Q 1056 621 1267 502 
Q 1478 384 1798 384 
Q 2016 384 2179 438 
Q 2342 493 2454 595 
Q 2566 698 2624 838 
Q 2682 979 2688 1146 
L 3238 1146 
Q 3232 877 3136 649 
Q 3040 422 2854 262 
Q 2669 102 2400 12 
Q 2131 -77 1786 -77 
z
M 845 1965 
L 2669 1965 
Q 2669 2246 2605 2438 
Q 2541 2630 2422 2752 
Q 2304 2874 2147 2928 
Q 1990 2982 1792 2982 
Q 1498 2982 1293 2873 
Q 1088 2765 979 2541 
Q 870 2317 845 1965 
z
" transform="scale(0.015625)"/>
       <path id="Archivo-Regular-6c" d="M 442 0 
L 442 4627 
L 1005 4627 
L 1005 0 
L 442 0 
z
" transform="scale(0.015625)"/>
       <path id="Archivo-Regular-64" d="M 1587 -77 
Q 1171 -77 873 108 
Q 576 294 413 688 
Q 250 1082 250 1709 
Q 250 2304 416 2688 
Q 582 3072 876 3257 
Q 1171 3443 1562 3443 
Q 1786 3443 1978 3392 
Q 2170 3341 2320 3232 
Q 2470 3123 2586 2944 
L 2624 2944 
L 2624 4627 
L 3187 4627 
L 3187 0 
L 2733 0 
L 2682 480 
L 2637 480 
Q 2464 198 2189 60 
Q 1914 -77 1587 -77 
z
M 1722 416 
Q 2042 416 2240 557 
Q 2438 698 2531 966 
Q 2624 1235 2624 1632 
L 2624 1734 
Q 2624 2080 2553 2317 
Q 2483 2554 2361 2694 
Q 2240 2835 2080 2892 
Q 1920 2950 1741 2950 
Q 1427 2950 1228 2825 
Q 1030 2701 934 2435 
Q 838 2170 838 1747 
L 838 1613 
Q 838 1178 940 912 
Q 1043 646 1238 531 
Q 1434 416 1722 416 
z
" transform="scale(0.015625)"/>
       <path id="Archivo-Regular-5d" d="M 1299 4704 
L 1299 -1030 
L 96 -1030 
L 96 -614 
L 794 -614 
L 794 4288 
L 96 4288 
L 96 4704 
L 1299 4704 
z
" transform="scale(0.015625)"/>
      </defs>
      <use xlink:href="#Archivo-Regular-43"/>
      <use xlink:href="#Archivo-Regular-61" x="72.799988"/>
      <use xlink:href="#Archivo-Regular-70" x="127.299973"/>
      <use xlink:href="#Archivo-Regular-74" x="183.999969"/>
      <use xlink:href="#Archivo-Regular-75" x="213.699966"/>
      <use xlink:href="#Archivo-Regular-72" x="269.899963"/>
      <use xlink:href="#Archivo-Regular-61" x="303.09996"/>
      <use xlink:href="#Archivo-Regular-73" x="357.599945"/>
      <use xlink:href="#Archivo-Regular-20" x="408.59993"/>
      <use xlink:href="#Archivo-Regular-6d" x="429.499924"/>
      <use xlink:href="#Archivo-Regular-61" x="515.499908"/>
      <use xlink:href="#Archivo-Regular-72" x="569.999893"/>
      <use xlink:href="#Archivo-Regular-69" x="603.19989"/>
      <use xlink:href="#Archivo-Regular-6e" x="625.699875"/>
      <use xlink:href="#Archivo-Regular-61" x="681.999863"/>
      <use xlink:href="#Archivo-Regular-73" x="736.499847"/>
      <use xlink:href="#Archivo-Regular-20" x="787.499832"/>
      <use xlink:href="#Archivo-Regular-5b" x="808.399826"/>
      <use xlink:href="#Archivo-Regular-74" x="837.999817"/>
      <use xlink:href="#Archivo-Regular-6f" x="867.699814"/>
      <use xlink:href="#Archivo-Regular-6e" x="924.699799"/>
      <use xlink:href="#Archivo-Regular-65" x="980.999786"/>
      <use xlink:href="#Archivo-Regular-6c" x="1035.799774"/>
      <use xlink:href="#Archivo-Regular-61" x="1058.299759"/>
      <use xlink:href="#Archivo-Regular-64" x="1112.799744"/>
      <use xlink:href="#Archivo-Regular-61" x="1169.499741"/>
      <use xlink:href="#Archivo-Regular-73" x="1223.999725"/>
      <use xlink:href="#Archivo-Regular-5d" x="1274.99971"/>
     </g>
    </g>
   </g>
   <g id="line2d_22">
    <path d="M 101.474048 271.227917 
L 108.980542 272.770022 
L 116.487035 271.81256 
L 123.993529 266.251723 
L 131.500022 259.671914 
L 139.006516 254.070532 
L 146.513009 246.325985 
L 154.019503 249.491683 
L 161.525996 251.075521 
L 169.03249 254.622937 
L 176.538983 251.315628 
L 184.045477 248.169313 
L 191.55197 246.256366 
L 199.058464 234.643007 
L 206.564957 235.312894 
L 214.071451 248.699171 
L 221.577944 237.398109 
L 229.084438 215.004448 
L 236.590931 188.362036 
L 244.097425 179.412206 
L 251.603918 213.534137 
L 259.110412 218.480268 
L 266.616905 197.170056 
L 274.123399 208.607587 
L 281.629892 227.649834 
L 289.136386 209.576521 
L 296.642879 206.630955 
L 304.149373 198.939018 
L 311.655866 192.619292 
L 319.16236 188.525206 
L 326.668853 172.70641 
L 334.175347 148.757194 
L 341.681841 143.450507 
L 349.188334 96.098547 
L 356.694828 93.391506 
L 364.201321 60.882882 
L 371.707815 40.933608 
L 379.214308 22.406386 
L 386.720802 66.525205 
L 394.227295 86.385477 
L 401.733789 118.498933 
L 409.240282 111.893214 
L 416.746776 112.111368 
L 424.253269 121.395647 
L 431.759763 114.538943 
L 439.266256 116.323332 
L 446.77275 75.701693 
L 454.279243 106.277988 
L 461.785737 103.47166 
L 469.29223 134.568912 
L 476.798724 136.719395 
L 484.305217 142.925396 
L 491.811711 151.153916 
L 499.318204 125.07004 
L 506.824698 131.597832 
L 514.331191 136.232258 
L 521.837685 148.491375 
L 529.344178 133.974182 
L 536.850672 131.499732 
L 544.357165 133.543215 
L 551.863659 131.871562 
L 559.370152 130.230566 
L 566.876646 130.262013 
L 574.383139 133.861248 
" clip-path="url(#pe849c1b789)" style="fill: none; stroke: #7bb5c4; stroke-width: 0.5; stroke-linecap: square"/>
    <defs>
     <path id="m1d3812d8aa" d="M 0 1.5 
C 0.397805 1.5 0.77937 1.341951 1.06066 1.06066 
C 1.341951 0.77937 1.5 0.397805 1.5 0 
C 1.5 -0.397805 1.341951 -0.77937 1.06066 -1.06066 
C 0.77937 -1.341951 0.397805 -1.5 0 -1.5 
C -0.397805 -1.5 -0.77937 -1.341951 -1.06066 -1.06066 
C -1.341951 -0.77937 -1.5 -0.397805 -1.5 0 
C -1.5 0.397805 -1.341951 0.77937 -1.06066 1.06066 
C -0.77937 1.341951 -0.397805 1.5 0 1.5 
z
" style="stroke: #7bb5c4"/>
    </defs>
    <g clip-path="url(#pe849c1b789)">
     <use xlink:href="#m1d3812d8aa" x="101.474048" y="271.227917" style="fill: #7bb5c4; stroke: #7bb5c4"/>
     <use xlink:href="#m1d3812d8aa" x="108.980542" y="272.770022" style="fill: #7bb5c4; stroke: #7bb5c4"/>
     <use xlink:href="#m1d3812d8aa" x="116.487035" y="271.81256" style="fill: #7bb5c4; stroke: #7bb5c4"/>
     <use xlink:href="#m1d3812d8aa" x="123.993529" y="266.251723" style="fill: #7bb5c4; stroke: #7bb5c4"/>
     <use xlink:href="#m1d3812d8aa" x="131.500022" y="259.671914" style="fill: #7bb5c4; stroke: #7bb5c4"/>
     <use xlink:href="#m1d3812d8aa" x="139.006516" y="254.070532" style="fill: #7bb5c4; stroke: #7bb5c4"/>
     <use xlink:href="#m1d3812d8aa" x="146.513009" y="246.325985" style="fill: #7bb5c4; stroke: #7bb5c4"/>
     <use xlink:href="#m1d3812d8aa" x="154.019503" y="249.491683" style="fill: #7bb5c4; stroke: #7bb5c4"/>
     <use xlink:href="#m1d3812d8aa" x="161.525996" y="251.075521" style="fill: #7bb5c4; stroke: #7bb5c4"/>
     <use xlink:href="#m1d3812d8aa" x="169.03249" y="254.622937" style="fill: #7bb5c4; stroke: #7bb5c4"/>
     <use xlink:href="#m1d3812d8aa" x="176.538983" y="251.315628" style="fill: #7bb5c4; stroke: #7bb5c4"/>
     <use xlink:href="#m1d3812d8aa" x="184.045477" y="248.169313" style="fill: #7bb5c4; stroke: #7bb5c4"/>
     <use xlink:href="#m1d3812d8aa" x="191.55197" y="246.256366" style="fill: #7bb5c4; stroke: #7bb5c4"/>
     <use xlink:href="#m1d3812d8aa" x="199.058464" y="234.643007" style="fill: #7bb5c4; stroke: #7bb5c4"/>
     <use xlink:href="#m1d3812d8aa" x="206.564957" y="235.312894" style="fill: #7bb5c4; stroke: #7bb5c4"/>
     <use xlink:href="#m1d3812d8aa" x="214.071451" y="248.699171" style="fill: #7bb5c4; stroke: #7bb5c4"/>
     <use xlink:href="#m1d3812d8aa" x="221.577944" y="237.398109" style="fill: #7bb5c4; stroke: #7bb5c4"/>
     <use xlink:href="#m1d3812d8aa" x="229.084438" y="215.004448" style="fill: #7bb5c4; stroke: #7bb5c4"/>
     <use xlink:href="#m1d3812d8aa" x="236.590931" y="188.362036" style="fill: #7bb5c4; stroke: #7bb5c4"/>
     <use xlink:href="#m1d3812d8aa" x="244.097425" y="179.412206" style="fill: #7bb5c4; stroke: #7bb5c4"/>
     <use xlink:href="#m1d3812d8aa" x="251.603918" y="213.534137" style="fill: #7bb5c4; stroke: #7bb5c4"/>
     <use xlink:href="#m1d3812d8aa" x="259.110412" y="218.480268" style="fill: #7bb5c4; stroke: #7bb5c4"/>
     <use xlink:href="#m1d3812d8aa" x="266.616905" y="197.170056" style="fill: #7bb5c4; stroke: #7bb5c4"/>
     <use xlink:href="#m1d3812d8aa" x="274.123399" y="208.607587" style="fill: #7bb5c4; stroke: #7bb5c4"/>
     <use xlink:href="#m1d3812d8aa" x="281.629892" y="227.649834" style="fill: #7bb5c4; stroke: #7bb5c4"/>
     <use xlink:href="#m1d3812d8aa" x="289.136386" y="209.576521" style="fill: #7bb5c4; stroke: #7bb5c4"/>
     <use xlink:href="#m1d3812d8aa" x="296.642879" y="206.630955" style="fill: #7bb5c4; stroke: #7bb5c4"/>
     <use xlink:href="#m1d3812d8aa" x="304.149373" y="198.939018" style="fill: #7bb5c4; stroke: #7bb5c4"/>
     <use xlink:href="#m1d3812d8aa" x="311.655866" y="192.619292" style="fill: #7bb5c4; stroke: #7bb5c4"/>
     <use xlink:href="#m1d3812d8aa" x="319.16236" y="188.525206" style="fill: #7bb5c4; stroke: #7bb5c4"/>
     <use xlink:href="#m1d3812d8aa" x="326.668853" y="172.70641" style="fill: #7bb5c4; stroke: #7bb5c4"/>
     <use xlink:href="#m1d3812d8aa" x="334.175347" y="148.757194" style="fill: #7bb5c4; stroke: #7bb5c4"/>
     <use xlink:href="#m1d3812d8aa" x="341.681841" y="143.450507" style="fill: #7bb5c4; stroke: #7bb5c4"/>
     <use xlink:href="#m1d3812d8aa" x="349.188334" y="96.098547" style="fill: #7bb5c4; stroke: #7bb5c4"/>
     <use xlink:href="#m1d3812d8aa" x="356.694828" y="93.391506" style="fill: #7bb5c4; stroke: #7bb5c4"/>
     <use xlink:href="#m1d3812d8aa" x="364.201321" y="60.882882" style="fill: #7bb5c4; stroke: #7bb5c4"/>
     <use xlink:href="#m1d3812d8aa" x="371.707815" y="40.933608" style="fill: #7bb5c4; stroke: #7bb5c4"/>
     <use xlink:href="#m1d3812d8aa" x="379.214308" y="22.406386" style="fill: #7bb5c4; stroke: #7bb5c4"/>
     <use xlink:href="#m1d3812d8aa" x="386.720802" y="66.525205" style="fill: #7bb5c4; stroke: #7bb5c4"/>
     <use xlink:href="#m1d3812d8aa" x="394.227295" y="86.385477" style="fill: #7bb5c4; stroke: #7bb5c4"/>
     <use xlink:href="#m1d3812d8aa" x="401.733789" y="118.498933" style="fill: #7bb5c4; stroke: #7bb5c4"/>
     <use xlink:href="#m1d3812d8aa" x="409.240282" y="111.893214" style="fill: #7bb5c4; stroke: #7bb5c4"/>
     <use xlink:href="#m1d3812d8aa" x="416.746776" y="112.111368" style="fill: #7bb5c4; stroke: #7bb5c4"/>
     <use xlink:href="#m1d3812d8aa" x="424.253269" y="121.395647" style="fill: #7bb5c4; stroke: #7bb5c4"/>
     <use xlink:href="#m1d3812d8aa" x="431.759763" y="114.538943" style="fill: #7bb5c4; stroke: #7bb5c4"/>
     <use xlink:href="#m1d3812d8aa" x="439.266256" y="116.323332" style="fill: #7bb5c4; stroke: #7bb5c4"/>
     <use xlink:href="#m1d3812d8aa" x="446.77275" y="75.701693" style="fill: #7bb5c4; stroke: #7bb5c4"/>
     <use xlink:href="#m1d3812d8aa" x="454.279243" y="106.277988" style="fill: #7bb5c4; stroke: #7bb5c4"/>
     <use xlink:href="#m1d3812d8aa" x="461.785737" y="103.47166" style="fill: #7bb5c4; stroke: #7bb5c4"/>
     <use xlink:href="#m1d3812d8aa" x="469.29223" y="134.568912" style="fill: #7bb5c4; stroke: #7bb5c4"/>
     <use xlink:href="#m1d3812d8aa" x="476.798724" y="136.719395" style="fill: #7bb5c4; stroke: #7bb5c4"/>
     <use xlink:href="#m1d3812d8aa" x="484.305217" y="142.925396" style="fill: #7bb5c4; stroke: #7bb5c4"/>
     <use xlink:href="#m1d3812d8aa" x="491.811711" y="151.153916" style="fill: #7bb5c4; stroke: #7bb5c4"/>
     <use xlink:href="#m1d3812d8aa" x="499.318204" y="125.07004" style="fill: #7bb5c4; stroke: #7bb5c4"/>
     <use xlink:href="#m1d3812d8aa" x="506.824698" y="131.597832" style="fill: #7bb5c4; stroke: #7bb5c4"/>
     <use xlink:href="#m1d3812d8aa" x="514.331191" y="136.232258" style="fill: #7bb5c4; stroke: #7bb5c4"/>
     <use xlink:href="#m1d3812d8aa" x="521.837685" y="148.491375" style="fill: #7bb5c4; stroke: #7bb5c4"/>
     <use xlink:href="#m1d3812d8aa" x="529.344178" y="133.974182" style="fill: #7bb5c4; stroke: #7bb5c4"/>
     <use xlink:href="#m1d3812d8aa" x="536.850672" y="131.499732" style="fill: #7bb5c4; stroke: #7bb5c4"/>
     <use xlink:href="#m1d3812d8aa" x="544.357165" y="133.543215" style="fill: #7bb5c4; stroke: #7bb5c4"/>
     <use xlink:href="#m1d3812d8aa" x="551.863659" y="131.871562" style="fill: #7bb5c4; stroke: #7bb5c4"/>
     <use xlink:href="#m1d3812d8aa" x="559.370152" y="130.230566" style="fill: #7bb5c4; stroke: #7bb5c4"/>
     <use xlink:href="#m1d3812d8aa" x="566.876646" y="130.262013" style="fill: #7bb5c4; stroke: #7bb5c4"/>
     <use xlink:href="#m1d3812d8aa" x="574.383139" y="133.861248" style="fill: #7bb5c4; stroke: #7bb5c4"/>
    </g>
   </g>
   <g id="patch_3">
    <path d="M 77.828594 285.288204 
L 77.828594 9.888204 
" style="fill: none; stroke: #000000; stroke-width: 0.8; stroke-linejoin: miter; stroke-linecap: square"/>
   </g>
   <g id="patch_4">
    <path d="M 77.828594 285.288204 
L 598.028594 285.288204 
" style="fill: none; stroke: #000000; stroke-width: 0.8; stroke-linejoin: miter; stroke-linecap: square"/>
   </g>
  </g>
 </g>
 <defs>
  <clipPath id="pe849c1b789">
   <rect x="77.828594" y="9.888204" width="520.2" height="275.4"/>
  </clipPath>
 </defs>
</svg>
