<?xml version="1.0" encoding="utf-8" standalone="no"?>
<!DOCTYPE svg PUBLIC "-//W3C//DTD SVG 1.1//EN"
  "http://www.w3.org/Graphics/SVG/1.1/DTD/svg11.dtd">
<svg xmlns:xlink="http://www.w3.org/1999/xlink" width="596.318594pt" height="342.965312pt" viewBox="0 0 596.318594 342.965312" xmlns="http://www.w3.org/2000/svg" version="1.1">
 <metadata>
  <rdf:RDF xmlns:dc="http://purl.org/dc/elements/1.1/" xmlns:cc="http://creativecommons.org/ns#" xmlns:rdf="http://www.w3.org/1999/02/22-rdf-syntax-ns#">
   <cc:Work>
    <dc:type rdf:resource="http://purl.org/dc/dcmitype/StillImage"/>
    <dc:date>2024-10-28T15:41:42.045308</dc:date>
    <dc:format>image/svg+xml</dc:format>
    <dc:creator>
     <cc:Agent>
      <dc:title>Matplotlib v3.6.2, https://matplotlib.org/</dc:title>
     </cc:Agent>
    </dc:creator>
   </cc:Work>
  </rdf:RDF>
 </metadata>
 <defs>
  <style type="text/css">*{stroke-linejoin: round; stroke-linecap: butt}</style>
 </defs>
 <g id="figure_1">
  <g id="patch_1">
   <path d="M 0 342.965312 
L 596.318594 342.965312 
L 596.318594 0 
L 0 0 
L 0 342.965312 
z
" style="fill: none"/>
  </g>
  <g id="axes_1">
   <g id="patch_2">
    <path d="M 68.918594 318.91 
L 589.118594 318.91 
L 589.118594 43.51 
L 68.918594 43.51 
L 68.918594 318.91 
z
" style="fill: none"/>
   </g>
   <g id="matplotlib.axis_1">
    <g id="xtick_1">
     <g id="line2d_1">
      <defs>
       <path id="m99c9bffcce" d="M 0 0 
L 0 3.5 
" style="stroke: #000000; stroke-width: 0.8"/>
      </defs>
      <g>
       <use xlink:href="#m99c9bffcce" x="106.473139" y="318.91" style="stroke: #000000; stroke-width: 0.8"/>
      </g>
     </g>
     <g id="text_1">
      <!-- 1990 -->
      <g transform="translate(94.153999 333.862656) scale(0.11 -0.11)">
       <defs>
        <path id="Archivo-Regular-31" d="M 429 0 
L 429 480 
L 1536 480 
L 1536 3520 
L 422 3520 
L 422 3878 
Q 659 3898 912 3949 
Q 1165 4000 1408 4112 
Q 1651 4224 1850 4403 
L 2106 4403 
L 2106 480 
L 3149 480 
L 3149 0 
L 429 0 
z
" transform="scale(0.015625)"/>
        <path id="Archivo-Regular-39" d="M 1760 -77 
Q 1293 -77 998 102 
Q 704 282 569 589 
Q 435 896 435 1280 
L 1011 1280 
Q 1011 986 1097 787 
Q 1184 589 1357 493 
Q 1530 397 1792 397 
Q 2182 397 2390 598 
Q 2598 800 2681 1184 
Q 2765 1568 2771 2099 
Q 2688 1958 2521 1833 
Q 2355 1709 2134 1635 
Q 1914 1562 1664 1562 
Q 1190 1562 883 1750 
Q 576 1939 425 2265 
Q 275 2592 275 2995 
Q 275 3443 467 3772 
Q 659 4102 992 4284 
Q 1325 4467 1741 4467 
Q 2118 4467 2419 4358 
Q 2720 4250 2928 4006 
Q 3136 3763 3245 3350 
Q 3354 2938 3354 2323 
Q 3354 1651 3248 1190 
Q 3142 730 2937 451 
Q 2733 173 2435 48 
Q 2138 -77 1760 -77 
z
M 1779 2029 
Q 2093 2029 2301 2163 
Q 2509 2298 2611 2522 
Q 2714 2746 2714 3021 
Q 2714 3290 2614 3510 
Q 2515 3731 2307 3862 
Q 2099 3994 1786 3994 
Q 1472 3994 1267 3856 
Q 1062 3718 963 3494 
Q 864 3270 864 2989 
Q 864 2726 960 2508 
Q 1056 2291 1257 2160 
Q 1459 2029 1779 2029 
z
" transform="scale(0.015625)"/>
        <path id="Archivo-Regular-30" d="M 1837 -77 
Q 1478 -77 1196 28 
Q 915 134 716 393 
Q 518 653 416 1091 
Q 314 1530 314 2195 
Q 314 2861 416 3299 
Q 518 3738 716 3997 
Q 915 4256 1196 4361 
Q 1478 4467 1837 4467 
Q 2195 4467 2473 4361 
Q 2752 4256 2950 3997 
Q 3149 3738 3251 3299 
Q 3354 2861 3354 2195 
Q 3354 1530 3251 1091 
Q 3149 653 2950 393 
Q 2752 134 2473 28 
Q 2195 -77 1837 -77 
z
M 1837 397 
Q 2202 397 2403 582 
Q 2605 768 2685 1133 
Q 2765 1498 2765 2042 
L 2765 2336 
Q 2765 2886 2685 3254 
Q 2605 3622 2403 3808 
Q 2202 3994 1837 3994 
Q 1472 3994 1267 3808 
Q 1062 3622 982 3257 
Q 902 2893 902 2342 
L 902 2054 
Q 902 1510 982 1139 
Q 1062 768 1267 582 
Q 1472 397 1837 397 
z
" transform="scale(0.015625)"/>
       </defs>
       <use xlink:href="#Archivo-Regular-31"/>
       <use xlink:href="#Archivo-Regular-39" x="52.099991"/>
       <use xlink:href="#Archivo-Regular-39" x="109.399979"/>
       <use xlink:href="#Archivo-Regular-30" x="166.699966"/>
      </g>
     </g>
    </g>
    <g id="xtick_2">
     <g id="line2d_2">
      <g>
       <use xlink:href="#m99c9bffcce" x="176.018594" y="318.91" style="stroke: #000000; stroke-width: 0.8"/>
      </g>
     </g>
     <g id="text_2">
      <!-- 1995 -->
      <g transform="translate(163.710625 333.862656) scale(0.11 -0.11)">
       <defs>
        <path id="Archivo-Regular-35" d="M 1856 -77 
Q 1395 -77 1049 96 
Q 704 269 512 592 
Q 320 915 320 1363 
L 890 1363 
Q 890 1062 1018 844 
Q 1146 627 1366 512 
Q 1587 397 1856 397 
Q 2131 397 2342 509 
Q 2554 621 2672 851 
Q 2790 1082 2790 1434 
Q 2790 1754 2681 1962 
Q 2573 2170 2371 2272 
Q 2170 2374 1907 2374 
Q 1715 2374 1542 2313 
Q 1370 2253 1232 2144 
Q 1094 2035 1005 1875 
L 474 1958 
L 659 4390 
L 3149 4390 
L 3149 3866 
L 1152 3866 
L 1050 2496 
Q 1158 2592 1296 2672 
Q 1434 2752 1613 2800 
Q 1792 2848 2022 2848 
Q 2400 2848 2707 2701 
Q 3014 2554 3193 2246 
Q 3373 1939 3373 1453 
Q 3373 973 3190 627 
Q 3008 282 2669 102 
Q 2330 -77 1856 -77 
z
" transform="scale(0.015625)"/>
       </defs>
       <use xlink:href="#Archivo-Regular-31"/>
       <use xlink:href="#Archivo-Regular-39" x="52.099991"/>
       <use xlink:href="#Archivo-Regular-39" x="109.399979"/>
       <use xlink:href="#Archivo-Regular-35" x="166.699966"/>
      </g>
     </g>
    </g>
    <g id="xtick_3">
     <g id="line2d_3">
      <g>
       <use xlink:href="#m99c9bffcce" x="245.564048" y="318.91" style="stroke: #000000; stroke-width: 0.8"/>
      </g>
     </g>
     <g id="text_3">
      <!-- 2000 -->
      <g transform="translate(232.991392 333.862656) scale(0.11 -0.11)">
       <defs>
        <path id="Archivo-Regular-32" d="M 320 0 
L 320 186 
Q 320 454 425 681 
Q 531 909 707 1097 
Q 883 1286 1107 1459 
Q 1331 1632 1562 1798 
Q 1875 2016 2140 2233 
Q 2406 2451 2566 2704 
Q 2726 2957 2726 3270 
Q 2726 3469 2633 3632 
Q 2541 3795 2355 3891 
Q 2170 3987 1882 3987 
Q 1542 3987 1337 3872 
Q 1133 3757 1040 3565 
Q 947 3373 947 3142 
L 947 2880 
L 390 2880 
Q 384 2912 377 2979 
Q 371 3046 371 3136 
Q 371 3610 582 3901 
Q 794 4192 1146 4329 
Q 1498 4467 1907 4467 
Q 2272 4467 2534 4368 
Q 2797 4269 2969 4096 
Q 3142 3923 3225 3702 
Q 3309 3482 3309 3238 
Q 3309 2938 3203 2688 
Q 3098 2438 2909 2224 
Q 2720 2010 2467 1811 
Q 2214 1613 1920 1408 
Q 1715 1274 1516 1123 
Q 1318 973 1177 819 
Q 1037 666 998 525 
L 3334 525 
L 3334 0 
L 320 0 
z
" transform="scale(0.015625)"/>
       </defs>
       <use xlink:href="#Archivo-Regular-32"/>
       <use xlink:href="#Archivo-Regular-30" x="56.699997"/>
       <use xlink:href="#Archivo-Regular-30" x="113.999985"/>
       <use xlink:href="#Archivo-Regular-30" x="171.299973"/>
      </g>
     </g>
    </g>
    <g id="xtick_4">
     <g id="line2d_4">
      <g>
       <use xlink:href="#m99c9bffcce" x="315.109503" y="318.91" style="stroke: #000000; stroke-width: 0.8"/>
      </g>
     </g>
     <g id="text_4">
      <!-- 2005 -->
      <g transform="translate(302.548018 333.862656) scale(0.11 -0.11)">
       <use xlink:href="#Archivo-Regular-32"/>
       <use xlink:href="#Archivo-Regular-30" x="56.699997"/>
       <use xlink:href="#Archivo-Regular-30" x="113.999985"/>
       <use xlink:href="#Archivo-Regular-35" x="171.299973"/>
      </g>
     </g>
    </g>
    <g id="xtick_5">
     <g id="line2d_5">
      <g>
       <use xlink:href="#m99c9bffcce" x="384.654957" y="318.91" style="stroke: #000000; stroke-width: 0.8"/>
      </g>
     </g>
     <g id="text_5">
      <!-- 2010 -->
      <g transform="translate(372.368473 333.862656) scale(0.11 -0.11)">
       <use xlink:href="#Archivo-Regular-32"/>
       <use xlink:href="#Archivo-Regular-30" x="56.699997"/>
       <use xlink:href="#Archivo-Regular-31" x="113.999985"/>
       <use xlink:href="#Archivo-Regular-30" x="166.099976"/>
      </g>
     </g>
    </g>
    <g id="xtick_6">
     <g id="line2d_6">
      <g>
       <use xlink:href="#m99c9bffcce" x="454.200412" y="318.91" style="stroke: #000000; stroke-width: 0.8"/>
      </g>
     </g>
     <g id="text_6">
      <!-- 2015 -->
      <g transform="translate(441.925099 333.862656) scale(0.11 -0.11)">
       <use xlink:href="#Archivo-Regular-32"/>
       <use xlink:href="#Archivo-Regular-30" x="56.699997"/>
       <use xlink:href="#Archivo-Regular-31" x="113.999985"/>
       <use xlink:href="#Archivo-Regular-35" x="166.099976"/>
      </g>
     </g>
    </g>
    <g id="xtick_7">
     <g id="line2d_7">
      <g>
       <use xlink:href="#m99c9bffcce" x="523.745866" y="318.91" style="stroke: #000000; stroke-width: 0.8"/>
      </g>
     </g>
     <g id="text_7">
      <!-- 2020 -->
      <g transform="translate(511.205866 333.862656) scale(0.11 -0.11)">
       <use xlink:href="#Archivo-Regular-32"/>
       <use xlink:href="#Archivo-Regular-30" x="56.699997"/>
       <use xlink:href="#Archivo-Regular-32" x="113.999985"/>
       <use xlink:href="#Archivo-Regular-30" x="170.699982"/>
      </g>
     </g>
    </g>
   </g>
   <g id="matplotlib.axis_2">
    <g id="ytick_1">
     <g id="line2d_8">
      <path d="M 68.918594 303.440629 
L 589.118594 303.440629 
" clip-path="url(#pbf7f377d82)" style="fill: none; stroke: #b0b0b0; stroke-width: 0.5; stroke-linecap: square"/>
     </g>
     <g id="line2d_9">
      <defs>
       <path id="m9cf8b2f55d" d="M 0 0 
L -3.5 0 
" style="stroke: #000000; stroke-width: 0.8"/>
      </defs>
      <g>
       <use xlink:href="#m9cf8b2f55d" x="68.918594" y="303.440629" style="stroke: #000000; stroke-width: 0.8"/>
      </g>
     </g>
     <g id="text_8">
      <!-- 200,000 -->
      <g transform="translate(21.120625 307.416957) scale(0.11 -0.11)">
       <defs>
        <path id="Archivo-Regular-2c" d="M 506 -941 
L 506 -678 
Q 627 -653 707 -557 
Q 787 -461 825 -317 
Q 864 -173 864 0 
L 570 0 
L 570 672 
L 1190 672 
L 1190 70 
Q 1190 -301 1084 -509 
Q 979 -717 822 -813 
Q 666 -909 506 -941 
z
" transform="scale(0.015625)"/>
       </defs>
       <use xlink:href="#Archivo-Regular-32"/>
       <use xlink:href="#Archivo-Regular-30" x="56.699997"/>
       <use xlink:href="#Archivo-Regular-30" x="113.999985"/>
       <use xlink:href="#Archivo-Regular-2c" x="171.299973"/>
       <use xlink:href="#Archivo-Regular-30" x="198.999969"/>
       <use xlink:href="#Archivo-Regular-30" x="256.299957"/>
       <use xlink:href="#Archivo-Regular-30" x="313.599945"/>
      </g>
     </g>
    </g>
    <g id="ytick_2">
     <g id="line2d_10">
      <path d="M 68.918594 242.321678 
L 589.118594 242.321678 
" clip-path="url(#pbf7f377d82)" style="fill: none; stroke: #b0b0b0; stroke-width: 0.5; stroke-linecap: square"/>
     </g>
     <g id="line2d_11">
      <g>
       <use xlink:href="#m9cf8b2f55d" x="68.918594" y="242.321678" style="stroke: #000000; stroke-width: 0.8"/>
      </g>
     </g>
     <g id="text_9">
      <!-- 300,000 -->
      <g transform="translate(21.055313 246.298006) scale(0.11 -0.11)">
       <defs>
        <path id="Archivo-Regular-33" d="M 1843 -77 
Q 1331 -77 979 80 
Q 627 237 448 525 
Q 269 813 269 1210 
L 269 1293 
L 838 1293 
L 838 1210 
Q 838 813 1091 605 
Q 1344 397 1792 397 
Q 2240 397 2515 592 
Q 2790 787 2790 1216 
Q 2790 1530 2643 1696 
Q 2496 1862 2262 1929 
Q 2029 1997 1766 1997 
L 1306 1997 
L 1306 2470 
L 1786 2470 
Q 2029 2470 2233 2547 
Q 2438 2624 2563 2800 
Q 2688 2976 2688 3258 
Q 2688 3514 2576 3674 
Q 2464 3834 2272 3914 
Q 2080 3994 1850 3994 
Q 1594 3994 1389 3907 
Q 1184 3821 1065 3648 
Q 947 3475 947 3213 
L 947 3130 
L 371 3130 
L 371 3245 
Q 371 3610 560 3885 
Q 749 4160 1078 4313 
Q 1408 4467 1837 4467 
Q 2259 4467 2582 4332 
Q 2906 4198 3091 3936 
Q 3277 3674 3277 3290 
Q 3277 3008 3174 2813 
Q 3072 2618 2905 2490 
Q 2739 2362 2547 2278 
L 2547 2253 
Q 2899 2150 3136 1881 
Q 3373 1613 3373 1178 
Q 3373 787 3177 505 
Q 2982 224 2633 73 
Q 2285 -77 1843 -77 
z
" transform="scale(0.015625)"/>
       </defs>
       <use xlink:href="#Archivo-Regular-33"/>
       <use xlink:href="#Archivo-Regular-30" x="57.299988"/>
       <use xlink:href="#Archivo-Regular-30" x="114.599976"/>
       <use xlink:href="#Archivo-Regular-2c" x="171.899963"/>
       <use xlink:href="#Archivo-Regular-30" x="199.59996"/>
       <use xlink:href="#Archivo-Regular-30" x="256.899948"/>
       <use xlink:href="#Archivo-Regular-30" x="314.199936"/>
      </g>
     </g>
    </g>
    <g id="ytick_3">
     <g id="line2d_12">
      <path d="M 68.918594 181.202727 
L 589.118594 181.202727 
" clip-path="url(#pbf7f377d82)" style="fill: none; stroke: #b0b0b0; stroke-width: 0.5; stroke-linecap: square"/>
     </g>
     <g id="line2d_13">
      <g>
       <use xlink:href="#m9cf8b2f55d" x="68.918594" y="181.202727" style="stroke: #000000; stroke-width: 0.8"/>
      </g>
     </g>
     <g id="text_10">
      <!-- 400,000 -->
      <g transform="translate(21.252969 185.179055) scale(0.11 -0.11)">
       <defs>
        <path id="Archivo-Regular-34" d="M 2221 0 
L 2221 1075 
L 179 1075 
L 179 1549 
Q 448 2010 669 2477 
Q 890 2944 1066 3437 
Q 1242 3930 1357 4467 
L 1958 4467 
Q 1875 4115 1753 3747 
Q 1632 3379 1485 3033 
Q 1338 2688 1194 2387 
Q 1050 2086 925 1868 
Q 800 1651 723 1549 
L 2221 1549 
L 2221 2944 
Q 2259 3046 2300 3158 
Q 2342 3270 2380 3388 
Q 2419 3507 2451 3612 
Q 2483 3718 2502 3814 
L 2784 3814 
L 2784 1549 
L 3366 1549 
L 3366 1075 
L 2784 1075 
L 2784 0 
L 2221 0 
z
" transform="scale(0.015625)"/>
       </defs>
       <use xlink:href="#Archivo-Regular-34"/>
       <use xlink:href="#Archivo-Regular-30" x="55.499985"/>
       <use xlink:href="#Archivo-Regular-30" x="112.799973"/>
       <use xlink:href="#Archivo-Regular-2c" x="170.09996"/>
       <use xlink:href="#Archivo-Regular-30" x="197.799957"/>
       <use xlink:href="#Archivo-Regular-30" x="255.099945"/>
       <use xlink:href="#Archivo-Regular-30" x="312.399933"/>
      </g>
     </g>
    </g>
    <g id="ytick_4">
     <g id="line2d_14">
      <path d="M 68.918594 120.083776 
L 589.118594 120.083776 
" clip-path="url(#pbf7f377d82)" style="fill: none; stroke: #b0b0b0; stroke-width: 0.5; stroke-linecap: square"/>
     </g>
     <g id="line2d_15">
      <g>
       <use xlink:href="#m9cf8b2f55d" x="68.918594" y="120.083776" style="stroke: #000000; stroke-width: 0.8"/>
      </g>
     </g>
     <g id="text_11">
      <!-- 500,000 -->
      <g transform="translate(21.077656 124.060104) scale(0.11 -0.11)">
       <use xlink:href="#Archivo-Regular-35"/>
       <use xlink:href="#Archivo-Regular-30" x="57.099991"/>
       <use xlink:href="#Archivo-Regular-30" x="114.399979"/>
       <use xlink:href="#Archivo-Regular-2c" x="171.699966"/>
       <use xlink:href="#Archivo-Regular-30" x="199.399963"/>
       <use xlink:href="#Archivo-Regular-30" x="256.699951"/>
       <use xlink:href="#Archivo-Regular-30" x="313.999939"/>
      </g>
     </g>
    </g>
    <g id="ytick_5">
     <g id="line2d_16">
      <path d="M 68.918594 58.964825 
L 589.118594 58.964825 
" clip-path="url(#pbf7f377d82)" style="fill: none; stroke: #b0b0b0; stroke-width: 0.5; stroke-linecap: square"/>
     </g>
     <g id="line2d_17">
      <g>
       <use xlink:href="#m9cf8b2f55d" x="68.918594" y="58.964825" style="stroke: #000000; stroke-width: 0.8"/>
      </g>
     </g>
     <g id="text_12">
      <!-- 600,000 -->
      <g transform="translate(21.055313 62.941153) scale(0.11 -0.11)">
       <defs>
        <path id="Archivo-Regular-36" d="M 1920 -77 
Q 1542 -77 1244 32 
Q 947 141 739 384 
Q 531 627 422 1040 
Q 314 1453 314 2067 
Q 314 2746 422 3203 
Q 531 3661 732 3939 
Q 934 4218 1232 4342 
Q 1530 4467 1907 4467 
Q 2381 4467 2672 4288 
Q 2963 4109 3097 3805 
Q 3232 3501 3232 3110 
L 2656 3110 
Q 2656 3405 2573 3603 
Q 2490 3802 2314 3898 
Q 2138 3994 1875 3994 
Q 1491 3994 1276 3792 
Q 1062 3590 982 3206 
Q 902 2822 896 2291 
Q 986 2438 1149 2560 
Q 1312 2682 1536 2755 
Q 1760 2829 2010 2829 
Q 2483 2829 2790 2640 
Q 3098 2451 3245 2124 
Q 3392 1798 3392 1395 
Q 3392 954 3200 621 
Q 3008 288 2675 105 
Q 2342 -77 1920 -77 
z
M 1882 397 
Q 2195 397 2400 534 
Q 2605 672 2704 899 
Q 2803 1126 2803 1402 
Q 2803 1664 2707 1881 
Q 2611 2099 2409 2230 
Q 2208 2362 1894 2362 
Q 1581 2362 1369 2227 
Q 1158 2093 1056 1872 
Q 954 1651 954 1370 
Q 954 1107 1056 883 
Q 1158 659 1363 528 
Q 1568 397 1882 397 
z
" transform="scale(0.015625)"/>
       </defs>
       <use xlink:href="#Archivo-Regular-36"/>
       <use xlink:href="#Archivo-Regular-30" x="57.299988"/>
       <use xlink:href="#Archivo-Regular-30" x="114.599976"/>
       <use xlink:href="#Archivo-Regular-2c" x="171.899963"/>
       <use xlink:href="#Archivo-Regular-30" x="199.59996"/>
       <use xlink:href="#Archivo-Regular-30" x="256.899948"/>
       <use xlink:href="#Archivo-Regular-30" x="314.199936"/>
      </g>
     </g>
    </g>
    <g id="text_13">
     <!-- Producción [toneladas] -->
     <g transform="translate(15.152656 237.657187) rotate(-90) scale(0.11 -0.11)">
      <defs>
       <path id="Archivo-Regular-50" d="M 550 0 
L 550 4390 
L 2720 4390 
Q 3174 4390 3475 4220 
Q 3776 4051 3926 3750 
Q 4077 3450 4077 3053 
Q 4077 2650 3910 2339 
Q 3744 2029 3440 1856 
Q 3136 1683 2714 1683 
L 1158 1683 
L 1158 0 
L 550 0 
z
M 1158 2208 
L 2675 2208 
Q 3034 2208 3248 2432 
Q 3462 2656 3462 3046 
Q 3462 3309 3372 3488 
Q 3283 3667 3110 3766 
Q 2938 3866 2675 3866 
L 1158 3866 
L 1158 2208 
z
" transform="scale(0.015625)"/>
       <path id="Archivo-Regular-72" d="M 442 0 
L 442 3366 
L 896 3366 
L 947 2810 
L 992 2810 
Q 1043 2970 1132 3114 
Q 1222 3258 1376 3350 
Q 1530 3443 1754 3443 
Q 1850 3443 1930 3427 
Q 2010 3411 2048 3392 
L 2048 2874 
L 1837 2874 
Q 1619 2874 1462 2800 
Q 1306 2726 1203 2592 
Q 1101 2458 1053 2272 
Q 1005 2086 1005 1875 
L 1005 0 
L 442 0 
z
" transform="scale(0.015625)"/>
       <path id="Archivo-Regular-6f" d="M 1824 -77 
Q 1312 -77 963 112 
Q 614 301 432 691 
Q 250 1082 250 1683 
Q 250 2291 432 2678 
Q 614 3066 963 3254 
Q 1312 3443 1824 3443 
Q 2336 3443 2685 3254 
Q 3034 3066 3213 2678 
Q 3392 2291 3392 1683 
Q 3392 1082 3213 691 
Q 3034 301 2685 112 
Q 2336 -77 1824 -77 
z
M 1824 397 
Q 2150 397 2368 525 
Q 2586 653 2698 925 
Q 2810 1197 2810 1613 
L 2810 1754 
Q 2810 2176 2698 2445 
Q 2586 2714 2368 2842 
Q 2150 2970 1824 2970 
Q 1498 2970 1277 2842 
Q 1056 2714 947 2445 
Q 838 2176 838 1754 
L 838 1613 
Q 838 1197 947 925 
Q 1056 653 1277 525 
Q 1498 397 1824 397 
z
" transform="scale(0.015625)"/>
       <path id="Archivo-Regular-64" d="M 1587 -77 
Q 1171 -77 873 108 
Q 576 294 413 688 
Q 250 1082 250 1709 
Q 250 2304 416 2688 
Q 582 3072 876 3257 
Q 1171 3443 1562 3443 
Q 1786 3443 1978 3392 
Q 2170 3341 2320 3232 
Q 2470 3123 2586 2944 
L 2624 2944 
L 2624 4627 
L 3187 4627 
L 3187 0 
L 2733 0 
L 2682 480 
L 2637 480 
Q 2464 198 2189 60 
Q 1914 -77 1587 -77 
z
M 1722 416 
Q 2042 416 2240 557 
Q 2438 698 2531 966 
Q 2624 1235 2624 1632 
L 2624 1734 
Q 2624 2080 2553 2317 
Q 2483 2554 2361 2694 
Q 2240 2835 2080 2892 
Q 1920 2950 1741 2950 
Q 1427 2950 1228 2825 
Q 1030 2701 934 2435 
Q 838 2170 838 1747 
L 838 1613 
Q 838 1178 940 912 
Q 1043 646 1238 531 
Q 1434 416 1722 416 
z
" transform="scale(0.015625)"/>
       <path id="Archivo-Regular-75" d="M 1485 -77 
Q 998 -77 704 172 
Q 410 422 410 1043 
L 410 3366 
L 973 3366 
L 973 1120 
Q 973 909 1024 774 
Q 1075 640 1171 563 
Q 1267 486 1398 454 
Q 1530 422 1683 422 
Q 1926 422 2131 537 
Q 2336 653 2467 873 
Q 2598 1094 2598 1389 
L 2598 3366 
L 3162 3366 
L 3162 0 
L 2707 0 
L 2656 506 
L 2611 506 
Q 2477 301 2307 173 
Q 2138 45 1930 -16 
Q 1722 -77 1485 -77 
z
" transform="scale(0.015625)"/>
       <path id="Archivo-Regular-63" d="M 1722 -77 
Q 1235 -77 905 112 
Q 576 301 406 694 
Q 237 1088 237 1683 
Q 237 2278 406 2668 
Q 576 3059 912 3251 
Q 1248 3443 1741 3443 
Q 2086 3443 2339 3353 
Q 2592 3264 2758 3091 
Q 2925 2918 3005 2675 
Q 3085 2432 3085 2118 
L 2515 2118 
Q 2515 2413 2435 2601 
Q 2355 2790 2182 2883 
Q 2010 2976 1728 2976 
Q 1446 2976 1241 2851 
Q 1037 2726 928 2457 
Q 819 2189 819 1747 
L 819 1613 
Q 819 1197 924 921 
Q 1030 646 1235 518 
Q 1440 390 1734 390 
Q 2022 390 2198 492 
Q 2374 595 2454 787 
Q 2534 979 2534 1248 
L 3085 1248 
Q 3085 966 3005 723 
Q 2925 480 2758 301 
Q 2592 122 2336 22 
Q 2080 -77 1722 -77 
z
" transform="scale(0.015625)"/>
       <path id="Archivo-Regular-69" d="M 442 4000 
L 442 4627 
L 1005 4627 
L 1005 4000 
L 442 4000 
z
M 442 0 
L 442 3366 
L 1005 3366 
L 1005 0 
L 442 0 
z
" transform="scale(0.015625)"/>
       <path id="Archivo-Regular-f3" d="M 1824 -77 
Q 1312 -77 963 112 
Q 614 301 432 691 
Q 250 1082 250 1683 
Q 250 2291 432 2678 
Q 614 3066 963 3254 
Q 1312 3443 1824 3443 
Q 2336 3443 2685 3254 
Q 3034 3066 3213 2678 
Q 3392 2291 3392 1683 
Q 3392 1082 3213 691 
Q 3034 301 2685 112 
Q 2336 -77 1824 -77 
z
M 1824 397 
Q 2150 397 2368 525 
Q 2586 653 2698 925 
Q 2810 1197 2810 1613 
L 2810 1754 
Q 2810 2176 2698 2445 
Q 2586 2714 2368 2842 
Q 2150 2970 1824 2970 
Q 1498 2970 1277 2842 
Q 1056 2714 947 2445 
Q 838 2176 838 1754 
L 838 1613 
Q 838 1197 947 925 
Q 1056 653 1277 525 
Q 1498 397 1824 397 
z
M 1491 3782 
L 2042 4627 
L 2682 4627 
L 2688 4608 
L 1978 3782 
L 1491 3782 
z
" transform="scale(0.015625)"/>
       <path id="Archivo-Regular-6e" d="M 442 0 
L 442 3366 
L 896 3366 
L 947 2861 
L 992 2861 
Q 1126 3066 1296 3194 
Q 1466 3322 1674 3382 
Q 1882 3443 2118 3443 
Q 2438 3443 2678 3334 
Q 2918 3226 3056 2982 
Q 3194 2739 3194 2323 
L 3194 0 
L 2630 0 
L 2630 2246 
Q 2630 2458 2576 2592 
Q 2522 2726 2429 2803 
Q 2336 2880 2205 2912 
Q 2074 2944 1914 2944 
Q 1677 2944 1465 2829 
Q 1254 2714 1129 2496 
Q 1005 2278 1005 1978 
L 1005 0 
L 442 0 
z
" transform="scale(0.015625)"/>
       <path id="Archivo-Regular-20" transform="scale(0.015625)"/>
       <path id="Archivo-Regular-5b" d="M 595 -1030 
L 595 4704 
L 1798 4704 
L 1798 4288 
L 1101 4288 
L 1101 -614 
L 1798 -614 
L 1798 -1030 
L 595 -1030 
z
" transform="scale(0.015625)"/>
       <path id="Archivo-Regular-74" d="M 1229 -77 
Q 966 -77 819 22 
Q 672 122 608 285 
Q 544 448 544 634 
L 544 2893 
L 109 2893 
L 109 3366 
L 557 3366 
L 659 4307 
L 1107 4307 
L 1107 3366 
L 1741 3366 
L 1741 2893 
L 1107 2893 
L 1107 717 
Q 1107 557 1164 477 
Q 1222 397 1382 397 
L 1741 397 
L 1741 26 
Q 1677 -6 1587 -25 
Q 1498 -45 1405 -61 
Q 1312 -77 1229 -77 
z
" transform="scale(0.015625)"/>
       <path id="Archivo-Regular-65" d="M 1786 -77 
Q 1286 -77 944 112 
Q 602 301 426 691 
Q 250 1082 250 1683 
Q 250 2291 426 2678 
Q 602 3066 947 3254 
Q 1293 3443 1811 3443 
Q 2285 3443 2605 3260 
Q 2925 3078 3088 2716 
Q 3251 2355 3251 1811 
L 3251 1542 
L 832 1542 
Q 845 1139 950 880 
Q 1056 621 1267 502 
Q 1478 384 1798 384 
Q 2016 384 2179 438 
Q 2342 493 2454 595 
Q 2566 698 2624 838 
Q 2682 979 2688 1146 
L 3238 1146 
Q 3232 877 3136 649 
Q 3040 422 2854 262 
Q 2669 102 2400 12 
Q 2131 -77 1786 -77 
z
M 845 1965 
L 2669 1965 
Q 2669 2246 2605 2438 
Q 2541 2630 2422 2752 
Q 2304 2874 2147 2928 
Q 1990 2982 1792 2982 
Q 1498 2982 1293 2873 
Q 1088 2765 979 2541 
Q 870 2317 845 1965 
z
" transform="scale(0.015625)"/>
       <path id="Archivo-Regular-6c" d="M 442 0 
L 442 4627 
L 1005 4627 
L 1005 0 
L 442 0 
z
" transform="scale(0.015625)"/>
       <path id="Archivo-Regular-61" d="M 1286 -77 
Q 1101 -77 915 -32 
Q 730 13 570 115 
Q 410 218 314 400 
Q 218 582 218 858 
Q 218 1203 384 1427 
Q 550 1651 848 1776 
Q 1146 1901 1555 1949 
Q 1965 1997 2445 1997 
L 2445 2381 
Q 2445 2566 2381 2700 
Q 2317 2835 2153 2908 
Q 1990 2982 1690 2982 
Q 1402 2982 1232 2908 
Q 1062 2835 995 2720 
Q 928 2605 928 2464 
L 928 2368 
L 384 2368 
Q 378 2400 378 2432 
Q 378 2464 378 2509 
Q 378 2816 547 3024 
Q 717 3232 1024 3337 
Q 1331 3443 1728 3443 
Q 2150 3443 2435 3321 
Q 2720 3200 2864 2976 
Q 3008 2752 3008 2438 
L 3008 614 
Q 3008 493 3065 445 
Q 3123 397 3206 397 
L 3456 397 
L 3456 26 
Q 3366 -13 3257 -41 
Q 3149 -70 3008 -70 
Q 2842 -70 2733 -3 
Q 2624 64 2566 182 
Q 2509 301 2490 448 
L 2445 448 
Q 2330 288 2154 169 
Q 1978 51 1760 -13 
Q 1542 -77 1286 -77 
z
M 1427 397 
Q 1632 397 1814 461 
Q 1997 525 2137 643 
Q 2278 762 2361 928 
Q 2445 1094 2445 1293 
L 2445 1574 
Q 1926 1574 1561 1516 
Q 1197 1459 1001 1312 
Q 806 1165 806 896 
Q 806 723 883 614 
Q 960 506 1101 451 
Q 1242 397 1427 397 
z
" transform="scale(0.015625)"/>
       <path id="Archivo-Regular-73" d="M 1619 -77 
Q 1274 -77 1011 -6 
Q 749 64 576 198 
Q 403 333 313 518 
Q 224 704 224 941 
Q 224 973 224 1001 
Q 224 1030 230 1050 
L 787 1050 
Q 781 1024 781 1005 
Q 781 986 781 966 
Q 787 742 899 614 
Q 1011 486 1209 435 
Q 1408 384 1651 384 
Q 1862 384 2041 438 
Q 2221 493 2326 605 
Q 2432 717 2432 890 
Q 2432 1101 2294 1213 
Q 2157 1325 1933 1389 
Q 1709 1453 1466 1523 
Q 1261 1581 1056 1651 
Q 851 1722 688 1824 
Q 525 1926 425 2089 
Q 326 2253 326 2502 
Q 326 2726 419 2899 
Q 512 3072 685 3193 
Q 858 3315 1104 3376 
Q 1350 3437 1651 3437 
Q 1971 3437 2211 3366 
Q 2451 3296 2611 3168 
Q 2771 3040 2848 2877 
Q 2925 2714 2925 2528 
Q 2925 2490 2925 2454 
Q 2925 2419 2918 2400 
L 2368 2400 
L 2368 2470 
Q 2368 2598 2301 2716 
Q 2234 2835 2070 2908 
Q 1907 2982 1619 2982 
Q 1434 2982 1299 2953 
Q 1165 2925 1075 2864 
Q 986 2803 941 2723 
Q 896 2643 896 2541 
Q 896 2374 1005 2284 
Q 1114 2195 1296 2137 
Q 1478 2080 1690 2010 
Q 1914 1946 2147 1878 
Q 2381 1811 2576 1708 
Q 2771 1606 2889 1430 
Q 3008 1254 3008 966 
Q 3008 698 2905 499 
Q 2803 301 2614 173 
Q 2426 45 2173 -16 
Q 1920 -77 1619 -77 
z
" transform="scale(0.015625)"/>
       <path id="Archivo-Regular-5d" d="M 1299 4704 
L 1299 -1030 
L 96 -1030 
L 96 -614 
L 794 -614 
L 794 4288 
L 96 4288 
L 96 4704 
L 1299 4704 
z
" transform="scale(0.015625)"/>
      </defs>
      <use xlink:href="#Archivo-Regular-50"/>
      <use xlink:href="#Archivo-Regular-72" x="66.499985"/>
      <use xlink:href="#Archivo-Regular-6f" x="99.699982"/>
      <use xlink:href="#Archivo-Regular-64" x="156.699966"/>
      <use xlink:href="#Archivo-Regular-75" x="213.399963"/>
      <use xlink:href="#Archivo-Regular-63" x="269.59996"/>
      <use xlink:href="#Archivo-Regular-63" x="321.499954"/>
      <use xlink:href="#Archivo-Regular-69" x="373.399948"/>
      <use xlink:href="#Archivo-Regular-f3" x="395.899933"/>
      <use xlink:href="#Archivo-Regular-6e" x="452.899918"/>
      <use xlink:href="#Archivo-Regular-20" x="509.199905"/>
      <use xlink:href="#Archivo-Regular-5b" x="530.099899"/>
      <use xlink:href="#Archivo-Regular-74" x="559.69989"/>
      <use xlink:href="#Archivo-Regular-6f" x="589.399887"/>
      <use xlink:href="#Archivo-Regular-6e" x="646.399872"/>
      <use xlink:href="#Archivo-Regular-65" x="702.69986"/>
      <use xlink:href="#Archivo-Regular-6c" x="757.499847"/>
      <use xlink:href="#Archivo-Regular-61" x="779.999832"/>
      <use xlink:href="#Archivo-Regular-64" x="834.499817"/>
      <use xlink:href="#Archivo-Regular-61" x="891.199814"/>
      <use xlink:href="#Archivo-Regular-73" x="945.699799"/>
      <use xlink:href="#Archivo-Regular-5d" x="996.699783"/>
     </g>
    </g>
   </g>
   <g id="line2d_18">
    <path d="M 92.564048 243.126186 
L 106.473139 198.330763 
L 120.38223 146.85186 
L 134.291321 185.35362 
L 148.200412 149.396608 
L 162.109503 140.957915 
L 176.018594 66.6116 
L 189.927685 56.028182 
L 203.836776 66.697839 
L 217.745866 143.68162 
L 231.654957 232.754912 
L 245.564048 306.391818 
L 259.473139 268.002394 
L 273.38223 203.648417 
L 287.291321 220.005437 
L 301.200412 169.085589 
L 315.109503 202.554816 
L 329.018594 208.328784 
L 342.927685 241.288278 
L 356.836776 264.73852 
L 370.745866 254.131387 
L 384.654957 253.474603 
L 398.564048 249.79023 
L 412.473139 268.062902 
L 426.38223 257.612539 
L 440.291321 265.266037 
L 454.200412 262.934655 
L 468.109503 252.740197 
L 482.018594 253.208613 
L 495.927685 260.895238 
L 509.836776 233.565838 
L 523.745866 259.150781 
L 537.654957 246.582463 
L 551.564048 251.480841 
L 565.473139 244.111974 
" clip-path="url(#pbf7f377d82)" style="fill: none; stroke: #7bb5c4; stroke-width: 0.5; stroke-linecap: square"/>
    <defs>
     <path id="m28b80a0641" d="M 0 1.5 
C 0.397805 1.5 0.77937 1.341951 1.06066 1.06066 
C 1.341951 0.77937 1.5 0.397805 1.5 0 
C 1.5 -0.397805 1.341951 -0.77937 1.06066 -1.06066 
C 0.77937 -1.341951 0.397805 -1.5 0 -1.5 
C -0.397805 -1.5 -0.77937 -1.341951 -1.06066 -1.06066 
C -1.341951 -0.77937 -1.5 -0.397805 -1.5 0 
C -1.5 0.397805 -1.341951 0.77937 -1.06066 1.06066 
C -0.77937 1.341951 -0.397805 1.5 0 1.5 
z
" style="stroke: #7bb5c4"/>
    </defs>
    <g clip-path="url(#pbf7f377d82)">
     <use xlink:href="#m28b80a0641" x="92.564048" y="243.126186" style="fill: #7bb5c4; stroke: #7bb5c4"/>
     <use xlink:href="#m28b80a0641" x="106.473139" y="198.330763" style="fill: #7bb5c4; stroke: #7bb5c4"/>
     <use xlink:href="#m28b80a0641" x="120.38223" y="146.85186" style="fill: #7bb5c4; stroke: #7bb5c4"/>
     <use xlink:href="#m28b80a0641" x="134.291321" y="185.35362" style="fill: #7bb5c4; stroke: #7bb5c4"/>
     <use xlink:href="#m28b80a0641" x="148.200412" y="149.396608" style="fill: #7bb5c4; stroke: #7bb5c4"/>
     <use xlink:href="#m28b80a0641" x="162.109503" y="140.957915" style="fill: #7bb5c4; stroke: #7bb5c4"/>
     <use xlink:href="#m28b80a0641" x="176.018594" y="66.6116" style="fill: #7bb5c4; stroke: #7bb5c4"/>
     <use xlink:href="#m28b80a0641" x="189.927685" y="56.028182" style="fill: #7bb5c4; stroke: #7bb5c4"/>
     <use xlink:href="#m28b80a0641" x="203.836776" y="66.697839" style="fill: #7bb5c4; stroke: #7bb5c4"/>
     <use xlink:href="#m28b80a0641" x="217.745866" y="143.68162" style="fill: #7bb5c4; stroke: #7bb5c4"/>
     <use xlink:href="#m28b80a0641" x="231.654957" y="232.754912" style="fill: #7bb5c4; stroke: #7bb5c4"/>
     <use xlink:href="#m28b80a0641" x="245.564048" y="306.391818" style="fill: #7bb5c4; stroke: #7bb5c4"/>
     <use xlink:href="#m28b80a0641" x="259.473139" y="268.002394" style="fill: #7bb5c4; stroke: #7bb5c4"/>
     <use xlink:href="#m28b80a0641" x="273.38223" y="203.648417" style="fill: #7bb5c4; stroke: #7bb5c4"/>
     <use xlink:href="#m28b80a0641" x="287.291321" y="220.005437" style="fill: #7bb5c4; stroke: #7bb5c4"/>
     <use xlink:href="#m28b80a0641" x="301.200412" y="169.085589" style="fill: #7bb5c4; stroke: #7bb5c4"/>
     <use xlink:href="#m28b80a0641" x="315.109503" y="202.554816" style="fill: #7bb5c4; stroke: #7bb5c4"/>
     <use xlink:href="#m28b80a0641" x="329.018594" y="208.328784" style="fill: #7bb5c4; stroke: #7bb5c4"/>
     <use xlink:href="#m28b80a0641" x="342.927685" y="241.288278" style="fill: #7bb5c4; stroke: #7bb5c4"/>
     <use xlink:href="#m28b80a0641" x="356.836776" y="264.73852" style="fill: #7bb5c4; stroke: #7bb5c4"/>
     <use xlink:href="#m28b80a0641" x="370.745866" y="254.131387" style="fill: #7bb5c4; stroke: #7bb5c4"/>
     <use xlink:href="#m28b80a0641" x="384.654957" y="253.474603" style="fill: #7bb5c4; stroke: #7bb5c4"/>
     <use xlink:href="#m28b80a0641" x="398.564048" y="249.79023" style="fill: #7bb5c4; stroke: #7bb5c4"/>
     <use xlink:href="#m28b80a0641" x="412.473139" y="268.062902" style="fill: #7bb5c4; stroke: #7bb5c4"/>
     <use xlink:href="#m28b80a0641" x="426.38223" y="257.612539" style="fill: #7bb5c4; stroke: #7bb5c4"/>
     <use xlink:href="#m28b80a0641" x="440.291321" y="265.266037" style="fill: #7bb5c4; stroke: #7bb5c4"/>
     <use xlink:href="#m28b80a0641" x="454.200412" y="262.934655" style="fill: #7bb5c4; stroke: #7bb5c4"/>
     <use xlink:href="#m28b80a0641" x="468.109503" y="252.740197" style="fill: #7bb5c4; stroke: #7bb5c4"/>
     <use xlink:href="#m28b80a0641" x="482.018594" y="253.208613" style="fill: #7bb5c4; stroke: #7bb5c4"/>
     <use xlink:href="#m28b80a0641" x="495.927685" y="260.895238" style="fill: #7bb5c4; stroke: #7bb5c4"/>
     <use xlink:href="#m28b80a0641" x="509.836776" y="233.565838" style="fill: #7bb5c4; stroke: #7bb5c4"/>
     <use xlink:href="#m28b80a0641" x="523.745866" y="259.150781" style="fill: #7bb5c4; stroke: #7bb5c4"/>
     <use xlink:href="#m28b80a0641" x="537.654957" y="246.582463" style="fill: #7bb5c4; stroke: #7bb5c4"/>
     <use xlink:href="#m28b80a0641" x="551.564048" y="251.480841" style="fill: #7bb5c4; stroke: #7bb5c4"/>
     <use xlink:href="#m28b80a0641" x="565.473139" y="244.111974" style="fill: #7bb5c4; stroke: #7bb5c4"/>
    </g>
   </g>
   <g id="line2d_19">
    <path d="M 384.654957 219.096476 
L 398.564048 229.486698 
L 412.473139 234.376214 
L 426.38223 234.987404 
L 440.291321 228.875508 
L 454.200412 230.097888 
L 468.109503 230.097888 
L 482.018594 230.097888 
L 495.927685 227.04194 
L 509.836776 234.376214 
L 523.745866 222.763613 
L 537.654957 213.595771 
L 551.564048 220.930045 
L 565.473139 211.762202 
" clip-path="url(#pbf7f377d82)" style="fill: none; stroke: #8d9bff; stroke-width: 0.5; stroke-linecap: square"/>
    <defs>
     <path id="m4fd67886df" d="M 0 1.5 
C 0.397805 1.5 0.77937 1.341951 1.06066 1.06066 
C 1.341951 0.77937 1.5 0.397805 1.5 0 
C 1.5 -0.397805 1.341951 -0.77937 1.06066 -1.06066 
C 0.77937 -1.341951 0.397805 -1.5 0 -1.5 
C -0.397805 -1.5 -0.77937 -1.341951 -1.06066 -1.06066 
C -1.341951 -0.77937 -1.5 -0.397805 -1.5 0 
C -1.5 0.397805 -1.341951 0.77937 -1.06066 1.06066 
C -0.77937 1.341951 -0.397805 1.5 0 1.5 
z
" style="stroke: #8d9bff"/>
    </defs>
    <g clip-path="url(#pbf7f377d82)">
     <use xlink:href="#m4fd67886df" x="384.654957" y="219.096476" style="fill: #8d9bff; stroke: #8d9bff"/>
     <use xlink:href="#m4fd67886df" x="398.564048" y="229.486698" style="fill: #8d9bff; stroke: #8d9bff"/>
     <use xlink:href="#m4fd67886df" x="412.473139" y="234.376214" style="fill: #8d9bff; stroke: #8d9bff"/>
     <use xlink:href="#m4fd67886df" x="426.38223" y="234.987404" style="fill: #8d9bff; stroke: #8d9bff"/>
     <use xlink:href="#m4fd67886df" x="440.291321" y="228.875508" style="fill: #8d9bff; stroke: #8d9bff"/>
     <use xlink:href="#m4fd67886df" x="454.200412" y="230.097888" style="fill: #8d9bff; stroke: #8d9bff"/>
     <use xlink:href="#m4fd67886df" x="468.109503" y="230.097888" style="fill: #8d9bff; stroke: #8d9bff"/>
     <use xlink:href="#m4fd67886df" x="482.018594" y="230.097888" style="fill: #8d9bff; stroke: #8d9bff"/>
     <use xlink:href="#m4fd67886df" x="495.927685" y="227.04194" style="fill: #8d9bff; stroke: #8d9bff"/>
     <use xlink:href="#m4fd67886df" x="509.836776" y="234.376214" style="fill: #8d9bff; stroke: #8d9bff"/>
     <use xlink:href="#m4fd67886df" x="523.745866" y="222.763613" style="fill: #8d9bff; stroke: #8d9bff"/>
     <use xlink:href="#m4fd67886df" x="537.654957" y="213.595771" style="fill: #8d9bff; stroke: #8d9bff"/>
     <use xlink:href="#m4fd67886df" x="551.564048" y="220.930045" style="fill: #8d9bff; stroke: #8d9bff"/>
     <use xlink:href="#m4fd67886df" x="565.473139" y="211.762202" style="fill: #8d9bff; stroke: #8d9bff"/>
    </g>
   </g>
   <g id="line2d_20">
    <path d="M 384.654957 318.91 
L 384.654957 43.51 
" clip-path="url(#pbf7f377d82)" style="fill: none; stroke: #151515; stroke-width: 0.7; stroke-linecap: square"/>
   </g>
   <g id="patch_3">
    <path d="M 68.918594 318.91 
L 68.918594 43.51 
" style="fill: none; stroke: #000000; stroke-width: 0.8; stroke-linejoin: miter; stroke-linecap: square"/>
   </g>
   <g id="patch_4">
    <path d="M 68.918594 318.91 
L 589.118594 318.91 
" style="fill: none; stroke: #000000; stroke-width: 0.8; stroke-linejoin: miter; stroke-linecap: square"/>
   </g>
   <g id="patch_5">
    <path d="M 435.180002 166.437637 
Q 410.807157 178.940263 387.429097 190.932592 
" style="fill: none; stroke: #000000; stroke-linecap: round"/>
    <path d="M 391.900994 190.886418 
L 387.429097 190.932592 
L 390.075296 187.327369 
" style="fill: none; stroke: #000000; stroke-linecap: round"/>
   </g>
   <g id="text_14">
    <!-- Implementación CITCs -->
    <g transform="translate(398.564048 161.796176) scale(0.1 -0.1)">
     <defs>
      <path id="Archivo-Regular-49" d="M 550 0 
L 550 4390 
L 1158 4390 
L 1158 0 
L 550 0 
z
" transform="scale(0.015625)"/>
      <path id="Archivo-Regular-6d" d="M 442 0 
L 442 3366 
L 896 3366 
L 947 2861 
L 992 2861 
Q 1120 3066 1280 3194 
Q 1440 3322 1632 3382 
Q 1824 3443 2048 3443 
Q 2374 3443 2611 3312 
Q 2848 3181 2963 2861 
L 3002 2861 
Q 3123 3066 3283 3190 
Q 3443 3315 3641 3379 
Q 3840 3443 4064 3443 
Q 4371 3443 4601 3337 
Q 4832 3232 4963 2992 
Q 5094 2752 5094 2349 
L 5094 0 
L 4531 0 
L 4531 2259 
Q 4531 2464 4483 2598 
Q 4435 2733 4345 2806 
Q 4256 2880 4137 2912 
Q 4019 2944 3885 2944 
Q 3661 2944 3472 2829 
Q 3283 2714 3168 2496 
Q 3053 2278 3053 1978 
L 3053 0 
L 2490 0 
L 2490 2259 
Q 2490 2464 2438 2598 
Q 2387 2733 2304 2806 
Q 2221 2880 2102 2912 
Q 1984 2944 1856 2944 
Q 1626 2944 1430 2829 
Q 1235 2714 1120 2496 
Q 1005 2278 1005 1978 
L 1005 0 
L 442 0 
z
" transform="scale(0.015625)"/>
      <path id="Archivo-Regular-70" d="M 442 -1107 
L 442 3366 
L 890 3366 
L 947 2886 
L 992 2886 
Q 1165 3168 1433 3305 
Q 1702 3443 2042 3443 
Q 2464 3443 2758 3257 
Q 3053 3072 3213 2678 
Q 3373 2285 3373 1658 
Q 3373 1069 3209 681 
Q 3046 294 2752 108 
Q 2458 -77 2067 -77 
Q 1850 -77 1658 -25 
Q 1466 26 1312 138 
Q 1158 250 1043 422 
L 1005 422 
L 1005 -1107 
L 442 -1107 
z
M 1888 416 
Q 2202 416 2400 541 
Q 2598 666 2694 931 
Q 2790 1197 2790 1613 
L 2790 1747 
Q 2790 2189 2688 2454 
Q 2586 2720 2390 2835 
Q 2195 2950 1907 2950 
Q 1594 2950 1392 2812 
Q 1190 2675 1097 2400 
Q 1005 2125 1005 1728 
L 1005 1632 
Q 1005 1280 1072 1046 
Q 1139 813 1264 672 
Q 1389 531 1549 473 
Q 1709 416 1888 416 
z
" transform="scale(0.015625)"/>
      <path id="Archivo-Regular-43" d="M 2426 -77 
Q 1754 -77 1286 169 
Q 819 416 572 918 
Q 326 1421 326 2195 
Q 326 3341 883 3904 
Q 1440 4467 2432 4467 
Q 2995 4467 3430 4284 
Q 3866 4102 4112 3734 
Q 4358 3366 4358 2810 
L 3744 2810 
Q 3744 3194 3581 3443 
Q 3418 3693 3123 3817 
Q 2829 3942 2432 3942 
Q 1971 3942 1638 3763 
Q 1306 3584 1133 3209 
Q 960 2835 960 2246 
L 960 2112 
Q 960 1530 1133 1162 
Q 1306 794 1635 621 
Q 1965 448 2432 448 
Q 2842 448 3139 569 
Q 3437 691 3600 944 
Q 3763 1197 3763 1581 
L 4358 1581 
Q 4358 1011 4105 646 
Q 3853 282 3417 102 
Q 2982 -77 2426 -77 
z
" transform="scale(0.015625)"/>
      <path id="Archivo-Regular-54" d="M 1626 0 
L 1626 3859 
L 122 3859 
L 122 4390 
L 3750 4390 
L 3750 3859 
L 2234 3859 
L 2234 0 
L 1626 0 
z
" transform="scale(0.015625)"/>
     </defs>
     <use xlink:href="#Archivo-Regular-49"/>
     <use xlink:href="#Archivo-Regular-6d" x="26.699997"/>
     <use xlink:href="#Archivo-Regular-70" x="112.699982"/>
     <use xlink:href="#Archivo-Regular-6c" x="169.399979"/>
     <use xlink:href="#Archivo-Regular-65" x="191.899963"/>
     <use xlink:href="#Archivo-Regular-6d" x="246.699951"/>
     <use xlink:href="#Archivo-Regular-65" x="332.699936"/>
     <use xlink:href="#Archivo-Regular-6e" x="387.499924"/>
     <use xlink:href="#Archivo-Regular-74" x="443.799911"/>
     <use xlink:href="#Archivo-Regular-61" x="473.499908"/>
     <use xlink:href="#Archivo-Regular-63" x="527.999893"/>
     <use xlink:href="#Archivo-Regular-69" x="579.899887"/>
     <use xlink:href="#Archivo-Regular-f3" x="602.399872"/>
     <use xlink:href="#Archivo-Regular-6e" x="659.399857"/>
     <use xlink:href="#Archivo-Regular-20" x="715.699844"/>
     <use xlink:href="#Archivo-Regular-43" x="736.599838"/>
     <use xlink:href="#Archivo-Regular-49" x="809.399826"/>
     <use xlink:href="#Archivo-Regular-54" x="836.099823"/>
     <use xlink:href="#Archivo-Regular-43" x="896.699814"/>
     <use xlink:href="#Archivo-Regular-73" x="969.499802"/>
    </g>
   </g>
   <g id="legend_1">
    <g id="line2d_21">
     <path d="M 212.062344 14.929687 
L 222.062344 14.929687 
L 232.062344 14.929687 
" style="fill: none; stroke: #7bb5c4; stroke-width: 0.5; stroke-linecap: square"/>
     <g>
      <use xlink:href="#m28b80a0641" x="222.062344" y="14.929687" style="fill: #7bb5c4; stroke: #7bb5c4"/>
     </g>
    </g>
    <g id="text_15">
     <!-- Merluza -->
     <g transform="translate(240.062344 18.429687) scale(0.1 -0.1)">
      <defs>
       <path id="Archivo-Regular-4d" d="M 550 0 
L 550 4390 
L 1491 4390 
L 2490 1542 
Q 2528 1427 2569 1289 
Q 2611 1152 2646 1030 
Q 2682 909 2701 819 
L 2746 819 
Q 2765 915 2797 1040 
Q 2829 1165 2867 1299 
Q 2906 1434 2938 1542 
L 3936 4390 
L 4870 4390 
L 4870 0 
L 4262 0 
L 4262 2573 
Q 4262 2771 4268 3004 
Q 4275 3238 4281 3433 
Q 4288 3629 4288 3712 
L 4237 3712 
Q 4218 3629 4173 3478 
Q 4128 3328 4080 3165 
Q 4032 3002 3994 2874 
L 2963 0 
L 2438 0 
L 1408 2874 
Q 1370 2982 1328 3126 
Q 1286 3270 1244 3424 
Q 1203 3578 1165 3712 
L 1120 3712 
Q 1126 3571 1129 3363 
Q 1133 3155 1136 2947 
Q 1139 2739 1139 2573 
L 1139 0 
L 550 0 
z
" transform="scale(0.015625)"/>
       <path id="Archivo-Regular-7a" d="M 198 0 
L 198 301 
L 2074 2893 
L 333 2893 
L 333 3366 
L 2880 3366 
L 2880 3072 
L 998 474 
L 2982 474 
L 2982 0 
L 198 0 
z
" transform="scale(0.015625)"/>
      </defs>
      <use xlink:href="#Archivo-Regular-4d"/>
      <use xlink:href="#Archivo-Regular-65" x="84.699982"/>
      <use xlink:href="#Archivo-Regular-72" x="139.499969"/>
      <use xlink:href="#Archivo-Regular-6c" x="172.699966"/>
      <use xlink:href="#Archivo-Regular-75" x="195.199951"/>
      <use xlink:href="#Archivo-Regular-7a" x="251.399948"/>
      <use xlink:href="#Archivo-Regular-61" x="301.199936"/>
     </g>
    </g>
    <g id="line2d_22">
     <path d="M 295.632656 14.929687 
L 305.632656 14.929687 
L 315.632656 14.929687 
" style="fill: none; stroke: #8d9bff; stroke-width: 0.5; stroke-linecap: square"/>
     <g>
      <use xlink:href="#m4fd67886df" x="305.632656" y="14.929687" style="fill: #8d9bff; stroke: #8d9bff"/>
     </g>
    </g>
    <g id="text_16">
     <!-- Captura Máxima Permisible -->
     <g transform="translate(323.632656 18.429687) scale(0.1 -0.1)">
      <defs>
       <path id="Archivo-Regular-e1" d="M 1286 -77 
Q 1101 -77 915 -32 
Q 730 13 570 115 
Q 410 218 314 400 
Q 218 582 218 858 
Q 218 1203 384 1427 
Q 550 1651 848 1776 
Q 1146 1901 1555 1949 
Q 1965 1997 2445 1997 
L 2445 2381 
Q 2445 2566 2381 2700 
Q 2317 2835 2153 2908 
Q 1990 2982 1690 2982 
Q 1402 2982 1232 2908 
Q 1062 2835 995 2720 
Q 928 2605 928 2464 
L 928 2368 
L 384 2368 
Q 378 2400 378 2432 
Q 378 2464 378 2509 
Q 378 2816 547 3024 
Q 717 3232 1024 3337 
Q 1331 3443 1728 3443 
Q 2150 3443 2435 3321 
Q 2720 3200 2864 2976 
Q 3008 2752 3008 2438 
L 3008 614 
Q 3008 493 3065 445 
Q 3123 397 3206 397 
L 3456 397 
L 3456 26 
Q 3366 -13 3257 -41 
Q 3149 -70 3008 -70 
Q 2842 -70 2733 -3 
Q 2624 64 2566 182 
Q 2509 301 2490 448 
L 2445 448 
Q 2330 288 2154 169 
Q 1978 51 1760 -13 
Q 1542 -77 1286 -77 
z
M 1427 397 
Q 1632 397 1814 461 
Q 1997 525 2137 643 
Q 2278 762 2361 928 
Q 2445 1094 2445 1293 
L 2445 1574 
Q 1926 1574 1561 1516 
Q 1197 1459 1001 1312 
Q 806 1165 806 896 
Q 806 723 883 614 
Q 960 506 1101 451 
Q 1242 397 1427 397 
z
M 1370 3782 
L 1926 4627 
L 2560 4627 
L 2566 4608 
L 1862 3782 
L 1370 3782 
z
" transform="scale(0.015625)"/>
       <path id="Archivo-Regular-78" d="M 90 0 
L 1299 1722 
L 147 3366 
L 826 3366 
L 1645 2163 
L 1677 2163 
L 2496 3366 
L 3136 3366 
L 1984 1741 
L 3200 0 
L 2528 0 
L 1645 1299 
L 1613 1299 
L 730 0 
L 90 0 
z
" transform="scale(0.015625)"/>
       <path id="Archivo-Regular-62" d="M 2042 -77 
Q 1702 -77 1433 60 
Q 1165 198 992 480 
L 947 480 
L 890 0 
L 442 0 
L 442 4627 
L 1005 4627 
L 1005 2944 
L 1043 2944 
Q 1158 3123 1312 3232 
Q 1466 3341 1658 3392 
Q 1850 3443 2067 3443 
Q 2458 3443 2752 3257 
Q 3046 3072 3209 2688 
Q 3373 2304 3373 1709 
Q 3373 1082 3213 688 
Q 3053 294 2758 108 
Q 2464 -77 2042 -77 
z
M 1907 416 
Q 2195 416 2390 531 
Q 2586 646 2688 912 
Q 2790 1178 2790 1613 
L 2790 1747 
Q 2790 2170 2694 2435 
Q 2598 2701 2400 2825 
Q 2202 2950 1888 2950 
Q 1709 2950 1549 2892 
Q 1389 2835 1264 2694 
Q 1139 2554 1072 2317 
Q 1005 2080 1005 1734 
L 1005 1632 
Q 1005 1235 1097 966 
Q 1190 698 1392 557 
Q 1594 416 1907 416 
z
" transform="scale(0.015625)"/>
      </defs>
      <use xlink:href="#Archivo-Regular-43"/>
      <use xlink:href="#Archivo-Regular-61" x="72.799988"/>
      <use xlink:href="#Archivo-Regular-70" x="127.299973"/>
      <use xlink:href="#Archivo-Regular-74" x="183.999969"/>
      <use xlink:href="#Archivo-Regular-75" x="213.699966"/>
      <use xlink:href="#Archivo-Regular-72" x="269.899963"/>
      <use xlink:href="#Archivo-Regular-61" x="303.09996"/>
      <use xlink:href="#Archivo-Regular-20" x="357.599945"/>
      <use xlink:href="#Archivo-Regular-4d" x="378.499939"/>
      <use xlink:href="#Archivo-Regular-e1" x="463.199921"/>
      <use xlink:href="#Archivo-Regular-78" x="517.699905"/>
      <use xlink:href="#Archivo-Regular-69" x="568.999893"/>
      <use xlink:href="#Archivo-Regular-6d" x="591.499878"/>
      <use xlink:href="#Archivo-Regular-61" x="677.499863"/>
      <use xlink:href="#Archivo-Regular-20" x="731.999847"/>
      <use xlink:href="#Archivo-Regular-50" x="752.899841"/>
      <use xlink:href="#Archivo-Regular-65" x="819.399826"/>
      <use xlink:href="#Archivo-Regular-72" x="874.199814"/>
      <use xlink:href="#Archivo-Regular-6d" x="907.399811"/>
      <use xlink:href="#Archivo-Regular-69" x="993.399796"/>
      <use xlink:href="#Archivo-Regular-73" x="1015.89978"/>
      <use xlink:href="#Archivo-Regular-69" x="1066.899765"/>
      <use xlink:href="#Archivo-Regular-62" x="1089.39975"/>
      <use xlink:href="#Archivo-Regular-6c" x="1146.099747"/>
      <use xlink:href="#Archivo-Regular-65" x="1168.599731"/>
     </g>
    </g>
   </g>
  </g>
 </g>
 <defs>
  <clipPath id="pbf7f377d82">
   <rect x="68.918594" y="43.51" width="520.2" height="275.4"/>
  </clipPath>
 </defs>
</svg>
