<?xml version="1.0" encoding="utf-8" standalone="no"?>
<!DOCTYPE svg PUBLIC "-//W3C//DTD SVG 1.1//EN"
  "http://www.w3.org/Graphics/SVG/1.1/DTD/svg11.dtd">
<svg xmlns:xlink="http://www.w3.org/1999/xlink" width="554.815781pt" height="558.339375pt" viewBox="0 0 554.815781 558.339375" xmlns="http://www.w3.org/2000/svg" version="1.1">
 <metadata>
  <rdf:RDF xmlns:dc="http://purl.org/dc/elements/1.1/" xmlns:cc="http://creativecommons.org/ns#" xmlns:rdf="http://www.w3.org/1999/02/22-rdf-syntax-ns#">
   <cc:Work>
    <dc:type rdf:resource="http://purl.org/dc/dcmitype/StillImage"/>
    <dc:date>2024-10-28T15:41:43.784481</dc:date>
    <dc:format>image/svg+xml</dc:format>
    <dc:creator>
     <cc:Agent>
      <dc:title>Matplotlib v3.6.2, https://matplotlib.org/</dc:title>
     </cc:Agent>
    </dc:creator>
   </cc:Work>
  </rdf:RDF>
 </metadata>
 <defs>
  <style type="text/css">*{stroke-linejoin: round; stroke-linecap: butt}</style>
 </defs>
 <g id="figure_1">
  <g id="patch_1">
   <path d="M 0 558.339375 
L 554.815781 558.339375 
L 554.815781 0 
L 0 0 
L 0 558.339375 
z
" style="fill: none"/>
  </g>
  <g id="axes_1">
   <g id="patch_2">
    <path d="M 73.315781 263.02 
L 547.615781 263.02 
L 547.615781 36.22 
L 73.315781 36.22 
L 73.315781 263.02 
z
" style="fill: none"/>
   </g>
   <g id="matplotlib.axis_1">
    <g id="xtick_1">
     <g id="line2d_1">
      <defs>
       <path id="m2349957b2f" d="M 0 0 
L 0 3.5 
" style="stroke: #000000; stroke-width: 0.8"/>
      </defs>
      <g>
       <use xlink:href="#m2349957b2f" x="75.275699" y="263.02" style="stroke: #000000; stroke-width: 0.8"/>
      </g>
     </g>
     <g id="text_1">
      <!-- 2000 -->
      <g transform="translate(63.846011 277.249687) scale(0.1 -0.1)">
       <defs>
        <path id="Archivo-Regular-32" d="M 320 0 
L 320 186 
Q 320 454 425 681 
Q 531 909 707 1097 
Q 883 1286 1107 1459 
Q 1331 1632 1562 1798 
Q 1875 2016 2140 2233 
Q 2406 2451 2566 2704 
Q 2726 2957 2726 3270 
Q 2726 3469 2633 3632 
Q 2541 3795 2355 3891 
Q 2170 3987 1882 3987 
Q 1542 3987 1337 3872 
Q 1133 3757 1040 3565 
Q 947 3373 947 3142 
L 947 2880 
L 390 2880 
Q 384 2912 377 2979 
Q 371 3046 371 3136 
Q 371 3610 582 3901 
Q 794 4192 1146 4329 
Q 1498 4467 1907 4467 
Q 2272 4467 2534 4368 
Q 2797 4269 2969 4096 
Q 3142 3923 3225 3702 
Q 3309 3482 3309 3238 
Q 3309 2938 3203 2688 
Q 3098 2438 2909 2224 
Q 2720 2010 2467 1811 
Q 2214 1613 1920 1408 
Q 1715 1274 1516 1123 
Q 1318 973 1177 819 
Q 1037 666 998 525 
L 3334 525 
L 3334 0 
L 320 0 
z
" transform="scale(0.015625)"/>
        <path id="Archivo-Regular-30" d="M 1837 -77 
Q 1478 -77 1196 28 
Q 915 134 716 393 
Q 518 653 416 1091 
Q 314 1530 314 2195 
Q 314 2861 416 3299 
Q 518 3738 716 3997 
Q 915 4256 1196 4361 
Q 1478 4467 1837 4467 
Q 2195 4467 2473 4361 
Q 2752 4256 2950 3997 
Q 3149 3738 3251 3299 
Q 3354 2861 3354 2195 
Q 3354 1530 3251 1091 
Q 3149 653 2950 393 
Q 2752 134 2473 28 
Q 2195 -77 1837 -77 
z
M 1837 397 
Q 2202 397 2403 582 
Q 2605 768 2685 1133 
Q 2765 1498 2765 2042 
L 2765 2336 
Q 2765 2886 2685 3254 
Q 2605 3622 2403 3808 
Q 2202 3994 1837 3994 
Q 1472 3994 1267 3808 
Q 1062 3622 982 3257 
Q 902 2893 902 2342 
L 902 2054 
Q 902 1510 982 1139 
Q 1062 768 1267 582 
Q 1472 397 1837 397 
z
" transform="scale(0.015625)"/>
       </defs>
       <use xlink:href="#Archivo-Regular-32"/>
       <use xlink:href="#Archivo-Regular-30" x="56.699997"/>
       <use xlink:href="#Archivo-Regular-30" x="113.999985"/>
       <use xlink:href="#Archivo-Regular-30" x="171.299973"/>
      </g>
     </g>
    </g>
    <g id="xtick_2">
     <g id="line2d_2">
      <g>
       <use xlink:href="#m2349957b2f" x="173.271566" y="263.02" style="stroke: #000000; stroke-width: 0.8"/>
      </g>
     </g>
     <g id="text_2">
      <!-- 2005 -->
      <g transform="translate(161.852035 277.249687) scale(0.1 -0.1)">
       <defs>
        <path id="Archivo-Regular-35" d="M 1856 -77 
Q 1395 -77 1049 96 
Q 704 269 512 592 
Q 320 915 320 1363 
L 890 1363 
Q 890 1062 1018 844 
Q 1146 627 1366 512 
Q 1587 397 1856 397 
Q 2131 397 2342 509 
Q 2554 621 2672 851 
Q 2790 1082 2790 1434 
Q 2790 1754 2681 1962 
Q 2573 2170 2371 2272 
Q 2170 2374 1907 2374 
Q 1715 2374 1542 2313 
Q 1370 2253 1232 2144 
Q 1094 2035 1005 1875 
L 474 1958 
L 659 4390 
L 3149 4390 
L 3149 3866 
L 1152 3866 
L 1050 2496 
Q 1158 2592 1296 2672 
Q 1434 2752 1613 2800 
Q 1792 2848 2022 2848 
Q 2400 2848 2707 2701 
Q 3014 2554 3193 2246 
Q 3373 1939 3373 1453 
Q 3373 973 3190 627 
Q 3008 282 2669 102 
Q 2330 -77 1856 -77 
z
" transform="scale(0.015625)"/>
       </defs>
       <use xlink:href="#Archivo-Regular-32"/>
       <use xlink:href="#Archivo-Regular-30" x="56.699997"/>
       <use xlink:href="#Archivo-Regular-30" x="113.999985"/>
       <use xlink:href="#Archivo-Regular-35" x="171.299973"/>
      </g>
     </g>
    </g>
    <g id="xtick_3">
     <g id="line2d_3">
      <g>
       <use xlink:href="#m2349957b2f" x="271.267434" y="263.02" style="stroke: #000000; stroke-width: 0.8"/>
      </g>
     </g>
     <g id="text_3">
      <!-- 2010 -->
      <g transform="translate(260.097903 277.249687) scale(0.1 -0.1)">
       <defs>
        <path id="Archivo-Regular-31" d="M 429 0 
L 429 480 
L 1536 480 
L 1536 3520 
L 422 3520 
L 422 3878 
Q 659 3898 912 3949 
Q 1165 4000 1408 4112 
Q 1651 4224 1850 4403 
L 2106 4403 
L 2106 480 
L 3149 480 
L 3149 0 
L 429 0 
z
" transform="scale(0.015625)"/>
       </defs>
       <use xlink:href="#Archivo-Regular-32"/>
       <use xlink:href="#Archivo-Regular-30" x="56.699997"/>
       <use xlink:href="#Archivo-Regular-31" x="113.999985"/>
       <use xlink:href="#Archivo-Regular-30" x="166.099976"/>
      </g>
     </g>
    </g>
    <g id="xtick_4">
     <g id="line2d_4">
      <g>
       <use xlink:href="#m2349957b2f" x="369.263302" y="263.02" style="stroke: #000000; stroke-width: 0.8"/>
      </g>
     </g>
     <g id="text_4">
      <!-- 2015 -->
      <g transform="translate(358.103927 277.249687) scale(0.1 -0.1)">
       <use xlink:href="#Archivo-Regular-32"/>
       <use xlink:href="#Archivo-Regular-30" x="56.699997"/>
       <use xlink:href="#Archivo-Regular-31" x="113.999985"/>
       <use xlink:href="#Archivo-Regular-35" x="166.099976"/>
      </g>
     </g>
    </g>
    <g id="xtick_5">
     <g id="line2d_5">
      <g>
       <use xlink:href="#m2349957b2f" x="467.25917" y="263.02" style="stroke: #000000; stroke-width: 0.8"/>
      </g>
     </g>
     <g id="text_5">
      <!-- 2020 -->
      <g transform="translate(455.85917 277.249687) scale(0.1 -0.1)">
       <use xlink:href="#Archivo-Regular-32"/>
       <use xlink:href="#Archivo-Regular-30" x="56.699997"/>
       <use xlink:href="#Archivo-Regular-32" x="113.999985"/>
       <use xlink:href="#Archivo-Regular-30" x="170.699982"/>
      </g>
     </g>
    </g>
   </g>
   <g id="matplotlib.axis_2">
    <g id="ytick_1">
     <g id="line2d_6">
      <path d="M 73.315781 256.55526 
L 547.615781 256.55526 
" clip-path="url(#pc755b3a3ec)" style="fill: none; stroke: #b0b0b0; stroke-width: 0.5; stroke-linecap: square"/>
     </g>
     <g id="line2d_7">
      <defs>
       <path id="mb8d653b341" d="M 0 0 
L -3.5 0 
" style="stroke: #000000; stroke-width: 0.8"/>
      </defs>
      <g>
       <use xlink:href="#mb8d653b341" x="73.315781" y="256.55526" style="stroke: #000000; stroke-width: 0.8"/>
      </g>
     </g>
     <g id="text_6">
      <!-- 0 -->
      <g transform="translate(60.586094 260.170104) scale(0.1 -0.1)">
       <use xlink:href="#Archivo-Regular-30"/>
      </g>
     </g>
    </g>
    <g id="ytick_2">
     <g id="line2d_8">
      <path d="M 73.315781 224.255219 
L 547.615781 224.255219 
" clip-path="url(#pc755b3a3ec)" style="fill: none; stroke: #b0b0b0; stroke-width: 0.5; stroke-linecap: square"/>
     </g>
     <g id="line2d_9">
      <g>
       <use xlink:href="#mb8d653b341" x="73.315781" y="224.255219" style="stroke: #000000; stroke-width: 0.8"/>
      </g>
     </g>
     <g id="text_7">
      <!-- 200,000 -->
      <g transform="translate(29.226719 227.870063) scale(0.1 -0.1)">
       <defs>
        <path id="Archivo-Regular-2c" d="M 506 -941 
L 506 -678 
Q 627 -653 707 -557 
Q 787 -461 825 -317 
Q 864 -173 864 0 
L 570 0 
L 570 672 
L 1190 672 
L 1190 70 
Q 1190 -301 1084 -509 
Q 979 -717 822 -813 
Q 666 -909 506 -941 
z
" transform="scale(0.015625)"/>
       </defs>
       <use xlink:href="#Archivo-Regular-32"/>
       <use xlink:href="#Archivo-Regular-30" x="56.699997"/>
       <use xlink:href="#Archivo-Regular-30" x="113.999985"/>
       <use xlink:href="#Archivo-Regular-2c" x="171.299973"/>
       <use xlink:href="#Archivo-Regular-30" x="198.999969"/>
       <use xlink:href="#Archivo-Regular-30" x="256.299957"/>
       <use xlink:href="#Archivo-Regular-30" x="313.599945"/>
      </g>
     </g>
    </g>
    <g id="ytick_3">
     <g id="line2d_10">
      <path d="M 73.315781 191.955179 
L 547.615781 191.955179 
" clip-path="url(#pc755b3a3ec)" style="fill: none; stroke: #b0b0b0; stroke-width: 0.5; stroke-linecap: square"/>
     </g>
     <g id="line2d_11">
      <g>
       <use xlink:href="#mb8d653b341" x="73.315781" y="191.955179" style="stroke: #000000; stroke-width: 0.8"/>
      </g>
     </g>
     <g id="text_8">
      <!-- 400,000 -->
      <g transform="translate(29.347031 195.570022) scale(0.1 -0.1)">
       <defs>
        <path id="Archivo-Regular-34" d="M 2221 0 
L 2221 1075 
L 179 1075 
L 179 1549 
Q 448 2010 669 2477 
Q 890 2944 1066 3437 
Q 1242 3930 1357 4467 
L 1958 4467 
Q 1875 4115 1753 3747 
Q 1632 3379 1485 3033 
Q 1338 2688 1194 2387 
Q 1050 2086 925 1868 
Q 800 1651 723 1549 
L 2221 1549 
L 2221 2944 
Q 2259 3046 2300 3158 
Q 2342 3270 2380 3388 
Q 2419 3507 2451 3612 
Q 2483 3718 2502 3814 
L 2784 3814 
L 2784 1549 
L 3366 1549 
L 3366 1075 
L 2784 1075 
L 2784 0 
L 2221 0 
z
" transform="scale(0.015625)"/>
       </defs>
       <use xlink:href="#Archivo-Regular-34"/>
       <use xlink:href="#Archivo-Regular-30" x="55.499985"/>
       <use xlink:href="#Archivo-Regular-30" x="112.799973"/>
       <use xlink:href="#Archivo-Regular-2c" x="170.09996"/>
       <use xlink:href="#Archivo-Regular-30" x="197.799957"/>
       <use xlink:href="#Archivo-Regular-30" x="255.099945"/>
       <use xlink:href="#Archivo-Regular-30" x="312.399933"/>
      </g>
     </g>
    </g>
    <g id="ytick_4">
     <g id="line2d_12">
      <path d="M 73.315781 159.655138 
L 547.615781 159.655138 
" clip-path="url(#pc755b3a3ec)" style="fill: none; stroke: #b0b0b0; stroke-width: 0.5; stroke-linecap: square"/>
     </g>
     <g id="line2d_13">
      <g>
       <use xlink:href="#mb8d653b341" x="73.315781" y="159.655138" style="stroke: #000000; stroke-width: 0.8"/>
      </g>
     </g>
     <g id="text_9">
      <!-- 600,000 -->
      <g transform="translate(29.167344 163.269982) scale(0.1 -0.1)">
       <defs>
        <path id="Archivo-Regular-36" d="M 1920 -77 
Q 1542 -77 1244 32 
Q 947 141 739 384 
Q 531 627 422 1040 
Q 314 1453 314 2067 
Q 314 2746 422 3203 
Q 531 3661 732 3939 
Q 934 4218 1232 4342 
Q 1530 4467 1907 4467 
Q 2381 4467 2672 4288 
Q 2963 4109 3097 3805 
Q 3232 3501 3232 3110 
L 2656 3110 
Q 2656 3405 2573 3603 
Q 2490 3802 2314 3898 
Q 2138 3994 1875 3994 
Q 1491 3994 1276 3792 
Q 1062 3590 982 3206 
Q 902 2822 896 2291 
Q 986 2438 1149 2560 
Q 1312 2682 1536 2755 
Q 1760 2829 2010 2829 
Q 2483 2829 2790 2640 
Q 3098 2451 3245 2124 
Q 3392 1798 3392 1395 
Q 3392 954 3200 621 
Q 3008 288 2675 105 
Q 2342 -77 1920 -77 
z
M 1882 397 
Q 2195 397 2400 534 
Q 2605 672 2704 899 
Q 2803 1126 2803 1402 
Q 2803 1664 2707 1881 
Q 2611 2099 2409 2230 
Q 2208 2362 1894 2362 
Q 1581 2362 1369 2227 
Q 1158 2093 1056 1872 
Q 954 1651 954 1370 
Q 954 1107 1056 883 
Q 1158 659 1363 528 
Q 1568 397 1882 397 
z
" transform="scale(0.015625)"/>
       </defs>
       <use xlink:href="#Archivo-Regular-36"/>
       <use xlink:href="#Archivo-Regular-30" x="57.299988"/>
       <use xlink:href="#Archivo-Regular-30" x="114.599976"/>
       <use xlink:href="#Archivo-Regular-2c" x="171.899963"/>
       <use xlink:href="#Archivo-Regular-30" x="199.59996"/>
       <use xlink:href="#Archivo-Regular-30" x="256.899948"/>
       <use xlink:href="#Archivo-Regular-30" x="314.199936"/>
      </g>
     </g>
    </g>
    <g id="ytick_5">
     <g id="line2d_14">
      <path d="M 73.315781 127.355098 
L 547.615781 127.355098 
" clip-path="url(#pc755b3a3ec)" style="fill: none; stroke: #b0b0b0; stroke-width: 0.5; stroke-linecap: square"/>
     </g>
     <g id="line2d_15">
      <g>
       <use xlink:href="#mb8d653b341" x="73.315781" y="127.355098" style="stroke: #000000; stroke-width: 0.8"/>
      </g>
     </g>
     <g id="text_10">
      <!-- 800,000 -->
      <g transform="translate(29.156406 130.969941) scale(0.1 -0.1)">
       <defs>
        <path id="Archivo-Regular-38" d="M 1837 -77 
Q 1293 -77 953 96 
Q 614 269 457 557 
Q 301 845 301 1197 
Q 301 1555 480 1830 
Q 659 2106 1043 2253 
Q 736 2413 579 2675 
Q 422 2938 422 3258 
Q 422 3597 579 3869 
Q 736 4141 1053 4304 
Q 1370 4467 1837 4467 
Q 2304 4467 2617 4304 
Q 2931 4141 3091 3869 
Q 3251 3597 3251 3258 
Q 3251 2938 3091 2675 
Q 2931 2413 2624 2253 
Q 3014 2106 3190 1830 
Q 3366 1555 3366 1197 
Q 3366 845 3209 557 
Q 3053 269 2717 96 
Q 2381 -77 1837 -77 
z
M 1837 390 
Q 2304 390 2541 608 
Q 2778 826 2778 1203 
Q 2778 1574 2541 1792 
Q 2304 2010 1837 2010 
Q 1370 2010 1130 1792 
Q 890 1574 890 1203 
Q 890 826 1130 608 
Q 1370 390 1837 390 
z
M 1837 2477 
Q 2227 2477 2451 2678 
Q 2675 2880 2675 3245 
Q 2675 3603 2451 3801 
Q 2227 4000 1837 4000 
Q 1446 4000 1222 3801 
Q 998 3603 998 3245 
Q 998 2880 1222 2678 
Q 1446 2477 1837 2477 
z
" transform="scale(0.015625)"/>
       </defs>
       <use xlink:href="#Archivo-Regular-38"/>
       <use xlink:href="#Archivo-Regular-30" x="57.399994"/>
       <use xlink:href="#Archivo-Regular-30" x="114.699982"/>
       <use xlink:href="#Archivo-Regular-2c" x="171.999969"/>
       <use xlink:href="#Archivo-Regular-30" x="199.699966"/>
       <use xlink:href="#Archivo-Regular-30" x="256.999954"/>
       <use xlink:href="#Archivo-Regular-30" x="314.299942"/>
      </g>
     </g>
    </g>
    <g id="ytick_6">
     <g id="line2d_16">
      <path d="M 73.315781 95.055057 
L 547.615781 95.055057 
" clip-path="url(#pc755b3a3ec)" style="fill: none; stroke: #b0b0b0; stroke-width: 0.5; stroke-linecap: square"/>
     </g>
     <g id="line2d_17">
      <g>
       <use xlink:href="#mb8d653b341" x="73.315781" y="95.055057" style="stroke: #000000; stroke-width: 0.8"/>
      </g>
     </g>
     <g id="text_11">
      <!-- 1,000,000 -->
      <g transform="translate(21.187656 98.669901) scale(0.1 -0.1)">
       <use xlink:href="#Archivo-Regular-31"/>
       <use xlink:href="#Archivo-Regular-2c" x="52.099991"/>
       <use xlink:href="#Archivo-Regular-30" x="79.799988"/>
       <use xlink:href="#Archivo-Regular-30" x="137.099976"/>
       <use xlink:href="#Archivo-Regular-30" x="194.399963"/>
       <use xlink:href="#Archivo-Regular-2c" x="251.699951"/>
       <use xlink:href="#Archivo-Regular-30" x="279.399948"/>
       <use xlink:href="#Archivo-Regular-30" x="336.699936"/>
       <use xlink:href="#Archivo-Regular-30" x="393.999924"/>
      </g>
     </g>
    </g>
    <g id="ytick_7">
     <g id="line2d_18">
      <path d="M 73.315781 62.755016 
L 547.615781 62.755016 
" clip-path="url(#pc755b3a3ec)" style="fill: none; stroke: #b0b0b0; stroke-width: 0.5; stroke-linecap: square"/>
     </g>
     <g id="line2d_19">
      <g>
       <use xlink:href="#mb8d653b341" x="73.315781" y="62.755016" style="stroke: #000000; stroke-width: 0.8"/>
      </g>
     </g>
     <g id="text_12">
      <!-- 1,200,000 -->
      <g transform="translate(21.247031 66.36986) scale(0.1 -0.1)">
       <use xlink:href="#Archivo-Regular-31"/>
       <use xlink:href="#Archivo-Regular-2c" x="52.099991"/>
       <use xlink:href="#Archivo-Regular-32" x="79.799988"/>
       <use xlink:href="#Archivo-Regular-30" x="136.499985"/>
       <use xlink:href="#Archivo-Regular-30" x="193.799973"/>
       <use xlink:href="#Archivo-Regular-2c" x="251.09996"/>
       <use xlink:href="#Archivo-Regular-30" x="278.799957"/>
       <use xlink:href="#Archivo-Regular-30" x="336.099945"/>
       <use xlink:href="#Archivo-Regular-30" x="393.399933"/>
      </g>
     </g>
    </g>
    <g id="text_13">
     <!-- Exportaciones [Millones de dólares] -->
     <g transform="translate(15.285 236.410859) rotate(-90) scale(0.11 -0.11)">
      <defs>
       <path id="Archivo-Regular-45" d="M 550 0 
L 550 4390 
L 3930 4390 
L 3930 3866 
L 1158 3866 
L 1158 2509 
L 3648 2509 
L 3648 1984 
L 1158 1984 
L 1158 525 
L 3968 525 
L 3968 0 
L 550 0 
z
" transform="scale(0.015625)"/>
       <path id="Archivo-Regular-78" d="M 90 0 
L 1299 1722 
L 147 3366 
L 826 3366 
L 1645 2163 
L 1677 2163 
L 2496 3366 
L 3136 3366 
L 1984 1741 
L 3200 0 
L 2528 0 
L 1645 1299 
L 1613 1299 
L 730 0 
L 90 0 
z
" transform="scale(0.015625)"/>
       <path id="Archivo-Regular-70" d="M 442 -1107 
L 442 3366 
L 890 3366 
L 947 2886 
L 992 2886 
Q 1165 3168 1433 3305 
Q 1702 3443 2042 3443 
Q 2464 3443 2758 3257 
Q 3053 3072 3213 2678 
Q 3373 2285 3373 1658 
Q 3373 1069 3209 681 
Q 3046 294 2752 108 
Q 2458 -77 2067 -77 
Q 1850 -77 1658 -25 
Q 1466 26 1312 138 
Q 1158 250 1043 422 
L 1005 422 
L 1005 -1107 
L 442 -1107 
z
M 1888 416 
Q 2202 416 2400 541 
Q 2598 666 2694 931 
Q 2790 1197 2790 1613 
L 2790 1747 
Q 2790 2189 2688 2454 
Q 2586 2720 2390 2835 
Q 2195 2950 1907 2950 
Q 1594 2950 1392 2812 
Q 1190 2675 1097 2400 
Q 1005 2125 1005 1728 
L 1005 1632 
Q 1005 1280 1072 1046 
Q 1139 813 1264 672 
Q 1389 531 1549 473 
Q 1709 416 1888 416 
z
" transform="scale(0.015625)"/>
       <path id="Archivo-Regular-6f" d="M 1824 -77 
Q 1312 -77 963 112 
Q 614 301 432 691 
Q 250 1082 250 1683 
Q 250 2291 432 2678 
Q 614 3066 963 3254 
Q 1312 3443 1824 3443 
Q 2336 3443 2685 3254 
Q 3034 3066 3213 2678 
Q 3392 2291 3392 1683 
Q 3392 1082 3213 691 
Q 3034 301 2685 112 
Q 2336 -77 1824 -77 
z
M 1824 397 
Q 2150 397 2368 525 
Q 2586 653 2698 925 
Q 2810 1197 2810 1613 
L 2810 1754 
Q 2810 2176 2698 2445 
Q 2586 2714 2368 2842 
Q 2150 2970 1824 2970 
Q 1498 2970 1277 2842 
Q 1056 2714 947 2445 
Q 838 2176 838 1754 
L 838 1613 
Q 838 1197 947 925 
Q 1056 653 1277 525 
Q 1498 397 1824 397 
z
" transform="scale(0.015625)"/>
       <path id="Archivo-Regular-72" d="M 442 0 
L 442 3366 
L 896 3366 
L 947 2810 
L 992 2810 
Q 1043 2970 1132 3114 
Q 1222 3258 1376 3350 
Q 1530 3443 1754 3443 
Q 1850 3443 1930 3427 
Q 2010 3411 2048 3392 
L 2048 2874 
L 1837 2874 
Q 1619 2874 1462 2800 
Q 1306 2726 1203 2592 
Q 1101 2458 1053 2272 
Q 1005 2086 1005 1875 
L 1005 0 
L 442 0 
z
" transform="scale(0.015625)"/>
       <path id="Archivo-Regular-74" d="M 1229 -77 
Q 966 -77 819 22 
Q 672 122 608 285 
Q 544 448 544 634 
L 544 2893 
L 109 2893 
L 109 3366 
L 557 3366 
L 659 4307 
L 1107 4307 
L 1107 3366 
L 1741 3366 
L 1741 2893 
L 1107 2893 
L 1107 717 
Q 1107 557 1164 477 
Q 1222 397 1382 397 
L 1741 397 
L 1741 26 
Q 1677 -6 1587 -25 
Q 1498 -45 1405 -61 
Q 1312 -77 1229 -77 
z
" transform="scale(0.015625)"/>
       <path id="Archivo-Regular-61" d="M 1286 -77 
Q 1101 -77 915 -32 
Q 730 13 570 115 
Q 410 218 314 400 
Q 218 582 218 858 
Q 218 1203 384 1427 
Q 550 1651 848 1776 
Q 1146 1901 1555 1949 
Q 1965 1997 2445 1997 
L 2445 2381 
Q 2445 2566 2381 2700 
Q 2317 2835 2153 2908 
Q 1990 2982 1690 2982 
Q 1402 2982 1232 2908 
Q 1062 2835 995 2720 
Q 928 2605 928 2464 
L 928 2368 
L 384 2368 
Q 378 2400 378 2432 
Q 378 2464 378 2509 
Q 378 2816 547 3024 
Q 717 3232 1024 3337 
Q 1331 3443 1728 3443 
Q 2150 3443 2435 3321 
Q 2720 3200 2864 2976 
Q 3008 2752 3008 2438 
L 3008 614 
Q 3008 493 3065 445 
Q 3123 397 3206 397 
L 3456 397 
L 3456 26 
Q 3366 -13 3257 -41 
Q 3149 -70 3008 -70 
Q 2842 -70 2733 -3 
Q 2624 64 2566 182 
Q 2509 301 2490 448 
L 2445 448 
Q 2330 288 2154 169 
Q 1978 51 1760 -13 
Q 1542 -77 1286 -77 
z
M 1427 397 
Q 1632 397 1814 461 
Q 1997 525 2137 643 
Q 2278 762 2361 928 
Q 2445 1094 2445 1293 
L 2445 1574 
Q 1926 1574 1561 1516 
Q 1197 1459 1001 1312 
Q 806 1165 806 896 
Q 806 723 883 614 
Q 960 506 1101 451 
Q 1242 397 1427 397 
z
" transform="scale(0.015625)"/>
       <path id="Archivo-Regular-63" d="M 1722 -77 
Q 1235 -77 905 112 
Q 576 301 406 694 
Q 237 1088 237 1683 
Q 237 2278 406 2668 
Q 576 3059 912 3251 
Q 1248 3443 1741 3443 
Q 2086 3443 2339 3353 
Q 2592 3264 2758 3091 
Q 2925 2918 3005 2675 
Q 3085 2432 3085 2118 
L 2515 2118 
Q 2515 2413 2435 2601 
Q 2355 2790 2182 2883 
Q 2010 2976 1728 2976 
Q 1446 2976 1241 2851 
Q 1037 2726 928 2457 
Q 819 2189 819 1747 
L 819 1613 
Q 819 1197 924 921 
Q 1030 646 1235 518 
Q 1440 390 1734 390 
Q 2022 390 2198 492 
Q 2374 595 2454 787 
Q 2534 979 2534 1248 
L 3085 1248 
Q 3085 966 3005 723 
Q 2925 480 2758 301 
Q 2592 122 2336 22 
Q 2080 -77 1722 -77 
z
" transform="scale(0.015625)"/>
       <path id="Archivo-Regular-69" d="M 442 4000 
L 442 4627 
L 1005 4627 
L 1005 4000 
L 442 4000 
z
M 442 0 
L 442 3366 
L 1005 3366 
L 1005 0 
L 442 0 
z
" transform="scale(0.015625)"/>
       <path id="Archivo-Regular-6e" d="M 442 0 
L 442 3366 
L 896 3366 
L 947 2861 
L 992 2861 
Q 1126 3066 1296 3194 
Q 1466 3322 1674 3382 
Q 1882 3443 2118 3443 
Q 2438 3443 2678 3334 
Q 2918 3226 3056 2982 
Q 3194 2739 3194 2323 
L 3194 0 
L 2630 0 
L 2630 2246 
Q 2630 2458 2576 2592 
Q 2522 2726 2429 2803 
Q 2336 2880 2205 2912 
Q 2074 2944 1914 2944 
Q 1677 2944 1465 2829 
Q 1254 2714 1129 2496 
Q 1005 2278 1005 1978 
L 1005 0 
L 442 0 
z
" transform="scale(0.015625)"/>
       <path id="Archivo-Regular-65" d="M 1786 -77 
Q 1286 -77 944 112 
Q 602 301 426 691 
Q 250 1082 250 1683 
Q 250 2291 426 2678 
Q 602 3066 947 3254 
Q 1293 3443 1811 3443 
Q 2285 3443 2605 3260 
Q 2925 3078 3088 2716 
Q 3251 2355 3251 1811 
L 3251 1542 
L 832 1542 
Q 845 1139 950 880 
Q 1056 621 1267 502 
Q 1478 384 1798 384 
Q 2016 384 2179 438 
Q 2342 493 2454 595 
Q 2566 698 2624 838 
Q 2682 979 2688 1146 
L 3238 1146 
Q 3232 877 3136 649 
Q 3040 422 2854 262 
Q 2669 102 2400 12 
Q 2131 -77 1786 -77 
z
M 845 1965 
L 2669 1965 
Q 2669 2246 2605 2438 
Q 2541 2630 2422 2752 
Q 2304 2874 2147 2928 
Q 1990 2982 1792 2982 
Q 1498 2982 1293 2873 
Q 1088 2765 979 2541 
Q 870 2317 845 1965 
z
" transform="scale(0.015625)"/>
       <path id="Archivo-Regular-73" d="M 1619 -77 
Q 1274 -77 1011 -6 
Q 749 64 576 198 
Q 403 333 313 518 
Q 224 704 224 941 
Q 224 973 224 1001 
Q 224 1030 230 1050 
L 787 1050 
Q 781 1024 781 1005 
Q 781 986 781 966 
Q 787 742 899 614 
Q 1011 486 1209 435 
Q 1408 384 1651 384 
Q 1862 384 2041 438 
Q 2221 493 2326 605 
Q 2432 717 2432 890 
Q 2432 1101 2294 1213 
Q 2157 1325 1933 1389 
Q 1709 1453 1466 1523 
Q 1261 1581 1056 1651 
Q 851 1722 688 1824 
Q 525 1926 425 2089 
Q 326 2253 326 2502 
Q 326 2726 419 2899 
Q 512 3072 685 3193 
Q 858 3315 1104 3376 
Q 1350 3437 1651 3437 
Q 1971 3437 2211 3366 
Q 2451 3296 2611 3168 
Q 2771 3040 2848 2877 
Q 2925 2714 2925 2528 
Q 2925 2490 2925 2454 
Q 2925 2419 2918 2400 
L 2368 2400 
L 2368 2470 
Q 2368 2598 2301 2716 
Q 2234 2835 2070 2908 
Q 1907 2982 1619 2982 
Q 1434 2982 1299 2953 
Q 1165 2925 1075 2864 
Q 986 2803 941 2723 
Q 896 2643 896 2541 
Q 896 2374 1005 2284 
Q 1114 2195 1296 2137 
Q 1478 2080 1690 2010 
Q 1914 1946 2147 1878 
Q 2381 1811 2576 1708 
Q 2771 1606 2889 1430 
Q 3008 1254 3008 966 
Q 3008 698 2905 499 
Q 2803 301 2614 173 
Q 2426 45 2173 -16 
Q 1920 -77 1619 -77 
z
" transform="scale(0.015625)"/>
       <path id="Archivo-Regular-20" transform="scale(0.015625)"/>
       <path id="Archivo-Regular-5b" d="M 595 -1030 
L 595 4704 
L 1798 4704 
L 1798 4288 
L 1101 4288 
L 1101 -614 
L 1798 -614 
L 1798 -1030 
L 595 -1030 
z
" transform="scale(0.015625)"/>
       <path id="Archivo-Regular-4d" d="M 550 0 
L 550 4390 
L 1491 4390 
L 2490 1542 
Q 2528 1427 2569 1289 
Q 2611 1152 2646 1030 
Q 2682 909 2701 819 
L 2746 819 
Q 2765 915 2797 1040 
Q 2829 1165 2867 1299 
Q 2906 1434 2938 1542 
L 3936 4390 
L 4870 4390 
L 4870 0 
L 4262 0 
L 4262 2573 
Q 4262 2771 4268 3004 
Q 4275 3238 4281 3433 
Q 4288 3629 4288 3712 
L 4237 3712 
Q 4218 3629 4173 3478 
Q 4128 3328 4080 3165 
Q 4032 3002 3994 2874 
L 2963 0 
L 2438 0 
L 1408 2874 
Q 1370 2982 1328 3126 
Q 1286 3270 1244 3424 
Q 1203 3578 1165 3712 
L 1120 3712 
Q 1126 3571 1129 3363 
Q 1133 3155 1136 2947 
Q 1139 2739 1139 2573 
L 1139 0 
L 550 0 
z
" transform="scale(0.015625)"/>
       <path id="Archivo-Regular-6c" d="M 442 0 
L 442 4627 
L 1005 4627 
L 1005 0 
L 442 0 
z
" transform="scale(0.015625)"/>
       <path id="Archivo-Regular-64" d="M 1587 -77 
Q 1171 -77 873 108 
Q 576 294 413 688 
Q 250 1082 250 1709 
Q 250 2304 416 2688 
Q 582 3072 876 3257 
Q 1171 3443 1562 3443 
Q 1786 3443 1978 3392 
Q 2170 3341 2320 3232 
Q 2470 3123 2586 2944 
L 2624 2944 
L 2624 4627 
L 3187 4627 
L 3187 0 
L 2733 0 
L 2682 480 
L 2637 480 
Q 2464 198 2189 60 
Q 1914 -77 1587 -77 
z
M 1722 416 
Q 2042 416 2240 557 
Q 2438 698 2531 966 
Q 2624 1235 2624 1632 
L 2624 1734 
Q 2624 2080 2553 2317 
Q 2483 2554 2361 2694 
Q 2240 2835 2080 2892 
Q 1920 2950 1741 2950 
Q 1427 2950 1228 2825 
Q 1030 2701 934 2435 
Q 838 2170 838 1747 
L 838 1613 
Q 838 1178 940 912 
Q 1043 646 1238 531 
Q 1434 416 1722 416 
z
" transform="scale(0.015625)"/>
       <path id="Archivo-Regular-f3" d="M 1824 -77 
Q 1312 -77 963 112 
Q 614 301 432 691 
Q 250 1082 250 1683 
Q 250 2291 432 2678 
Q 614 3066 963 3254 
Q 1312 3443 1824 3443 
Q 2336 3443 2685 3254 
Q 3034 3066 3213 2678 
Q 3392 2291 3392 1683 
Q 3392 1082 3213 691 
Q 3034 301 2685 112 
Q 2336 -77 1824 -77 
z
M 1824 397 
Q 2150 397 2368 525 
Q 2586 653 2698 925 
Q 2810 1197 2810 1613 
L 2810 1754 
Q 2810 2176 2698 2445 
Q 2586 2714 2368 2842 
Q 2150 2970 1824 2970 
Q 1498 2970 1277 2842 
Q 1056 2714 947 2445 
Q 838 2176 838 1754 
L 838 1613 
Q 838 1197 947 925 
Q 1056 653 1277 525 
Q 1498 397 1824 397 
z
M 1491 3782 
L 2042 4627 
L 2682 4627 
L 2688 4608 
L 1978 3782 
L 1491 3782 
z
" transform="scale(0.015625)"/>
       <path id="Archivo-Regular-5d" d="M 1299 4704 
L 1299 -1030 
L 96 -1030 
L 96 -614 
L 794 -614 
L 794 4288 
L 96 4288 
L 96 4704 
L 1299 4704 
z
" transform="scale(0.015625)"/>
      </defs>
      <use xlink:href="#Archivo-Regular-45"/>
      <use xlink:href="#Archivo-Regular-78" x="67.699982"/>
      <use xlink:href="#Archivo-Regular-70" x="118.999969"/>
      <use xlink:href="#Archivo-Regular-6f" x="175.699966"/>
      <use xlink:href="#Archivo-Regular-72" x="232.699951"/>
      <use xlink:href="#Archivo-Regular-74" x="265.899948"/>
      <use xlink:href="#Archivo-Regular-61" x="295.599945"/>
      <use xlink:href="#Archivo-Regular-63" x="350.09993"/>
      <use xlink:href="#Archivo-Regular-69" x="401.999924"/>
      <use xlink:href="#Archivo-Regular-6f" x="424.499908"/>
      <use xlink:href="#Archivo-Regular-6e" x="481.499893"/>
      <use xlink:href="#Archivo-Regular-65" x="537.799881"/>
      <use xlink:href="#Archivo-Regular-73" x="592.599869"/>
      <use xlink:href="#Archivo-Regular-20" x="643.599854"/>
      <use xlink:href="#Archivo-Regular-5b" x="664.499847"/>
      <use xlink:href="#Archivo-Regular-4d" x="694.099838"/>
      <use xlink:href="#Archivo-Regular-69" x="778.79982"/>
      <use xlink:href="#Archivo-Regular-6c" x="801.299805"/>
      <use xlink:href="#Archivo-Regular-6c" x="823.799789"/>
      <use xlink:href="#Archivo-Regular-6f" x="846.299774"/>
      <use xlink:href="#Archivo-Regular-6e" x="903.299759"/>
      <use xlink:href="#Archivo-Regular-65" x="959.599747"/>
      <use xlink:href="#Archivo-Regular-73" x="1014.399734"/>
      <use xlink:href="#Archivo-Regular-20" x="1065.399719"/>
      <use xlink:href="#Archivo-Regular-64" x="1086.299713"/>
      <use xlink:href="#Archivo-Regular-65" x="1142.99971"/>
      <use xlink:href="#Archivo-Regular-20" x="1197.799698"/>
      <use xlink:href="#Archivo-Regular-64" x="1218.699692"/>
      <use xlink:href="#Archivo-Regular-f3" x="1275.399689"/>
      <use xlink:href="#Archivo-Regular-6c" x="1332.399673"/>
      <use xlink:href="#Archivo-Regular-61" x="1354.899658"/>
      <use xlink:href="#Archivo-Regular-72" x="1409.399643"/>
      <use xlink:href="#Archivo-Regular-65" x="1442.59964"/>
      <use xlink:href="#Archivo-Regular-73" x="1497.399628"/>
      <use xlink:href="#Archivo-Regular-5d" x="1548.399612"/>
     </g>
    </g>
   </g>
   <g id="line2d_20">
    <path d="M 94.874872 252.710909 
L 114.474046 250.788249 
L 134.073219 236.6762 
L 153.672393 234.887262 
L 173.271566 215.826847 
L 192.87074 206.21064 
L 212.469913 203.767788 
L 232.069087 203.200115 
L 251.668261 200.773897 
L 271.267434 200.469792 
L 290.866608 195.905635 
L 310.465781 209.184343 
L 330.064955 209.414966 
L 349.664128 209.494101 
L 369.263302 216.917942 
L 388.862475 216.08767 
L 408.461649 216.283569 
L 428.060823 215.835245 
L 447.659996 211.965377 
L 467.25917 220.847565 
L 486.858343 214.744472 
L 506.457517 213.200369 
L 526.05669 211.58359 
" clip-path="url(#pc755b3a3ec)" style="fill: none; stroke: #7bb5c4; stroke-width: 0.5; stroke-linecap: square"/>
    <defs>
     <path id="mabf38e7222" d="M 0 1.5 
C 0.397805 1.5 0.77937 1.341951 1.06066 1.06066 
C 1.341951 0.77937 1.5 0.397805 1.5 0 
C 1.5 -0.397805 1.341951 -0.77937 1.06066 -1.06066 
C 0.77937 -1.341951 0.397805 -1.5 0 -1.5 
C -0.397805 -1.5 -0.77937 -1.341951 -1.06066 -1.06066 
C -1.341951 -0.77937 -1.5 -0.397805 -1.5 0 
C -1.5 0.397805 -1.341951 0.77937 -1.06066 1.06066 
C -0.77937 1.341951 -0.397805 1.5 0 1.5 
z
" style="stroke: #7bb5c4"/>
    </defs>
    <g clip-path="url(#pc755b3a3ec)">
     <use xlink:href="#mabf38e7222" x="94.874872" y="252.710909" style="fill: #7bb5c4; stroke: #7bb5c4"/>
     <use xlink:href="#mabf38e7222" x="114.474046" y="250.788249" style="fill: #7bb5c4; stroke: #7bb5c4"/>
     <use xlink:href="#mabf38e7222" x="134.073219" y="236.6762" style="fill: #7bb5c4; stroke: #7bb5c4"/>
     <use xlink:href="#mabf38e7222" x="153.672393" y="234.887262" style="fill: #7bb5c4; stroke: #7bb5c4"/>
     <use xlink:href="#mabf38e7222" x="173.271566" y="215.826847" style="fill: #7bb5c4; stroke: #7bb5c4"/>
     <use xlink:href="#mabf38e7222" x="192.87074" y="206.21064" style="fill: #7bb5c4; stroke: #7bb5c4"/>
     <use xlink:href="#mabf38e7222" x="212.469913" y="203.767788" style="fill: #7bb5c4; stroke: #7bb5c4"/>
     <use xlink:href="#mabf38e7222" x="232.069087" y="203.200115" style="fill: #7bb5c4; stroke: #7bb5c4"/>
     <use xlink:href="#mabf38e7222" x="251.668261" y="200.773897" style="fill: #7bb5c4; stroke: #7bb5c4"/>
     <use xlink:href="#mabf38e7222" x="271.267434" y="200.469792" style="fill: #7bb5c4; stroke: #7bb5c4"/>
     <use xlink:href="#mabf38e7222" x="290.866608" y="195.905635" style="fill: #7bb5c4; stroke: #7bb5c4"/>
     <use xlink:href="#mabf38e7222" x="310.465781" y="209.184343" style="fill: #7bb5c4; stroke: #7bb5c4"/>
     <use xlink:href="#mabf38e7222" x="330.064955" y="209.414966" style="fill: #7bb5c4; stroke: #7bb5c4"/>
     <use xlink:href="#mabf38e7222" x="349.664128" y="209.494101" style="fill: #7bb5c4; stroke: #7bb5c4"/>
     <use xlink:href="#mabf38e7222" x="369.263302" y="216.917942" style="fill: #7bb5c4; stroke: #7bb5c4"/>
     <use xlink:href="#mabf38e7222" x="388.862475" y="216.08767" style="fill: #7bb5c4; stroke: #7bb5c4"/>
     <use xlink:href="#mabf38e7222" x="408.461649" y="216.283569" style="fill: #7bb5c4; stroke: #7bb5c4"/>
     <use xlink:href="#mabf38e7222" x="428.060823" y="215.835245" style="fill: #7bb5c4; stroke: #7bb5c4"/>
     <use xlink:href="#mabf38e7222" x="447.659996" y="211.965377" style="fill: #7bb5c4; stroke: #7bb5c4"/>
     <use xlink:href="#mabf38e7222" x="467.25917" y="220.847565" style="fill: #7bb5c4; stroke: #7bb5c4"/>
     <use xlink:href="#mabf38e7222" x="486.858343" y="214.744472" style="fill: #7bb5c4; stroke: #7bb5c4"/>
     <use xlink:href="#mabf38e7222" x="506.457517" y="213.200369" style="fill: #7bb5c4; stroke: #7bb5c4"/>
     <use xlink:href="#mabf38e7222" x="526.05669" y="211.58359" style="fill: #7bb5c4; stroke: #7bb5c4"/>
    </g>
   </g>
   <g id="line2d_21">
    <path d="M 94.874872 195.897399 
L 114.474046 230.535155 
L 134.073219 195.089575 
L 153.672393 222.045089 
L 173.271566 242.939985 
L 192.87074 196.601217 
L 212.469913 209.413028 
L 232.069087 191.550298 
L 251.668261 203.783938 
L 271.267434 179.98866 
L 290.866608 173.294799 
L 310.465781 179.670181 
L 330.064955 157.223268 
L 349.664128 134.524092 
L 369.263302 133.191553 
L 388.862475 93.854303 
L 408.461649 62.729015 
L 428.060823 46.529091 
L 447.659996 86.629107 
L 467.25917 122.515259 
L 486.858343 63.201726 
L 506.457517 104.151879 
L 526.05669 109.537265 
" clip-path="url(#pc755b3a3ec)" style="fill: none; stroke: #8d9bff; stroke-width: 0.5; stroke-linecap: square"/>
    <defs>
     <path id="medffe3810e" d="M 0 1.5 
C 0.397805 1.5 0.77937 1.341951 1.06066 1.06066 
C 1.341951 0.77937 1.5 0.397805 1.5 0 
C 1.5 -0.397805 1.341951 -0.77937 1.06066 -1.06066 
C 0.77937 -1.341951 0.397805 -1.5 0 -1.5 
C -0.397805 -1.5 -0.77937 -1.341951 -1.06066 -1.06066 
C -1.341951 -0.77937 -1.5 -0.397805 -1.5 0 
C -1.5 0.397805 -1.341951 0.77937 -1.06066 1.06066 
C -0.77937 1.341951 -0.397805 1.5 0 1.5 
z
" style="stroke: #8d9bff"/>
    </defs>
    <g clip-path="url(#pc755b3a3ec)">
     <use xlink:href="#medffe3810e" x="94.874872" y="195.897399" style="fill: #8d9bff; stroke: #8d9bff"/>
     <use xlink:href="#medffe3810e" x="114.474046" y="230.535155" style="fill: #8d9bff; stroke: #8d9bff"/>
     <use xlink:href="#medffe3810e" x="134.073219" y="195.089575" style="fill: #8d9bff; stroke: #8d9bff"/>
     <use xlink:href="#medffe3810e" x="153.672393" y="222.045089" style="fill: #8d9bff; stroke: #8d9bff"/>
     <use xlink:href="#medffe3810e" x="173.271566" y="242.939985" style="fill: #8d9bff; stroke: #8d9bff"/>
     <use xlink:href="#medffe3810e" x="192.87074" y="196.601217" style="fill: #8d9bff; stroke: #8d9bff"/>
     <use xlink:href="#medffe3810e" x="212.469913" y="209.413028" style="fill: #8d9bff; stroke: #8d9bff"/>
     <use xlink:href="#medffe3810e" x="232.069087" y="191.550298" style="fill: #8d9bff; stroke: #8d9bff"/>
     <use xlink:href="#medffe3810e" x="251.668261" y="203.783938" style="fill: #8d9bff; stroke: #8d9bff"/>
     <use xlink:href="#medffe3810e" x="271.267434" y="179.98866" style="fill: #8d9bff; stroke: #8d9bff"/>
     <use xlink:href="#medffe3810e" x="290.866608" y="173.294799" style="fill: #8d9bff; stroke: #8d9bff"/>
     <use xlink:href="#medffe3810e" x="310.465781" y="179.670181" style="fill: #8d9bff; stroke: #8d9bff"/>
     <use xlink:href="#medffe3810e" x="330.064955" y="157.223268" style="fill: #8d9bff; stroke: #8d9bff"/>
     <use xlink:href="#medffe3810e" x="349.664128" y="134.524092" style="fill: #8d9bff; stroke: #8d9bff"/>
     <use xlink:href="#medffe3810e" x="369.263302" y="133.191553" style="fill: #8d9bff; stroke: #8d9bff"/>
     <use xlink:href="#medffe3810e" x="388.862475" y="93.854303" style="fill: #8d9bff; stroke: #8d9bff"/>
     <use xlink:href="#medffe3810e" x="408.461649" y="62.729015" style="fill: #8d9bff; stroke: #8d9bff"/>
     <use xlink:href="#medffe3810e" x="428.060823" y="46.529091" style="fill: #8d9bff; stroke: #8d9bff"/>
     <use xlink:href="#medffe3810e" x="447.659996" y="86.629107" style="fill: #8d9bff; stroke: #8d9bff"/>
     <use xlink:href="#medffe3810e" x="467.25917" y="122.515259" style="fill: #8d9bff; stroke: #8d9bff"/>
     <use xlink:href="#medffe3810e" x="486.858343" y="63.201726" style="fill: #8d9bff; stroke: #8d9bff"/>
     <use xlink:href="#medffe3810e" x="506.457517" y="104.151879" style="fill: #8d9bff; stroke: #8d9bff"/>
     <use xlink:href="#medffe3810e" x="526.05669" y="109.537265" style="fill: #8d9bff; stroke: #8d9bff"/>
    </g>
   </g>
   <g id="line2d_22">
    <path d="M 94.874872 236.534564 
L 114.474046 239.993091 
L 134.073219 242.94047 
L 153.672393 248.218135 
L 173.271566 241.640232 
L 192.87074 228.073084 
L 212.469913 232.428583 
L 232.069087 231.202151 
L 251.668261 245.564364 
L 271.267434 236.745161 
L 290.866608 236.739024 
L 310.465781 231.268204 
L 330.064955 218.534398 
L 349.664128 229.957145 
L 369.263302 239.673967 
L 388.862475 240.935768 
L 408.461649 227.097138 
L 428.060823 218.09431 
L 447.659996 222.582077 
L 467.25917 192.626051 
L 486.858343 216.340902 
L 506.457517 205.717742 
L 526.05669 205.783957 
" clip-path="url(#pc755b3a3ec)" style="fill: none; stroke: #ff9750; stroke-width: 0.5; stroke-linecap: square"/>
    <defs>
     <path id="m161c35fe25" d="M 0 1.5 
C 0.397805 1.5 0.77937 1.341951 1.06066 1.06066 
C 1.341951 0.77937 1.5 0.397805 1.5 0 
C 1.5 -0.397805 1.341951 -0.77937 1.06066 -1.06066 
C 0.77937 -1.341951 0.397805 -1.5 0 -1.5 
C -0.397805 -1.5 -0.77937 -1.341951 -1.06066 -1.06066 
C -1.341951 -0.77937 -1.5 -0.397805 -1.5 0 
C -1.5 0.397805 -1.341951 0.77937 -1.06066 1.06066 
C -0.77937 1.341951 -0.397805 1.5 0 1.5 
z
" style="stroke: #ff9750"/>
    </defs>
    <g clip-path="url(#pc755b3a3ec)">
     <use xlink:href="#m161c35fe25" x="94.874872" y="236.534564" style="fill: #ff9750; stroke: #ff9750"/>
     <use xlink:href="#m161c35fe25" x="114.474046" y="239.993091" style="fill: #ff9750; stroke: #ff9750"/>
     <use xlink:href="#m161c35fe25" x="134.073219" y="242.94047" style="fill: #ff9750; stroke: #ff9750"/>
     <use xlink:href="#m161c35fe25" x="153.672393" y="248.218135" style="fill: #ff9750; stroke: #ff9750"/>
     <use xlink:href="#m161c35fe25" x="173.271566" y="241.640232" style="fill: #ff9750; stroke: #ff9750"/>
     <use xlink:href="#m161c35fe25" x="192.87074" y="228.073084" style="fill: #ff9750; stroke: #ff9750"/>
     <use xlink:href="#m161c35fe25" x="212.469913" y="232.428583" style="fill: #ff9750; stroke: #ff9750"/>
     <use xlink:href="#m161c35fe25" x="232.069087" y="231.202151" style="fill: #ff9750; stroke: #ff9750"/>
     <use xlink:href="#m161c35fe25" x="251.668261" y="245.564364" style="fill: #ff9750; stroke: #ff9750"/>
     <use xlink:href="#m161c35fe25" x="271.267434" y="236.745161" style="fill: #ff9750; stroke: #ff9750"/>
     <use xlink:href="#m161c35fe25" x="290.866608" y="236.739024" style="fill: #ff9750; stroke: #ff9750"/>
     <use xlink:href="#m161c35fe25" x="310.465781" y="231.268204" style="fill: #ff9750; stroke: #ff9750"/>
     <use xlink:href="#m161c35fe25" x="330.064955" y="218.534398" style="fill: #ff9750; stroke: #ff9750"/>
     <use xlink:href="#m161c35fe25" x="349.664128" y="229.957145" style="fill: #ff9750; stroke: #ff9750"/>
     <use xlink:href="#m161c35fe25" x="369.263302" y="239.673967" style="fill: #ff9750; stroke: #ff9750"/>
     <use xlink:href="#m161c35fe25" x="388.862475" y="240.935768" style="fill: #ff9750; stroke: #ff9750"/>
     <use xlink:href="#m161c35fe25" x="408.461649" y="227.097138" style="fill: #ff9750; stroke: #ff9750"/>
     <use xlink:href="#m161c35fe25" x="428.060823" y="218.09431" style="fill: #ff9750; stroke: #ff9750"/>
     <use xlink:href="#m161c35fe25" x="447.659996" y="222.582077" style="fill: #ff9750; stroke: #ff9750"/>
     <use xlink:href="#m161c35fe25" x="467.25917" y="192.626051" style="fill: #ff9750; stroke: #ff9750"/>
     <use xlink:href="#m161c35fe25" x="486.858343" y="216.340902" style="fill: #ff9750; stroke: #ff9750"/>
     <use xlink:href="#m161c35fe25" x="506.457517" y="205.717742" style="fill: #ff9750; stroke: #ff9750"/>
     <use xlink:href="#m161c35fe25" x="526.05669" y="205.783957" style="fill: #ff9750; stroke: #ff9750"/>
    </g>
   </g>
   <g id="line2d_23">
    <path d="M 94.874872 196.535486 
L 114.474046 188.947399 
L 134.073219 208.425454 
L 153.672393 189.124888 
L 173.271566 194.837311 
L 192.87074 193.622345 
L 212.469913 202.315417 
L 232.069087 190.479713 
L 251.668261 195.380114 
L 271.267434 195.675659 
L 290.866608 179.646279 
L 310.465781 190.98004 
L 330.064955 198.475103 
L 349.664128 197.075381 
L 369.263302 199.67828 
L 388.862475 196.916949 
L 408.461649 200.663916 
L 428.060823 198.859958 
L 447.659996 204.169601 
L 467.25917 210.998314 
L 486.858343 210.548536 
L 506.457517 208.73618 
L 526.05669 212.491868 
" clip-path="url(#pc755b3a3ec)" style="fill: none; stroke: #ffd900; stroke-width: 0.5; stroke-linecap: square"/>
    <defs>
     <path id="m9aa06c12cc" d="M 0 1.5 
C 0.397805 1.5 0.77937 1.341951 1.06066 1.06066 
C 1.341951 0.77937 1.5 0.397805 1.5 0 
C 1.5 -0.397805 1.341951 -0.77937 1.06066 -1.06066 
C 0.77937 -1.341951 0.397805 -1.5 0 -1.5 
C -0.397805 -1.5 -0.77937 -1.341951 -1.06066 -1.06066 
C -1.341951 -0.77937 -1.5 -0.397805 -1.5 0 
C -1.5 0.397805 -1.341951 0.77937 -1.06066 1.06066 
C -0.77937 1.341951 -0.397805 1.5 0 1.5 
z
" style="stroke: #ffd900"/>
    </defs>
    <g clip-path="url(#pc755b3a3ec)">
     <use xlink:href="#m9aa06c12cc" x="94.874872" y="196.535486" style="fill: #ffd900; stroke: #ffd900"/>
     <use xlink:href="#m9aa06c12cc" x="114.474046" y="188.947399" style="fill: #ffd900; stroke: #ffd900"/>
     <use xlink:href="#m9aa06c12cc" x="134.073219" y="208.425454" style="fill: #ffd900; stroke: #ffd900"/>
     <use xlink:href="#m9aa06c12cc" x="153.672393" y="189.124888" style="fill: #ffd900; stroke: #ffd900"/>
     <use xlink:href="#m9aa06c12cc" x="173.271566" y="194.837311" style="fill: #ffd900; stroke: #ffd900"/>
     <use xlink:href="#m9aa06c12cc" x="192.87074" y="193.622345" style="fill: #ffd900; stroke: #ffd900"/>
     <use xlink:href="#m9aa06c12cc" x="212.469913" y="202.315417" style="fill: #ffd900; stroke: #ffd900"/>
     <use xlink:href="#m9aa06c12cc" x="232.069087" y="190.479713" style="fill: #ffd900; stroke: #ffd900"/>
     <use xlink:href="#m9aa06c12cc" x="251.668261" y="195.380114" style="fill: #ffd900; stroke: #ffd900"/>
     <use xlink:href="#m9aa06c12cc" x="271.267434" y="195.675659" style="fill: #ffd900; stroke: #ffd900"/>
     <use xlink:href="#m9aa06c12cc" x="290.866608" y="179.646279" style="fill: #ffd900; stroke: #ffd900"/>
     <use xlink:href="#m9aa06c12cc" x="310.465781" y="190.98004" style="fill: #ffd900; stroke: #ffd900"/>
     <use xlink:href="#m9aa06c12cc" x="330.064955" y="198.475103" style="fill: #ffd900; stroke: #ffd900"/>
     <use xlink:href="#m9aa06c12cc" x="349.664128" y="197.075381" style="fill: #ffd900; stroke: #ffd900"/>
     <use xlink:href="#m9aa06c12cc" x="369.263302" y="199.67828" style="fill: #ffd900; stroke: #ffd900"/>
     <use xlink:href="#m9aa06c12cc" x="388.862475" y="196.916949" style="fill: #ffd900; stroke: #ffd900"/>
     <use xlink:href="#m9aa06c12cc" x="408.461649" y="200.663916" style="fill: #ffd900; stroke: #ffd900"/>
     <use xlink:href="#m9aa06c12cc" x="428.060823" y="198.859958" style="fill: #ffd900; stroke: #ffd900"/>
     <use xlink:href="#m9aa06c12cc" x="447.659996" y="204.169601" style="fill: #ffd900; stroke: #ffd900"/>
     <use xlink:href="#m9aa06c12cc" x="467.25917" y="210.998314" style="fill: #ffd900; stroke: #ffd900"/>
     <use xlink:href="#m9aa06c12cc" x="486.858343" y="210.548536" style="fill: #ffd900; stroke: #ffd900"/>
     <use xlink:href="#m9aa06c12cc" x="506.457517" y="208.73618" style="fill: #ffd900; stroke: #ffd900"/>
     <use xlink:href="#m9aa06c12cc" x="526.05669" y="212.491868" style="fill: #ffd900; stroke: #ffd900"/>
    </g>
   </g>
   <g id="patch_3">
    <path d="M 73.315781 263.02 
L 73.315781 36.22 
" style="fill: none; stroke: #000000; stroke-width: 0.8; stroke-linejoin: miter; stroke-linecap: square"/>
   </g>
   <g id="patch_4">
    <path d="M 73.315781 263.02 
L 547.615781 263.02 
" style="fill: none; stroke: #000000; stroke-width: 0.8; stroke-linejoin: miter; stroke-linecap: square"/>
   </g>
   <g id="legend_1">
    <g id="line2d_24">
     <path d="M 113.810313 14.929687 
L 123.810313 14.929687 
L 133.810313 14.929687 
" style="fill: none; stroke: #7bb5c4; stroke-width: 0.5; stroke-linecap: square"/>
     <g>
      <use xlink:href="#mabf38e7222" x="123.810313" y="14.929687" style="fill: #7bb5c4; stroke: #7bb5c4"/>
     </g>
    </g>
    <g id="text_14">
     <!-- Merluza hubbsi -->
     <g transform="translate(141.810313 18.429687) scale(0.1 -0.1)">
      <defs>
       <path id="Archivo-Regular-75" d="M 1485 -77 
Q 998 -77 704 172 
Q 410 422 410 1043 
L 410 3366 
L 973 3366 
L 973 1120 
Q 973 909 1024 774 
Q 1075 640 1171 563 
Q 1267 486 1398 454 
Q 1530 422 1683 422 
Q 1926 422 2131 537 
Q 2336 653 2467 873 
Q 2598 1094 2598 1389 
L 2598 3366 
L 3162 3366 
L 3162 0 
L 2707 0 
L 2656 506 
L 2611 506 
Q 2477 301 2307 173 
Q 2138 45 1930 -16 
Q 1722 -77 1485 -77 
z
" transform="scale(0.015625)"/>
       <path id="Archivo-Regular-7a" d="M 198 0 
L 198 301 
L 2074 2893 
L 333 2893 
L 333 3366 
L 2880 3366 
L 2880 3072 
L 998 474 
L 2982 474 
L 2982 0 
L 198 0 
z
" transform="scale(0.015625)"/>
       <path id="Archivo-Regular-68" d="M 442 0 
L 442 4627 
L 1005 4627 
L 1005 2944 
L 1050 2944 
Q 1178 3117 1338 3225 
Q 1498 3334 1693 3388 
Q 1888 3443 2118 3443 
Q 2438 3443 2678 3334 
Q 2918 3226 3056 2982 
Q 3194 2739 3194 2323 
L 3194 0 
L 2630 0 
L 2630 2246 
Q 2630 2458 2576 2592 
Q 2522 2726 2429 2803 
Q 2336 2880 2205 2912 
Q 2074 2944 1914 2944 
Q 1677 2944 1465 2832 
Q 1254 2720 1129 2505 
Q 1005 2291 1005 1978 
L 1005 0 
L 442 0 
z
" transform="scale(0.015625)"/>
       <path id="Archivo-Regular-62" d="M 2042 -77 
Q 1702 -77 1433 60 
Q 1165 198 992 480 
L 947 480 
L 890 0 
L 442 0 
L 442 4627 
L 1005 4627 
L 1005 2944 
L 1043 2944 
Q 1158 3123 1312 3232 
Q 1466 3341 1658 3392 
Q 1850 3443 2067 3443 
Q 2458 3443 2752 3257 
Q 3046 3072 3209 2688 
Q 3373 2304 3373 1709 
Q 3373 1082 3213 688 
Q 3053 294 2758 108 
Q 2464 -77 2042 -77 
z
M 1907 416 
Q 2195 416 2390 531 
Q 2586 646 2688 912 
Q 2790 1178 2790 1613 
L 2790 1747 
Q 2790 2170 2694 2435 
Q 2598 2701 2400 2825 
Q 2202 2950 1888 2950 
Q 1709 2950 1549 2892 
Q 1389 2835 1264 2694 
Q 1139 2554 1072 2317 
Q 1005 2080 1005 1734 
L 1005 1632 
Q 1005 1235 1097 966 
Q 1190 698 1392 557 
Q 1594 416 1907 416 
z
" transform="scale(0.015625)"/>
      </defs>
      <use xlink:href="#Archivo-Regular-4d"/>
      <use xlink:href="#Archivo-Regular-65" x="84.699982"/>
      <use xlink:href="#Archivo-Regular-72" x="139.499969"/>
      <use xlink:href="#Archivo-Regular-6c" x="172.699966"/>
      <use xlink:href="#Archivo-Regular-75" x="195.199951"/>
      <use xlink:href="#Archivo-Regular-7a" x="251.399948"/>
      <use xlink:href="#Archivo-Regular-61" x="301.199936"/>
      <use xlink:href="#Archivo-Regular-20" x="355.699921"/>
      <use xlink:href="#Archivo-Regular-68" x="376.599915"/>
      <use xlink:href="#Archivo-Regular-75" x="432.899902"/>
      <use xlink:href="#Archivo-Regular-62" x="489.099899"/>
      <use xlink:href="#Archivo-Regular-62" x="545.799896"/>
      <use xlink:href="#Archivo-Regular-73" x="602.499893"/>
      <use xlink:href="#Archivo-Regular-69" x="653.499878"/>
     </g>
    </g>
    <g id="line2d_25">
     <path d="M 229.411875 14.929687 
L 239.411875 14.929687 
L 249.411875 14.929687 
" style="fill: none; stroke: #8d9bff; stroke-width: 0.5; stroke-linecap: square"/>
     <g>
      <use xlink:href="#medffe3810e" x="239.411875" y="14.929687" style="fill: #8d9bff; stroke: #8d9bff"/>
     </g>
    </g>
    <g id="text_15">
     <!-- Langostino -->
     <g transform="translate(257.411875 18.429687) scale(0.1 -0.1)">
      <defs>
       <path id="Archivo-Regular-4c" d="M 550 0 
L 550 4390 
L 1158 4390 
L 1158 531 
L 3341 531 
L 3341 0 
L 550 0 
z
" transform="scale(0.015625)"/>
       <path id="Archivo-Regular-67" d="M 1011 -1165 
Q 768 -1165 563 -1065 
Q 358 -966 236 -780 
Q 115 -595 115 -339 
Q 115 -58 272 128 
Q 429 314 646 403 
Q 486 480 396 617 
Q 307 755 307 922 
Q 307 1146 470 1299 
Q 634 1453 870 1504 
Q 653 1645 528 1865 
Q 403 2086 403 2355 
Q 403 2675 553 2918 
Q 704 3162 1014 3302 
Q 1325 3443 1773 3443 
Q 1978 3443 2157 3414 
Q 2336 3386 2477 3322 
Q 2701 3424 2813 3584 
Q 2925 3744 2950 3910 
L 3507 3910 
Q 3507 3718 3420 3548 
Q 3334 3379 3187 3267 
Q 3040 3155 2829 3117 
Q 2989 2963 3069 2771 
Q 3149 2579 3149 2355 
Q 3149 2035 2998 1788 
Q 2848 1542 2547 1401 
Q 2246 1261 1792 1261 
L 1267 1261 
Q 1094 1261 985 1193 
Q 877 1126 877 979 
Q 877 851 985 771 
Q 1094 691 1267 691 
L 2637 691 
Q 3008 691 3245 444 
Q 3482 198 3482 -186 
Q 3482 -461 3344 -681 
Q 3206 -902 2960 -1033 
Q 2714 -1165 2387 -1165 
L 1011 -1165 
z
M 1171 -736 
L 2381 -736 
Q 2528 -736 2649 -675 
Q 2771 -614 2841 -505 
Q 2912 -397 2912 -269 
Q 2912 -51 2784 77 
Q 2656 205 2464 205 
L 1171 205 
Q 966 205 825 67 
Q 685 -70 685 -269 
Q 685 -480 825 -608 
Q 966 -736 1171 -736 
z
M 1779 1683 
Q 2189 1683 2387 1862 
Q 2586 2042 2586 2355 
Q 2586 2662 2387 2841 
Q 2189 3021 1779 3021 
Q 1370 3021 1168 2841 
Q 966 2662 966 2355 
Q 966 2157 1056 2003 
Q 1146 1850 1325 1766 
Q 1504 1683 1779 1683 
z
" transform="scale(0.015625)"/>
      </defs>
      <use xlink:href="#Archivo-Regular-4c"/>
      <use xlink:href="#Archivo-Regular-61" x="53.599991"/>
      <use xlink:href="#Archivo-Regular-6e" x="108.099976"/>
      <use xlink:href="#Archivo-Regular-67" x="164.399963"/>
      <use xlink:href="#Archivo-Regular-6f" x="219.999954"/>
      <use xlink:href="#Archivo-Regular-73" x="276.999939"/>
      <use xlink:href="#Archivo-Regular-74" x="327.999924"/>
      <use xlink:href="#Archivo-Regular-69" x="357.699921"/>
      <use xlink:href="#Archivo-Regular-6e" x="380.199905"/>
      <use xlink:href="#Archivo-Regular-6f" x="436.499893"/>
     </g>
    </g>
    <g id="line2d_26">
     <path d="M 326.760313 14.929687 
L 336.760313 14.929687 
L 346.760313 14.929687 
" style="fill: none; stroke: #ff9750; stroke-width: 0.5; stroke-linecap: square"/>
     <g>
      <use xlink:href="#m161c35fe25" x="336.760313" y="14.929687" style="fill: #ff9750; stroke: #ff9750"/>
     </g>
    </g>
    <g id="text_16">
     <!-- Calamar -->
     <g transform="translate(354.760313 18.429687) scale(0.1 -0.1)">
      <defs>
       <path id="Archivo-Regular-43" d="M 2426 -77 
Q 1754 -77 1286 169 
Q 819 416 572 918 
Q 326 1421 326 2195 
Q 326 3341 883 3904 
Q 1440 4467 2432 4467 
Q 2995 4467 3430 4284 
Q 3866 4102 4112 3734 
Q 4358 3366 4358 2810 
L 3744 2810 
Q 3744 3194 3581 3443 
Q 3418 3693 3123 3817 
Q 2829 3942 2432 3942 
Q 1971 3942 1638 3763 
Q 1306 3584 1133 3209 
Q 960 2835 960 2246 
L 960 2112 
Q 960 1530 1133 1162 
Q 1306 794 1635 621 
Q 1965 448 2432 448 
Q 2842 448 3139 569 
Q 3437 691 3600 944 
Q 3763 1197 3763 1581 
L 4358 1581 
Q 4358 1011 4105 646 
Q 3853 282 3417 102 
Q 2982 -77 2426 -77 
z
" transform="scale(0.015625)"/>
       <path id="Archivo-Regular-6d" d="M 442 0 
L 442 3366 
L 896 3366 
L 947 2861 
L 992 2861 
Q 1120 3066 1280 3194 
Q 1440 3322 1632 3382 
Q 1824 3443 2048 3443 
Q 2374 3443 2611 3312 
Q 2848 3181 2963 2861 
L 3002 2861 
Q 3123 3066 3283 3190 
Q 3443 3315 3641 3379 
Q 3840 3443 4064 3443 
Q 4371 3443 4601 3337 
Q 4832 3232 4963 2992 
Q 5094 2752 5094 2349 
L 5094 0 
L 4531 0 
L 4531 2259 
Q 4531 2464 4483 2598 
Q 4435 2733 4345 2806 
Q 4256 2880 4137 2912 
Q 4019 2944 3885 2944 
Q 3661 2944 3472 2829 
Q 3283 2714 3168 2496 
Q 3053 2278 3053 1978 
L 3053 0 
L 2490 0 
L 2490 2259 
Q 2490 2464 2438 2598 
Q 2387 2733 2304 2806 
Q 2221 2880 2102 2912 
Q 1984 2944 1856 2944 
Q 1626 2944 1430 2829 
Q 1235 2714 1120 2496 
Q 1005 2278 1005 1978 
L 1005 0 
L 442 0 
z
" transform="scale(0.015625)"/>
      </defs>
      <use xlink:href="#Archivo-Regular-43"/>
      <use xlink:href="#Archivo-Regular-61" x="72.799988"/>
      <use xlink:href="#Archivo-Regular-6c" x="127.299973"/>
      <use xlink:href="#Archivo-Regular-61" x="149.799957"/>
      <use xlink:href="#Archivo-Regular-6d" x="204.299942"/>
      <use xlink:href="#Archivo-Regular-61" x="290.299927"/>
      <use xlink:href="#Archivo-Regular-72" x="344.799911"/>
     </g>
    </g>
    <g id="line2d_27">
     <path d="M 412.560313 14.929687 
L 422.560313 14.929687 
L 432.560313 14.929687 
" style="fill: none; stroke: #ffd900; stroke-width: 0.5; stroke-linecap: square"/>
     <g>
      <use xlink:href="#m9aa06c12cc" x="422.560313" y="14.929687" style="fill: #ffd900; stroke: #ffd900"/>
     </g>
    </g>
    <g id="text_17">
     <!-- Otras especies -->
     <g transform="translate(440.560313 18.429687) scale(0.1 -0.1)">
      <defs>
       <path id="Archivo-Regular-4f" d="M 2522 -77 
Q 1837 -77 1347 172 
Q 858 422 592 928 
Q 326 1434 326 2195 
Q 326 2963 592 3465 
Q 858 3968 1347 4217 
Q 1837 4467 2522 4467 
Q 3206 4467 3696 4217 
Q 4186 3968 4451 3465 
Q 4717 2963 4717 2195 
Q 4717 1434 4451 928 
Q 4186 422 3696 172 
Q 3206 -77 2522 -77 
z
M 2522 448 
Q 2880 448 3171 544 
Q 3462 640 3664 848 
Q 3866 1056 3974 1373 
Q 4083 1690 4083 2125 
L 4083 2259 
Q 4083 2701 3974 3017 
Q 3866 3334 3664 3542 
Q 3462 3750 3171 3846 
Q 2880 3942 2522 3942 
Q 2157 3942 1869 3846 
Q 1581 3750 1376 3542 
Q 1171 3334 1065 3017 
Q 960 2701 960 2259 
L 960 2125 
Q 960 1690 1065 1373 
Q 1171 1056 1376 848 
Q 1581 640 1869 544 
Q 2157 448 2522 448 
z
" transform="scale(0.015625)"/>
      </defs>
      <use xlink:href="#Archivo-Regular-4f"/>
      <use xlink:href="#Archivo-Regular-74" x="78.799988"/>
      <use xlink:href="#Archivo-Regular-72" x="108.499985"/>
      <use xlink:href="#Archivo-Regular-61" x="141.699982"/>
      <use xlink:href="#Archivo-Regular-73" x="196.199966"/>
      <use xlink:href="#Archivo-Regular-20" x="247.199951"/>
      <use xlink:href="#Archivo-Regular-65" x="268.099945"/>
      <use xlink:href="#Archivo-Regular-73" x="322.899933"/>
      <use xlink:href="#Archivo-Regular-70" x="373.899918"/>
      <use xlink:href="#Archivo-Regular-65" x="430.599915"/>
      <use xlink:href="#Archivo-Regular-63" x="485.399902"/>
      <use xlink:href="#Archivo-Regular-69" x="537.299896"/>
      <use xlink:href="#Archivo-Regular-65" x="559.799881"/>
      <use xlink:href="#Archivo-Regular-73" x="614.599869"/>
     </g>
    </g>
   </g>
  </g>
  <g id="axes_2">
   <g id="patch_5">
    <path d="M 73.315781 535.18 
L 547.615781 535.18 
L 547.615781 308.38 
L 73.315781 308.38 
L 73.315781 535.18 
z
" style="fill: none"/>
   </g>
   <g id="matplotlib.axis_3">
    <g id="xtick_6">
     <g id="line2d_28">
      <g>
       <use xlink:href="#m2349957b2f" x="75.275699" y="535.18" style="stroke: #000000; stroke-width: 0.8"/>
      </g>
     </g>
     <g id="text_18">
      <!-- 2000 -->
      <g transform="translate(63.846011 549.409687) scale(0.1 -0.1)">
       <use xlink:href="#Archivo-Regular-32"/>
       <use xlink:href="#Archivo-Regular-30" x="56.699997"/>
       <use xlink:href="#Archivo-Regular-30" x="113.999985"/>
       <use xlink:href="#Archivo-Regular-30" x="171.299973"/>
      </g>
     </g>
    </g>
    <g id="xtick_7">
     <g id="line2d_29">
      <g>
       <use xlink:href="#m2349957b2f" x="173.271566" y="535.18" style="stroke: #000000; stroke-width: 0.8"/>
      </g>
     </g>
     <g id="text_19">
      <!-- 2005 -->
      <g transform="translate(161.852035 549.409687) scale(0.1 -0.1)">
       <use xlink:href="#Archivo-Regular-32"/>
       <use xlink:href="#Archivo-Regular-30" x="56.699997"/>
       <use xlink:href="#Archivo-Regular-30" x="113.999985"/>
       <use xlink:href="#Archivo-Regular-35" x="171.299973"/>
      </g>
     </g>
    </g>
    <g id="xtick_8">
     <g id="line2d_30">
      <g>
       <use xlink:href="#m2349957b2f" x="271.267434" y="535.18" style="stroke: #000000; stroke-width: 0.8"/>
      </g>
     </g>
     <g id="text_20">
      <!-- 2010 -->
      <g transform="translate(260.097903 549.409687) scale(0.1 -0.1)">
       <use xlink:href="#Archivo-Regular-32"/>
       <use xlink:href="#Archivo-Regular-30" x="56.699997"/>
       <use xlink:href="#Archivo-Regular-31" x="113.999985"/>
       <use xlink:href="#Archivo-Regular-30" x="166.099976"/>
      </g>
     </g>
    </g>
    <g id="xtick_9">
     <g id="line2d_31">
      <g>
       <use xlink:href="#m2349957b2f" x="369.263302" y="535.18" style="stroke: #000000; stroke-width: 0.8"/>
      </g>
     </g>
     <g id="text_21">
      <!-- 2015 -->
      <g transform="translate(358.103927 549.409687) scale(0.1 -0.1)">
       <use xlink:href="#Archivo-Regular-32"/>
       <use xlink:href="#Archivo-Regular-30" x="56.699997"/>
       <use xlink:href="#Archivo-Regular-31" x="113.999985"/>
       <use xlink:href="#Archivo-Regular-35" x="166.099976"/>
      </g>
     </g>
    </g>
    <g id="xtick_10">
     <g id="line2d_32">
      <g>
       <use xlink:href="#m2349957b2f" x="467.25917" y="535.18" style="stroke: #000000; stroke-width: 0.8"/>
      </g>
     </g>
     <g id="text_22">
      <!-- 2020 -->
      <g transform="translate(455.85917 549.409687) scale(0.1 -0.1)">
       <use xlink:href="#Archivo-Regular-32"/>
       <use xlink:href="#Archivo-Regular-30" x="56.699997"/>
       <use xlink:href="#Archivo-Regular-32" x="113.999985"/>
       <use xlink:href="#Archivo-Regular-30" x="170.699982"/>
      </g>
     </g>
    </g>
   </g>
   <g id="matplotlib.axis_4">
    <g id="ytick_8">
     <g id="line2d_33">
      <path d="M 73.315781 502.588829 
L 547.615781 502.588829 
" clip-path="url(#pba4ca2027d)" style="fill: none; stroke: #b0b0b0; stroke-width: 0.5; stroke-linecap: square"/>
     </g>
     <g id="line2d_34">
      <g>
       <use xlink:href="#mb8d653b341" x="73.315781" y="502.588829" style="stroke: #000000; stroke-width: 0.8"/>
      </g>
     </g>
     <g id="text_23">
      <!-- 2,000 -->
      <g transform="translate(40.686094 506.203673) scale(0.1 -0.1)">
       <use xlink:href="#Archivo-Regular-32"/>
       <use xlink:href="#Archivo-Regular-2c" x="56.699997"/>
       <use xlink:href="#Archivo-Regular-30" x="84.399994"/>
       <use xlink:href="#Archivo-Regular-30" x="141.699982"/>
       <use xlink:href="#Archivo-Regular-30" x="198.999969"/>
      </g>
     </g>
    </g>
    <g id="ytick_9">
     <g id="line2d_35">
      <path d="M 73.315781 466.298797 
L 547.615781 466.298797 
" clip-path="url(#pba4ca2027d)" style="fill: none; stroke: #b0b0b0; stroke-width: 0.5; stroke-linecap: square"/>
     </g>
     <g id="line2d_36">
      <g>
       <use xlink:href="#mb8d653b341" x="73.315781" y="466.298797" style="stroke: #000000; stroke-width: 0.8"/>
      </g>
     </g>
     <g id="text_24">
      <!-- 4,000 -->
      <g transform="translate(40.806406 469.913641) scale(0.1 -0.1)">
       <use xlink:href="#Archivo-Regular-34"/>
       <use xlink:href="#Archivo-Regular-2c" x="55.499985"/>
       <use xlink:href="#Archivo-Regular-30" x="83.199982"/>
       <use xlink:href="#Archivo-Regular-30" x="140.499969"/>
       <use xlink:href="#Archivo-Regular-30" x="197.799957"/>
      </g>
     </g>
    </g>
    <g id="ytick_10">
     <g id="line2d_37">
      <path d="M 73.315781 430.008765 
L 547.615781 430.008765 
" clip-path="url(#pba4ca2027d)" style="fill: none; stroke: #b0b0b0; stroke-width: 0.5; stroke-linecap: square"/>
     </g>
     <g id="line2d_38">
      <g>
       <use xlink:href="#mb8d653b341" x="73.315781" y="430.008765" style="stroke: #000000; stroke-width: 0.8"/>
      </g>
     </g>
     <g id="text_25">
      <!-- 6,000 -->
      <g transform="translate(40.626719 433.623609) scale(0.1 -0.1)">
       <use xlink:href="#Archivo-Regular-36"/>
       <use xlink:href="#Archivo-Regular-2c" x="57.299988"/>
       <use xlink:href="#Archivo-Regular-30" x="84.999985"/>
       <use xlink:href="#Archivo-Regular-30" x="142.299973"/>
       <use xlink:href="#Archivo-Regular-30" x="199.59996"/>
      </g>
     </g>
    </g>
    <g id="ytick_11">
     <g id="line2d_39">
      <path d="M 73.315781 393.718733 
L 547.615781 393.718733 
" clip-path="url(#pba4ca2027d)" style="fill: none; stroke: #b0b0b0; stroke-width: 0.5; stroke-linecap: square"/>
     </g>
     <g id="line2d_40">
      <g>
       <use xlink:href="#mb8d653b341" x="73.315781" y="393.718733" style="stroke: #000000; stroke-width: 0.8"/>
      </g>
     </g>
     <g id="text_26">
      <!-- 8,000 -->
      <g transform="translate(40.615781 397.333576) scale(0.1 -0.1)">
       <use xlink:href="#Archivo-Regular-38"/>
       <use xlink:href="#Archivo-Regular-2c" x="57.399994"/>
       <use xlink:href="#Archivo-Regular-30" x="85.099991"/>
       <use xlink:href="#Archivo-Regular-30" x="142.399979"/>
       <use xlink:href="#Archivo-Regular-30" x="199.699966"/>
      </g>
     </g>
    </g>
    <g id="ytick_12">
     <g id="line2d_41">
      <path d="M 73.315781 357.4287 
L 547.615781 357.4287 
" clip-path="url(#pba4ca2027d)" style="fill: none; stroke: #b0b0b0; stroke-width: 0.5; stroke-linecap: square"/>
     </g>
     <g id="line2d_42">
      <g>
       <use xlink:href="#mb8d653b341" x="73.315781" y="357.4287" style="stroke: #000000; stroke-width: 0.8"/>
      </g>
     </g>
     <g id="text_27">
      <!-- 10,000 -->
      <g transform="translate(35.417344 361.043544) scale(0.1 -0.1)">
       <use xlink:href="#Archivo-Regular-31"/>
       <use xlink:href="#Archivo-Regular-30" x="52.099991"/>
       <use xlink:href="#Archivo-Regular-2c" x="109.399979"/>
       <use xlink:href="#Archivo-Regular-30" x="137.099976"/>
       <use xlink:href="#Archivo-Regular-30" x="194.399963"/>
       <use xlink:href="#Archivo-Regular-30" x="251.699951"/>
      </g>
     </g>
    </g>
    <g id="ytick_13">
     <g id="line2d_43">
      <path d="M 73.315781 321.138668 
L 547.615781 321.138668 
" clip-path="url(#pba4ca2027d)" style="fill: none; stroke: #b0b0b0; stroke-width: 0.5; stroke-linecap: square"/>
     </g>
     <g id="line2d_44">
      <g>
       <use xlink:href="#mb8d653b341" x="73.315781" y="321.138668" style="stroke: #000000; stroke-width: 0.8"/>
      </g>
     </g>
     <g id="text_28">
      <!-- 12,000 -->
      <g transform="translate(35.476719 324.753512) scale(0.1 -0.1)">
       <use xlink:href="#Archivo-Regular-31"/>
       <use xlink:href="#Archivo-Regular-32" x="52.099991"/>
       <use xlink:href="#Archivo-Regular-2c" x="108.799988"/>
       <use xlink:href="#Archivo-Regular-30" x="136.499985"/>
       <use xlink:href="#Archivo-Regular-30" x="193.799973"/>
       <use xlink:href="#Archivo-Regular-30" x="251.09996"/>
      </g>
     </g>
    </g>
    <g id="text_29">
     <!-- Precios [dólares FOB/tn] -->
     <g transform="translate(29.514688 481.884687) rotate(-90) scale(0.11 -0.11)">
      <defs>
       <path id="Archivo-Regular-50" d="M 550 0 
L 550 4390 
L 2720 4390 
Q 3174 4390 3475 4220 
Q 3776 4051 3926 3750 
Q 4077 3450 4077 3053 
Q 4077 2650 3910 2339 
Q 3744 2029 3440 1856 
Q 3136 1683 2714 1683 
L 1158 1683 
L 1158 0 
L 550 0 
z
M 1158 2208 
L 2675 2208 
Q 3034 2208 3248 2432 
Q 3462 2656 3462 3046 
Q 3462 3309 3372 3488 
Q 3283 3667 3110 3766 
Q 2938 3866 2675 3866 
L 1158 3866 
L 1158 2208 
z
" transform="scale(0.015625)"/>
       <path id="Archivo-Regular-46" d="M 550 0 
L 550 4390 
L 3661 4390 
L 3661 3866 
L 1158 3866 
L 1158 2458 
L 3437 2458 
L 3437 1939 
L 1158 1939 
L 1158 0 
L 550 0 
z
" transform="scale(0.015625)"/>
       <path id="Archivo-Regular-42" d="M 550 0 
L 550 4390 
L 2816 4390 
Q 3194 4390 3469 4259 
Q 3744 4128 3894 3891 
Q 4045 3654 4045 3328 
Q 4045 3078 3955 2867 
Q 3866 2656 3706 2515 
Q 3546 2374 3341 2304 
L 3341 2278 
Q 3571 2227 3756 2092 
Q 3942 1958 4054 1737 
Q 4166 1517 4166 1197 
Q 4166 768 3987 505 
Q 3808 243 3507 121 
Q 3206 0 2816 0 
L 550 0 
z
M 1158 525 
L 2810 525 
Q 3136 525 3341 694 
Q 3546 864 3546 1261 
Q 3546 1504 3456 1667 
Q 3366 1830 3193 1910 
Q 3021 1990 2758 1990 
L 1158 1990 
L 1158 525 
z
M 1158 2509 
L 2701 2509 
Q 2918 2509 3078 2595 
Q 3238 2682 3331 2838 
Q 3424 2995 3424 3194 
Q 3424 3539 3238 3702 
Q 3053 3866 2746 3866 
L 1158 3866 
L 1158 2509 
z
" transform="scale(0.015625)"/>
       <path id="Archivo-Regular-2f" d="M 0 -314 
L 1427 4704 
L 1882 4704 
L 454 -314 
L 0 -314 
z
" transform="scale(0.015625)"/>
      </defs>
      <use xlink:href="#Archivo-Regular-50"/>
      <use xlink:href="#Archivo-Regular-72" x="66.499985"/>
      <use xlink:href="#Archivo-Regular-65" x="99.699982"/>
      <use xlink:href="#Archivo-Regular-63" x="154.499969"/>
      <use xlink:href="#Archivo-Regular-69" x="206.399963"/>
      <use xlink:href="#Archivo-Regular-6f" x="228.899948"/>
      <use xlink:href="#Archivo-Regular-73" x="285.899933"/>
      <use xlink:href="#Archivo-Regular-20" x="336.899918"/>
      <use xlink:href="#Archivo-Regular-5b" x="357.799911"/>
      <use xlink:href="#Archivo-Regular-64" x="387.399902"/>
      <use xlink:href="#Archivo-Regular-f3" x="444.099899"/>
      <use xlink:href="#Archivo-Regular-6c" x="501.099884"/>
      <use xlink:href="#Archivo-Regular-61" x="523.599869"/>
      <use xlink:href="#Archivo-Regular-72" x="578.099854"/>
      <use xlink:href="#Archivo-Regular-65" x="611.29985"/>
      <use xlink:href="#Archivo-Regular-73" x="666.099838"/>
      <use xlink:href="#Archivo-Regular-20" x="717.099823"/>
      <use xlink:href="#Archivo-Regular-46" x="737.999817"/>
      <use xlink:href="#Archivo-Regular-4f" x="799.199814"/>
      <use xlink:href="#Archivo-Regular-42" x="877.999802"/>
      <use xlink:href="#Archivo-Regular-2f" x="947.799789"/>
      <use xlink:href="#Archivo-Regular-74" x="977.199783"/>
      <use xlink:href="#Archivo-Regular-6e" x="1006.89978"/>
      <use xlink:href="#Archivo-Regular-5d" x="1063.199768"/>
     </g>
    </g>
   </g>
   <g id="line2d_45">
    <path d="M 94.874872 518.030238 
L 114.474046 524.272124 
L 134.073219 517.304437 
L 153.672393 515.362921 
L 173.271566 509.629096 
L 192.87074 504.475911 
L 212.469913 496.147349 
L 232.069087 489.052647 
L 251.668261 498.506201 
L 271.267434 496.038478 
L 290.866608 487.455886 
L 310.465781 491.70182 
L 330.064955 494.605022 
L 349.664128 493.480031 
L 369.263302 494.169542 
L 388.862475 496.909439 
L 408.461649 494.060672 
L 428.060823 490.177638 
L 447.659996 493.534466 
L 467.25917 498.869101 
L 486.858343 496.528394 
L 506.457517 490.994164 
L 526.05669 492.228025 
" clip-path="url(#pba4ca2027d)" style="fill: none; stroke: #7bb5c4; stroke-width: 0.5; stroke-linecap: square"/>
    <g clip-path="url(#pba4ca2027d)">
     <use xlink:href="#mabf38e7222" x="94.874872" y="518.030238" style="fill: #7bb5c4; stroke: #7bb5c4"/>
     <use xlink:href="#mabf38e7222" x="114.474046" y="524.272124" style="fill: #7bb5c4; stroke: #7bb5c4"/>
     <use xlink:href="#mabf38e7222" x="134.073219" y="517.304437" style="fill: #7bb5c4; stroke: #7bb5c4"/>
     <use xlink:href="#mabf38e7222" x="153.672393" y="515.362921" style="fill: #7bb5c4; stroke: #7bb5c4"/>
     <use xlink:href="#mabf38e7222" x="173.271566" y="509.629096" style="fill: #7bb5c4; stroke: #7bb5c4"/>
     <use xlink:href="#mabf38e7222" x="192.87074" y="504.475911" style="fill: #7bb5c4; stroke: #7bb5c4"/>
     <use xlink:href="#mabf38e7222" x="212.469913" y="496.147349" style="fill: #7bb5c4; stroke: #7bb5c4"/>
     <use xlink:href="#mabf38e7222" x="232.069087" y="489.052647" style="fill: #7bb5c4; stroke: #7bb5c4"/>
     <use xlink:href="#mabf38e7222" x="251.668261" y="498.506201" style="fill: #7bb5c4; stroke: #7bb5c4"/>
     <use xlink:href="#mabf38e7222" x="271.267434" y="496.038478" style="fill: #7bb5c4; stroke: #7bb5c4"/>
     <use xlink:href="#mabf38e7222" x="290.866608" y="487.455886" style="fill: #7bb5c4; stroke: #7bb5c4"/>
     <use xlink:href="#mabf38e7222" x="310.465781" y="491.70182" style="fill: #7bb5c4; stroke: #7bb5c4"/>
     <use xlink:href="#mabf38e7222" x="330.064955" y="494.605022" style="fill: #7bb5c4; stroke: #7bb5c4"/>
     <use xlink:href="#mabf38e7222" x="349.664128" y="493.480031" style="fill: #7bb5c4; stroke: #7bb5c4"/>
     <use xlink:href="#mabf38e7222" x="369.263302" y="494.169542" style="fill: #7bb5c4; stroke: #7bb5c4"/>
     <use xlink:href="#mabf38e7222" x="388.862475" y="496.909439" style="fill: #7bb5c4; stroke: #7bb5c4"/>
     <use xlink:href="#mabf38e7222" x="408.461649" y="494.060672" style="fill: #7bb5c4; stroke: #7bb5c4"/>
     <use xlink:href="#mabf38e7222" x="428.060823" y="490.177638" style="fill: #7bb5c4; stroke: #7bb5c4"/>
     <use xlink:href="#mabf38e7222" x="447.659996" y="493.534466" style="fill: #7bb5c4; stroke: #7bb5c4"/>
     <use xlink:href="#mabf38e7222" x="467.25917" y="498.869101" style="fill: #7bb5c4; stroke: #7bb5c4"/>
     <use xlink:href="#mabf38e7222" x="486.858343" y="496.528394" style="fill: #7bb5c4; stroke: #7bb5c4"/>
     <use xlink:href="#mabf38e7222" x="506.457517" y="490.994164" style="fill: #7bb5c4; stroke: #7bb5c4"/>
     <use xlink:href="#mabf38e7222" x="526.05669" y="492.228025" style="fill: #7bb5c4; stroke: #7bb5c4"/>
    </g>
   </g>
   <g id="line2d_46">
    <path d="M 94.874872 428.375713 
L 114.474046 450.440053 
L 134.073219 391.904231 
L 153.672393 397.765071 
L 173.271566 318.689091 
L 192.87074 366.827819 
L 212.469913 421.770927 
L 232.069087 376.517257 
L 251.668261 428.938209 
L 271.267434 428.266843 
L 290.866608 418.577405 
L 310.465781 428.266843 
L 330.064955 416.436293 
L 349.664128 410.775048 
L 369.263302 424.184215 
L 388.862475 425.164046 
L 408.461649 420.065296 
L 428.060823 411.627863 
L 447.659996 423.494704 
L 467.25917 422.823338 
L 486.858343 407.617815 
L 506.457517 412.770999 
L 526.05669 421.716492 
" clip-path="url(#pba4ca2027d)" style="fill: none; stroke: #8d9bff; stroke-width: 0.5; stroke-linecap: square"/>
    <g clip-path="url(#pba4ca2027d)">
     <use xlink:href="#medffe3810e" x="94.874872" y="428.375713" style="fill: #8d9bff; stroke: #8d9bff"/>
     <use xlink:href="#medffe3810e" x="114.474046" y="450.440053" style="fill: #8d9bff; stroke: #8d9bff"/>
     <use xlink:href="#medffe3810e" x="134.073219" y="391.904231" style="fill: #8d9bff; stroke: #8d9bff"/>
     <use xlink:href="#medffe3810e" x="153.672393" y="397.765071" style="fill: #8d9bff; stroke: #8d9bff"/>
     <use xlink:href="#medffe3810e" x="173.271566" y="318.689091" style="fill: #8d9bff; stroke: #8d9bff"/>
     <use xlink:href="#medffe3810e" x="192.87074" y="366.827819" style="fill: #8d9bff; stroke: #8d9bff"/>
     <use xlink:href="#medffe3810e" x="212.469913" y="421.770927" style="fill: #8d9bff; stroke: #8d9bff"/>
     <use xlink:href="#medffe3810e" x="232.069087" y="376.517257" style="fill: #8d9bff; stroke: #8d9bff"/>
     <use xlink:href="#medffe3810e" x="251.668261" y="428.938209" style="fill: #8d9bff; stroke: #8d9bff"/>
     <use xlink:href="#medffe3810e" x="271.267434" y="428.266843" style="fill: #8d9bff; stroke: #8d9bff"/>
     <use xlink:href="#medffe3810e" x="290.866608" y="418.577405" style="fill: #8d9bff; stroke: #8d9bff"/>
     <use xlink:href="#medffe3810e" x="310.465781" y="428.266843" style="fill: #8d9bff; stroke: #8d9bff"/>
     <use xlink:href="#medffe3810e" x="330.064955" y="416.436293" style="fill: #8d9bff; stroke: #8d9bff"/>
     <use xlink:href="#medffe3810e" x="349.664128" y="410.775048" style="fill: #8d9bff; stroke: #8d9bff"/>
     <use xlink:href="#medffe3810e" x="369.263302" y="424.184215" style="fill: #8d9bff; stroke: #8d9bff"/>
     <use xlink:href="#medffe3810e" x="388.862475" y="425.164046" style="fill: #8d9bff; stroke: #8d9bff"/>
     <use xlink:href="#medffe3810e" x="408.461649" y="420.065296" style="fill: #8d9bff; stroke: #8d9bff"/>
     <use xlink:href="#medffe3810e" x="428.060823" y="411.627863" style="fill: #8d9bff; stroke: #8d9bff"/>
     <use xlink:href="#medffe3810e" x="447.659996" y="423.494704" style="fill: #8d9bff; stroke: #8d9bff"/>
     <use xlink:href="#medffe3810e" x="467.25917" y="422.823338" style="fill: #8d9bff; stroke: #8d9bff"/>
     <use xlink:href="#medffe3810e" x="486.858343" y="407.617815" style="fill: #8d9bff; stroke: #8d9bff"/>
     <use xlink:href="#medffe3810e" x="506.457517" y="412.770999" style="fill: #8d9bff; stroke: #8d9bff"/>
     <use xlink:href="#medffe3810e" x="526.05669" y="421.716492" style="fill: #8d9bff; stroke: #8d9bff"/>
    </g>
   </g>
   <g id="line2d_47">
    <path d="M 94.874872 520.67941 
L 114.474046 524.380994 
L 134.073219 523.128988 
L 153.672393 510.935537 
L 173.271566 505.455742 
L 192.87074 521.405211 
L 212.469913 524.870909 
L 232.069087 522.747942 
L 251.668261 517.050407 
L 271.267434 498.578781 
L 290.866608 496.111059 
L 310.465781 497.96185 
L 330.064955 506.780328 
L 349.664128 513.929464 
L 369.263302 518.901199 
L 388.862475 501.409403 
L 408.461649 495.766303 
L 428.060823 492.228025 
L 447.659996 493.661481 
L 467.25917 490.431668 
L 486.858343 501.500128 
L 506.457517 499.921512 
L 526.05669 497.798545 
" clip-path="url(#pba4ca2027d)" style="fill: none; stroke: #ff9750; stroke-width: 0.5; stroke-linecap: square"/>
    <g clip-path="url(#pba4ca2027d)">
     <use xlink:href="#m161c35fe25" x="94.874872" y="520.67941" style="fill: #ff9750; stroke: #ff9750"/>
     <use xlink:href="#m161c35fe25" x="114.474046" y="524.380994" style="fill: #ff9750; stroke: #ff9750"/>
     <use xlink:href="#m161c35fe25" x="134.073219" y="523.128988" style="fill: #ff9750; stroke: #ff9750"/>
     <use xlink:href="#m161c35fe25" x="153.672393" y="510.935537" style="fill: #ff9750; stroke: #ff9750"/>
     <use xlink:href="#m161c35fe25" x="173.271566" y="505.455742" style="fill: #ff9750; stroke: #ff9750"/>
     <use xlink:href="#m161c35fe25" x="192.87074" y="521.405211" style="fill: #ff9750; stroke: #ff9750"/>
     <use xlink:href="#m161c35fe25" x="212.469913" y="524.870909" style="fill: #ff9750; stroke: #ff9750"/>
     <use xlink:href="#m161c35fe25" x="232.069087" y="522.747942" style="fill: #ff9750; stroke: #ff9750"/>
     <use xlink:href="#m161c35fe25" x="251.668261" y="517.050407" style="fill: #ff9750; stroke: #ff9750"/>
     <use xlink:href="#m161c35fe25" x="271.267434" y="498.578781" style="fill: #ff9750; stroke: #ff9750"/>
     <use xlink:href="#m161c35fe25" x="290.866608" y="496.111059" style="fill: #ff9750; stroke: #ff9750"/>
     <use xlink:href="#m161c35fe25" x="310.465781" y="497.96185" style="fill: #ff9750; stroke: #ff9750"/>
     <use xlink:href="#m161c35fe25" x="330.064955" y="506.780328" style="fill: #ff9750; stroke: #ff9750"/>
     <use xlink:href="#m161c35fe25" x="349.664128" y="513.929464" style="fill: #ff9750; stroke: #ff9750"/>
     <use xlink:href="#m161c35fe25" x="369.263302" y="518.901199" style="fill: #ff9750; stroke: #ff9750"/>
     <use xlink:href="#m161c35fe25" x="388.862475" y="501.409403" style="fill: #ff9750; stroke: #ff9750"/>
     <use xlink:href="#m161c35fe25" x="408.461649" y="495.766303" style="fill: #ff9750; stroke: #ff9750"/>
     <use xlink:href="#m161c35fe25" x="428.060823" y="492.228025" style="fill: #ff9750; stroke: #ff9750"/>
     <use xlink:href="#m161c35fe25" x="447.659996" y="493.661481" style="fill: #ff9750; stroke: #ff9750"/>
     <use xlink:href="#m161c35fe25" x="467.25917" y="490.431668" style="fill: #ff9750; stroke: #ff9750"/>
     <use xlink:href="#m161c35fe25" x="486.858343" y="501.500128" style="fill: #ff9750; stroke: #ff9750"/>
     <use xlink:href="#m161c35fe25" x="506.457517" y="499.921512" style="fill: #ff9750; stroke: #ff9750"/>
     <use xlink:href="#m161c35fe25" x="526.05669" y="497.798545" style="fill: #ff9750; stroke: #ff9750"/>
    </g>
   </g>
   <g id="patch_6">
    <path d="M 73.315781 535.18 
L 73.315781 308.38 
" style="fill: none; stroke: #000000; stroke-width: 0.8; stroke-linejoin: miter; stroke-linecap: square"/>
   </g>
   <g id="patch_7">
    <path d="M 73.315781 535.18 
L 547.615781 535.18 
" style="fill: none; stroke: #000000; stroke-width: 0.8; stroke-linejoin: miter; stroke-linecap: square"/>
   </g>
  </g>
 </g>
 <defs>
  <clipPath id="pc755b3a3ec">
   <rect x="73.315781" y="36.22" width="474.3" height="226.8"/>
  </clipPath>
  <clipPath id="pba4ca2027d">
   <rect x="73.315781" y="308.38" width="474.3" height="226.8"/>
  </clipPath>
 </defs>
</svg>
