<?xml version="1.0" encoding="utf-8" standalone="no"?>
<!DOCTYPE svg PUBLIC "-//W3C//DTD SVG 1.1//EN"
  "http://www.w3.org/Graphics/SVG/1.1/DTD/svg11.dtd">
<svg xmlns:xlink="http://www.w3.org/1999/xlink" width="553.24417pt" height="308.494687pt" viewBox="0 0 553.24417 308.494687" xmlns="http://www.w3.org/2000/svg" version="1.1">
 <metadata>
  <rdf:RDF xmlns:dc="http://purl.org/dc/elements/1.1/" xmlns:cc="http://creativecommons.org/ns#" xmlns:rdf="http://www.w3.org/1999/02/22-rdf-syntax-ns#">
   <cc:Work>
    <dc:type rdf:resource="http://purl.org/dc/dcmitype/StillImage"/>
    <dc:date>2024-10-28T15:41:44.320626</dc:date>
    <dc:format>image/svg+xml</dc:format>
    <dc:creator>
     <cc:Agent>
      <dc:title>Matplotlib v3.6.2, https://matplotlib.org/</dc:title>
     </cc:Agent>
    </dc:creator>
   </cc:Work>
  </rdf:RDF>
 </metadata>
 <defs>
  <style type="text/css">*{stroke-linejoin: round; stroke-linecap: butt}</style>
 </defs>
 <g id="figure_1">
  <g id="patch_1">
   <path d="M 0 308.494687 
L 553.24417 308.494687 
L 553.24417 0 
L 0 0 
L 0 308.494687 
z
" style="fill: none"/>
  </g>
  <g id="axes_1">
   <g id="patch_2">
    <path d="M 45.705938 271.48 
L 535.305938 271.48 
L 535.305938 26.68 
L 45.705938 26.68 
L 45.705938 271.48 
z
" style="fill: none"/>
   </g>
   <g id="patch_3">
    <path d="M 67.960483 271.48 
L 78.192458 271.48 
L 78.192458 109.068097 
L 67.960483 109.068097 
z
" clip-path="url(#pf40d3aba82)" style="fill: #7bb5c4"/>
   </g>
   <g id="patch_4">
    <path d="M 80.750452 271.48 
L 90.982427 271.48 
L 90.982427 114.530922 
L 80.750452 114.530922 
z
" clip-path="url(#pf40d3aba82)" style="fill: #7bb5c4"/>
   </g>
   <g id="patch_5">
    <path d="M 93.54042 271.48 
L 103.772395 271.48 
L 103.772395 132.883723 
L 93.54042 132.883723 
z
" clip-path="url(#pf40d3aba82)" style="fill: #7bb5c4"/>
   </g>
   <g id="patch_6">
    <path d="M 106.330389 271.48 
L 116.562364 271.48 
L 116.562364 156.837356 
L 106.330389 156.837356 
z
" clip-path="url(#pf40d3aba82)" style="fill: #7bb5c4"/>
   </g>
   <g id="patch_7">
    <path d="M 119.120358 271.48 
L 129.352332 271.48 
L 129.352332 182.722773 
L 119.120358 182.722773 
z
" clip-path="url(#pf40d3aba82)" style="fill: #7bb5c4"/>
   </g>
   <g id="patch_8">
    <path d="M 131.910326 271.48 
L 142.142301 271.48 
L 142.142301 177.050759 
L 131.910326 177.050759 
z
" clip-path="url(#pf40d3aba82)" style="fill: #7bb5c4"/>
   </g>
   <g id="patch_9">
    <path d="M 144.700295 271.48 
L 154.93227 271.48 
L 154.93227 180.686805 
L 144.700295 180.686805 
z
" clip-path="url(#pf40d3aba82)" style="fill: #7bb5c4"/>
   </g>
   <g id="patch_10">
    <path d="M 157.490264 271.48 
L 167.722238 271.48 
L 167.722238 183.317648 
L 157.490264 183.317648 
z
" clip-path="url(#pf40d3aba82)" style="fill: #7bb5c4"/>
   </g>
   <g id="patch_11">
    <path d="M 170.280232 271.48 
L 180.512207 271.48 
L 180.512207 193.313518 
L 170.280232 193.313518 
z
" clip-path="url(#pf40d3aba82)" style="fill: #7bb5c4"/>
   </g>
   <g id="patch_12">
    <path d="M 183.070201 271.48 
L 193.302176 271.48 
L 193.302176 194.016011 
L 183.070201 194.016011 
z
" clip-path="url(#pf40d3aba82)" style="fill: #7bb5c4"/>
   </g>
   <g id="patch_13">
    <path d="M 195.860169 271.48 
L 206.092144 271.48 
L 206.092144 197.795516 
L 195.860169 197.795516 
z
" clip-path="url(#pf40d3aba82)" style="fill: #7bb5c4"/>
   </g>
   <g id="patch_14">
    <path d="M 208.650138 271.48 
L 218.882113 271.48 
L 218.882113 197.342451 
L 208.650138 197.342451 
z
" clip-path="url(#pf40d3aba82)" style="fill: #7bb5c4"/>
   </g>
   <g id="patch_15">
    <path d="M 221.440107 271.48 
L 231.672082 271.48 
L 231.672082 176.900376 
L 221.440107 176.900376 
z
" clip-path="url(#pf40d3aba82)" style="fill: #7bb5c4"/>
   </g>
   <g id="patch_16">
    <path d="M 234.230075 271.48 
L 244.46205 271.48 
L 244.46205 163.964135 
L 234.230075 163.964135 
z
" clip-path="url(#pf40d3aba82)" style="fill: #7bb5c4"/>
   </g>
   <g id="patch_17">
    <path d="M 247.020044 271.48 
L 257.252019 271.48 
L 257.252019 160.947646 
L 247.020044 160.947646 
z
" clip-path="url(#pf40d3aba82)" style="fill: #7bb5c4"/>
   </g>
   <g id="patch_18">
    <path d="M 259.810013 271.48 
L 270.041988 271.48 
L 270.041988 144.766988 
L 259.810013 144.766988 
z
" clip-path="url(#pf40d3aba82)" style="fill: #7bb5c4"/>
   </g>
   <g id="patch_19">
    <path d="M 272.599981 271.48 
L 282.831956 271.48 
L 282.831956 149.848581 
L 272.599981 149.848581 
z
" clip-path="url(#pf40d3aba82)" style="fill: #7bb5c4"/>
   </g>
   <g id="patch_20">
    <path d="M 285.38995 271.48 
L 295.621925 271.48 
L 295.621925 165.345411 
L 285.38995 165.345411 
z
" clip-path="url(#pf40d3aba82)" style="fill: #7bb5c4"/>
   </g>
   <g id="patch_21">
    <path d="M 298.179919 271.48 
L 308.411894 271.48 
L 308.411894 162.245464 
L 298.179919 162.245464 
z
" clip-path="url(#pf40d3aba82)" style="fill: #7bb5c4"/>
   </g>
   <g id="patch_22">
    <path d="M 310.969887 271.48 
L 321.201862 271.48 
L 321.201862 171.419169 
L 310.969887 171.419169 
z
" clip-path="url(#pf40d3aba82)" style="fill: #7bb5c4"/>
   </g>
   <g id="patch_23">
    <path d="M 323.759856 271.48 
L 333.991831 271.48 
L 333.991831 148.300366 
L 323.759856 148.300366 
z
" clip-path="url(#pf40d3aba82)" style="fill: #7bb5c4"/>
   </g>
   <g id="patch_24">
    <path d="M 336.549825 271.48 
L 346.7818 271.48 
L 346.7818 148.863743 
L 336.549825 148.863743 
z
" clip-path="url(#pf40d3aba82)" style="fill: #7bb5c4"/>
   </g>
   <g id="patch_25">
    <path d="M 349.339793 271.48 
L 359.571768 271.48 
L 359.571768 144.502936 
L 349.339793 144.502936 
z
" clip-path="url(#pf40d3aba82)" style="fill: #7bb5c4"/>
   </g>
   <g id="patch_26">
    <path d="M 362.129762 271.48 
L 372.361737 271.48 
L 372.361737 155.396147 
L 362.129762 155.396147 
z
" clip-path="url(#pf40d3aba82)" style="fill: #7bb5c4"/>
   </g>
   <g id="patch_27">
    <path d="M 374.919731 271.48 
L 385.151706 271.48 
L 385.151706 163.490864 
L 374.919731 163.490864 
z
" clip-path="url(#pf40d3aba82)" style="fill: #7bb5c4"/>
   </g>
   <g id="patch_28">
    <path d="M 387.709699 271.48 
L 397.941674 271.48 
L 397.941674 165.10151 
L 387.709699 165.10151 
z
" clip-path="url(#pf40d3aba82)" style="fill: #7bb5c4"/>
   </g>
   <g id="patch_29">
    <path d="M 400.499668 271.48 
L 410.731643 271.48 
L 410.731643 162.900628 
L 400.499668 162.900628 
z
" clip-path="url(#pf40d3aba82)" style="fill: #7bb5c4"/>
   </g>
   <g id="patch_30">
    <path d="M 413.289637 271.48 
L 423.521611 271.48 
L 423.521611 155.24866 
L 413.289637 155.24866 
z
" clip-path="url(#pf40d3aba82)" style="fill: #7bb5c4"/>
   </g>
   <g id="patch_31">
    <path d="M 426.079605 271.48 
L 436.31158 271.48 
L 436.31158 155.146489 
L 426.079605 155.146489 
z
" clip-path="url(#pf40d3aba82)" style="fill: #7bb5c4"/>
   </g>
   <g id="patch_32">
    <path d="M 438.869574 271.48 
L 449.101549 271.48 
L 449.101549 157.286711 
L 438.869574 157.286711 
z
" clip-path="url(#pf40d3aba82)" style="fill: #7bb5c4"/>
   </g>
   <g id="patch_33">
    <path d="M 451.659543 271.48 
L 461.891517 271.48 
L 461.891517 153.399663 
L 451.659543 153.399663 
z
" clip-path="url(#pf40d3aba82)" style="fill: #7bb5c4"/>
   </g>
   <g id="patch_34">
    <path d="M 464.449511 271.48 
L 474.681486 271.48 
L 474.681486 155.168997 
L 464.449511 155.168997 
z
" clip-path="url(#pf40d3aba82)" style="fill: #7bb5c4"/>
   </g>
   <g id="patch_35">
    <path d="M 477.23948 271.48 
L 487.471455 271.48 
L 487.471455 152.846736 
L 477.23948 152.846736 
z
" clip-path="url(#pf40d3aba82)" style="fill: #7bb5c4"/>
   </g>
   <g id="patch_36">
    <path d="M 490.029448 271.48 
L 500.261423 271.48 
L 500.261423 155.722904 
L 490.029448 155.722904 
z
" clip-path="url(#pf40d3aba82)" style="fill: #7bb5c4"/>
   </g>
   <g id="patch_37">
    <path d="M 502.819417 271.48 
L 513.051392 271.48 
L 513.051392 147.839074 
L 502.819417 147.839074 
z
" clip-path="url(#pf40d3aba82)" style="fill: #7bb5c4"/>
   </g>
   <g id="patch_38">
    <path d="M 67.960483 109.068097 
L 78.192458 109.068097 
L 78.192458 38.337143 
L 67.960483 38.337143 
z
" clip-path="url(#pf40d3aba82)" style="fill: #9fc1ad"/>
   </g>
   <g id="patch_39">
    <path d="M 80.750452 114.530922 
L 90.982427 114.530922 
L 90.982427 38.337143 
L 80.750452 38.337143 
z
" clip-path="url(#pf40d3aba82)" style="fill: #9fc1ad"/>
   </g>
   <g id="patch_40">
    <path d="M 93.54042 132.883723 
L 103.772395 132.883723 
L 103.772395 38.337143 
L 93.54042 38.337143 
z
" clip-path="url(#pf40d3aba82)" style="fill: #9fc1ad"/>
   </g>
   <g id="patch_41">
    <path d="M 106.330389 156.837356 
L 116.562364 156.837356 
L 116.562364 38.337143 
L 106.330389 38.337143 
z
" clip-path="url(#pf40d3aba82)" style="fill: #9fc1ad"/>
   </g>
   <g id="patch_42">
    <path d="M 119.120358 182.722773 
L 129.352332 182.722773 
L 129.352332 38.337143 
L 119.120358 38.337143 
z
" clip-path="url(#pf40d3aba82)" style="fill: #9fc1ad"/>
   </g>
   <g id="patch_43">
    <path d="M 131.910326 177.050759 
L 142.142301 177.050759 
L 142.142301 38.337143 
L 131.910326 38.337143 
z
" clip-path="url(#pf40d3aba82)" style="fill: #9fc1ad"/>
   </g>
   <g id="patch_44">
    <path d="M 144.700295 180.686805 
L 154.93227 180.686805 
L 154.93227 38.337143 
L 144.700295 38.337143 
z
" clip-path="url(#pf40d3aba82)" style="fill: #9fc1ad"/>
   </g>
   <g id="patch_45">
    <path d="M 157.490264 183.317648 
L 167.722238 183.317648 
L 167.722238 38.337143 
L 157.490264 38.337143 
z
" clip-path="url(#pf40d3aba82)" style="fill: #9fc1ad"/>
   </g>
   <g id="patch_46">
    <path d="M 170.280232 193.313518 
L 180.512207 193.313518 
L 180.512207 38.337143 
L 170.280232 38.337143 
z
" clip-path="url(#pf40d3aba82)" style="fill: #9fc1ad"/>
   </g>
   <g id="patch_47">
    <path d="M 183.070201 194.016011 
L 193.302176 194.016011 
L 193.302176 38.337143 
L 183.070201 38.337143 
z
" clip-path="url(#pf40d3aba82)" style="fill: #9fc1ad"/>
   </g>
   <g id="patch_48">
    <path d="M 195.860169 197.795516 
L 206.092144 197.795516 
L 206.092144 38.337143 
L 195.860169 38.337143 
z
" clip-path="url(#pf40d3aba82)" style="fill: #9fc1ad"/>
   </g>
   <g id="patch_49">
    <path d="M 208.650138 197.342451 
L 218.882113 197.342451 
L 218.882113 38.337143 
L 208.650138 38.337143 
z
" clip-path="url(#pf40d3aba82)" style="fill: #9fc1ad"/>
   </g>
   <g id="patch_50">
    <path d="M 221.440107 176.900376 
L 231.672082 176.900376 
L 231.672082 38.337143 
L 221.440107 38.337143 
z
" clip-path="url(#pf40d3aba82)" style="fill: #9fc1ad"/>
   </g>
   <g id="patch_51">
    <path d="M 234.230075 163.964135 
L 244.46205 163.964135 
L 244.46205 38.337143 
L 234.230075 38.337143 
z
" clip-path="url(#pf40d3aba82)" style="fill: #9fc1ad"/>
   </g>
   <g id="patch_52">
    <path d="M 247.020044 160.947646 
L 257.252019 160.947646 
L 257.252019 38.337143 
L 247.020044 38.337143 
z
" clip-path="url(#pf40d3aba82)" style="fill: #9fc1ad"/>
   </g>
   <g id="patch_53">
    <path d="M 259.810013 144.766988 
L 270.041988 144.766988 
L 270.041988 38.337143 
L 259.810013 38.337143 
z
" clip-path="url(#pf40d3aba82)" style="fill: #9fc1ad"/>
   </g>
   <g id="patch_54">
    <path d="M 272.599981 149.848581 
L 282.831956 149.848581 
L 282.831956 38.337143 
L 272.599981 38.337143 
z
" clip-path="url(#pf40d3aba82)" style="fill: #9fc1ad"/>
   </g>
   <g id="patch_55">
    <path d="M 285.38995 165.345411 
L 295.621925 165.345411 
L 295.621925 38.337143 
L 285.38995 38.337143 
z
" clip-path="url(#pf40d3aba82)" style="fill: #9fc1ad"/>
   </g>
   <g id="patch_56">
    <path d="M 298.179919 162.245464 
L 308.411894 162.245464 
L 308.411894 38.337143 
L 298.179919 38.337143 
z
" clip-path="url(#pf40d3aba82)" style="fill: #9fc1ad"/>
   </g>
   <g id="patch_57">
    <path d="M 310.969887 171.419169 
L 321.201862 171.419169 
L 321.201862 38.337143 
L 310.969887 38.337143 
z
" clip-path="url(#pf40d3aba82)" style="fill: #9fc1ad"/>
   </g>
   <g id="patch_58">
    <path d="M 323.759856 148.300366 
L 333.991831 148.300366 
L 333.991831 38.337143 
L 323.759856 38.337143 
z
" clip-path="url(#pf40d3aba82)" style="fill: #9fc1ad"/>
   </g>
   <g id="patch_59">
    <path d="M 336.549825 148.863743 
L 346.7818 148.863743 
L 346.7818 38.337143 
L 336.549825 38.337143 
z
" clip-path="url(#pf40d3aba82)" style="fill: #9fc1ad"/>
   </g>
   <g id="patch_60">
    <path d="M 349.339793 144.502936 
L 359.571768 144.502936 
L 359.571768 38.337143 
L 349.339793 38.337143 
z
" clip-path="url(#pf40d3aba82)" style="fill: #9fc1ad"/>
   </g>
   <g id="patch_61">
    <path d="M 362.129762 155.396147 
L 372.361737 155.396147 
L 372.361737 38.337143 
L 362.129762 38.337143 
z
" clip-path="url(#pf40d3aba82)" style="fill: #9fc1ad"/>
   </g>
   <g id="patch_62">
    <path d="M 374.919731 163.490864 
L 385.151706 163.490864 
L 385.151706 38.337143 
L 374.919731 38.337143 
z
" clip-path="url(#pf40d3aba82)" style="fill: #9fc1ad"/>
   </g>
   <g id="patch_63">
    <path d="M 387.709699 165.10151 
L 397.941674 165.10151 
L 397.941674 38.337143 
L 387.709699 38.337143 
z
" clip-path="url(#pf40d3aba82)" style="fill: #9fc1ad"/>
   </g>
   <g id="patch_64">
    <path d="M 400.499668 162.900628 
L 410.731643 162.900628 
L 410.731643 38.337143 
L 400.499668 38.337143 
z
" clip-path="url(#pf40d3aba82)" style="fill: #9fc1ad"/>
   </g>
   <g id="patch_65">
    <path d="M 413.289637 155.24866 
L 423.521611 155.24866 
L 423.521611 38.337143 
L 413.289637 38.337143 
z
" clip-path="url(#pf40d3aba82)" style="fill: #9fc1ad"/>
   </g>
   <g id="patch_66">
    <path d="M 426.079605 155.146489 
L 436.31158 155.146489 
L 436.31158 38.337143 
L 426.079605 38.337143 
z
" clip-path="url(#pf40d3aba82)" style="fill: #9fc1ad"/>
   </g>
   <g id="patch_67">
    <path d="M 438.869574 157.286711 
L 449.101549 157.286711 
L 449.101549 38.337143 
L 438.869574 38.337143 
z
" clip-path="url(#pf40d3aba82)" style="fill: #9fc1ad"/>
   </g>
   <g id="patch_68">
    <path d="M 451.659543 153.399663 
L 461.891517 153.399663 
L 461.891517 38.337143 
L 451.659543 38.337143 
z
" clip-path="url(#pf40d3aba82)" style="fill: #9fc1ad"/>
   </g>
   <g id="patch_69">
    <path d="M 464.449511 155.168997 
L 474.681486 155.168997 
L 474.681486 38.337143 
L 464.449511 38.337143 
z
" clip-path="url(#pf40d3aba82)" style="fill: #9fc1ad"/>
   </g>
   <g id="patch_70">
    <path d="M 477.23948 152.846736 
L 487.471455 152.846736 
L 487.471455 38.337143 
L 477.23948 38.337143 
z
" clip-path="url(#pf40d3aba82)" style="fill: #9fc1ad"/>
   </g>
   <g id="patch_71">
    <path d="M 490.029448 155.722904 
L 500.261423 155.722904 
L 500.261423 38.337143 
L 490.029448 38.337143 
z
" clip-path="url(#pf40d3aba82)" style="fill: #9fc1ad"/>
   </g>
   <g id="patch_72">
    <path d="M 502.819417 147.839074 
L 513.051392 147.839074 
L 513.051392 38.337143 
L 502.819417 38.337143 
z
" clip-path="url(#pf40d3aba82)" style="fill: #9fc1ad"/>
   </g>
   <g id="matplotlib.axis_1">
    <g id="xtick_1">
     <g id="line2d_1">
      <defs>
       <path id="mf16b691a79" d="M 0 0 
L 0 3.5 
" style="stroke: #000000; stroke-width: 0.8"/>
      </defs>
      <g>
       <use xlink:href="#mf16b691a79" x="85.866439" y="271.48" style="stroke: #000000; stroke-width: 0.8"/>
      </g>
     </g>
     <g id="text_1">
      <!-- 1990 -->
      <g transform="translate(73.547298 286.432656) scale(0.11 -0.11)">
       <defs>
        <path id="Archivo-Regular-31" d="M 429 0 
L 429 480 
L 1536 480 
L 1536 3520 
L 422 3520 
L 422 3878 
Q 659 3898 912 3949 
Q 1165 4000 1408 4112 
Q 1651 4224 1850 4403 
L 2106 4403 
L 2106 480 
L 3149 480 
L 3149 0 
L 429 0 
z
" transform="scale(0.015625)"/>
        <path id="Archivo-Regular-39" d="M 1760 -77 
Q 1293 -77 998 102 
Q 704 282 569 589 
Q 435 896 435 1280 
L 1011 1280 
Q 1011 986 1097 787 
Q 1184 589 1357 493 
Q 1530 397 1792 397 
Q 2182 397 2390 598 
Q 2598 800 2681 1184 
Q 2765 1568 2771 2099 
Q 2688 1958 2521 1833 
Q 2355 1709 2134 1635 
Q 1914 1562 1664 1562 
Q 1190 1562 883 1750 
Q 576 1939 425 2265 
Q 275 2592 275 2995 
Q 275 3443 467 3772 
Q 659 4102 992 4284 
Q 1325 4467 1741 4467 
Q 2118 4467 2419 4358 
Q 2720 4250 2928 4006 
Q 3136 3763 3245 3350 
Q 3354 2938 3354 2323 
Q 3354 1651 3248 1190 
Q 3142 730 2937 451 
Q 2733 173 2435 48 
Q 2138 -77 1760 -77 
z
M 1779 2029 
Q 2093 2029 2301 2163 
Q 2509 2298 2611 2522 
Q 2714 2746 2714 3021 
Q 2714 3290 2614 3510 
Q 2515 3731 2307 3862 
Q 2099 3994 1786 3994 
Q 1472 3994 1267 3856 
Q 1062 3718 963 3494 
Q 864 3270 864 2989 
Q 864 2726 960 2508 
Q 1056 2291 1257 2160 
Q 1459 2029 1779 2029 
z
" transform="scale(0.015625)"/>
        <path id="Archivo-Regular-30" d="M 1837 -77 
Q 1478 -77 1196 28 
Q 915 134 716 393 
Q 518 653 416 1091 
Q 314 1530 314 2195 
Q 314 2861 416 3299 
Q 518 3738 716 3997 
Q 915 4256 1196 4361 
Q 1478 4467 1837 4467 
Q 2195 4467 2473 4361 
Q 2752 4256 2950 3997 
Q 3149 3738 3251 3299 
Q 3354 2861 3354 2195 
Q 3354 1530 3251 1091 
Q 3149 653 2950 393 
Q 2752 134 2473 28 
Q 2195 -77 1837 -77 
z
M 1837 397 
Q 2202 397 2403 582 
Q 2605 768 2685 1133 
Q 2765 1498 2765 2042 
L 2765 2336 
Q 2765 2886 2685 3254 
Q 2605 3622 2403 3808 
Q 2202 3994 1837 3994 
Q 1472 3994 1267 3808 
Q 1062 3622 982 3257 
Q 902 2893 902 2342 
L 902 2054 
Q 902 1510 982 1139 
Q 1062 768 1267 582 
Q 1472 397 1837 397 
z
" transform="scale(0.015625)"/>
       </defs>
       <use xlink:href="#Archivo-Regular-31"/>
       <use xlink:href="#Archivo-Regular-39" x="52.099991"/>
       <use xlink:href="#Archivo-Regular-39" x="109.399979"/>
       <use xlink:href="#Archivo-Regular-30" x="166.699966"/>
      </g>
     </g>
    </g>
    <g id="xtick_2">
     <g id="line2d_2">
      <g>
       <use xlink:href="#mf16b691a79" x="149.816282" y="271.48" style="stroke: #000000; stroke-width: 0.8"/>
      </g>
     </g>
     <g id="text_2">
      <!-- 1995 -->
      <g transform="translate(137.508314 286.432656) scale(0.11 -0.11)">
       <defs>
        <path id="Archivo-Regular-35" d="M 1856 -77 
Q 1395 -77 1049 96 
Q 704 269 512 592 
Q 320 915 320 1363 
L 890 1363 
Q 890 1062 1018 844 
Q 1146 627 1366 512 
Q 1587 397 1856 397 
Q 2131 397 2342 509 
Q 2554 621 2672 851 
Q 2790 1082 2790 1434 
Q 2790 1754 2681 1962 
Q 2573 2170 2371 2272 
Q 2170 2374 1907 2374 
Q 1715 2374 1542 2313 
Q 1370 2253 1232 2144 
Q 1094 2035 1005 1875 
L 474 1958 
L 659 4390 
L 3149 4390 
L 3149 3866 
L 1152 3866 
L 1050 2496 
Q 1158 2592 1296 2672 
Q 1434 2752 1613 2800 
Q 1792 2848 2022 2848 
Q 2400 2848 2707 2701 
Q 3014 2554 3193 2246 
Q 3373 1939 3373 1453 
Q 3373 973 3190 627 
Q 3008 282 2669 102 
Q 2330 -77 1856 -77 
z
" transform="scale(0.015625)"/>
       </defs>
       <use xlink:href="#Archivo-Regular-31"/>
       <use xlink:href="#Archivo-Regular-39" x="52.099991"/>
       <use xlink:href="#Archivo-Regular-39" x="109.399979"/>
       <use xlink:href="#Archivo-Regular-35" x="166.699966"/>
      </g>
     </g>
    </g>
    <g id="xtick_3">
     <g id="line2d_3">
      <g>
       <use xlink:href="#mf16b691a79" x="213.766126" y="271.48" style="stroke: #000000; stroke-width: 0.8"/>
      </g>
     </g>
     <g id="text_3">
      <!-- 2000 -->
      <g transform="translate(201.193469 286.432656) scale(0.11 -0.11)">
       <defs>
        <path id="Archivo-Regular-32" d="M 320 0 
L 320 186 
Q 320 454 425 681 
Q 531 909 707 1097 
Q 883 1286 1107 1459 
Q 1331 1632 1562 1798 
Q 1875 2016 2140 2233 
Q 2406 2451 2566 2704 
Q 2726 2957 2726 3270 
Q 2726 3469 2633 3632 
Q 2541 3795 2355 3891 
Q 2170 3987 1882 3987 
Q 1542 3987 1337 3872 
Q 1133 3757 1040 3565 
Q 947 3373 947 3142 
L 947 2880 
L 390 2880 
Q 384 2912 377 2979 
Q 371 3046 371 3136 
Q 371 3610 582 3901 
Q 794 4192 1146 4329 
Q 1498 4467 1907 4467 
Q 2272 4467 2534 4368 
Q 2797 4269 2969 4096 
Q 3142 3923 3225 3702 
Q 3309 3482 3309 3238 
Q 3309 2938 3203 2688 
Q 3098 2438 2909 2224 
Q 2720 2010 2467 1811 
Q 2214 1613 1920 1408 
Q 1715 1274 1516 1123 
Q 1318 973 1177 819 
Q 1037 666 998 525 
L 3334 525 
L 3334 0 
L 320 0 
z
" transform="scale(0.015625)"/>
       </defs>
       <use xlink:href="#Archivo-Regular-32"/>
       <use xlink:href="#Archivo-Regular-30" x="56.699997"/>
       <use xlink:href="#Archivo-Regular-30" x="113.999985"/>
       <use xlink:href="#Archivo-Regular-30" x="171.299973"/>
      </g>
     </g>
    </g>
    <g id="xtick_4">
     <g id="line2d_4">
      <g>
       <use xlink:href="#mf16b691a79" x="277.715969" y="271.48" style="stroke: #000000; stroke-width: 0.8"/>
      </g>
     </g>
     <g id="text_4">
      <!-- 2005 -->
      <g transform="translate(265.154484 286.432656) scale(0.11 -0.11)">
       <use xlink:href="#Archivo-Regular-32"/>
       <use xlink:href="#Archivo-Regular-30" x="56.699997"/>
       <use xlink:href="#Archivo-Regular-30" x="113.999985"/>
       <use xlink:href="#Archivo-Regular-35" x="171.299973"/>
      </g>
     </g>
    </g>
    <g id="xtick_5">
     <g id="line2d_5">
      <g>
       <use xlink:href="#mf16b691a79" x="341.665812" y="271.48" style="stroke: #000000; stroke-width: 0.8"/>
      </g>
     </g>
     <g id="text_5">
      <!-- 2010 -->
      <g transform="translate(329.379328 286.432656) scale(0.11 -0.11)">
       <use xlink:href="#Archivo-Regular-32"/>
       <use xlink:href="#Archivo-Regular-30" x="56.699997"/>
       <use xlink:href="#Archivo-Regular-31" x="113.999985"/>
       <use xlink:href="#Archivo-Regular-30" x="166.099976"/>
      </g>
     </g>
    </g>
    <g id="xtick_6">
     <g id="line2d_6">
      <g>
       <use xlink:href="#mf16b691a79" x="405.615655" y="271.48" style="stroke: #000000; stroke-width: 0.8"/>
      </g>
     </g>
     <g id="text_6">
      <!-- 2015 -->
      <g transform="translate(393.340343 286.432656) scale(0.11 -0.11)">
       <use xlink:href="#Archivo-Regular-32"/>
       <use xlink:href="#Archivo-Regular-30" x="56.699997"/>
       <use xlink:href="#Archivo-Regular-31" x="113.999985"/>
       <use xlink:href="#Archivo-Regular-35" x="166.099976"/>
      </g>
     </g>
    </g>
    <g id="xtick_7">
     <g id="line2d_7">
      <g>
       <use xlink:href="#mf16b691a79" x="469.565499" y="271.48" style="stroke: #000000; stroke-width: 0.8"/>
      </g>
     </g>
     <g id="text_7">
      <!-- 2020 -->
      <g transform="translate(457.025499 286.432656) scale(0.11 -0.11)">
       <use xlink:href="#Archivo-Regular-32"/>
       <use xlink:href="#Archivo-Regular-30" x="56.699997"/>
       <use xlink:href="#Archivo-Regular-32" x="113.999985"/>
       <use xlink:href="#Archivo-Regular-30" x="170.699982"/>
      </g>
     </g>
    </g>
    <g id="xtick_8">
     <g id="line2d_8">
      <g>
       <use xlink:href="#mf16b691a79" x="533.515342" y="271.48" style="stroke: #000000; stroke-width: 0.8"/>
      </g>
     </g>
     <g id="text_8">
      <!-- 2025 -->
      <g transform="translate(520.986514 286.432656) scale(0.11 -0.11)">
       <use xlink:href="#Archivo-Regular-32"/>
       <use xlink:href="#Archivo-Regular-30" x="56.699997"/>
       <use xlink:href="#Archivo-Regular-32" x="113.999985"/>
       <use xlink:href="#Archivo-Regular-35" x="170.699982"/>
      </g>
     </g>
    </g>
    <g id="text_9">
     <!-- Año -->
     <g transform="translate(281.430938 299.565) scale(0.1 -0.1)">
      <defs>
       <path id="Archivo-Regular-41" d="M 45 0 
L 1779 4390 
L 2579 4390 
L 4320 0 
L 3661 0 
L 3232 1088 
L 1094 1088 
L 672 0 
L 45 0 
z
M 1293 1606 
L 3027 1606 
L 2496 2982 
Q 2477 3040 2438 3142 
Q 2400 3245 2355 3369 
Q 2310 3494 2265 3625 
Q 2221 3757 2182 3866 
L 2144 3866 
Q 2099 3738 2041 3571 
Q 1984 3405 1926 3248 
Q 1869 3091 1830 2982 
L 1293 1606 
z
" transform="scale(0.015625)"/>
       <path id="Archivo-Regular-f1" d="M 442 0 
L 442 3366 
L 896 3366 
L 947 2861 
L 992 2861 
Q 1126 3066 1296 3194 
Q 1466 3322 1674 3382 
Q 1882 3443 2118 3443 
Q 2438 3443 2678 3334 
Q 2918 3226 3056 2982 
Q 3194 2739 3194 2323 
L 3194 0 
L 2630 0 
L 2630 2246 
Q 2630 2458 2576 2592 
Q 2522 2726 2429 2803 
Q 2336 2880 2205 2912 
Q 2074 2944 1914 2944 
Q 1677 2944 1465 2829 
Q 1254 2714 1129 2496 
Q 1005 2278 1005 1978 
L 1005 0 
L 442 0 
z
M 794 3981 
Q 800 4154 857 4298 
Q 915 4442 1036 4525 
Q 1158 4608 1344 4608 
Q 1510 4608 1664 4557 
Q 1818 4506 1965 4448 
Q 2112 4390 2253 4390 
Q 2349 4390 2400 4448 
Q 2451 4506 2464 4608 
L 2822 4608 
Q 2822 4435 2761 4294 
Q 2701 4154 2579 4067 
Q 2458 3981 2266 3981 
Q 2112 3981 1955 4035 
Q 1798 4090 1654 4144 
Q 1510 4198 1370 4198 
Q 1267 4198 1216 4140 
Q 1165 4083 1152 3981 
L 794 3981 
z
" transform="scale(0.015625)"/>
       <path id="Archivo-Regular-6f" d="M 1824 -77 
Q 1312 -77 963 112 
Q 614 301 432 691 
Q 250 1082 250 1683 
Q 250 2291 432 2678 
Q 614 3066 963 3254 
Q 1312 3443 1824 3443 
Q 2336 3443 2685 3254 
Q 3034 3066 3213 2678 
Q 3392 2291 3392 1683 
Q 3392 1082 3213 691 
Q 3034 301 2685 112 
Q 2336 -77 1824 -77 
z
M 1824 397 
Q 2150 397 2368 525 
Q 2586 653 2698 925 
Q 2810 1197 2810 1613 
L 2810 1754 
Q 2810 2176 2698 2445 
Q 2586 2714 2368 2842 
Q 2150 2970 1824 2970 
Q 1498 2970 1277 2842 
Q 1056 2714 947 2445 
Q 838 2176 838 1754 
L 838 1613 
Q 838 1197 947 925 
Q 1056 653 1277 525 
Q 1498 397 1824 397 
z
" transform="scale(0.015625)"/>
      </defs>
      <use xlink:href="#Archivo-Regular-41"/>
      <use xlink:href="#Archivo-Regular-f1" x="68.199982"/>
      <use xlink:href="#Archivo-Regular-6f" x="124.499969"/>
     </g>
    </g>
   </g>
   <g id="matplotlib.axis_2">
    <g id="ytick_1">
     <g id="line2d_9">
      <path d="M 45.705938 271.48 
L 535.305938 271.48 
" clip-path="url(#pf40d3aba82)" style="fill: none; stroke: #b0b0b0; stroke-width: 0.5; stroke-linecap: square"/>
     </g>
     <g id="line2d_10">
      <defs>
       <path id="mc112df49ab" d="M 0 0 
L -3.5 0 
" style="stroke: #000000; stroke-width: 0.8"/>
      </defs>
      <g>
       <use xlink:href="#mc112df49ab" x="45.705938" y="271.48" style="stroke: #000000; stroke-width: 0.8"/>
      </g>
     </g>
     <g id="text_10">
      <!-- 0 -->
      <g transform="translate(32.403281 275.456328) scale(0.11 -0.11)">
       <use xlink:href="#Archivo-Regular-30"/>
      </g>
     </g>
    </g>
    <g id="ytick_2">
     <g id="line2d_11">
      <path d="M 45.705938 224.851429 
L 535.305938 224.851429 
" clip-path="url(#pf40d3aba82)" style="fill: none; stroke: #b0b0b0; stroke-width: 0.5; stroke-linecap: square"/>
     </g>
     <g id="line2d_12">
      <g>
       <use xlink:href="#mc112df49ab" x="45.705938" y="224.851429" style="stroke: #000000; stroke-width: 0.8"/>
      </g>
     </g>
     <g id="text_11">
      <!-- 20 -->
      <g transform="translate(26.165938 228.827757) scale(0.11 -0.11)">
       <use xlink:href="#Archivo-Regular-32"/>
       <use xlink:href="#Archivo-Regular-30" x="56.699997"/>
      </g>
     </g>
    </g>
    <g id="ytick_3">
     <g id="line2d_13">
      <path d="M 45.705938 178.222857 
L 535.305938 178.222857 
" clip-path="url(#pf40d3aba82)" style="fill: none; stroke: #b0b0b0; stroke-width: 0.5; stroke-linecap: square"/>
     </g>
     <g id="line2d_14">
      <g>
       <use xlink:href="#mc112df49ab" x="45.705938" y="178.222857" style="stroke: #000000; stroke-width: 0.8"/>
      </g>
     </g>
     <g id="text_12">
      <!-- 40 -->
      <g transform="translate(26.298281 182.199185) scale(0.11 -0.11)">
       <defs>
        <path id="Archivo-Regular-34" d="M 2221 0 
L 2221 1075 
L 179 1075 
L 179 1549 
Q 448 2010 669 2477 
Q 890 2944 1066 3437 
Q 1242 3930 1357 4467 
L 1958 4467 
Q 1875 4115 1753 3747 
Q 1632 3379 1485 3033 
Q 1338 2688 1194 2387 
Q 1050 2086 925 1868 
Q 800 1651 723 1549 
L 2221 1549 
L 2221 2944 
Q 2259 3046 2300 3158 
Q 2342 3270 2380 3388 
Q 2419 3507 2451 3612 
Q 2483 3718 2502 3814 
L 2784 3814 
L 2784 1549 
L 3366 1549 
L 3366 1075 
L 2784 1075 
L 2784 0 
L 2221 0 
z
" transform="scale(0.015625)"/>
       </defs>
       <use xlink:href="#Archivo-Regular-34"/>
       <use xlink:href="#Archivo-Regular-30" x="55.499985"/>
      </g>
     </g>
    </g>
    <g id="ytick_4">
     <g id="line2d_15">
      <path d="M 45.705938 131.594286 
L 535.305938 131.594286 
" clip-path="url(#pf40d3aba82)" style="fill: none; stroke: #b0b0b0; stroke-width: 0.5; stroke-linecap: square"/>
     </g>
     <g id="line2d_16">
      <g>
       <use xlink:href="#mc112df49ab" x="45.705938" y="131.594286" style="stroke: #000000; stroke-width: 0.8"/>
      </g>
     </g>
     <g id="text_13">
      <!-- 60 -->
      <g transform="translate(26.100625 135.570614) scale(0.11 -0.11)">
       <defs>
        <path id="Archivo-Regular-36" d="M 1920 -77 
Q 1542 -77 1244 32 
Q 947 141 739 384 
Q 531 627 422 1040 
Q 314 1453 314 2067 
Q 314 2746 422 3203 
Q 531 3661 732 3939 
Q 934 4218 1232 4342 
Q 1530 4467 1907 4467 
Q 2381 4467 2672 4288 
Q 2963 4109 3097 3805 
Q 3232 3501 3232 3110 
L 2656 3110 
Q 2656 3405 2573 3603 
Q 2490 3802 2314 3898 
Q 2138 3994 1875 3994 
Q 1491 3994 1276 3792 
Q 1062 3590 982 3206 
Q 902 2822 896 2291 
Q 986 2438 1149 2560 
Q 1312 2682 1536 2755 
Q 1760 2829 2010 2829 
Q 2483 2829 2790 2640 
Q 3098 2451 3245 2124 
Q 3392 1798 3392 1395 
Q 3392 954 3200 621 
Q 3008 288 2675 105 
Q 2342 -77 1920 -77 
z
M 1882 397 
Q 2195 397 2400 534 
Q 2605 672 2704 899 
Q 2803 1126 2803 1402 
Q 2803 1664 2707 1881 
Q 2611 2099 2409 2230 
Q 2208 2362 1894 2362 
Q 1581 2362 1369 2227 
Q 1158 2093 1056 1872 
Q 954 1651 954 1370 
Q 954 1107 1056 883 
Q 1158 659 1363 528 
Q 1568 397 1882 397 
z
" transform="scale(0.015625)"/>
       </defs>
       <use xlink:href="#Archivo-Regular-36"/>
       <use xlink:href="#Archivo-Regular-30" x="57.299988"/>
      </g>
     </g>
    </g>
    <g id="ytick_5">
     <g id="line2d_17">
      <path d="M 45.705938 84.965714 
L 535.305938 84.965714 
" clip-path="url(#pf40d3aba82)" style="fill: none; stroke: #b0b0b0; stroke-width: 0.5; stroke-linecap: square"/>
     </g>
     <g id="line2d_18">
      <g>
       <use xlink:href="#mc112df49ab" x="45.705938" y="84.965714" style="stroke: #000000; stroke-width: 0.8"/>
      </g>
     </g>
     <g id="text_14">
      <!-- 80 -->
      <g transform="translate(26.088594 88.942042) scale(0.11 -0.11)">
       <defs>
        <path id="Archivo-Regular-38" d="M 1837 -77 
Q 1293 -77 953 96 
Q 614 269 457 557 
Q 301 845 301 1197 
Q 301 1555 480 1830 
Q 659 2106 1043 2253 
Q 736 2413 579 2675 
Q 422 2938 422 3258 
Q 422 3597 579 3869 
Q 736 4141 1053 4304 
Q 1370 4467 1837 4467 
Q 2304 4467 2617 4304 
Q 2931 4141 3091 3869 
Q 3251 3597 3251 3258 
Q 3251 2938 3091 2675 
Q 2931 2413 2624 2253 
Q 3014 2106 3190 1830 
Q 3366 1555 3366 1197 
Q 3366 845 3209 557 
Q 3053 269 2717 96 
Q 2381 -77 1837 -77 
z
M 1837 390 
Q 2304 390 2541 608 
Q 2778 826 2778 1203 
Q 2778 1574 2541 1792 
Q 2304 2010 1837 2010 
Q 1370 2010 1130 1792 
Q 890 1574 890 1203 
Q 890 826 1130 608 
Q 1370 390 1837 390 
z
M 1837 2477 
Q 2227 2477 2451 2678 
Q 2675 2880 2675 3245 
Q 2675 3603 2451 3801 
Q 2227 4000 1837 4000 
Q 1446 4000 1222 3801 
Q 998 3603 998 3245 
Q 998 2880 1222 2678 
Q 1446 2477 1837 2477 
z
" transform="scale(0.015625)"/>
       </defs>
       <use xlink:href="#Archivo-Regular-38"/>
       <use xlink:href="#Archivo-Regular-30" x="57.399994"/>
      </g>
     </g>
    </g>
    <g id="ytick_6">
     <g id="line2d_19">
      <path d="M 45.705938 38.337143 
L 535.305938 38.337143 
" clip-path="url(#pf40d3aba82)" style="fill: none; stroke: #b0b0b0; stroke-width: 0.5; stroke-linecap: square"/>
     </g>
     <g id="line2d_20">
      <g>
       <use xlink:href="#mc112df49ab" x="45.705938" y="38.337143" style="stroke: #000000; stroke-width: 0.8"/>
      </g>
     </g>
     <g id="text_15">
      <!-- 100 -->
      <g transform="translate(20.370313 42.313471) scale(0.11 -0.11)">
       <use xlink:href="#Archivo-Regular-31"/>
       <use xlink:href="#Archivo-Regular-30" x="52.099991"/>
       <use xlink:href="#Archivo-Regular-30" x="109.399979"/>
      </g>
     </g>
    </g>
    <g id="text_16">
     <!-- Porcentaje [%] -->
     <g transform="translate(14.55 181.884687) rotate(-90) scale(0.1 -0.1)">
      <defs>
       <path id="Archivo-Regular-50" d="M 550 0 
L 550 4390 
L 2720 4390 
Q 3174 4390 3475 4220 
Q 3776 4051 3926 3750 
Q 4077 3450 4077 3053 
Q 4077 2650 3910 2339 
Q 3744 2029 3440 1856 
Q 3136 1683 2714 1683 
L 1158 1683 
L 1158 0 
L 550 0 
z
M 1158 2208 
L 2675 2208 
Q 3034 2208 3248 2432 
Q 3462 2656 3462 3046 
Q 3462 3309 3372 3488 
Q 3283 3667 3110 3766 
Q 2938 3866 2675 3866 
L 1158 3866 
L 1158 2208 
z
" transform="scale(0.015625)"/>
       <path id="Archivo-Regular-72" d="M 442 0 
L 442 3366 
L 896 3366 
L 947 2810 
L 992 2810 
Q 1043 2970 1132 3114 
Q 1222 3258 1376 3350 
Q 1530 3443 1754 3443 
Q 1850 3443 1930 3427 
Q 2010 3411 2048 3392 
L 2048 2874 
L 1837 2874 
Q 1619 2874 1462 2800 
Q 1306 2726 1203 2592 
Q 1101 2458 1053 2272 
Q 1005 2086 1005 1875 
L 1005 0 
L 442 0 
z
" transform="scale(0.015625)"/>
       <path id="Archivo-Regular-63" d="M 1722 -77 
Q 1235 -77 905 112 
Q 576 301 406 694 
Q 237 1088 237 1683 
Q 237 2278 406 2668 
Q 576 3059 912 3251 
Q 1248 3443 1741 3443 
Q 2086 3443 2339 3353 
Q 2592 3264 2758 3091 
Q 2925 2918 3005 2675 
Q 3085 2432 3085 2118 
L 2515 2118 
Q 2515 2413 2435 2601 
Q 2355 2790 2182 2883 
Q 2010 2976 1728 2976 
Q 1446 2976 1241 2851 
Q 1037 2726 928 2457 
Q 819 2189 819 1747 
L 819 1613 
Q 819 1197 924 921 
Q 1030 646 1235 518 
Q 1440 390 1734 390 
Q 2022 390 2198 492 
Q 2374 595 2454 787 
Q 2534 979 2534 1248 
L 3085 1248 
Q 3085 966 3005 723 
Q 2925 480 2758 301 
Q 2592 122 2336 22 
Q 2080 -77 1722 -77 
z
" transform="scale(0.015625)"/>
       <path id="Archivo-Regular-65" d="M 1786 -77 
Q 1286 -77 944 112 
Q 602 301 426 691 
Q 250 1082 250 1683 
Q 250 2291 426 2678 
Q 602 3066 947 3254 
Q 1293 3443 1811 3443 
Q 2285 3443 2605 3260 
Q 2925 3078 3088 2716 
Q 3251 2355 3251 1811 
L 3251 1542 
L 832 1542 
Q 845 1139 950 880 
Q 1056 621 1267 502 
Q 1478 384 1798 384 
Q 2016 384 2179 438 
Q 2342 493 2454 595 
Q 2566 698 2624 838 
Q 2682 979 2688 1146 
L 3238 1146 
Q 3232 877 3136 649 
Q 3040 422 2854 262 
Q 2669 102 2400 12 
Q 2131 -77 1786 -77 
z
M 845 1965 
L 2669 1965 
Q 2669 2246 2605 2438 
Q 2541 2630 2422 2752 
Q 2304 2874 2147 2928 
Q 1990 2982 1792 2982 
Q 1498 2982 1293 2873 
Q 1088 2765 979 2541 
Q 870 2317 845 1965 
z
" transform="scale(0.015625)"/>
       <path id="Archivo-Regular-6e" d="M 442 0 
L 442 3366 
L 896 3366 
L 947 2861 
L 992 2861 
Q 1126 3066 1296 3194 
Q 1466 3322 1674 3382 
Q 1882 3443 2118 3443 
Q 2438 3443 2678 3334 
Q 2918 3226 3056 2982 
Q 3194 2739 3194 2323 
L 3194 0 
L 2630 0 
L 2630 2246 
Q 2630 2458 2576 2592 
Q 2522 2726 2429 2803 
Q 2336 2880 2205 2912 
Q 2074 2944 1914 2944 
Q 1677 2944 1465 2829 
Q 1254 2714 1129 2496 
Q 1005 2278 1005 1978 
L 1005 0 
L 442 0 
z
" transform="scale(0.015625)"/>
       <path id="Archivo-Regular-74" d="M 1229 -77 
Q 966 -77 819 22 
Q 672 122 608 285 
Q 544 448 544 634 
L 544 2893 
L 109 2893 
L 109 3366 
L 557 3366 
L 659 4307 
L 1107 4307 
L 1107 3366 
L 1741 3366 
L 1741 2893 
L 1107 2893 
L 1107 717 
Q 1107 557 1164 477 
Q 1222 397 1382 397 
L 1741 397 
L 1741 26 
Q 1677 -6 1587 -25 
Q 1498 -45 1405 -61 
Q 1312 -77 1229 -77 
z
" transform="scale(0.015625)"/>
       <path id="Archivo-Regular-61" d="M 1286 -77 
Q 1101 -77 915 -32 
Q 730 13 570 115 
Q 410 218 314 400 
Q 218 582 218 858 
Q 218 1203 384 1427 
Q 550 1651 848 1776 
Q 1146 1901 1555 1949 
Q 1965 1997 2445 1997 
L 2445 2381 
Q 2445 2566 2381 2700 
Q 2317 2835 2153 2908 
Q 1990 2982 1690 2982 
Q 1402 2982 1232 2908 
Q 1062 2835 995 2720 
Q 928 2605 928 2464 
L 928 2368 
L 384 2368 
Q 378 2400 378 2432 
Q 378 2464 378 2509 
Q 378 2816 547 3024 
Q 717 3232 1024 3337 
Q 1331 3443 1728 3443 
Q 2150 3443 2435 3321 
Q 2720 3200 2864 2976 
Q 3008 2752 3008 2438 
L 3008 614 
Q 3008 493 3065 445 
Q 3123 397 3206 397 
L 3456 397 
L 3456 26 
Q 3366 -13 3257 -41 
Q 3149 -70 3008 -70 
Q 2842 -70 2733 -3 
Q 2624 64 2566 182 
Q 2509 301 2490 448 
L 2445 448 
Q 2330 288 2154 169 
Q 1978 51 1760 -13 
Q 1542 -77 1286 -77 
z
M 1427 397 
Q 1632 397 1814 461 
Q 1997 525 2137 643 
Q 2278 762 2361 928 
Q 2445 1094 2445 1293 
L 2445 1574 
Q 1926 1574 1561 1516 
Q 1197 1459 1001 1312 
Q 806 1165 806 896 
Q 806 723 883 614 
Q 960 506 1101 451 
Q 1242 397 1427 397 
z
" transform="scale(0.015625)"/>
       <path id="Archivo-Regular-6a" d="M 442 4000 
L 442 4627 
L 1005 4627 
L 1005 4000 
L 442 4000 
z
M 294 -1165 
Q 224 -1165 141 -1155 
Q 58 -1146 -19 -1130 
Q -96 -1114 -147 -1094 
L -147 -704 
L 141 -704 
Q 288 -704 365 -624 
Q 442 -544 442 -397 
L 442 3366 
L 1005 3366 
L 1005 -410 
Q 1005 -602 941 -774 
Q 877 -947 726 -1056 
Q 576 -1165 294 -1165 
z
" transform="scale(0.015625)"/>
       <path id="Archivo-Regular-20" transform="scale(0.015625)"/>
       <path id="Archivo-Regular-5b" d="M 595 -1030 
L 595 4704 
L 1798 4704 
L 1798 4288 
L 1101 4288 
L 1101 -614 
L 1798 -614 
L 1798 -1030 
L 595 -1030 
z
" transform="scale(0.015625)"/>
       <path id="Archivo-Regular-25" d="M 1210 0 
L 4378 4390 
L 4890 4390 
L 1715 0 
L 1210 0 
z
M 1562 2157 
Q 1261 2157 1040 2262 
Q 819 2368 704 2617 
Q 589 2867 589 3309 
Q 589 3757 704 4006 
Q 819 4256 1040 4361 
Q 1261 4467 1562 4467 
Q 1869 4467 2080 4361 
Q 2291 4256 2409 4006 
Q 2528 3757 2528 3309 
Q 2528 2867 2409 2614 
Q 2291 2362 2080 2259 
Q 1869 2157 1562 2157 
z
M 1562 2534 
Q 1850 2534 1946 2729 
Q 2042 2925 2042 3277 
L 2042 3341 
Q 2042 3578 2003 3744 
Q 1965 3910 1859 4000 
Q 1754 4090 1562 4090 
Q 1280 4090 1177 3894 
Q 1075 3699 1075 3341 
L 1075 3277 
Q 1075 2925 1177 2729 
Q 1280 2534 1562 2534 
z
M 4531 -77 
Q 4230 -77 4012 28 
Q 3795 134 3680 384 
Q 3565 634 3565 1075 
Q 3565 1523 3680 1772 
Q 3795 2022 4012 2128 
Q 4230 2234 4531 2234 
Q 4838 2234 5052 2128 
Q 5267 2022 5382 1772 
Q 5498 1523 5498 1075 
Q 5498 634 5382 381 
Q 5267 128 5052 25 
Q 4838 -77 4531 -77 
z
M 4531 301 
Q 4826 301 4918 496 
Q 5011 691 5011 1050 
L 5011 1107 
Q 5011 1344 4972 1510 
Q 4934 1677 4832 1766 
Q 4730 1856 4531 1856 
Q 4250 1856 4150 1661 
Q 4051 1466 4051 1107 
L 4051 1050 
Q 4051 691 4150 496 
Q 4250 301 4531 301 
z
" transform="scale(0.015625)"/>
       <path id="Archivo-Regular-5d" d="M 1299 4704 
L 1299 -1030 
L 96 -1030 
L 96 -614 
L 794 -614 
L 794 4288 
L 96 4288 
L 96 4704 
L 1299 4704 
z
" transform="scale(0.015625)"/>
      </defs>
      <use xlink:href="#Archivo-Regular-50"/>
      <use xlink:href="#Archivo-Regular-6f" x="66.499985"/>
      <use xlink:href="#Archivo-Regular-72" x="123.499969"/>
      <use xlink:href="#Archivo-Regular-63" x="156.699966"/>
      <use xlink:href="#Archivo-Regular-65" x="208.59996"/>
      <use xlink:href="#Archivo-Regular-6e" x="263.399948"/>
      <use xlink:href="#Archivo-Regular-74" x="319.699936"/>
      <use xlink:href="#Archivo-Regular-61" x="349.399933"/>
      <use xlink:href="#Archivo-Regular-6a" x="403.899918"/>
      <use xlink:href="#Archivo-Regular-65" x="426.199905"/>
      <use xlink:href="#Archivo-Regular-20" x="480.999893"/>
      <use xlink:href="#Archivo-Regular-5b" x="501.899887"/>
      <use xlink:href="#Archivo-Regular-25" x="531.499878"/>
      <use xlink:href="#Archivo-Regular-5d" x="626.499863"/>
     </g>
    </g>
   </g>
   <g id="patch_73">
    <path d="M 45.705938 271.48 
L 45.705938 26.68 
" style="fill: none; stroke: #000000; stroke-width: 0.8; stroke-linejoin: miter; stroke-linecap: square"/>
   </g>
   <g id="patch_74">
    <path d="M 45.705937 271.48 
L 535.305938 271.48 
" style="fill: none; stroke: #000000; stroke-width: 0.8; stroke-linejoin: miter; stroke-linecap: square"/>
   </g>
   <g id="legend_1">
    <g id="patch_75">
     <path d="M 195.741094 18.429687 
L 215.741094 18.429687 
L 215.741094 11.429687 
L 195.741094 11.429687 
z
" style="fill: #7bb5c4"/>
    </g>
    <g id="text_17">
     <!-- Fresqueros -->
     <g transform="translate(223.741094 18.429687) scale(0.1 -0.1)">
      <defs>
       <path id="Archivo-Regular-46" d="M 550 0 
L 550 4390 
L 3661 4390 
L 3661 3866 
L 1158 3866 
L 1158 2458 
L 3437 2458 
L 3437 1939 
L 1158 1939 
L 1158 0 
L 550 0 
z
" transform="scale(0.015625)"/>
       <path id="Archivo-Regular-73" d="M 1619 -77 
Q 1274 -77 1011 -6 
Q 749 64 576 198 
Q 403 333 313 518 
Q 224 704 224 941 
Q 224 973 224 1001 
Q 224 1030 230 1050 
L 787 1050 
Q 781 1024 781 1005 
Q 781 986 781 966 
Q 787 742 899 614 
Q 1011 486 1209 435 
Q 1408 384 1651 384 
Q 1862 384 2041 438 
Q 2221 493 2326 605 
Q 2432 717 2432 890 
Q 2432 1101 2294 1213 
Q 2157 1325 1933 1389 
Q 1709 1453 1466 1523 
Q 1261 1581 1056 1651 
Q 851 1722 688 1824 
Q 525 1926 425 2089 
Q 326 2253 326 2502 
Q 326 2726 419 2899 
Q 512 3072 685 3193 
Q 858 3315 1104 3376 
Q 1350 3437 1651 3437 
Q 1971 3437 2211 3366 
Q 2451 3296 2611 3168 
Q 2771 3040 2848 2877 
Q 2925 2714 2925 2528 
Q 2925 2490 2925 2454 
Q 2925 2419 2918 2400 
L 2368 2400 
L 2368 2470 
Q 2368 2598 2301 2716 
Q 2234 2835 2070 2908 
Q 1907 2982 1619 2982 
Q 1434 2982 1299 2953 
Q 1165 2925 1075 2864 
Q 986 2803 941 2723 
Q 896 2643 896 2541 
Q 896 2374 1005 2284 
Q 1114 2195 1296 2137 
Q 1478 2080 1690 2010 
Q 1914 1946 2147 1878 
Q 2381 1811 2576 1708 
Q 2771 1606 2889 1430 
Q 3008 1254 3008 966 
Q 3008 698 2905 499 
Q 2803 301 2614 173 
Q 2426 45 2173 -16 
Q 1920 -77 1619 -77 
z
" transform="scale(0.015625)"/>
       <path id="Archivo-Regular-71" d="M 2624 -1107 
L 2624 422 
L 2586 422 
Q 2470 250 2313 138 
Q 2157 26 1965 -25 
Q 1773 -77 1562 -77 
Q 1171 -77 876 108 
Q 582 294 416 681 
Q 250 1069 250 1658 
Q 250 2285 413 2678 
Q 576 3072 873 3257 
Q 1171 3443 1587 3443 
Q 1926 3443 2195 3305 
Q 2464 3168 2637 2886 
L 2682 2886 
L 2733 3366 
L 3187 3366 
L 3187 -1107 
L 2624 -1107 
z
M 1741 416 
Q 1926 416 2086 473 
Q 2246 531 2364 672 
Q 2483 813 2553 1046 
Q 2624 1280 2624 1632 
L 2624 1728 
Q 2624 2125 2531 2400 
Q 2438 2675 2240 2812 
Q 2042 2950 1722 2950 
Q 1434 2950 1238 2835 
Q 1043 2720 940 2454 
Q 838 2189 838 1747 
L 838 1613 
Q 838 1197 934 931 
Q 1030 666 1228 541 
Q 1427 416 1741 416 
z
" transform="scale(0.015625)"/>
       <path id="Archivo-Regular-75" d="M 1485 -77 
Q 998 -77 704 172 
Q 410 422 410 1043 
L 410 3366 
L 973 3366 
L 973 1120 
Q 973 909 1024 774 
Q 1075 640 1171 563 
Q 1267 486 1398 454 
Q 1530 422 1683 422 
Q 1926 422 2131 537 
Q 2336 653 2467 873 
Q 2598 1094 2598 1389 
L 2598 3366 
L 3162 3366 
L 3162 0 
L 2707 0 
L 2656 506 
L 2611 506 
Q 2477 301 2307 173 
Q 2138 45 1930 -16 
Q 1722 -77 1485 -77 
z
" transform="scale(0.015625)"/>
      </defs>
      <use xlink:href="#Archivo-Regular-46"/>
      <use xlink:href="#Archivo-Regular-72" x="61.199997"/>
      <use xlink:href="#Archivo-Regular-65" x="94.399994"/>
      <use xlink:href="#Archivo-Regular-73" x="149.199982"/>
      <use xlink:href="#Archivo-Regular-71" x="200.199966"/>
      <use xlink:href="#Archivo-Regular-75" x="256.899963"/>
      <use xlink:href="#Archivo-Regular-65" x="313.09996"/>
      <use xlink:href="#Archivo-Regular-72" x="367.899948"/>
      <use xlink:href="#Archivo-Regular-6f" x="401.099945"/>
      <use xlink:href="#Archivo-Regular-73" x="458.09993"/>
     </g>
    </g>
    <g id="patch_76">
     <path d="M 294.652031 18.429687 
L 314.652031 18.429687 
L 314.652031 11.429687 
L 294.652031 11.429687 
z
" style="fill: #9fc1ad"/>
    </g>
    <g id="text_18">
     <!-- Congeladores -->
     <g transform="translate(322.652031 18.429687) scale(0.1 -0.1)">
      <defs>
       <path id="Archivo-Regular-43" d="M 2426 -77 
Q 1754 -77 1286 169 
Q 819 416 572 918 
Q 326 1421 326 2195 
Q 326 3341 883 3904 
Q 1440 4467 2432 4467 
Q 2995 4467 3430 4284 
Q 3866 4102 4112 3734 
Q 4358 3366 4358 2810 
L 3744 2810 
Q 3744 3194 3581 3443 
Q 3418 3693 3123 3817 
Q 2829 3942 2432 3942 
Q 1971 3942 1638 3763 
Q 1306 3584 1133 3209 
Q 960 2835 960 2246 
L 960 2112 
Q 960 1530 1133 1162 
Q 1306 794 1635 621 
Q 1965 448 2432 448 
Q 2842 448 3139 569 
Q 3437 691 3600 944 
Q 3763 1197 3763 1581 
L 4358 1581 
Q 4358 1011 4105 646 
Q 3853 282 3417 102 
Q 2982 -77 2426 -77 
z
" transform="scale(0.015625)"/>
       <path id="Archivo-Regular-67" d="M 1011 -1165 
Q 768 -1165 563 -1065 
Q 358 -966 236 -780 
Q 115 -595 115 -339 
Q 115 -58 272 128 
Q 429 314 646 403 
Q 486 480 396 617 
Q 307 755 307 922 
Q 307 1146 470 1299 
Q 634 1453 870 1504 
Q 653 1645 528 1865 
Q 403 2086 403 2355 
Q 403 2675 553 2918 
Q 704 3162 1014 3302 
Q 1325 3443 1773 3443 
Q 1978 3443 2157 3414 
Q 2336 3386 2477 3322 
Q 2701 3424 2813 3584 
Q 2925 3744 2950 3910 
L 3507 3910 
Q 3507 3718 3420 3548 
Q 3334 3379 3187 3267 
Q 3040 3155 2829 3117 
Q 2989 2963 3069 2771 
Q 3149 2579 3149 2355 
Q 3149 2035 2998 1788 
Q 2848 1542 2547 1401 
Q 2246 1261 1792 1261 
L 1267 1261 
Q 1094 1261 985 1193 
Q 877 1126 877 979 
Q 877 851 985 771 
Q 1094 691 1267 691 
L 2637 691 
Q 3008 691 3245 444 
Q 3482 198 3482 -186 
Q 3482 -461 3344 -681 
Q 3206 -902 2960 -1033 
Q 2714 -1165 2387 -1165 
L 1011 -1165 
z
M 1171 -736 
L 2381 -736 
Q 2528 -736 2649 -675 
Q 2771 -614 2841 -505 
Q 2912 -397 2912 -269 
Q 2912 -51 2784 77 
Q 2656 205 2464 205 
L 1171 205 
Q 966 205 825 67 
Q 685 -70 685 -269 
Q 685 -480 825 -608 
Q 966 -736 1171 -736 
z
M 1779 1683 
Q 2189 1683 2387 1862 
Q 2586 2042 2586 2355 
Q 2586 2662 2387 2841 
Q 2189 3021 1779 3021 
Q 1370 3021 1168 2841 
Q 966 2662 966 2355 
Q 966 2157 1056 2003 
Q 1146 1850 1325 1766 
Q 1504 1683 1779 1683 
z
" transform="scale(0.015625)"/>
       <path id="Archivo-Regular-6c" d="M 442 0 
L 442 4627 
L 1005 4627 
L 1005 0 
L 442 0 
z
" transform="scale(0.015625)"/>
       <path id="Archivo-Regular-64" d="M 1587 -77 
Q 1171 -77 873 108 
Q 576 294 413 688 
Q 250 1082 250 1709 
Q 250 2304 416 2688 
Q 582 3072 876 3257 
Q 1171 3443 1562 3443 
Q 1786 3443 1978 3392 
Q 2170 3341 2320 3232 
Q 2470 3123 2586 2944 
L 2624 2944 
L 2624 4627 
L 3187 4627 
L 3187 0 
L 2733 0 
L 2682 480 
L 2637 480 
Q 2464 198 2189 60 
Q 1914 -77 1587 -77 
z
M 1722 416 
Q 2042 416 2240 557 
Q 2438 698 2531 966 
Q 2624 1235 2624 1632 
L 2624 1734 
Q 2624 2080 2553 2317 
Q 2483 2554 2361 2694 
Q 2240 2835 2080 2892 
Q 1920 2950 1741 2950 
Q 1427 2950 1228 2825 
Q 1030 2701 934 2435 
Q 838 2170 838 1747 
L 838 1613 
Q 838 1178 940 912 
Q 1043 646 1238 531 
Q 1434 416 1722 416 
z
" transform="scale(0.015625)"/>
      </defs>
      <use xlink:href="#Archivo-Regular-43"/>
      <use xlink:href="#Archivo-Regular-6f" x="72.799988"/>
      <use xlink:href="#Archivo-Regular-6e" x="129.799973"/>
      <use xlink:href="#Archivo-Regular-67" x="186.09996"/>
      <use xlink:href="#Archivo-Regular-65" x="241.699951"/>
      <use xlink:href="#Archivo-Regular-6c" x="296.499939"/>
      <use xlink:href="#Archivo-Regular-61" x="318.999924"/>
      <use xlink:href="#Archivo-Regular-64" x="373.499908"/>
      <use xlink:href="#Archivo-Regular-6f" x="430.199905"/>
      <use xlink:href="#Archivo-Regular-72" x="487.19989"/>
      <use xlink:href="#Archivo-Regular-65" x="520.399887"/>
      <use xlink:href="#Archivo-Regular-73" x="575.199875"/>
     </g>
    </g>
   </g>
  </g>
 </g>
 <defs>
  <clipPath id="pf40d3aba82">
   <rect x="45.705938" y="26.68" width="489.6" height="244.8"/>
  </clipPath>
 </defs>
</svg>
