<?xml version="1.0" encoding="utf-8" standalone="no"?>
<!DOCTYPE svg PUBLIC "-//W3C//DTD SVG 1.1//EN"
  "http://www.w3.org/Graphics/SVG/1.1/DTD/svg11.dtd">
<svg xmlns:xlink="http://www.w3.org/1999/xlink" width="583.732258pt" height="369.694687pt" viewBox="0 0 583.732258 369.694687" xmlns="http://www.w3.org/2000/svg" version="1.1">
 <metadata>
  <rdf:RDF xmlns:dc="http://purl.org/dc/elements/1.1/" xmlns:cc="http://creativecommons.org/ns#" xmlns:rdf="http://www.w3.org/1999/02/22-rdf-syntax-ns#">
   <cc:Work>
    <dc:type rdf:resource="http://purl.org/dc/dcmitype/StillImage"/>
    <dc:date>2024-10-28T15:41:45.330548</dc:date>
    <dc:format>image/svg+xml</dc:format>
    <dc:creator>
     <cc:Agent>
      <dc:title>Matplotlib v3.6.2, https://matplotlib.org/</dc:title>
     </cc:Agent>
    </dc:creator>
   </cc:Work>
  </rdf:RDF>
 </metadata>
 <defs>
  <style type="text/css">*{stroke-linejoin: round; stroke-linecap: butt}</style>
 </defs>
 <g id="figure_1">
  <g id="patch_1">
   <path d="M 0 369.694687 
L 583.732258 369.694687 
L 583.732258 0 
L 0 0 
L 0 369.694687 
z
" style="fill: none"/>
  </g>
  <g id="axes_1">
   <g id="patch_2">
    <path d="M 45.705938 332.68 
L 565.905938 332.68 
L 565.905938 57.28 
L 45.705938 57.28 
L 45.705938 332.68 
z
" style="fill: none"/>
   </g>
   <g id="patch_3">
    <path d="M 69.351392 332.68 
L 80.222865 332.68 
L 80.222865 120.141457 
L 69.351392 120.141457 
z
" clip-path="url(#p688dfbf21d)" style="fill: #7bb5c4"/>
   </g>
   <g id="patch_4">
    <path d="M 82.940734 332.68 
L 93.812207 332.68 
L 93.812207 119.59294 
L 82.940734 119.59294 
z
" clip-path="url(#p688dfbf21d)" style="fill: #7bb5c4"/>
   </g>
   <g id="patch_5">
    <path d="M 96.530075 332.68 
L 107.401549 332.68 
L 107.401549 133.806862 
L 96.530075 133.806862 
z
" clip-path="url(#p688dfbf21d)" style="fill: #7bb5c4"/>
   </g>
   <g id="patch_6">
    <path d="M 110.119417 332.68 
L 120.99089 332.68 
L 120.99089 181.380525 
L 110.119417 181.380525 
z
" clip-path="url(#p688dfbf21d)" style="fill: #7bb5c4"/>
   </g>
   <g id="patch_7">
    <path d="M 123.708759 332.68 
L 134.580232 332.68 
L 134.580232 219.48039 
L 123.708759 219.48039 
z
" clip-path="url(#p688dfbf21d)" style="fill: #7bb5c4"/>
   </g>
   <g id="patch_8">
    <path d="M 137.298101 332.68 
L 148.169574 332.68 
L 148.169574 205.653731 
L 137.298101 205.653731 
z
" clip-path="url(#p688dfbf21d)" style="fill: #7bb5c4"/>
   </g>
   <g id="patch_9">
    <path d="M 150.887442 332.68 
L 161.758916 332.68 
L 161.758916 184.471323 
L 150.887442 184.471323 
z
" clip-path="url(#p688dfbf21d)" style="fill: #7bb5c4"/>
   </g>
   <g id="patch_10">
    <path d="M 164.476784 332.68 
L 175.348257 332.68 
L 175.348257 190.405729 
L 164.476784 190.405729 
z
" clip-path="url(#p688dfbf21d)" style="fill: #7bb5c4"/>
   </g>
   <g id="patch_11">
    <path d="M 178.066126 332.68 
L 188.937599 332.68 
L 188.937599 198.759556 
L 178.066126 198.759556 
z
" clip-path="url(#p688dfbf21d)" style="fill: #7bb5c4"/>
   </g>
   <g id="patch_12">
    <path d="M 191.655467 332.68 
L 202.526941 332.68 
L 202.526941 204.184853 
L 191.655467 204.184853 
z
" clip-path="url(#p688dfbf21d)" style="fill: #7bb5c4"/>
   </g>
   <g id="patch_13">
    <path d="M 205.244809 332.68 
L 216.116282 332.68 
L 216.116282 216.39665 
L 205.244809 216.39665 
z
" clip-path="url(#p688dfbf21d)" style="fill: #7bb5c4"/>
   </g>
   <g id="patch_14">
    <path d="M 218.834151 332.68 
L 229.705624 332.68 
L 229.705624 236.954971 
L 218.834151 236.954971 
z
" clip-path="url(#p688dfbf21d)" style="fill: #7bb5c4"/>
   </g>
   <g id="patch_15">
    <path d="M 232.423492 332.68 
L 243.294966 332.68 
L 243.294966 240.812391 
L 232.423492 240.812391 
z
" clip-path="url(#p688dfbf21d)" style="fill: #7bb5c4"/>
   </g>
   <g id="patch_16">
    <path d="M 246.012834 332.68 
L 256.884307 332.68 
L 256.884307 214.570369 
L 246.012834 214.570369 
z
" clip-path="url(#p688dfbf21d)" style="fill: #7bb5c4"/>
   </g>
   <g id="patch_17">
    <path d="M 259.602176 332.68 
L 270.473649 332.68 
L 270.473649 210.170895 
L 259.602176 210.170895 
z
" clip-path="url(#p688dfbf21d)" style="fill: #7bb5c4"/>
   </g>
   <g id="patch_18">
    <path d="M 273.191517 332.68 
L 284.062991 332.68 
L 284.062991 179.07855 
L 273.191517 179.07855 
z
" clip-path="url(#p688dfbf21d)" style="fill: #7bb5c4"/>
   </g>
   <g id="patch_19">
    <path d="M 286.780859 332.68 
L 297.652332 332.68 
L 297.652332 183.580323 
L 286.780859 183.580323 
z
" clip-path="url(#p688dfbf21d)" style="fill: #7bb5c4"/>
   </g>
   <g id="patch_20">
    <path d="M 300.370201 332.68 
L 311.241674 332.68 
L 311.241674 230.848203 
L 300.370201 230.848203 
z
" clip-path="url(#p688dfbf21d)" style="fill: #7bb5c4"/>
   </g>
   <g id="patch_21">
    <path d="M 313.959543 332.68 
L 324.831016 332.68 
L 324.831016 222.784449 
L 313.959543 222.784449 
z
" clip-path="url(#p688dfbf21d)" style="fill: #7bb5c4"/>
   </g>
   <g id="patch_22">
    <path d="M 327.548884 332.68 
L 338.420358 332.68 
L 338.420358 230.756027 
L 327.548884 230.756027 
z
" clip-path="url(#p688dfbf21d)" style="fill: #7bb5c4"/>
   </g>
   <g id="patch_23">
    <path d="M 341.138226 332.68 
L 352.009699 332.68 
L 352.009699 186.559379 
L 341.138226 186.559379 
z
" clip-path="url(#p688dfbf21d)" style="fill: #7bb5c4"/>
   </g>
   <g id="patch_24">
    <path d="M 354.727568 332.68 
L 365.599041 332.68 
L 365.599041 188.111767 
L 354.727568 188.111767 
z
" clip-path="url(#p688dfbf21d)" style="fill: #7bb5c4"/>
   </g>
   <g id="patch_25">
    <path d="M 368.316909 332.68 
L 379.188383 332.68 
L 379.188383 180.212804 
L 368.316909 180.212804 
z
" clip-path="url(#p688dfbf21d)" style="fill: #7bb5c4"/>
   </g>
   <g id="patch_26">
    <path d="M 381.906251 332.68 
L 392.777724 332.68 
L 392.777724 199.43317 
L 381.906251 199.43317 
z
" clip-path="url(#p688dfbf21d)" style="fill: #7bb5c4"/>
   </g>
   <g id="patch_27">
    <path d="M 395.495593 332.68 
L 406.367066 332.68 
L 406.367066 220.405157 
L 395.495593 220.405157 
z
" clip-path="url(#p688dfbf21d)" style="fill: #7bb5c4"/>
   </g>
   <g id="patch_28">
    <path d="M 409.084934 332.68 
L 419.956408 332.68 
L 419.956408 218.067865 
L 409.084934 218.067865 
z
" clip-path="url(#p688dfbf21d)" style="fill: #7bb5c4"/>
   </g>
   <g id="patch_29">
    <path d="M 422.674276 332.68 
L 433.545749 332.68 
L 433.545749 216.087498 
L 422.674276 216.087498 
z
" clip-path="url(#p688dfbf21d)" style="fill: #7bb5c4"/>
   </g>
   <g id="patch_30">
    <path d="M 436.263618 332.68 
L 447.135091 332.68 
L 447.135091 198.718702 
L 436.263618 198.718702 
z
" clip-path="url(#p688dfbf21d)" style="fill: #7bb5c4"/>
   </g>
   <g id="patch_31">
    <path d="M 449.852959 332.68 
L 460.724433 332.68 
L 460.724433 211.931555 
L 449.852959 211.931555 
z
" clip-path="url(#p688dfbf21d)" style="fill: #7bb5c4"/>
   </g>
   <g id="patch_32">
    <path d="M 463.442301 332.68 
L 474.313774 332.68 
L 474.313774 227.661153 
L 463.442301 227.661153 
z
" clip-path="url(#p688dfbf21d)" style="fill: #7bb5c4"/>
   </g>
   <g id="patch_33">
    <path d="M 477.031643 332.68 
L 487.903116 332.68 
L 487.903116 214.292715 
L 477.031643 214.292715 
z
" clip-path="url(#p688dfbf21d)" style="fill: #7bb5c4"/>
   </g>
   <g id="patch_34">
    <path d="M 490.620985 332.68 
L 501.492458 332.68 
L 501.492458 221.16007 
L 490.620985 221.16007 
z
" clip-path="url(#p688dfbf21d)" style="fill: #7bb5c4"/>
   </g>
   <g id="patch_35">
    <path d="M 504.210326 332.68 
L 515.0818 332.68 
L 515.0818 217.348019 
L 504.210326 217.348019 
z
" clip-path="url(#p688dfbf21d)" style="fill: #7bb5c4"/>
   </g>
   <g id="patch_36">
    <path d="M 517.799668 332.68 
L 528.671141 332.68 
L 528.671141 239.782114 
L 517.799668 239.782114 
z
" clip-path="url(#p688dfbf21d)" style="fill: #7bb5c4"/>
   </g>
   <g id="patch_37">
    <path d="M 531.38901 332.68 
L 542.260483 332.68 
L 542.260483 235.051912 
L 531.38901 235.051912 
z
" clip-path="url(#p688dfbf21d)" style="fill: #7bb5c4"/>
   </g>
   <g id="patch_38">
    <path d="M 69.351392 120.141457 
L 80.222865 120.141457 
L 80.222865 118.403327 
L 69.351392 118.403327 
z
" clip-path="url(#p688dfbf21d)" style="fill: #ffd900"/>
   </g>
   <g id="patch_39">
    <path d="M 82.940734 119.59294 
L 93.812207 119.59294 
L 93.812207 117.17623 
L 82.940734 117.17623 
z
" clip-path="url(#p688dfbf21d)" style="fill: #ffd900"/>
   </g>
   <g id="patch_40">
    <path d="M 96.530075 133.806862 
L 107.401549 133.806862 
L 107.401549 132.332523 
L 96.530075 132.332523 
z
" clip-path="url(#p688dfbf21d)" style="fill: #ffd900"/>
   </g>
   <g id="patch_41">
    <path d="M 110.119417 181.380525 
L 120.99089 181.380525 
L 120.99089 177.517794 
L 110.119417 177.517794 
z
" clip-path="url(#p688dfbf21d)" style="fill: #ffd900"/>
   </g>
   <g id="patch_42">
    <path d="M 123.708759 219.48039 
L 134.580232 219.48039 
L 134.580232 215.890357 
L 123.708759 215.890357 
z
" clip-path="url(#p688dfbf21d)" style="fill: #ffd900"/>
   </g>
   <g id="patch_43">
    <path d="M 137.298101 205.653731 
L 148.169574 205.653731 
L 148.169574 199.149728 
L 137.298101 199.149728 
z
" clip-path="url(#p688dfbf21d)" style="fill: #ffd900"/>
   </g>
   <g id="patch_44">
    <path d="M 150.887442 184.471323 
L 161.758916 184.471323 
L 161.758916 176.618332 
L 150.887442 176.618332 
z
" clip-path="url(#p688dfbf21d)" style="fill: #ffd900"/>
   </g>
   <g id="patch_45">
    <path d="M 164.476784 190.405729 
L 175.348257 190.405729 
L 175.348257 184.527491 
L 164.476784 184.527491 
z
" clip-path="url(#p688dfbf21d)" style="fill: #ffd900"/>
   </g>
   <g id="patch_46">
    <path d="M 178.066126 198.759556 
L 188.937599 198.759556 
L 188.937599 195.592843 
L 178.066126 195.592843 
z
" clip-path="url(#p688dfbf21d)" style="fill: #ffd900"/>
   </g>
   <g id="patch_47">
    <path d="M 191.655467 204.184853 
L 202.526941 204.184853 
L 202.526941 200.126188 
L 191.655467 200.126188 
z
" clip-path="url(#p688dfbf21d)" style="fill: #ffd900"/>
   </g>
   <g id="patch_48">
    <path d="M 205.244809 216.39665 
L 216.116282 216.39665 
L 216.116282 213.895682 
L 205.244809 213.895682 
z
" clip-path="url(#p688dfbf21d)" style="fill: #ffd900"/>
   </g>
   <g id="patch_49">
    <path d="M 218.834151 236.954971 
L 229.705624 236.954971 
L 229.705624 234.243278 
L 218.834151 234.243278 
z
" clip-path="url(#p688dfbf21d)" style="fill: #ffd900"/>
   </g>
   <g id="patch_50">
    <path d="M 232.423492 240.812391 
L 243.294966 240.812391 
L 243.294966 236.558792 
L 232.423492 236.558792 
z
" clip-path="url(#p688dfbf21d)" style="fill: #ffd900"/>
   </g>
   <g id="patch_51">
    <path d="M 246.012834 214.570369 
L 256.884307 214.570369 
L 256.884307 210.927691 
L 246.012834 210.927691 
z
" clip-path="url(#p688dfbf21d)" style="fill: #ffd900"/>
   </g>
   <g id="patch_52">
    <path d="M 259.602176 210.170895 
L 270.473649 210.170895 
L 270.473649 204.910776 
L 259.602176 204.910776 
z
" clip-path="url(#p688dfbf21d)" style="fill: #ffd900"/>
   </g>
   <g id="patch_53">
    <path d="M 273.191517 179.07855 
L 284.062991 179.07855 
L 284.062991 177.070374 
L 273.191517 177.070374 
z
" clip-path="url(#p688dfbf21d)" style="fill: #ffd900"/>
   </g>
   <g id="patch_54">
    <path d="M 286.780859 183.580323 
L 297.652332 183.580323 
L 297.652332 181.545877 
L 286.780859 181.545877 
z
" clip-path="url(#p688dfbf21d)" style="fill: #ffd900"/>
   </g>
   <g id="patch_55">
    <path d="M 300.370201 230.848203 
L 311.241674 230.848203 
L 311.241674 229.301721 
L 300.370201 229.301721 
z
" clip-path="url(#p688dfbf21d)" style="fill: #ffd900"/>
   </g>
   <g id="patch_56">
    <path d="M 313.959543 222.784449 
L 324.831016 222.784449 
L 324.831016 220.812245 
L 313.959543 220.812245 
z
" clip-path="url(#p688dfbf21d)" style="fill: #ffd900"/>
   </g>
   <g id="patch_57">
    <path d="M 327.548884 230.756027 
L 338.420358 230.756027 
L 338.420358 229.282135 
L 327.548884 229.282135 
z
" clip-path="url(#p688dfbf21d)" style="fill: #ffd900"/>
   </g>
   <g id="patch_58">
    <path d="M 341.138226 186.559379 
L 352.009699 186.559379 
L 352.009699 185.159797 
L 341.138226 185.159797 
z
" clip-path="url(#p688dfbf21d)" style="fill: #ffd900"/>
   </g>
   <g id="patch_59">
    <path d="M 354.727568 188.111767 
L 365.599041 188.111767 
L 365.599041 187.060317 
L 354.727568 187.060317 
z
" clip-path="url(#p688dfbf21d)" style="fill: #ffd900"/>
   </g>
   <g id="patch_60">
    <path d="M 368.316909 180.212804 
L 379.188383 180.212804 
L 379.188383 178.540359 
L 368.316909 178.540359 
z
" clip-path="url(#p688dfbf21d)" style="fill: #ffd900"/>
   </g>
   <g id="patch_61">
    <path d="M 381.906251 199.43317 
L 392.777724 199.43317 
L 392.777724 197.755774 
L 381.906251 197.755774 
z
" clip-path="url(#p688dfbf21d)" style="fill: #ffd900"/>
   </g>
   <g id="patch_62">
    <path d="M 395.495593 220.405157 
L 406.367066 220.405157 
L 406.367066 219.195013 
L 395.495593 219.195013 
z
" clip-path="url(#p688dfbf21d)" style="fill: #ffd900"/>
   </g>
   <g id="patch_63">
    <path d="M 409.084934 218.067865 
L 419.956408 218.067865 
L 419.956408 217.711224 
L 409.084934 217.711224 
z
" clip-path="url(#p688dfbf21d)" style="fill: #ffd900"/>
   </g>
   <g id="patch_64">
    <path d="M 422.674276 216.087498 
L 433.545749 216.087498 
L 433.545749 215.43969 
L 422.674276 215.43969 
z
" clip-path="url(#p688dfbf21d)" style="fill: #ffd900"/>
   </g>
   <g id="patch_65">
    <path d="M 436.263618 198.718702 
L 447.135091 198.718702 
L 447.135091 198.405905 
L 436.263618 198.405905 
z
" clip-path="url(#p688dfbf21d)" style="fill: #ffd900"/>
   </g>
   <g id="patch_66">
    <path d="M 449.852959 211.931555 
L 460.724433 211.931555 
L 460.724433 211.877486 
L 449.852959 211.877486 
z
" clip-path="url(#p688dfbf21d)" style="fill: #ffd900"/>
   </g>
   <g id="patch_67">
    <path d="M 463.442301 227.661153 
L 474.313774 227.661153 
L 474.313774 227.577748 
L 463.442301 227.577748 
z
" clip-path="url(#p688dfbf21d)" style="fill: #ffd900"/>
   </g>
   <g id="patch_68">
    <path d="M 477.031643 214.292715 
L 487.903116 214.292715 
L 487.903116 214.24006 
L 477.031643 214.24006 
z
" clip-path="url(#p688dfbf21d)" style="fill: #ffd900"/>
   </g>
   <g id="patch_69">
    <path d="M 490.620985 221.16007 
L 501.492458 221.16007 
L 501.492458 221.150447 
L 490.620985 221.150447 
z
" clip-path="url(#p688dfbf21d)" style="fill: #ffd900"/>
   </g>
   <g id="patch_70">
    <path d="M 504.210326 217.348019 
L 515.0818 217.348019 
L 515.0818 217.342401 
L 504.210326 217.342401 
z
" clip-path="url(#p688dfbf21d)" style="fill: #ffd900"/>
   </g>
   <g id="patch_71">
    <path d="M 517.799668 239.782114 
L 528.671141 239.782114 
L 528.671141 239.779613 
L 517.799668 239.779613 
z
" clip-path="url(#p688dfbf21d)" style="fill: #ffd900"/>
   </g>
   <g id="patch_72">
    <path d="M 531.38901 235.051912 
L 542.260483 235.051912 
L 542.260483 235.048959 
L 531.38901 235.048959 
z
" clip-path="url(#p688dfbf21d)" style="fill: #ffd900"/>
   </g>
   <g id="patch_73">
    <path d="M 69.351392 118.403327 
L 80.222865 118.403327 
L 80.222865 105.736635 
L 69.351392 105.736635 
z
" clip-path="url(#p688dfbf21d)" style="fill: #d3d3e0"/>
   </g>
   <g id="patch_74">
    <path d="M 82.940734 117.17623 
L 93.812207 117.17623 
L 93.812207 106.288895 
L 82.940734 106.288895 
z
" clip-path="url(#p688dfbf21d)" style="fill: #d3d3e0"/>
   </g>
   <g id="patch_75">
    <path d="M 96.530075 132.332523 
L 107.401549 132.332523 
L 107.401549 122.770823 
L 96.530075 122.770823 
z
" clip-path="url(#p688dfbf21d)" style="fill: #d3d3e0"/>
   </g>
   <g id="patch_76">
    <path d="M 110.119417 177.517794 
L 120.99089 177.517794 
L 120.99089 162.306217 
L 110.119417 162.306217 
z
" clip-path="url(#p688dfbf21d)" style="fill: #d3d3e0"/>
   </g>
   <g id="patch_77">
    <path d="M 123.708759 215.890357 
L 134.580232 215.890357 
L 134.580232 208.799492 
L 123.708759 208.799492 
z
" clip-path="url(#p688dfbf21d)" style="fill: #d3d3e0"/>
   </g>
   <g id="patch_78">
    <path d="M 137.298101 199.149728 
L 148.169574 199.149728 
L 148.169574 192.349511 
L 137.298101 192.349511 
z
" clip-path="url(#p688dfbf21d)" style="fill: #d3d3e0"/>
   </g>
   <g id="patch_79">
    <path d="M 150.887442 176.618332 
L 161.758916 176.618332 
L 161.758916 173.662329 
L 150.887442 173.662329 
z
" clip-path="url(#p688dfbf21d)" style="fill: #d3d3e0"/>
   </g>
   <g id="patch_80">
    <path d="M 164.476784 184.527491 
L 175.348257 184.527491 
L 175.348257 180.480598 
L 164.476784 180.480598 
z
" clip-path="url(#p688dfbf21d)" style="fill: #d3d3e0"/>
   </g>
   <g id="patch_81">
    <path d="M 178.066126 195.592843 
L 188.937599 195.592843 
L 188.937599 193.089497 
L 178.066126 193.089497 
z
" clip-path="url(#p688dfbf21d)" style="fill: #d3d3e0"/>
   </g>
   <g id="patch_82">
    <path d="M 191.655467 200.126188 
L 202.526941 200.126188 
L 202.526941 189.413111 
L 191.655467 189.413111 
z
" clip-path="url(#p688dfbf21d)" style="fill: #d3d3e0"/>
   </g>
   <g id="patch_83">
    <path d="M 205.244809 213.895682 
L 216.116282 213.895682 
L 216.116282 206.892323 
L 205.244809 206.892323 
z
" clip-path="url(#p688dfbf21d)" style="fill: #d3d3e0"/>
   </g>
   <g id="patch_84">
    <path d="M 218.834151 234.243278 
L 229.705624 234.243278 
L 229.705624 217.249635 
L 218.834151 217.249635 
z
" clip-path="url(#p688dfbf21d)" style="fill: #d3d3e0"/>
   </g>
   <g id="patch_85">
    <path d="M 232.423492 236.558792 
L 243.294966 236.558792 
L 243.294966 203.949945 
L 232.423492 203.949945 
z
" clip-path="url(#p688dfbf21d)" style="fill: #d3d3e0"/>
   </g>
   <g id="patch_86">
    <path d="M 246.012834 210.927691 
L 256.884307 210.927691 
L 256.884307 185.005663 
L 246.012834 185.005663 
z
" clip-path="url(#p688dfbf21d)" style="fill: #d3d3e0"/>
   </g>
   <g id="patch_87">
    <path d="M 259.602176 204.910776 
L 270.473649 204.910776 
L 270.473649 177.328657 
L 259.602176 177.328657 
z
" clip-path="url(#p688dfbf21d)" style="fill: #d3d3e0"/>
   </g>
   <g id="patch_88">
    <path d="M 273.191517 177.070374 
L 284.062991 177.070374 
L 284.062991 160.207363 
L 273.191517 160.207363 
z
" clip-path="url(#p688dfbf21d)" style="fill: #d3d3e0"/>
   </g>
   <g id="patch_89">
    <path d="M 286.780859 181.545877 
L 297.652332 181.545877 
L 297.652332 176.676788 
L 286.780859 176.676788 
z
" clip-path="url(#p688dfbf21d)" style="fill: #d3d3e0"/>
   </g>
   <g id="patch_90">
    <path d="M 300.370201 229.301721 
L 311.241674 229.301721 
L 311.241674 198.124493 
L 300.370201 198.124493 
z
" clip-path="url(#p688dfbf21d)" style="fill: #d3d3e0"/>
   </g>
   <g id="patch_91">
    <path d="M 313.959543 220.812245 
L 324.831016 220.812245 
L 324.831016 196.354618 
L 313.959543 196.354618 
z
" clip-path="url(#p688dfbf21d)" style="fill: #d3d3e0"/>
   </g>
   <g id="patch_92">
    <path d="M 327.548884 229.282135 
L 338.420358 229.282135 
L 338.420358 207.20326 
L 327.548884 207.20326 
z
" clip-path="url(#p688dfbf21d)" style="fill: #d3d3e0"/>
   </g>
   <g id="patch_93">
    <path d="M 341.138226 185.159797 
L 352.009699 185.159797 
L 352.009699 148.721689 
L 341.138226 148.721689 
z
" clip-path="url(#p688dfbf21d)" style="fill: #d3d3e0"/>
   </g>
   <g id="patch_94">
    <path d="M 354.727568 187.060317 
L 365.599041 187.060317 
L 365.599041 145.9452 
L 354.727568 145.9452 
z
" clip-path="url(#p688dfbf21d)" style="fill: #d3d3e0"/>
   </g>
   <g id="patch_95">
    <path d="M 368.316909 178.540359 
L 379.188383 178.540359 
L 379.188383 129.062548 
L 368.316909 129.062548 
z
" clip-path="url(#p688dfbf21d)" style="fill: #d3d3e0"/>
   </g>
   <g id="patch_96">
    <path d="M 381.906251 197.755774 
L 392.777724 197.755774 
L 392.777724 147.274887 
L 381.906251 147.274887 
z
" clip-path="url(#p688dfbf21d)" style="fill: #d3d3e0"/>
   </g>
   <g id="patch_97">
    <path d="M 395.495593 219.195013 
L 406.367066 219.195013 
L 406.367066 174.229427 
L 395.495593 174.229427 
z
" clip-path="url(#p688dfbf21d)" style="fill: #d3d3e0"/>
   </g>
   <g id="patch_98">
    <path d="M 409.084934 217.711224 
L 419.956408 217.711224 
L 419.956408 167.620596 
L 409.084934 167.620596 
z
" clip-path="url(#p688dfbf21d)" style="fill: #d3d3e0"/>
   </g>
   <g id="patch_99">
    <path d="M 422.674276 215.43969 
L 433.545749 215.43969 
L 433.545749 155.357032 
L 422.674276 155.357032 
z
" clip-path="url(#p688dfbf21d)" style="fill: #d3d3e0"/>
   </g>
   <g id="patch_100">
    <path d="M 436.263618 198.405905 
L 447.135091 198.405905 
L 447.135091 119.942586 
L 436.263618 119.942586 
z
" clip-path="url(#p688dfbf21d)" style="fill: #d3d3e0"/>
   </g>
   <g id="patch_101">
    <path d="M 449.852959 211.877486 
L 460.724433 211.877486 
L 460.724433 134.461448 
L 449.852959 134.461448 
z
" clip-path="url(#p688dfbf21d)" style="fill: #d3d3e0"/>
   </g>
   <g id="patch_102">
    <path d="M 463.442301 227.577748 
L 474.313774 227.577748 
L 474.313774 145.794869 
L 463.442301 145.794869 
z
" clip-path="url(#p688dfbf21d)" style="fill: #d3d3e0"/>
   </g>
   <g id="patch_103">
    <path d="M 477.031643 214.24006 
L 487.903116 214.24006 
L 487.903116 142.534014 
L 477.031643 142.534014 
z
" clip-path="url(#p688dfbf21d)" style="fill: #d3d3e0"/>
   </g>
   <g id="patch_104">
    <path d="M 490.620985 221.150447 
L 501.492458 221.150447 
L 501.492458 182.535094 
L 490.620985 182.535094 
z
" clip-path="url(#p688dfbf21d)" style="fill: #d3d3e0"/>
   </g>
   <g id="patch_105">
    <path d="M 504.210326 217.342401 
L 515.0818 217.342401 
L 515.0818 156.195254 
L 504.210326 156.195254 
z
" clip-path="url(#p688dfbf21d)" style="fill: #d3d3e0"/>
   </g>
   <g id="patch_106">
    <path d="M 517.799668 239.779613 
L 528.671141 239.779613 
L 528.671141 177.682534 
L 517.799668 177.682534 
z
" clip-path="url(#p688dfbf21d)" style="fill: #d3d3e0"/>
   </g>
   <g id="patch_107">
    <path d="M 531.38901 235.048959 
L 542.260483 235.048959 
L 542.260483 174.201601 
L 531.38901 174.201601 
z
" clip-path="url(#p688dfbf21d)" style="fill: #d3d3e0"/>
   </g>
   <g id="patch_108">
    <path d="M 69.351392 105.736635 
L 80.222865 105.736635 
L 80.222865 61.018685 
L 69.351392 61.018685 
z
" clip-path="url(#p688dfbf21d)" style="fill: #8d9bff"/>
   </g>
   <g id="patch_109">
    <path d="M 82.940734 106.288895 
L 93.812207 106.288895 
L 93.812207 60.911134 
L 82.940734 60.911134 
z
" clip-path="url(#p688dfbf21d)" style="fill: #8d9bff"/>
   </g>
   <g id="patch_110">
    <path d="M 96.530075 122.770823 
L 107.401549 122.770823 
L 107.401549 66.544653 
L 96.530075 66.544653 
z
" clip-path="url(#p688dfbf21d)" style="fill: #8d9bff"/>
   </g>
   <g id="patch_111">
    <path d="M 110.119417 162.306217 
L 120.99089 162.306217 
L 120.99089 98.638962 
L 110.119417 98.638962 
z
" clip-path="url(#p688dfbf21d)" style="fill: #8d9bff"/>
   </g>
   <g id="patch_112">
    <path d="M 123.708759 208.799492 
L 134.580232 208.799492 
L 134.580232 142.48368 
L 123.708759 142.48368 
z
" clip-path="url(#p688dfbf21d)" style="fill: #8d9bff"/>
   </g>
   <g id="patch_113">
    <path d="M 137.298101 192.349511 
L 148.169574 192.349511 
L 148.169574 146.299508 
L 137.298101 146.299508 
z
" clip-path="url(#p688dfbf21d)" style="fill: #8d9bff"/>
   </g>
   <g id="patch_114">
    <path d="M 150.887442 173.662329 
L 161.758916 173.662329 
L 161.758916 131.302407 
L 150.887442 131.302407 
z
" clip-path="url(#p688dfbf21d)" style="fill: #8d9bff"/>
   </g>
   <g id="patch_115">
    <path d="M 164.476784 180.480598 
L 175.348257 180.480598 
L 175.348257 144.37465 
L 164.476784 144.37465 
z
" clip-path="url(#p688dfbf21d)" style="fill: #8d9bff"/>
   </g>
   <g id="patch_116">
    <path d="M 178.066126 193.089497 
L 188.937599 193.089497 
L 188.937599 167.012913 
L 178.066126 167.012913 
z
" clip-path="url(#p688dfbf21d)" style="fill: #8d9bff"/>
   </g>
   <g id="patch_117">
    <path d="M 191.655467 189.413111 
L 202.526941 189.413111 
L 202.526941 151.850751 
L 191.655467 151.850751 
z
" clip-path="url(#p688dfbf21d)" style="fill: #8d9bff"/>
   </g>
   <g id="patch_118">
    <path d="M 205.244809 206.892323 
L 216.116282 206.892323 
L 216.116282 172.12106 
L 205.244809 172.12106 
z
" clip-path="url(#p688dfbf21d)" style="fill: #8d9bff"/>
   </g>
   <g id="patch_119">
    <path d="M 218.834151 217.249635 
L 229.705624 217.249635 
L 229.705624 174.40996 
L 218.834151 174.40996 
z
" clip-path="url(#p688dfbf21d)" style="fill: #8d9bff"/>
   </g>
   <g id="patch_120">
    <path d="M 232.423492 203.949945 
L 243.294966 203.949945 
L 243.294966 165.687528 
L 232.423492 165.687528 
z
" clip-path="url(#p688dfbf21d)" style="fill: #8d9bff"/>
   </g>
   <g id="patch_121">
    <path d="M 246.012834 185.005663 
L 256.884307 185.005663 
L 256.884307 145.713131 
L 246.012834 145.713131 
z
" clip-path="url(#p688dfbf21d)" style="fill: #8d9bff"/>
   </g>
   <g id="patch_122">
    <path d="M 259.602176 177.328657 
L 270.473649 177.328657 
L 270.473649 136.233992 
L 259.602176 136.233992 
z
" clip-path="url(#p688dfbf21d)" style="fill: #8d9bff"/>
   </g>
   <g id="patch_123">
    <path d="M 273.191517 160.207363 
L 284.062991 160.207363 
L 284.062991 102.803968 
L 273.191517 102.803968 
z
" clip-path="url(#p688dfbf21d)" style="fill: #8d9bff"/>
   </g>
   <g id="patch_124">
    <path d="M 286.780859 176.676788 
L 297.652332 176.676788 
L 297.652332 139.79174 
L 286.780859 139.79174 
z
" clip-path="url(#p688dfbf21d)" style="fill: #8d9bff"/>
   </g>
   <g id="patch_125">
    <path d="M 300.370201 198.124493 
L 311.241674 198.124493 
L 311.241674 180.453871 
L 300.370201 180.453871 
z
" clip-path="url(#p688dfbf21d)" style="fill: #8d9bff"/>
   </g>
   <g id="patch_126">
    <path d="M 313.959543 196.354618 
L 324.831016 196.354618 
L 324.831016 172.670752 
L 313.959543 172.670752 
z
" clip-path="url(#p688dfbf21d)" style="fill: #8d9bff"/>
   </g>
   <g id="patch_127">
    <path d="M 327.548884 207.20326 
L 338.420358 207.20326 
L 338.420358 176.823485 
L 327.548884 176.823485 
z
" clip-path="url(#p688dfbf21d)" style="fill: #8d9bff"/>
   </g>
   <g id="patch_128">
    <path d="M 341.138226 148.721689 
L 352.009699 148.721689 
L 352.009699 100.851319 
L 341.138226 100.851319 
z
" clip-path="url(#p688dfbf21d)" style="fill: #8d9bff"/>
   </g>
   <g id="patch_129">
    <path d="M 354.727568 145.9452 
L 365.599041 145.9452 
L 365.599041 113.533111 
L 354.727568 113.533111 
z
" clip-path="url(#p688dfbf21d)" style="fill: #8d9bff"/>
   </g>
   <g id="patch_130">
    <path d="M 368.316909 129.062548 
L 379.188383 129.062548 
L 379.188383 108.640816 
L 368.316909 108.640816 
z
" clip-path="url(#p688dfbf21d)" style="fill: #8d9bff"/>
   </g>
   <g id="patch_131">
    <path d="M 381.906251 147.274887 
L 392.777724 147.274887 
L 392.777724 125.497543 
L 381.906251 125.497543 
z
" clip-path="url(#p688dfbf21d)" style="fill: #8d9bff"/>
   </g>
   <g id="patch_132">
    <path d="M 395.495593 174.229427 
L 406.367066 174.229427 
L 406.367066 160.561562 
L 395.495593 160.561562 
z
" clip-path="url(#p688dfbf21d)" style="fill: #8d9bff"/>
   </g>
   <g id="patch_133">
    <path d="M 409.084934 167.620596 
L 419.956408 167.620596 
L 419.956408 154.614578 
L 409.084934 154.614578 
z
" clip-path="url(#p688dfbf21d)" style="fill: #8d9bff"/>
   </g>
   <g id="patch_134">
    <path d="M 422.674276 155.357032 
L 433.545749 155.357032 
L 433.545749 138.637314 
L 422.674276 138.637314 
z
" clip-path="url(#p688dfbf21d)" style="fill: #8d9bff"/>
   </g>
   <g id="patch_135">
    <path d="M 436.263618 119.942586 
L 447.135091 119.942586 
L 447.135091 101.374807 
L 436.263618 101.374807 
z
" clip-path="url(#p688dfbf21d)" style="fill: #8d9bff"/>
   </g>
   <g id="patch_136">
    <path d="M 449.852959 134.461448 
L 460.724433 134.461448 
L 460.724433 119.990487 
L 449.852959 119.990487 
z
" clip-path="url(#p688dfbf21d)" style="fill: #8d9bff"/>
   </g>
   <g id="patch_137">
    <path d="M 463.442301 145.794869 
L 474.313774 145.794869 
L 474.313774 124.548688 
L 463.442301 124.548688 
z
" clip-path="url(#p688dfbf21d)" style="fill: #8d9bff"/>
   </g>
   <g id="patch_138">
    <path d="M 477.031643 142.534014 
L 487.903116 142.534014 
L 487.903116 120.709394 
L 477.031643 120.709394 
z
" clip-path="url(#p688dfbf21d)" style="fill: #8d9bff"/>
   </g>
   <g id="patch_139">
    <path d="M 490.620985 182.535094 
L 501.492458 182.535094 
L 501.492458 162.181338 
L 490.620985 162.181338 
z
" clip-path="url(#p688dfbf21d)" style="fill: #8d9bff"/>
   </g>
   <g id="patch_140">
    <path d="M 504.210326 156.195254 
L 515.0818 156.195254 
L 515.0818 139.131273 
L 504.210326 139.131273 
z
" clip-path="url(#p688dfbf21d)" style="fill: #8d9bff"/>
   </g>
   <g id="patch_141">
    <path d="M 517.799668 177.682534 
L 528.671141 177.682534 
L 528.671141 159.469457 
L 517.799668 159.469457 
z
" clip-path="url(#p688dfbf21d)" style="fill: #8d9bff"/>
   </g>
   <g id="patch_142">
    <path d="M 531.38901 174.201601 
L 542.260483 174.201601 
L 542.260483 159.497517 
L 531.38901 159.497517 
z
" clip-path="url(#p688dfbf21d)" style="fill: #8d9bff"/>
   </g>
   <g id="patch_143">
    <path d="M 69.351392 61.018685 
L 80.222865 61.018685 
L 80.222865 57.509598 
L 69.351392 57.509598 
z
" clip-path="url(#p688dfbf21d)" style="fill: #ff9750"/>
   </g>
   <g id="patch_144">
    <path d="M 82.940734 60.911134 
L 93.812207 60.911134 
L 93.812207 57.748375 
L 82.940734 57.748375 
z
" clip-path="url(#p688dfbf21d)" style="fill: #ff9750"/>
   </g>
   <g id="patch_145">
    <path d="M 96.530075 66.544653 
L 107.401549 66.544653 
L 107.401549 57.28 
L 96.530075 57.28 
z
" clip-path="url(#p688dfbf21d)" style="fill: #ff9750"/>
   </g>
   <g id="patch_146">
    <path d="M 110.119417 98.638962 
L 120.99089 98.638962 
L 120.99089 58.3864 
L 110.119417 58.3864 
z
" clip-path="url(#p688dfbf21d)" style="fill: #ff9750"/>
   </g>
   <g id="patch_147">
    <path d="M 123.708759 142.48368 
L 134.580232 142.48368 
L 134.580232 57.358023 
L 123.708759 57.358023 
z
" clip-path="url(#p688dfbf21d)" style="fill: #ff9750"/>
   </g>
   <g id="patch_148">
    <path d="M 137.298101 146.299508 
L 148.169574 146.299508 
L 148.169574 57.314517 
L 137.298101 57.314517 
z
" clip-path="url(#p688dfbf21d)" style="fill: #ff9750"/>
   </g>
   <g id="patch_149">
    <path d="M 150.887442 131.302407 
L 161.758916 131.302407 
L 161.758916 57.306466 
L 150.887442 57.306466 
z
" clip-path="url(#p688dfbf21d)" style="fill: #ff9750"/>
   </g>
   <g id="patch_150">
    <path d="M 164.476784 144.37465 
L 175.348257 144.37465 
L 175.348257 57.28 
L 164.476784 57.28 
z
" clip-path="url(#p688dfbf21d)" style="fill: #ff9750"/>
   </g>
   <g id="patch_151">
    <path d="M 178.066126 167.012913 
L 188.937599 167.012913 
L 188.937599 57.28 
L 178.066126 57.28 
z
" clip-path="url(#p688dfbf21d)" style="fill: #ff9750"/>
   </g>
   <g id="patch_152">
    <path d="M 191.655467 151.850751 
L 202.526941 151.850751 
L 202.526941 57.28 
L 191.655467 57.28 
z
" clip-path="url(#p688dfbf21d)" style="fill: #ff9750"/>
   </g>
   <g id="patch_153">
    <path d="M 205.244809 172.12106 
L 216.116282 172.12106 
L 216.116282 57.28 
L 205.244809 57.28 
z
" clip-path="url(#p688dfbf21d)" style="fill: #ff9750"/>
   </g>
   <g id="patch_154">
    <path d="M 218.834151 174.40996 
L 229.705624 174.40996 
L 229.705624 57.286358 
L 218.834151 57.286358 
z
" clip-path="url(#p688dfbf21d)" style="fill: #ff9750"/>
   </g>
   <g id="patch_155">
    <path d="M 232.423492 165.687528 
L 243.294966 165.687528 
L 243.294966 57.28 
L 232.423492 57.28 
z
" clip-path="url(#p688dfbf21d)" style="fill: #ff9750"/>
   </g>
   <g id="patch_156">
    <path d="M 246.012834 145.713131 
L 256.884307 145.713131 
L 256.884307 57.28 
L 246.012834 57.28 
z
" clip-path="url(#p688dfbf21d)" style="fill: #ff9750"/>
   </g>
   <g id="patch_157">
    <path d="M 259.602176 136.233992 
L 270.473649 136.233992 
L 270.473649 57.28 
L 259.602176 57.28 
z
" clip-path="url(#p688dfbf21d)" style="fill: #ff9750"/>
   </g>
   <g id="patch_158">
    <path d="M 273.191517 102.803968 
L 284.062991 102.803968 
L 284.062991 57.578758 
L 273.191517 57.578758 
z
" clip-path="url(#p688dfbf21d)" style="fill: #ff9750"/>
   </g>
   <g id="patch_159">
    <path d="M 286.780859 139.79174 
L 297.652332 139.79174 
L 297.652332 57.712656 
L 286.780859 57.712656 
z
" clip-path="url(#p688dfbf21d)" style="fill: #ff9750"/>
   </g>
   <g id="patch_160">
    <path d="M 300.370201 180.453871 
L 311.241674 180.453871 
L 311.241674 57.597658 
L 300.370201 57.597658 
z
" clip-path="url(#p688dfbf21d)" style="fill: #ff9750"/>
   </g>
   <g id="patch_161">
    <path d="M 313.959543 172.670752 
L 324.831016 172.670752 
L 324.831016 57.658791 
L 313.959543 57.658791 
z
" clip-path="url(#p688dfbf21d)" style="fill: #ff9750"/>
   </g>
   <g id="patch_162">
    <path d="M 327.548884 176.823485 
L 338.420358 176.823485 
L 338.420358 58.129661 
L 327.548884 58.129661 
z
" clip-path="url(#p688dfbf21d)" style="fill: #ff9750"/>
   </g>
   <g id="patch_163">
    <path d="M 341.138226 100.851319 
L 352.009699 100.851319 
L 352.009699 57.994001 
L 341.138226 57.994001 
z
" clip-path="url(#p688dfbf21d)" style="fill: #ff9750"/>
   </g>
   <g id="patch_164">
    <path d="M 354.727568 113.533111 
L 365.599041 113.533111 
L 365.599041 58.566887 
L 354.727568 58.566887 
z
" clip-path="url(#p688dfbf21d)" style="fill: #ff9750"/>
   </g>
   <g id="patch_165">
    <path d="M 368.316909 108.640816 
L 379.188383 108.640816 
L 379.188383 60.026341 
L 368.316909 60.026341 
z
" clip-path="url(#p688dfbf21d)" style="fill: #ff9750"/>
   </g>
   <g id="patch_166">
    <path d="M 381.906251 125.497543 
L 392.777724 125.497543 
L 392.777724 60.8989 
L 381.906251 60.8989 
z
" clip-path="url(#p688dfbf21d)" style="fill: #ff9750"/>
   </g>
   <g id="patch_167">
    <path d="M 395.495593 160.561562 
L 406.367066 160.561562 
L 406.367066 59.600784 
L 395.495593 59.600784 
z
" clip-path="url(#p688dfbf21d)" style="fill: #ff9750"/>
   </g>
   <g id="patch_168">
    <path d="M 409.084934 154.614578 
L 419.956408 154.614578 
L 419.956408 59.312047 
L 409.084934 59.312047 
z
" clip-path="url(#p688dfbf21d)" style="fill: #ff9750"/>
   </g>
   <g id="patch_169">
    <path d="M 422.674276 138.637314 
L 433.545749 138.637314 
L 433.545749 60.054087 
L 422.674276 60.054087 
z
" clip-path="url(#p688dfbf21d)" style="fill: #ff9750"/>
   </g>
   <g id="patch_170">
    <path d="M 436.263618 101.374807 
L 447.135091 101.374807 
L 447.135091 59.207393 
L 436.263618 59.207393 
z
" clip-path="url(#p688dfbf21d)" style="fill: #ff9750"/>
   </g>
   <g id="patch_171">
    <path d="M 449.852959 119.990487 
L 460.724433 119.990487 
L 460.724433 58.813853 
L 449.852959 58.813853 
z
" clip-path="url(#p688dfbf21d)" style="fill: #ff9750"/>
   </g>
   <g id="patch_172">
    <path d="M 463.442301 124.548688 
L 474.313774 124.548688 
L 474.313774 58.706856 
L 463.442301 58.706856 
z
" clip-path="url(#p688dfbf21d)" style="fill: #ff9750"/>
   </g>
   <g id="patch_173">
    <path d="M 477.031643 120.709394 
L 487.903116 120.709394 
L 487.903116 58.715992 
L 477.031643 58.715992 
z
" clip-path="url(#p688dfbf21d)" style="fill: #ff9750"/>
   </g>
   <g id="patch_174">
    <path d="M 490.620985 162.181338 
L 501.492458 162.181338 
L 501.492458 58.617257 
L 490.620985 58.617257 
z
" clip-path="url(#p688dfbf21d)" style="fill: #ff9750"/>
   </g>
   <g id="patch_175">
    <path d="M 504.210326 139.131273 
L 515.0818 139.131273 
L 515.0818 58.590283 
L 504.210326 58.590283 
z
" clip-path="url(#p688dfbf21d)" style="fill: #ff9750"/>
   </g>
   <g id="patch_176">
    <path d="M 517.799668 159.469457 
L 528.671141 159.469457 
L 528.671141 58.649825 
L 517.799668 58.649825 
z
" clip-path="url(#p688dfbf21d)" style="fill: #ff9750"/>
   </g>
   <g id="patch_177">
    <path d="M 531.38901 159.497517 
L 542.260483 159.497517 
L 542.260483 58.703671 
L 531.38901 58.703671 
z
" clip-path="url(#p688dfbf21d)" style="fill: #ff9750"/>
   </g>
   <g id="patch_178">
    <path d="M 69.351392 57.509598 
L 80.222865 57.509598 
L 80.222865 57.509598 
L 69.351392 57.509598 
z
" clip-path="url(#p688dfbf21d)" style="fill: #9fc1ad"/>
   </g>
   <g id="patch_179">
    <path d="M 82.940734 57.748375 
L 93.812207 57.748375 
L 93.812207 57.748375 
L 82.940734 57.748375 
z
" clip-path="url(#p688dfbf21d)" style="fill: #9fc1ad"/>
   </g>
   <g id="patch_180">
    <path d="M 96.530075 57.28 
L 107.401549 57.28 
L 107.401549 57.28 
L 96.530075 57.28 
z
" clip-path="url(#p688dfbf21d)" style="fill: #9fc1ad"/>
   </g>
   <g id="patch_181">
    <path d="M 110.119417 58.3864 
L 120.99089 58.3864 
L 120.99089 58.3864 
L 110.119417 58.3864 
z
" clip-path="url(#p688dfbf21d)" style="fill: #9fc1ad"/>
   </g>
   <g id="patch_182">
    <path d="M 123.708759 57.358023 
L 134.580232 57.358023 
L 134.580232 57.358023 
L 123.708759 57.358023 
z
" clip-path="url(#p688dfbf21d)" style="fill: #9fc1ad"/>
   </g>
   <g id="patch_183">
    <path d="M 137.298101 57.314517 
L 148.169574 57.314517 
L 148.169574 57.314517 
L 137.298101 57.314517 
z
" clip-path="url(#p688dfbf21d)" style="fill: #9fc1ad"/>
   </g>
   <g id="patch_184">
    <path d="M 150.887442 57.306466 
L 161.758916 57.306466 
L 161.758916 57.306466 
L 150.887442 57.306466 
z
" clip-path="url(#p688dfbf21d)" style="fill: #9fc1ad"/>
   </g>
   <g id="patch_185">
    <path d="M 164.476784 57.28 
L 175.348257 57.28 
L 175.348257 57.28 
L 164.476784 57.28 
z
" clip-path="url(#p688dfbf21d)" style="fill: #9fc1ad"/>
   </g>
   <g id="patch_186">
    <path d="M 178.066126 57.28 
L 188.937599 57.28 
L 188.937599 57.28 
L 178.066126 57.28 
z
" clip-path="url(#p688dfbf21d)" style="fill: #9fc1ad"/>
   </g>
   <g id="patch_187">
    <path d="M 191.655467 57.28 
L 202.526941 57.28 
L 202.526941 57.28 
L 191.655467 57.28 
z
" clip-path="url(#p688dfbf21d)" style="fill: #9fc1ad"/>
   </g>
   <g id="patch_188">
    <path d="M 205.244809 57.28 
L 216.116282 57.28 
L 216.116282 57.28 
L 205.244809 57.28 
z
" clip-path="url(#p688dfbf21d)" style="fill: #9fc1ad"/>
   </g>
   <g id="patch_189">
    <path d="M 218.834151 57.286358 
L 229.705624 57.286358 
L 229.705624 57.286358 
L 218.834151 57.286358 
z
" clip-path="url(#p688dfbf21d)" style="fill: #9fc1ad"/>
   </g>
   <g id="patch_190">
    <path d="M 232.423492 57.28 
L 243.294966 57.28 
L 243.294966 57.28 
L 232.423492 57.28 
z
" clip-path="url(#p688dfbf21d)" style="fill: #9fc1ad"/>
   </g>
   <g id="patch_191">
    <path d="M 246.012834 57.28 
L 256.884307 57.28 
L 256.884307 57.28 
L 246.012834 57.28 
z
" clip-path="url(#p688dfbf21d)" style="fill: #9fc1ad"/>
   </g>
   <g id="patch_192">
    <path d="M 259.602176 57.28 
L 270.473649 57.28 
L 270.473649 57.28 
L 259.602176 57.28 
z
" clip-path="url(#p688dfbf21d)" style="fill: #9fc1ad"/>
   </g>
   <g id="patch_193">
    <path d="M 273.191517 57.578758 
L 284.062991 57.578758 
L 284.062991 57.438352 
L 273.191517 57.438352 
z
" clip-path="url(#p688dfbf21d)" style="fill: #9fc1ad"/>
   </g>
   <g id="patch_194">
    <path d="M 286.780859 57.712656 
L 297.652332 57.712656 
L 297.652332 57.28 
L 286.780859 57.28 
z
" clip-path="url(#p688dfbf21d)" style="fill: #9fc1ad"/>
   </g>
   <g id="patch_195">
    <path d="M 300.370201 57.597658 
L 311.241674 57.597658 
L 311.241674 57.41776 
L 300.370201 57.41776 
z
" clip-path="url(#p688dfbf21d)" style="fill: #9fc1ad"/>
   </g>
   <g id="patch_196">
    <path d="M 313.959543 57.658791 
L 324.831016 57.658791 
L 324.831016 57.28 
L 313.959543 57.28 
z
" clip-path="url(#p688dfbf21d)" style="fill: #9fc1ad"/>
   </g>
   <g id="patch_197">
    <path d="M 327.548884 58.129661 
L 338.420358 58.129661 
L 338.420358 57.28 
L 327.548884 57.28 
z
" clip-path="url(#p688dfbf21d)" style="fill: #9fc1ad"/>
   </g>
   <g id="patch_198">
    <path d="M 341.138226 57.994001 
L 352.009699 57.994001 
L 352.009699 57.28 
L 341.138226 57.28 
z
" clip-path="url(#p688dfbf21d)" style="fill: #9fc1ad"/>
   </g>
   <g id="patch_199">
    <path d="M 354.727568 58.566887 
L 365.599041 58.566887 
L 365.599041 57.28 
L 354.727568 57.28 
z
" clip-path="url(#p688dfbf21d)" style="fill: #9fc1ad"/>
   </g>
   <g id="patch_200">
    <path d="M 368.316909 60.026341 
L 379.188383 60.026341 
L 379.188383 57.28 
L 368.316909 57.28 
z
" clip-path="url(#p688dfbf21d)" style="fill: #9fc1ad"/>
   </g>
   <g id="patch_201">
    <path d="M 381.906251 60.8989 
L 392.777724 60.8989 
L 392.777724 57.28 
L 381.906251 57.28 
z
" clip-path="url(#p688dfbf21d)" style="fill: #9fc1ad"/>
   </g>
   <g id="patch_202">
    <path d="M 395.495593 59.600784 
L 406.367066 59.600784 
L 406.367066 57.28 
L 395.495593 57.28 
z
" clip-path="url(#p688dfbf21d)" style="fill: #9fc1ad"/>
   </g>
   <g id="patch_203">
    <path d="M 409.084934 59.312047 
L 419.956408 59.312047 
L 419.956408 57.28 
L 409.084934 57.28 
z
" clip-path="url(#p688dfbf21d)" style="fill: #9fc1ad"/>
   </g>
   <g id="patch_204">
    <path d="M 422.674276 60.054087 
L 433.545749 60.054087 
L 433.545749 57.28 
L 422.674276 57.28 
z
" clip-path="url(#p688dfbf21d)" style="fill: #9fc1ad"/>
   </g>
   <g id="patch_205">
    <path d="M 436.263618 59.207393 
L 447.135091 59.207393 
L 447.135091 57.28 
L 436.263618 57.28 
z
" clip-path="url(#p688dfbf21d)" style="fill: #9fc1ad"/>
   </g>
   <g id="patch_206">
    <path d="M 449.852959 58.813853 
L 460.724433 58.813853 
L 460.724433 57.28 
L 449.852959 57.28 
z
" clip-path="url(#p688dfbf21d)" style="fill: #9fc1ad"/>
   </g>
   <g id="patch_207">
    <path d="M 463.442301 58.706856 
L 474.313774 58.706856 
L 474.313774 57.28 
L 463.442301 57.28 
z
" clip-path="url(#p688dfbf21d)" style="fill: #9fc1ad"/>
   </g>
   <g id="patch_208">
    <path d="M 477.031643 58.715992 
L 487.903116 58.715992 
L 487.903116 57.28 
L 477.031643 57.28 
z
" clip-path="url(#p688dfbf21d)" style="fill: #9fc1ad"/>
   </g>
   <g id="patch_209">
    <path d="M 490.620985 58.617257 
L 501.492458 58.617257 
L 501.492458 57.28 
L 490.620985 57.28 
z
" clip-path="url(#p688dfbf21d)" style="fill: #9fc1ad"/>
   </g>
   <g id="patch_210">
    <path d="M 504.210326 58.590283 
L 515.0818 58.590283 
L 515.0818 57.28 
L 504.210326 57.28 
z
" clip-path="url(#p688dfbf21d)" style="fill: #9fc1ad"/>
   </g>
   <g id="patch_211">
    <path d="M 517.799668 58.649825 
L 528.671141 58.649825 
L 528.671141 57.28 
L 517.799668 57.28 
z
" clip-path="url(#p688dfbf21d)" style="fill: #9fc1ad"/>
   </g>
   <g id="patch_212">
    <path d="M 531.38901 58.703671 
L 542.260483 58.703671 
L 542.260483 57.28 
L 531.38901 57.28 
z
" clip-path="url(#p688dfbf21d)" style="fill: #9fc1ad"/>
   </g>
   <g id="patch_213">
    <path d="M 69.351392 57.509598 
L 80.222865 57.509598 
L 80.222865 57.28 
L 69.351392 57.28 
z
" clip-path="url(#p688dfbf21d)" style="fill: #b5e0ea"/>
   </g>
   <g id="patch_214">
    <path d="M 82.940734 57.748375 
L 93.812207 57.748375 
L 93.812207 57.28 
L 82.940734 57.28 
z
" clip-path="url(#p688dfbf21d)" style="fill: #b5e0ea"/>
   </g>
   <g id="patch_215">
    <path d="M 0 0 
z
" clip-path="url(#p688dfbf21d)" style="fill: #b5e0ea"/>
   </g>
   <g id="patch_216">
    <path d="M 110.119417 58.3864 
L 120.99089 58.3864 
L 120.99089 57.28 
L 110.119417 57.28 
z
" clip-path="url(#p688dfbf21d)" style="fill: #b5e0ea"/>
   </g>
   <g id="patch_217">
    <path d="M 123.708759 57.358023 
L 134.580232 57.358023 
L 134.580232 57.28 
L 123.708759 57.28 
z
" clip-path="url(#p688dfbf21d)" style="fill: #b5e0ea"/>
   </g>
   <g id="patch_218">
    <path d="M 137.298101 57.314517 
L 148.169574 57.314517 
L 148.169574 57.28 
L 137.298101 57.28 
z
" clip-path="url(#p688dfbf21d)" style="fill: #b5e0ea"/>
   </g>
   <g id="patch_219">
    <path d="M 150.887442 57.306466 
L 161.758916 57.306466 
L 161.758916 57.28 
L 150.887442 57.28 
z
" clip-path="url(#p688dfbf21d)" style="fill: #b5e0ea"/>
   </g>
   <g id="patch_220">
    <path d="M 164.476784 57.28 
L 175.348257 57.28 
L 175.348257 57.28 
L 164.476784 57.28 
z
" clip-path="url(#p688dfbf21d)" style="fill: #b5e0ea"/>
   </g>
   <g id="patch_221">
    <path d="M 178.066126 57.28 
L 188.937599 57.28 
L 188.937599 57.28 
L 178.066126 57.28 
z
" clip-path="url(#p688dfbf21d)" style="fill: #b5e0ea"/>
   </g>
   <g id="patch_222">
    <path d="M 191.655467 57.28 
L 202.526941 57.28 
L 202.526941 57.28 
L 191.655467 57.28 
z
" clip-path="url(#p688dfbf21d)" style="fill: #b5e0ea"/>
   </g>
   <g id="patch_223">
    <path d="M 205.244809 57.28 
L 216.116282 57.28 
L 216.116282 57.28 
L 205.244809 57.28 
z
" clip-path="url(#p688dfbf21d)" style="fill: #b5e0ea"/>
   </g>
   <g id="patch_224">
    <path d="M 218.834151 57.286358 
L 229.705624 57.286358 
L 229.705624 57.28 
L 218.834151 57.28 
z
" clip-path="url(#p688dfbf21d)" style="fill: #b5e0ea"/>
   </g>
   <g id="patch_225">
    <path d="M 232.423492 57.28 
L 243.294966 57.28 
L 243.294966 57.28 
L 232.423492 57.28 
z
" clip-path="url(#p688dfbf21d)" style="fill: #b5e0ea"/>
   </g>
   <g id="patch_226">
    <path d="M 246.012834 57.28 
L 256.884307 57.28 
L 256.884307 57.28 
L 246.012834 57.28 
z
" clip-path="url(#p688dfbf21d)" style="fill: #b5e0ea"/>
   </g>
   <g id="patch_227">
    <path d="M 259.602176 57.28 
L 270.473649 57.28 
L 270.473649 57.28 
L 259.602176 57.28 
z
" clip-path="url(#p688dfbf21d)" style="fill: #b5e0ea"/>
   </g>
   <g id="patch_228">
    <path d="M 273.191517 57.438352 
L 284.062991 57.438352 
L 284.062991 57.28 
L 273.191517 57.28 
z
" clip-path="url(#p688dfbf21d)" style="fill: #b5e0ea"/>
   </g>
   <g id="patch_229">
    <path d="M 286.780859 57.28 
L 297.652332 57.28 
L 297.652332 57.28 
L 286.780859 57.28 
z
" clip-path="url(#p688dfbf21d)" style="fill: #b5e0ea"/>
   </g>
   <g id="patch_230">
    <path d="M 300.370201 57.41776 
L 311.241674 57.41776 
L 311.241674 57.28 
L 300.370201 57.28 
z
" clip-path="url(#p688dfbf21d)" style="fill: #b5e0ea"/>
   </g>
   <g id="patch_231">
    <path d="M 313.959543 57.28 
L 324.831016 57.28 
L 324.831016 57.28 
L 313.959543 57.28 
z
" clip-path="url(#p688dfbf21d)" style="fill: #b5e0ea"/>
   </g>
   <g id="patch_232">
    <path d="M 327.548884 57.28 
L 338.420358 57.28 
L 338.420358 57.28 
L 327.548884 57.28 
z
" clip-path="url(#p688dfbf21d)" style="fill: #b5e0ea"/>
   </g>
   <g id="patch_233">
    <path d="M 341.138226 57.28 
L 352.009699 57.28 
L 352.009699 57.28 
L 341.138226 57.28 
z
" clip-path="url(#p688dfbf21d)" style="fill: #b5e0ea"/>
   </g>
   <g id="patch_234">
    <path d="M 354.727568 57.28 
L 365.599041 57.28 
L 365.599041 57.28 
L 354.727568 57.28 
z
" clip-path="url(#p688dfbf21d)" style="fill: #b5e0ea"/>
   </g>
   <g id="patch_235">
    <path d="M 368.316909 57.28 
L 379.188383 57.28 
L 379.188383 57.28 
L 368.316909 57.28 
z
" clip-path="url(#p688dfbf21d)" style="fill: #b5e0ea"/>
   </g>
   <g id="patch_236">
    <path d="M 381.906251 57.28 
L 392.777724 57.28 
L 392.777724 57.28 
L 381.906251 57.28 
z
" clip-path="url(#p688dfbf21d)" style="fill: #b5e0ea"/>
   </g>
   <g id="patch_237">
    <path d="M 395.495593 57.28 
L 406.367066 57.28 
L 406.367066 57.28 
L 395.495593 57.28 
z
" clip-path="url(#p688dfbf21d)" style="fill: #b5e0ea"/>
   </g>
   <g id="patch_238">
    <path d="M 409.084934 57.28 
L 419.956408 57.28 
L 419.956408 57.28 
L 409.084934 57.28 
z
" clip-path="url(#p688dfbf21d)" style="fill: #b5e0ea"/>
   </g>
   <g id="patch_239">
    <path d="M 422.674276 57.28 
L 433.545749 57.28 
L 433.545749 57.28 
L 422.674276 57.28 
z
" clip-path="url(#p688dfbf21d)" style="fill: #b5e0ea"/>
   </g>
   <g id="patch_240">
    <path d="M 436.263618 57.28 
L 447.135091 57.28 
L 447.135091 57.28 
L 436.263618 57.28 
z
" clip-path="url(#p688dfbf21d)" style="fill: #b5e0ea"/>
   </g>
   <g id="patch_241">
    <path d="M 449.852959 57.28 
L 460.724433 57.28 
L 460.724433 57.28 
L 449.852959 57.28 
z
" clip-path="url(#p688dfbf21d)" style="fill: #b5e0ea"/>
   </g>
   <g id="patch_242">
    <path d="M 463.442301 57.28 
L 474.313774 57.28 
L 474.313774 57.28 
L 463.442301 57.28 
z
" clip-path="url(#p688dfbf21d)" style="fill: #b5e0ea"/>
   </g>
   <g id="patch_243">
    <path d="M 477.031643 57.28 
L 487.903116 57.28 
L 487.903116 57.28 
L 477.031643 57.28 
z
" clip-path="url(#p688dfbf21d)" style="fill: #b5e0ea"/>
   </g>
   <g id="patch_244">
    <path d="M 490.620985 57.28 
L 501.492458 57.28 
L 501.492458 57.28 
L 490.620985 57.28 
z
" clip-path="url(#p688dfbf21d)" style="fill: #b5e0ea"/>
   </g>
   <g id="patch_245">
    <path d="M 504.210326 57.28 
L 515.0818 57.28 
L 515.0818 57.28 
L 504.210326 57.28 
z
" clip-path="url(#p688dfbf21d)" style="fill: #b5e0ea"/>
   </g>
   <g id="patch_246">
    <path d="M 517.799668 57.28 
L 528.671141 57.28 
L 528.671141 57.28 
L 517.799668 57.28 
z
" clip-path="url(#p688dfbf21d)" style="fill: #b5e0ea"/>
   </g>
   <g id="patch_247">
    <path d="M 531.38901 57.28 
L 542.260483 57.28 
L 542.260483 57.28 
L 531.38901 57.28 
z
" clip-path="url(#p688dfbf21d)" style="fill: #b5e0ea"/>
   </g>
   <g id="matplotlib.axis_1">
    <g id="xtick_1">
     <g id="line2d_1">
      <defs>
       <path id="mdd53918767" d="M 0 0 
L 0 3.5 
" style="stroke: #000000; stroke-width: 0.8"/>
      </defs>
      <g>
       <use xlink:href="#mdd53918767" x="88.37647" y="332.68" style="stroke: #000000; stroke-width: 0.8"/>
      </g>
     </g>
     <g id="text_1">
      <!-- 1990 -->
      <g transform="translate(76.05733 347.632656) scale(0.11 -0.11)">
       <defs>
        <path id="Archivo-Regular-31" d="M 429 0 
L 429 480 
L 1536 480 
L 1536 3520 
L 422 3520 
L 422 3878 
Q 659 3898 912 3949 
Q 1165 4000 1408 4112 
Q 1651 4224 1850 4403 
L 2106 4403 
L 2106 480 
L 3149 480 
L 3149 0 
L 429 0 
z
" transform="scale(0.015625)"/>
        <path id="Archivo-Regular-39" d="M 1760 -77 
Q 1293 -77 998 102 
Q 704 282 569 589 
Q 435 896 435 1280 
L 1011 1280 
Q 1011 986 1097 787 
Q 1184 589 1357 493 
Q 1530 397 1792 397 
Q 2182 397 2390 598 
Q 2598 800 2681 1184 
Q 2765 1568 2771 2099 
Q 2688 1958 2521 1833 
Q 2355 1709 2134 1635 
Q 1914 1562 1664 1562 
Q 1190 1562 883 1750 
Q 576 1939 425 2265 
Q 275 2592 275 2995 
Q 275 3443 467 3772 
Q 659 4102 992 4284 
Q 1325 4467 1741 4467 
Q 2118 4467 2419 4358 
Q 2720 4250 2928 4006 
Q 3136 3763 3245 3350 
Q 3354 2938 3354 2323 
Q 3354 1651 3248 1190 
Q 3142 730 2937 451 
Q 2733 173 2435 48 
Q 2138 -77 1760 -77 
z
M 1779 2029 
Q 2093 2029 2301 2163 
Q 2509 2298 2611 2522 
Q 2714 2746 2714 3021 
Q 2714 3290 2614 3510 
Q 2515 3731 2307 3862 
Q 2099 3994 1786 3994 
Q 1472 3994 1267 3856 
Q 1062 3718 963 3494 
Q 864 3270 864 2989 
Q 864 2726 960 2508 
Q 1056 2291 1257 2160 
Q 1459 2029 1779 2029 
z
" transform="scale(0.015625)"/>
        <path id="Archivo-Regular-30" d="M 1837 -77 
Q 1478 -77 1196 28 
Q 915 134 716 393 
Q 518 653 416 1091 
Q 314 1530 314 2195 
Q 314 2861 416 3299 
Q 518 3738 716 3997 
Q 915 4256 1196 4361 
Q 1478 4467 1837 4467 
Q 2195 4467 2473 4361 
Q 2752 4256 2950 3997 
Q 3149 3738 3251 3299 
Q 3354 2861 3354 2195 
Q 3354 1530 3251 1091 
Q 3149 653 2950 393 
Q 2752 134 2473 28 
Q 2195 -77 1837 -77 
z
M 1837 397 
Q 2202 397 2403 582 
Q 2605 768 2685 1133 
Q 2765 1498 2765 2042 
L 2765 2336 
Q 2765 2886 2685 3254 
Q 2605 3622 2403 3808 
Q 2202 3994 1837 3994 
Q 1472 3994 1267 3808 
Q 1062 3622 982 3257 
Q 902 2893 902 2342 
L 902 2054 
Q 902 1510 982 1139 
Q 1062 768 1267 582 
Q 1472 397 1837 397 
z
" transform="scale(0.015625)"/>
       </defs>
       <use xlink:href="#Archivo-Regular-31"/>
       <use xlink:href="#Archivo-Regular-39" x="52.099991"/>
       <use xlink:href="#Archivo-Regular-39" x="109.399979"/>
       <use xlink:href="#Archivo-Regular-30" x="166.699966"/>
      </g>
     </g>
    </g>
    <g id="xtick_2">
     <g id="line2d_2">
      <g>
       <use xlink:href="#mdd53918767" x="156.323179" y="332.68" style="stroke: #000000; stroke-width: 0.8"/>
      </g>
     </g>
     <g id="text_2">
      <!-- 1995 -->
      <g transform="translate(144.01521 347.632656) scale(0.11 -0.11)">
       <defs>
        <path id="Archivo-Regular-35" d="M 1856 -77 
Q 1395 -77 1049 96 
Q 704 269 512 592 
Q 320 915 320 1363 
L 890 1363 
Q 890 1062 1018 844 
Q 1146 627 1366 512 
Q 1587 397 1856 397 
Q 2131 397 2342 509 
Q 2554 621 2672 851 
Q 2790 1082 2790 1434 
Q 2790 1754 2681 1962 
Q 2573 2170 2371 2272 
Q 2170 2374 1907 2374 
Q 1715 2374 1542 2313 
Q 1370 2253 1232 2144 
Q 1094 2035 1005 1875 
L 474 1958 
L 659 4390 
L 3149 4390 
L 3149 3866 
L 1152 3866 
L 1050 2496 
Q 1158 2592 1296 2672 
Q 1434 2752 1613 2800 
Q 1792 2848 2022 2848 
Q 2400 2848 2707 2701 
Q 3014 2554 3193 2246 
Q 3373 1939 3373 1453 
Q 3373 973 3190 627 
Q 3008 282 2669 102 
Q 2330 -77 1856 -77 
z
" transform="scale(0.015625)"/>
       </defs>
       <use xlink:href="#Archivo-Regular-31"/>
       <use xlink:href="#Archivo-Regular-39" x="52.099991"/>
       <use xlink:href="#Archivo-Regular-39" x="109.399979"/>
       <use xlink:href="#Archivo-Regular-35" x="166.699966"/>
      </g>
     </g>
    </g>
    <g id="xtick_3">
     <g id="line2d_3">
      <g>
       <use xlink:href="#mdd53918767" x="224.269887" y="332.68" style="stroke: #000000; stroke-width: 0.8"/>
      </g>
     </g>
     <g id="text_3">
      <!-- 2000 -->
      <g transform="translate(211.697231 347.632656) scale(0.11 -0.11)">
       <defs>
        <path id="Archivo-Regular-32" d="M 320 0 
L 320 186 
Q 320 454 425 681 
Q 531 909 707 1097 
Q 883 1286 1107 1459 
Q 1331 1632 1562 1798 
Q 1875 2016 2140 2233 
Q 2406 2451 2566 2704 
Q 2726 2957 2726 3270 
Q 2726 3469 2633 3632 
Q 2541 3795 2355 3891 
Q 2170 3987 1882 3987 
Q 1542 3987 1337 3872 
Q 1133 3757 1040 3565 
Q 947 3373 947 3142 
L 947 2880 
L 390 2880 
Q 384 2912 377 2979 
Q 371 3046 371 3136 
Q 371 3610 582 3901 
Q 794 4192 1146 4329 
Q 1498 4467 1907 4467 
Q 2272 4467 2534 4368 
Q 2797 4269 2969 4096 
Q 3142 3923 3225 3702 
Q 3309 3482 3309 3238 
Q 3309 2938 3203 2688 
Q 3098 2438 2909 2224 
Q 2720 2010 2467 1811 
Q 2214 1613 1920 1408 
Q 1715 1274 1516 1123 
Q 1318 973 1177 819 
Q 1037 666 998 525 
L 3334 525 
L 3334 0 
L 320 0 
z
" transform="scale(0.015625)"/>
       </defs>
       <use xlink:href="#Archivo-Regular-32"/>
       <use xlink:href="#Archivo-Regular-30" x="56.699997"/>
       <use xlink:href="#Archivo-Regular-30" x="113.999985"/>
       <use xlink:href="#Archivo-Regular-30" x="171.299973"/>
      </g>
     </g>
    </g>
    <g id="xtick_4">
     <g id="line2d_4">
      <g>
       <use xlink:href="#mdd53918767" x="292.216596" y="332.68" style="stroke: #000000; stroke-width: 0.8"/>
      </g>
     </g>
     <g id="text_4">
      <!-- 2005 -->
      <g transform="translate(279.655111 347.632656) scale(0.11 -0.11)">
       <use xlink:href="#Archivo-Regular-32"/>
       <use xlink:href="#Archivo-Regular-30" x="56.699997"/>
       <use xlink:href="#Archivo-Regular-30" x="113.999985"/>
       <use xlink:href="#Archivo-Regular-35" x="171.299973"/>
      </g>
     </g>
    </g>
    <g id="xtick_5">
     <g id="line2d_5">
      <g>
       <use xlink:href="#mdd53918767" x="360.163304" y="332.68" style="stroke: #000000; stroke-width: 0.8"/>
      </g>
     </g>
     <g id="text_5">
      <!-- 2010 -->
      <g transform="translate(347.87682 347.632656) scale(0.11 -0.11)">
       <use xlink:href="#Archivo-Regular-32"/>
       <use xlink:href="#Archivo-Regular-30" x="56.699997"/>
       <use xlink:href="#Archivo-Regular-31" x="113.999985"/>
       <use xlink:href="#Archivo-Regular-30" x="166.099976"/>
      </g>
     </g>
    </g>
    <g id="xtick_6">
     <g id="line2d_6">
      <g>
       <use xlink:href="#mdd53918767" x="428.110013" y="332.68" style="stroke: #000000; stroke-width: 0.8"/>
      </g>
     </g>
     <g id="text_6">
      <!-- 2015 -->
      <g transform="translate(415.8347 347.632656) scale(0.11 -0.11)">
       <use xlink:href="#Archivo-Regular-32"/>
       <use xlink:href="#Archivo-Regular-30" x="56.699997"/>
       <use xlink:href="#Archivo-Regular-31" x="113.999985"/>
       <use xlink:href="#Archivo-Regular-35" x="166.099976"/>
      </g>
     </g>
    </g>
    <g id="xtick_7">
     <g id="line2d_7">
      <g>
       <use xlink:href="#mdd53918767" x="496.056721" y="332.68" style="stroke: #000000; stroke-width: 0.8"/>
      </g>
     </g>
     <g id="text_7">
      <!-- 2020 -->
      <g transform="translate(483.516721 347.632656) scale(0.11 -0.11)">
       <use xlink:href="#Archivo-Regular-32"/>
       <use xlink:href="#Archivo-Regular-30" x="56.699997"/>
       <use xlink:href="#Archivo-Regular-32" x="113.999985"/>
       <use xlink:href="#Archivo-Regular-30" x="170.699982"/>
      </g>
     </g>
    </g>
    <g id="xtick_8">
     <g id="line2d_8">
      <g>
       <use xlink:href="#mdd53918767" x="564.00343" y="332.68" style="stroke: #000000; stroke-width: 0.8"/>
      </g>
     </g>
     <g id="text_8">
      <!-- 2025 -->
      <g transform="translate(551.474602 347.632656) scale(0.11 -0.11)">
       <use xlink:href="#Archivo-Regular-32"/>
       <use xlink:href="#Archivo-Regular-30" x="56.699997"/>
       <use xlink:href="#Archivo-Regular-32" x="113.999985"/>
       <use xlink:href="#Archivo-Regular-35" x="170.699982"/>
      </g>
     </g>
    </g>
    <g id="text_9">
     <!-- Ao -->
     <g transform="translate(296.730938 360.765) scale(0.1 -0.1)">
      <defs>
       <path id="Archivo-Regular-41" d="M 45 0 
L 1779 4390 
L 2579 4390 
L 4320 0 
L 3661 0 
L 3232 1088 
L 1094 1088 
L 672 0 
L 45 0 
z
M 1293 1606 
L 3027 1606 
L 2496 2982 
Q 2477 3040 2438 3142 
Q 2400 3245 2355 3369 
Q 2310 3494 2265 3625 
Q 2221 3757 2182 3866 
L 2144 3866 
Q 2099 3738 2041 3571 
Q 1984 3405 1926 3248 
Q 1869 3091 1830 2982 
L 1293 1606 
z
" transform="scale(0.015625)"/>
       <path id="Archivo-Regular-f1" d="M 442 0 
L 442 3366 
L 896 3366 
L 947 2861 
L 992 2861 
Q 1126 3066 1296 3194 
Q 1466 3322 1674 3382 
Q 1882 3443 2118 3443 
Q 2438 3443 2678 3334 
Q 2918 3226 3056 2982 
Q 3194 2739 3194 2323 
L 3194 0 
L 2630 0 
L 2630 2246 
Q 2630 2458 2576 2592 
Q 2522 2726 2429 2803 
Q 2336 2880 2205 2912 
Q 2074 2944 1914 2944 
Q 1677 2944 1465 2829 
Q 1254 2714 1129 2496 
Q 1005 2278 1005 1978 
L 1005 0 
L 442 0 
z
M 794 3981 
Q 800 4154 857 4298 
Q 915 4442 1036 4525 
Q 1158 4608 1344 4608 
Q 1510 4608 1664 4557 
Q 1818 4506 1965 4448 
Q 2112 4390 2253 4390 
Q 2349 4390 2400 4448 
Q 2451 4506 2464 4608 
L 2822 4608 
Q 2822 4435 2761 4294 
Q 2701 4154 2579 4067 
Q 2458 3981 2266 3981 
Q 2112 3981 1955 4035 
Q 1798 4090 1654 4144 
Q 1510 4198 1370 4198 
Q 1267 4198 1216 4140 
Q 1165 4083 1152 3981 
L 794 3981 
z
" transform="scale(0.015625)"/>
       <path id="Archivo-Regular-6f" d="M 1824 -77 
Q 1312 -77 963 112 
Q 614 301 432 691 
Q 250 1082 250 1683 
Q 250 2291 432 2678 
Q 614 3066 963 3254 
Q 1312 3443 1824 3443 
Q 2336 3443 2685 3254 
Q 3034 3066 3213 2678 
Q 3392 2291 3392 1683 
Q 3392 1082 3213 691 
Q 3034 301 2685 112 
Q 2336 -77 1824 -77 
z
M 1824 397 
Q 2150 397 2368 525 
Q 2586 653 2698 925 
Q 2810 1197 2810 1613 
L 2810 1754 
Q 2810 2176 2698 2445 
Q 2586 2714 2368 2842 
Q 2150 2970 1824 2970 
Q 1498 2970 1277 2842 
Q 1056 2714 947 2445 
Q 838 2176 838 1754 
L 838 1613 
Q 838 1197 947 925 
Q 1056 653 1277 525 
Q 1498 397 1824 397 
z
" transform="scale(0.015625)"/>
      </defs>
      <use xlink:href="#Archivo-Regular-41"/>
      <use xlink:href="#Archivo-Regular-f1" x="68.199982"/>
      <use xlink:href="#Archivo-Regular-6f" x="124.499969"/>
     </g>
    </g>
   </g>
   <g id="matplotlib.axis_2">
    <g id="ytick_1">
     <g id="line2d_9">
      <path d="M 45.705938 332.68 
L 565.905938 332.68 
" clip-path="url(#p688dfbf21d)" style="fill: none; stroke: #b0b0b0; stroke-width: 0.5; stroke-linecap: square"/>
     </g>
     <g id="line2d_10">
      <defs>
       <path id="mcf5907ec26" d="M 0 0 
L -3.5 0 
" style="stroke: #000000; stroke-width: 0.8"/>
      </defs>
      <g>
       <use xlink:href="#mcf5907ec26" x="45.705938" y="332.68" style="stroke: #000000; stroke-width: 0.8"/>
      </g>
     </g>
     <g id="text_10">
      <!-- 0 -->
      <g transform="translate(32.403281 336.656328) scale(0.11 -0.11)">
       <use xlink:href="#Archivo-Regular-30"/>
      </g>
     </g>
    </g>
    <g id="ytick_2">
     <g id="line2d_11">
      <path d="M 45.705938 277.6 
L 565.905938 277.6 
" clip-path="url(#p688dfbf21d)" style="fill: none; stroke: #b0b0b0; stroke-width: 0.5; stroke-linecap: square"/>
     </g>
     <g id="line2d_12">
      <g>
       <use xlink:href="#mcf5907ec26" x="45.705938" y="277.6" style="stroke: #000000; stroke-width: 0.8"/>
      </g>
     </g>
     <g id="text_11">
      <!-- 20 -->
      <g transform="translate(26.165938 281.576328) scale(0.11 -0.11)">
       <use xlink:href="#Archivo-Regular-32"/>
       <use xlink:href="#Archivo-Regular-30" x="56.699997"/>
      </g>
     </g>
    </g>
    <g id="ytick_3">
     <g id="line2d_13">
      <path d="M 45.705938 222.52 
L 565.905938 222.52 
" clip-path="url(#p688dfbf21d)" style="fill: none; stroke: #b0b0b0; stroke-width: 0.5; stroke-linecap: square"/>
     </g>
     <g id="line2d_14">
      <g>
       <use xlink:href="#mcf5907ec26" x="45.705938" y="222.52" style="stroke: #000000; stroke-width: 0.8"/>
      </g>
     </g>
     <g id="text_12">
      <!-- 40 -->
      <g transform="translate(26.298281 226.496328) scale(0.11 -0.11)">
       <defs>
        <path id="Archivo-Regular-34" d="M 2221 0 
L 2221 1075 
L 179 1075 
L 179 1549 
Q 448 2010 669 2477 
Q 890 2944 1066 3437 
Q 1242 3930 1357 4467 
L 1958 4467 
Q 1875 4115 1753 3747 
Q 1632 3379 1485 3033 
Q 1338 2688 1194 2387 
Q 1050 2086 925 1868 
Q 800 1651 723 1549 
L 2221 1549 
L 2221 2944 
Q 2259 3046 2300 3158 
Q 2342 3270 2380 3388 
Q 2419 3507 2451 3612 
Q 2483 3718 2502 3814 
L 2784 3814 
L 2784 1549 
L 3366 1549 
L 3366 1075 
L 2784 1075 
L 2784 0 
L 2221 0 
z
" transform="scale(0.015625)"/>
       </defs>
       <use xlink:href="#Archivo-Regular-34"/>
       <use xlink:href="#Archivo-Regular-30" x="55.499985"/>
      </g>
     </g>
    </g>
    <g id="ytick_4">
     <g id="line2d_15">
      <path d="M 45.705938 167.44 
L 565.905938 167.44 
" clip-path="url(#p688dfbf21d)" style="fill: none; stroke: #b0b0b0; stroke-width: 0.5; stroke-linecap: square"/>
     </g>
     <g id="line2d_16">
      <g>
       <use xlink:href="#mcf5907ec26" x="45.705938" y="167.44" style="stroke: #000000; stroke-width: 0.8"/>
      </g>
     </g>
     <g id="text_13">
      <!-- 60 -->
      <g transform="translate(26.100625 171.416328) scale(0.11 -0.11)">
       <defs>
        <path id="Archivo-Regular-36" d="M 1920 -77 
Q 1542 -77 1244 32 
Q 947 141 739 384 
Q 531 627 422 1040 
Q 314 1453 314 2067 
Q 314 2746 422 3203 
Q 531 3661 732 3939 
Q 934 4218 1232 4342 
Q 1530 4467 1907 4467 
Q 2381 4467 2672 4288 
Q 2963 4109 3097 3805 
Q 3232 3501 3232 3110 
L 2656 3110 
Q 2656 3405 2573 3603 
Q 2490 3802 2314 3898 
Q 2138 3994 1875 3994 
Q 1491 3994 1276 3792 
Q 1062 3590 982 3206 
Q 902 2822 896 2291 
Q 986 2438 1149 2560 
Q 1312 2682 1536 2755 
Q 1760 2829 2010 2829 
Q 2483 2829 2790 2640 
Q 3098 2451 3245 2124 
Q 3392 1798 3392 1395 
Q 3392 954 3200 621 
Q 3008 288 2675 105 
Q 2342 -77 1920 -77 
z
M 1882 397 
Q 2195 397 2400 534 
Q 2605 672 2704 899 
Q 2803 1126 2803 1402 
Q 2803 1664 2707 1881 
Q 2611 2099 2409 2230 
Q 2208 2362 1894 2362 
Q 1581 2362 1369 2227 
Q 1158 2093 1056 1872 
Q 954 1651 954 1370 
Q 954 1107 1056 883 
Q 1158 659 1363 528 
Q 1568 397 1882 397 
z
" transform="scale(0.015625)"/>
       </defs>
       <use xlink:href="#Archivo-Regular-36"/>
       <use xlink:href="#Archivo-Regular-30" x="57.299988"/>
      </g>
     </g>
    </g>
    <g id="ytick_5">
     <g id="line2d_17">
      <path d="M 45.705938 112.36 
L 565.905938 112.36 
" clip-path="url(#p688dfbf21d)" style="fill: none; stroke: #b0b0b0; stroke-width: 0.5; stroke-linecap: square"/>
     </g>
     <g id="line2d_18">
      <g>
       <use xlink:href="#mcf5907ec26" x="45.705938" y="112.36" style="stroke: #000000; stroke-width: 0.8"/>
      </g>
     </g>
     <g id="text_14">
      <!-- 80 -->
      <g transform="translate(26.088594 116.336328) scale(0.11 -0.11)">
       <defs>
        <path id="Archivo-Regular-38" d="M 1837 -77 
Q 1293 -77 953 96 
Q 614 269 457 557 
Q 301 845 301 1197 
Q 301 1555 480 1830 
Q 659 2106 1043 2253 
Q 736 2413 579 2675 
Q 422 2938 422 3258 
Q 422 3597 579 3869 
Q 736 4141 1053 4304 
Q 1370 4467 1837 4467 
Q 2304 4467 2617 4304 
Q 2931 4141 3091 3869 
Q 3251 3597 3251 3258 
Q 3251 2938 3091 2675 
Q 2931 2413 2624 2253 
Q 3014 2106 3190 1830 
Q 3366 1555 3366 1197 
Q 3366 845 3209 557 
Q 3053 269 2717 96 
Q 2381 -77 1837 -77 
z
M 1837 390 
Q 2304 390 2541 608 
Q 2778 826 2778 1203 
Q 2778 1574 2541 1792 
Q 2304 2010 1837 2010 
Q 1370 2010 1130 1792 
Q 890 1574 890 1203 
Q 890 826 1130 608 
Q 1370 390 1837 390 
z
M 1837 2477 
Q 2227 2477 2451 2678 
Q 2675 2880 2675 3245 
Q 2675 3603 2451 3801 
Q 2227 4000 1837 4000 
Q 1446 4000 1222 3801 
Q 998 3603 998 3245 
Q 998 2880 1222 2678 
Q 1446 2477 1837 2477 
z
" transform="scale(0.015625)"/>
       </defs>
       <use xlink:href="#Archivo-Regular-38"/>
       <use xlink:href="#Archivo-Regular-30" x="57.399994"/>
      </g>
     </g>
    </g>
    <g id="ytick_6">
     <g id="line2d_19">
      <path d="M 45.705938 57.28 
L 565.905938 57.28 
" clip-path="url(#p688dfbf21d)" style="fill: none; stroke: #b0b0b0; stroke-width: 0.5; stroke-linecap: square"/>
     </g>
     <g id="line2d_20">
      <g>
       <use xlink:href="#mcf5907ec26" x="45.705938" y="57.28" style="stroke: #000000; stroke-width: 0.8"/>
      </g>
     </g>
     <g id="text_15">
      <!-- 100 -->
      <g transform="translate(20.370313 61.256328) scale(0.11 -0.11)">
       <use xlink:href="#Archivo-Regular-31"/>
       <use xlink:href="#Archivo-Regular-30" x="52.099991"/>
       <use xlink:href="#Archivo-Regular-30" x="109.399979"/>
      </g>
     </g>
    </g>
    <g id="text_16">
     <!-- Porcentaje [%] -->
     <g transform="translate(14.55 227.784687) rotate(-90) scale(0.1 -0.1)">
      <defs>
       <path id="Archivo-Regular-50" d="M 550 0 
L 550 4390 
L 2720 4390 
Q 3174 4390 3475 4220 
Q 3776 4051 3926 3750 
Q 4077 3450 4077 3053 
Q 4077 2650 3910 2339 
Q 3744 2029 3440 1856 
Q 3136 1683 2714 1683 
L 1158 1683 
L 1158 0 
L 550 0 
z
M 1158 2208 
L 2675 2208 
Q 3034 2208 3248 2432 
Q 3462 2656 3462 3046 
Q 3462 3309 3372 3488 
Q 3283 3667 3110 3766 
Q 2938 3866 2675 3866 
L 1158 3866 
L 1158 2208 
z
" transform="scale(0.015625)"/>
       <path id="Archivo-Regular-72" d="M 442 0 
L 442 3366 
L 896 3366 
L 947 2810 
L 992 2810 
Q 1043 2970 1132 3114 
Q 1222 3258 1376 3350 
Q 1530 3443 1754 3443 
Q 1850 3443 1930 3427 
Q 2010 3411 2048 3392 
L 2048 2874 
L 1837 2874 
Q 1619 2874 1462 2800 
Q 1306 2726 1203 2592 
Q 1101 2458 1053 2272 
Q 1005 2086 1005 1875 
L 1005 0 
L 442 0 
z
" transform="scale(0.015625)"/>
       <path id="Archivo-Regular-63" d="M 1722 -77 
Q 1235 -77 905 112 
Q 576 301 406 694 
Q 237 1088 237 1683 
Q 237 2278 406 2668 
Q 576 3059 912 3251 
Q 1248 3443 1741 3443 
Q 2086 3443 2339 3353 
Q 2592 3264 2758 3091 
Q 2925 2918 3005 2675 
Q 3085 2432 3085 2118 
L 2515 2118 
Q 2515 2413 2435 2601 
Q 2355 2790 2182 2883 
Q 2010 2976 1728 2976 
Q 1446 2976 1241 2851 
Q 1037 2726 928 2457 
Q 819 2189 819 1747 
L 819 1613 
Q 819 1197 924 921 
Q 1030 646 1235 518 
Q 1440 390 1734 390 
Q 2022 390 2198 492 
Q 2374 595 2454 787 
Q 2534 979 2534 1248 
L 3085 1248 
Q 3085 966 3005 723 
Q 2925 480 2758 301 
Q 2592 122 2336 22 
Q 2080 -77 1722 -77 
z
" transform="scale(0.015625)"/>
       <path id="Archivo-Regular-65" d="M 1786 -77 
Q 1286 -77 944 112 
Q 602 301 426 691 
Q 250 1082 250 1683 
Q 250 2291 426 2678 
Q 602 3066 947 3254 
Q 1293 3443 1811 3443 
Q 2285 3443 2605 3260 
Q 2925 3078 3088 2716 
Q 3251 2355 3251 1811 
L 3251 1542 
L 832 1542 
Q 845 1139 950 880 
Q 1056 621 1267 502 
Q 1478 384 1798 384 
Q 2016 384 2179 438 
Q 2342 493 2454 595 
Q 2566 698 2624 838 
Q 2682 979 2688 1146 
L 3238 1146 
Q 3232 877 3136 649 
Q 3040 422 2854 262 
Q 2669 102 2400 12 
Q 2131 -77 1786 -77 
z
M 845 1965 
L 2669 1965 
Q 2669 2246 2605 2438 
Q 2541 2630 2422 2752 
Q 2304 2874 2147 2928 
Q 1990 2982 1792 2982 
Q 1498 2982 1293 2873 
Q 1088 2765 979 2541 
Q 870 2317 845 1965 
z
" transform="scale(0.015625)"/>
       <path id="Archivo-Regular-6e" d="M 442 0 
L 442 3366 
L 896 3366 
L 947 2861 
L 992 2861 
Q 1126 3066 1296 3194 
Q 1466 3322 1674 3382 
Q 1882 3443 2118 3443 
Q 2438 3443 2678 3334 
Q 2918 3226 3056 2982 
Q 3194 2739 3194 2323 
L 3194 0 
L 2630 0 
L 2630 2246 
Q 2630 2458 2576 2592 
Q 2522 2726 2429 2803 
Q 2336 2880 2205 2912 
Q 2074 2944 1914 2944 
Q 1677 2944 1465 2829 
Q 1254 2714 1129 2496 
Q 1005 2278 1005 1978 
L 1005 0 
L 442 0 
z
" transform="scale(0.015625)"/>
       <path id="Archivo-Regular-74" d="M 1229 -77 
Q 966 -77 819 22 
Q 672 122 608 285 
Q 544 448 544 634 
L 544 2893 
L 109 2893 
L 109 3366 
L 557 3366 
L 659 4307 
L 1107 4307 
L 1107 3366 
L 1741 3366 
L 1741 2893 
L 1107 2893 
L 1107 717 
Q 1107 557 1164 477 
Q 1222 397 1382 397 
L 1741 397 
L 1741 26 
Q 1677 -6 1587 -25 
Q 1498 -45 1405 -61 
Q 1312 -77 1229 -77 
z
" transform="scale(0.015625)"/>
       <path id="Archivo-Regular-61" d="M 1286 -77 
Q 1101 -77 915 -32 
Q 730 13 570 115 
Q 410 218 314 400 
Q 218 582 218 858 
Q 218 1203 384 1427 
Q 550 1651 848 1776 
Q 1146 1901 1555 1949 
Q 1965 1997 2445 1997 
L 2445 2381 
Q 2445 2566 2381 2700 
Q 2317 2835 2153 2908 
Q 1990 2982 1690 2982 
Q 1402 2982 1232 2908 
Q 1062 2835 995 2720 
Q 928 2605 928 2464 
L 928 2368 
L 384 2368 
Q 378 2400 378 2432 
Q 378 2464 378 2509 
Q 378 2816 547 3024 
Q 717 3232 1024 3337 
Q 1331 3443 1728 3443 
Q 2150 3443 2435 3321 
Q 2720 3200 2864 2976 
Q 3008 2752 3008 2438 
L 3008 614 
Q 3008 493 3065 445 
Q 3123 397 3206 397 
L 3456 397 
L 3456 26 
Q 3366 -13 3257 -41 
Q 3149 -70 3008 -70 
Q 2842 -70 2733 -3 
Q 2624 64 2566 182 
Q 2509 301 2490 448 
L 2445 448 
Q 2330 288 2154 169 
Q 1978 51 1760 -13 
Q 1542 -77 1286 -77 
z
M 1427 397 
Q 1632 397 1814 461 
Q 1997 525 2137 643 
Q 2278 762 2361 928 
Q 2445 1094 2445 1293 
L 2445 1574 
Q 1926 1574 1561 1516 
Q 1197 1459 1001 1312 
Q 806 1165 806 896 
Q 806 723 883 614 
Q 960 506 1101 451 
Q 1242 397 1427 397 
z
" transform="scale(0.015625)"/>
       <path id="Archivo-Regular-6a" d="M 442 4000 
L 442 4627 
L 1005 4627 
L 1005 4000 
L 442 4000 
z
M 294 -1165 
Q 224 -1165 141 -1155 
Q 58 -1146 -19 -1130 
Q -96 -1114 -147 -1094 
L -147 -704 
L 141 -704 
Q 288 -704 365 -624 
Q 442 -544 442 -397 
L 442 3366 
L 1005 3366 
L 1005 -410 
Q 1005 -602 941 -774 
Q 877 -947 726 -1056 
Q 576 -1165 294 -1165 
z
" transform="scale(0.015625)"/>
       <path id="Archivo-Regular-20" transform="scale(0.015625)"/>
       <path id="Archivo-Regular-5b" d="M 595 -1030 
L 595 4704 
L 1798 4704 
L 1798 4288 
L 1101 4288 
L 1101 -614 
L 1798 -614 
L 1798 -1030 
L 595 -1030 
z
" transform="scale(0.015625)"/>
       <path id="Archivo-Regular-25" d="M 1210 0 
L 4378 4390 
L 4890 4390 
L 1715 0 
L 1210 0 
z
M 1562 2157 
Q 1261 2157 1040 2262 
Q 819 2368 704 2617 
Q 589 2867 589 3309 
Q 589 3757 704 4006 
Q 819 4256 1040 4361 
Q 1261 4467 1562 4467 
Q 1869 4467 2080 4361 
Q 2291 4256 2409 4006 
Q 2528 3757 2528 3309 
Q 2528 2867 2409 2614 
Q 2291 2362 2080 2259 
Q 1869 2157 1562 2157 
z
M 1562 2534 
Q 1850 2534 1946 2729 
Q 2042 2925 2042 3277 
L 2042 3341 
Q 2042 3578 2003 3744 
Q 1965 3910 1859 4000 
Q 1754 4090 1562 4090 
Q 1280 4090 1177 3894 
Q 1075 3699 1075 3341 
L 1075 3277 
Q 1075 2925 1177 2729 
Q 1280 2534 1562 2534 
z
M 4531 -77 
Q 4230 -77 4012 28 
Q 3795 134 3680 384 
Q 3565 634 3565 1075 
Q 3565 1523 3680 1772 
Q 3795 2022 4012 2128 
Q 4230 2234 4531 2234 
Q 4838 2234 5052 2128 
Q 5267 2022 5382 1772 
Q 5498 1523 5498 1075 
Q 5498 634 5382 381 
Q 5267 128 5052 25 
Q 4838 -77 4531 -77 
z
M 4531 301 
Q 4826 301 4918 496 
Q 5011 691 5011 1050 
L 5011 1107 
Q 5011 1344 4972 1510 
Q 4934 1677 4832 1766 
Q 4730 1856 4531 1856 
Q 4250 1856 4150 1661 
Q 4051 1466 4051 1107 
L 4051 1050 
Q 4051 691 4150 496 
Q 4250 301 4531 301 
z
" transform="scale(0.015625)"/>
       <path id="Archivo-Regular-5d" d="M 1299 4704 
L 1299 -1030 
L 96 -1030 
L 96 -614 
L 794 -614 
L 794 4288 
L 96 4288 
L 96 4704 
L 1299 4704 
z
" transform="scale(0.015625)"/>
      </defs>
      <use xlink:href="#Archivo-Regular-50"/>
      <use xlink:href="#Archivo-Regular-6f" x="66.499985"/>
      <use xlink:href="#Archivo-Regular-72" x="123.499969"/>
      <use xlink:href="#Archivo-Regular-63" x="156.699966"/>
      <use xlink:href="#Archivo-Regular-65" x="208.59996"/>
      <use xlink:href="#Archivo-Regular-6e" x="263.399948"/>
      <use xlink:href="#Archivo-Regular-74" x="319.699936"/>
      <use xlink:href="#Archivo-Regular-61" x="349.399933"/>
      <use xlink:href="#Archivo-Regular-6a" x="403.899918"/>
      <use xlink:href="#Archivo-Regular-65" x="426.199905"/>
      <use xlink:href="#Archivo-Regular-20" x="480.999893"/>
      <use xlink:href="#Archivo-Regular-5b" x="501.899887"/>
      <use xlink:href="#Archivo-Regular-25" x="531.499878"/>
      <use xlink:href="#Archivo-Regular-5d" x="626.499863"/>
     </g>
    </g>
   </g>
   <g id="patch_248">
    <path d="M 45.705938 332.68 
L 45.705938 57.28 
" style="fill: none; stroke: #000000; stroke-width: 0.8; stroke-linejoin: miter; stroke-linecap: square"/>
   </g>
   <g id="patch_249">
    <path d="M 45.705937 332.68 
L 565.905937 332.68 
" style="fill: none; stroke: #000000; stroke-width: 0.8; stroke-linejoin: miter; stroke-linecap: square"/>
   </g>
   <g id="legend_1">
    <g id="patch_250">
     <path d="M 108.005938 18.429687 
L 128.005938 18.429687 
L 128.005938 11.429687 
L 108.005938 11.429687 
z
" style="fill: #7bb5c4"/>
    </g>
    <g id="text_17">
     <!-- Arrastreros -->
     <g transform="translate(136.005938 18.429687) scale(0.1 -0.1)">
      <defs>
       <path id="Archivo-Regular-73" d="M 1619 -77 
Q 1274 -77 1011 -6 
Q 749 64 576 198 
Q 403 333 313 518 
Q 224 704 224 941 
Q 224 973 224 1001 
Q 224 1030 230 1050 
L 787 1050 
Q 781 1024 781 1005 
Q 781 986 781 966 
Q 787 742 899 614 
Q 1011 486 1209 435 
Q 1408 384 1651 384 
Q 1862 384 2041 438 
Q 2221 493 2326 605 
Q 2432 717 2432 890 
Q 2432 1101 2294 1213 
Q 2157 1325 1933 1389 
Q 1709 1453 1466 1523 
Q 1261 1581 1056 1651 
Q 851 1722 688 1824 
Q 525 1926 425 2089 
Q 326 2253 326 2502 
Q 326 2726 419 2899 
Q 512 3072 685 3193 
Q 858 3315 1104 3376 
Q 1350 3437 1651 3437 
Q 1971 3437 2211 3366 
Q 2451 3296 2611 3168 
Q 2771 3040 2848 2877 
Q 2925 2714 2925 2528 
Q 2925 2490 2925 2454 
Q 2925 2419 2918 2400 
L 2368 2400 
L 2368 2470 
Q 2368 2598 2301 2716 
Q 2234 2835 2070 2908 
Q 1907 2982 1619 2982 
Q 1434 2982 1299 2953 
Q 1165 2925 1075 2864 
Q 986 2803 941 2723 
Q 896 2643 896 2541 
Q 896 2374 1005 2284 
Q 1114 2195 1296 2137 
Q 1478 2080 1690 2010 
Q 1914 1946 2147 1878 
Q 2381 1811 2576 1708 
Q 2771 1606 2889 1430 
Q 3008 1254 3008 966 
Q 3008 698 2905 499 
Q 2803 301 2614 173 
Q 2426 45 2173 -16 
Q 1920 -77 1619 -77 
z
" transform="scale(0.015625)"/>
      </defs>
      <use xlink:href="#Archivo-Regular-41"/>
      <use xlink:href="#Archivo-Regular-72" x="68.199982"/>
      <use xlink:href="#Archivo-Regular-72" x="101.399979"/>
      <use xlink:href="#Archivo-Regular-61" x="134.599976"/>
      <use xlink:href="#Archivo-Regular-73" x="189.09996"/>
      <use xlink:href="#Archivo-Regular-74" x="240.099945"/>
      <use xlink:href="#Archivo-Regular-72" x="269.799942"/>
      <use xlink:href="#Archivo-Regular-65" x="302.999939"/>
      <use xlink:href="#Archivo-Regular-72" x="357.799927"/>
      <use xlink:href="#Archivo-Regular-6f" x="390.999924"/>
      <use xlink:href="#Archivo-Regular-73" x="447.999908"/>
     </g>
    </g>
    <g id="patch_251">
     <path d="M 108.005938 32.389062 
L 128.005938 32.389062 
L 128.005938 25.389062 
L 108.005938 25.389062 
z
" style="fill: #ffd900"/>
    </g>
    <g id="text_18">
     <!-- Palangreros -->
     <g transform="translate(136.005938 32.389062) scale(0.1 -0.1)">
      <defs>
       <path id="Archivo-Regular-6c" d="M 442 0 
L 442 4627 
L 1005 4627 
L 1005 0 
L 442 0 
z
" transform="scale(0.015625)"/>
       <path id="Archivo-Regular-67" d="M 1011 -1165 
Q 768 -1165 563 -1065 
Q 358 -966 236 -780 
Q 115 -595 115 -339 
Q 115 -58 272 128 
Q 429 314 646 403 
Q 486 480 396 617 
Q 307 755 307 922 
Q 307 1146 470 1299 
Q 634 1453 870 1504 
Q 653 1645 528 1865 
Q 403 2086 403 2355 
Q 403 2675 553 2918 
Q 704 3162 1014 3302 
Q 1325 3443 1773 3443 
Q 1978 3443 2157 3414 
Q 2336 3386 2477 3322 
Q 2701 3424 2813 3584 
Q 2925 3744 2950 3910 
L 3507 3910 
Q 3507 3718 3420 3548 
Q 3334 3379 3187 3267 
Q 3040 3155 2829 3117 
Q 2989 2963 3069 2771 
Q 3149 2579 3149 2355 
Q 3149 2035 2998 1788 
Q 2848 1542 2547 1401 
Q 2246 1261 1792 1261 
L 1267 1261 
Q 1094 1261 985 1193 
Q 877 1126 877 979 
Q 877 851 985 771 
Q 1094 691 1267 691 
L 2637 691 
Q 3008 691 3245 444 
Q 3482 198 3482 -186 
Q 3482 -461 3344 -681 
Q 3206 -902 2960 -1033 
Q 2714 -1165 2387 -1165 
L 1011 -1165 
z
M 1171 -736 
L 2381 -736 
Q 2528 -736 2649 -675 
Q 2771 -614 2841 -505 
Q 2912 -397 2912 -269 
Q 2912 -51 2784 77 
Q 2656 205 2464 205 
L 1171 205 
Q 966 205 825 67 
Q 685 -70 685 -269 
Q 685 -480 825 -608 
Q 966 -736 1171 -736 
z
M 1779 1683 
Q 2189 1683 2387 1862 
Q 2586 2042 2586 2355 
Q 2586 2662 2387 2841 
Q 2189 3021 1779 3021 
Q 1370 3021 1168 2841 
Q 966 2662 966 2355 
Q 966 2157 1056 2003 
Q 1146 1850 1325 1766 
Q 1504 1683 1779 1683 
z
" transform="scale(0.015625)"/>
      </defs>
      <use xlink:href="#Archivo-Regular-50"/>
      <use xlink:href="#Archivo-Regular-61" x="66.499985"/>
      <use xlink:href="#Archivo-Regular-6c" x="120.999969"/>
      <use xlink:href="#Archivo-Regular-61" x="143.499954"/>
      <use xlink:href="#Archivo-Regular-6e" x="197.999939"/>
      <use xlink:href="#Archivo-Regular-67" x="254.299927"/>
      <use xlink:href="#Archivo-Regular-72" x="309.899918"/>
      <use xlink:href="#Archivo-Regular-65" x="343.099915"/>
      <use xlink:href="#Archivo-Regular-72" x="397.899902"/>
      <use xlink:href="#Archivo-Regular-6f" x="431.099899"/>
      <use xlink:href="#Archivo-Regular-73" x="488.099884"/>
     </g>
    </g>
    <g id="patch_252">
     <path d="M 209.915313 18.429687 
L 229.915313 18.429687 
L 229.915313 11.429687 
L 209.915313 11.429687 
z
" style="fill: #d3d3e0"/>
    </g>
    <g id="text_19">
     <!-- Tangoneros -->
     <g transform="translate(237.915313 18.429687) scale(0.1 -0.1)">
      <defs>
       <path id="Archivo-Regular-54" d="M 1626 0 
L 1626 3859 
L 122 3859 
L 122 4390 
L 3750 4390 
L 3750 3859 
L 2234 3859 
L 2234 0 
L 1626 0 
z
" transform="scale(0.015625)"/>
      </defs>
      <use xlink:href="#Archivo-Regular-54"/>
      <use xlink:href="#Archivo-Regular-61" x="60.599991"/>
      <use xlink:href="#Archivo-Regular-6e" x="115.099976"/>
      <use xlink:href="#Archivo-Regular-67" x="171.399963"/>
      <use xlink:href="#Archivo-Regular-6f" x="226.999954"/>
      <use xlink:href="#Archivo-Regular-6e" x="283.999939"/>
      <use xlink:href="#Archivo-Regular-65" x="340.299927"/>
      <use xlink:href="#Archivo-Regular-72" x="395.099915"/>
      <use xlink:href="#Archivo-Regular-6f" x="428.299911"/>
      <use xlink:href="#Archivo-Regular-73" x="485.299896"/>
     </g>
    </g>
    <g id="patch_253">
     <path d="M 209.915313 32.479687 
L 229.915313 32.479687 
L 229.915313 25.479687 
L 209.915313 25.479687 
z
" style="fill: #8d9bff"/>
    </g>
    <g id="text_20">
     <!-- Surimeros -->
     <g transform="translate(237.915313 32.479687) scale(0.1 -0.1)">
      <defs>
       <path id="Archivo-Regular-53" d="M 2163 -77 
Q 1805 -77 1475 -6 
Q 1146 64 890 221 
Q 634 378 483 627 
Q 333 877 333 1242 
Q 333 1274 336 1306 
Q 339 1338 339 1370 
L 954 1370 
Q 954 1350 950 1308 
Q 947 1267 947 1235 
Q 947 979 1100 800 
Q 1254 621 1526 534 
Q 1798 448 2144 448 
Q 2298 448 2467 467 
Q 2637 486 2793 534 
Q 2950 582 3075 662 
Q 3200 742 3273 860 
Q 3347 979 3347 1152 
Q 3347 1370 3222 1514 
Q 3098 1658 2893 1750 
Q 2688 1843 2429 1916 
Q 2170 1990 1894 2060 
Q 1619 2131 1360 2224 
Q 1101 2317 896 2454 
Q 691 2592 566 2797 
Q 442 3002 442 3296 
Q 442 3571 554 3788 
Q 666 4006 886 4156 
Q 1107 4307 1433 4387 
Q 1760 4467 2182 4467 
Q 2528 4467 2825 4393 
Q 3123 4320 3350 4169 
Q 3578 4019 3706 3788 
Q 3834 3558 3834 3232 
L 3834 3155 
L 3232 3155 
L 3232 3251 
Q 3232 3469 3097 3622 
Q 2963 3776 2729 3859 
Q 2496 3942 2202 3942 
Q 1818 3942 1562 3868 
Q 1306 3795 1181 3657 
Q 1056 3520 1056 3347 
Q 1056 3149 1181 3014 
Q 1306 2880 1510 2793 
Q 1715 2707 1977 2636 
Q 2240 2566 2512 2492 
Q 2784 2419 3043 2326 
Q 3302 2234 3510 2096 
Q 3718 1958 3840 1750 
Q 3962 1542 3962 1242 
Q 3962 774 3731 483 
Q 3501 192 3097 57 
Q 2694 -77 2163 -77 
z
" transform="scale(0.015625)"/>
       <path id="Archivo-Regular-75" d="M 1485 -77 
Q 998 -77 704 172 
Q 410 422 410 1043 
L 410 3366 
L 973 3366 
L 973 1120 
Q 973 909 1024 774 
Q 1075 640 1171 563 
Q 1267 486 1398 454 
Q 1530 422 1683 422 
Q 1926 422 2131 537 
Q 2336 653 2467 873 
Q 2598 1094 2598 1389 
L 2598 3366 
L 3162 3366 
L 3162 0 
L 2707 0 
L 2656 506 
L 2611 506 
Q 2477 301 2307 173 
Q 2138 45 1930 -16 
Q 1722 -77 1485 -77 
z
" transform="scale(0.015625)"/>
       <path id="Archivo-Regular-69" d="M 442 4000 
L 442 4627 
L 1005 4627 
L 1005 4000 
L 442 4000 
z
M 442 0 
L 442 3366 
L 1005 3366 
L 1005 0 
L 442 0 
z
" transform="scale(0.015625)"/>
       <path id="Archivo-Regular-6d" d="M 442 0 
L 442 3366 
L 896 3366 
L 947 2861 
L 992 2861 
Q 1120 3066 1280 3194 
Q 1440 3322 1632 3382 
Q 1824 3443 2048 3443 
Q 2374 3443 2611 3312 
Q 2848 3181 2963 2861 
L 3002 2861 
Q 3123 3066 3283 3190 
Q 3443 3315 3641 3379 
Q 3840 3443 4064 3443 
Q 4371 3443 4601 3337 
Q 4832 3232 4963 2992 
Q 5094 2752 5094 2349 
L 5094 0 
L 4531 0 
L 4531 2259 
Q 4531 2464 4483 2598 
Q 4435 2733 4345 2806 
Q 4256 2880 4137 2912 
Q 4019 2944 3885 2944 
Q 3661 2944 3472 2829 
Q 3283 2714 3168 2496 
Q 3053 2278 3053 1978 
L 3053 0 
L 2490 0 
L 2490 2259 
Q 2490 2464 2438 2598 
Q 2387 2733 2304 2806 
Q 2221 2880 2102 2912 
Q 1984 2944 1856 2944 
Q 1626 2944 1430 2829 
Q 1235 2714 1120 2496 
Q 1005 2278 1005 1978 
L 1005 0 
L 442 0 
z
" transform="scale(0.015625)"/>
      </defs>
      <use xlink:href="#Archivo-Regular-53"/>
      <use xlink:href="#Archivo-Regular-75" x="67.299988"/>
      <use xlink:href="#Archivo-Regular-72" x="123.499985"/>
      <use xlink:href="#Archivo-Regular-69" x="156.699982"/>
      <use xlink:href="#Archivo-Regular-6d" x="179.199966"/>
      <use xlink:href="#Archivo-Regular-65" x="265.199951"/>
      <use xlink:href="#Archivo-Regular-72" x="319.999939"/>
      <use xlink:href="#Archivo-Regular-6f" x="353.199936"/>
      <use xlink:href="#Archivo-Regular-73" x="410.199921"/>
     </g>
    </g>
    <g id="patch_254">
     <path d="M 311.543438 18.429687 
L 331.543438 18.429687 
L 331.543438 11.429687 
L 311.543438 11.429687 
z
" style="fill: #ff9750"/>
    </g>
    <g id="text_21">
     <!-- Poteros totales -->
     <g transform="translate(339.543438 18.429687) scale(0.1 -0.1)">
      <use xlink:href="#Archivo-Regular-50"/>
      <use xlink:href="#Archivo-Regular-6f" x="66.499985"/>
      <use xlink:href="#Archivo-Regular-74" x="123.499969"/>
      <use xlink:href="#Archivo-Regular-65" x="153.199966"/>
      <use xlink:href="#Archivo-Regular-72" x="207.999954"/>
      <use xlink:href="#Archivo-Regular-6f" x="241.199951"/>
      <use xlink:href="#Archivo-Regular-73" x="298.199936"/>
      <use xlink:href="#Archivo-Regular-20" x="349.199921"/>
      <use xlink:href="#Archivo-Regular-74" x="370.099915"/>
      <use xlink:href="#Archivo-Regular-6f" x="399.799911"/>
      <use xlink:href="#Archivo-Regular-74" x="456.799896"/>
      <use xlink:href="#Archivo-Regular-61" x="486.499893"/>
      <use xlink:href="#Archivo-Regular-6c" x="540.999878"/>
      <use xlink:href="#Archivo-Regular-65" x="563.499863"/>
      <use xlink:href="#Archivo-Regular-73" x="618.29985"/>
     </g>
    </g>
    <g id="patch_255">
     <path d="M 311.543438 32.389062 
L 331.543438 32.389062 
L 331.543438 25.389062 
L 311.543438 25.389062 
z
" style="fill: #9fc1ad"/>
    </g>
    <g id="text_22">
     <!-- Tramperos -->
     <g transform="translate(339.543438 32.389062) scale(0.1 -0.1)">
      <defs>
       <path id="Archivo-Regular-70" d="M 442 -1107 
L 442 3366 
L 890 3366 
L 947 2886 
L 992 2886 
Q 1165 3168 1433 3305 
Q 1702 3443 2042 3443 
Q 2464 3443 2758 3257 
Q 3053 3072 3213 2678 
Q 3373 2285 3373 1658 
Q 3373 1069 3209 681 
Q 3046 294 2752 108 
Q 2458 -77 2067 -77 
Q 1850 -77 1658 -25 
Q 1466 26 1312 138 
Q 1158 250 1043 422 
L 1005 422 
L 1005 -1107 
L 442 -1107 
z
M 1888 416 
Q 2202 416 2400 541 
Q 2598 666 2694 931 
Q 2790 1197 2790 1613 
L 2790 1747 
Q 2790 2189 2688 2454 
Q 2586 2720 2390 2835 
Q 2195 2950 1907 2950 
Q 1594 2950 1392 2812 
Q 1190 2675 1097 2400 
Q 1005 2125 1005 1728 
L 1005 1632 
Q 1005 1280 1072 1046 
Q 1139 813 1264 672 
Q 1389 531 1549 473 
Q 1709 416 1888 416 
z
" transform="scale(0.015625)"/>
      </defs>
      <use xlink:href="#Archivo-Regular-54"/>
      <use xlink:href="#Archivo-Regular-72" x="60.599991"/>
      <use xlink:href="#Archivo-Regular-61" x="93.799988"/>
      <use xlink:href="#Archivo-Regular-6d" x="148.299973"/>
      <use xlink:href="#Archivo-Regular-70" x="234.299957"/>
      <use xlink:href="#Archivo-Regular-65" x="290.999954"/>
      <use xlink:href="#Archivo-Regular-72" x="345.799942"/>
      <use xlink:href="#Archivo-Regular-6f" x="378.999939"/>
      <use xlink:href="#Archivo-Regular-73" x="435.999924"/>
     </g>
    </g>
    <g id="patch_256">
     <path d="M 426.474688 18.429687 
L 446.474688 18.429687 
L 446.474688 11.429687 
L 426.474688 11.429687 
z
" style="fill: #b5e0ea"/>
    </g>
    <g id="text_23">
     <!-- Otras artes -->
     <g transform="translate(454.474688 18.429687) scale(0.1 -0.1)">
      <defs>
       <path id="Archivo-Regular-4f" d="M 2522 -77 
Q 1837 -77 1347 172 
Q 858 422 592 928 
Q 326 1434 326 2195 
Q 326 2963 592 3465 
Q 858 3968 1347 4217 
Q 1837 4467 2522 4467 
Q 3206 4467 3696 4217 
Q 4186 3968 4451 3465 
Q 4717 2963 4717 2195 
Q 4717 1434 4451 928 
Q 4186 422 3696 172 
Q 3206 -77 2522 -77 
z
M 2522 448 
Q 2880 448 3171 544 
Q 3462 640 3664 848 
Q 3866 1056 3974 1373 
Q 4083 1690 4083 2125 
L 4083 2259 
Q 4083 2701 3974 3017 
Q 3866 3334 3664 3542 
Q 3462 3750 3171 3846 
Q 2880 3942 2522 3942 
Q 2157 3942 1869 3846 
Q 1581 3750 1376 3542 
Q 1171 3334 1065 3017 
Q 960 2701 960 2259 
L 960 2125 
Q 960 1690 1065 1373 
Q 1171 1056 1376 848 
Q 1581 640 1869 544 
Q 2157 448 2522 448 
z
" transform="scale(0.015625)"/>
      </defs>
      <use xlink:href="#Archivo-Regular-4f"/>
      <use xlink:href="#Archivo-Regular-74" x="78.799988"/>
      <use xlink:href="#Archivo-Regular-72" x="108.499985"/>
      <use xlink:href="#Archivo-Regular-61" x="141.699982"/>
      <use xlink:href="#Archivo-Regular-73" x="196.199966"/>
      <use xlink:href="#Archivo-Regular-20" x="247.199951"/>
      <use xlink:href="#Archivo-Regular-61" x="268.099945"/>
      <use xlink:href="#Archivo-Regular-72" x="322.59993"/>
      <use xlink:href="#Archivo-Regular-74" x="355.799927"/>
      <use xlink:href="#Archivo-Regular-65" x="385.499924"/>
      <use xlink:href="#Archivo-Regular-73" x="440.299911"/>
     </g>
    </g>
   </g>
  </g>
 </g>
 <defs>
  <clipPath id="p688dfbf21d">
   <rect x="45.705938" y="57.28" width="520.2" height="275.4"/>
  </clipPath>
 </defs>
</svg>
